<?xml version="1.0" standalone="no"?><!DOCTYPE svg PUBLIC "-//W3C//DTD SVG 1.1//EN" "http://www.w3.org/Graphics/SVG/1.1/DTD/svg11.dtd"><svg t="1726205558658" class="icon" viewBox="0 0 2048 1024" version="1.1" xmlns="http://www.w3.org/2000/svg" p-id="16768" xmlns:xlink="http://www.w3.org/1999/xlink" width="400" height="200"><path d="M121.563429 34.962286h1828.571428a73.142857 73.142857 0 0 1 73.142857 73.142857v804.571428a73.142857 73.142857 0 0 1-73.142857 73.142858h-1828.571428a73.142857 73.142857 0 0 1-73.142858-73.142858v-804.571428a73.142857 73.142857 0 0 1 73.142858-73.142857z" fill="#FF0202" p-id="16769"></path><path d="M341.430857 731.428571V260.242286h92.598857L626.834286 574.902857V260.242286H715.337143V731.428571H619.812571L429.787429 424.155429V731.428571H341.430857z m474.404572 0V260.242286h349.403428v79.725714h-254.244571v104.448h236.544V523.702857h-236.544v128.292572h263.314285V731.428571h-358.4z m505.929142 0l-112.493714-471.186285h97.426286l70.948571 323.657143 86.235429-323.657143h113.152l82.578286 329.142857 72.338285-329.142857h95.817143L1713.225143 731.428571h-100.937143L1518.445714 379.172571 1424.822857 731.428571h-103.131428z" fill="#FFFFFF" p-id="16770"></path></svg>