<?xml version="1.0" encoding="UTF-8"?>
<svg width="36px" height="36px" viewBox="0 0 36 36" version="1.1" xmlns="http://www.w3.org/2000/svg"
>
    <title>Icon/查关系 line</title>
    <g id="Icon/查关系-line" stroke="none" stroke-width="1" fill="none" fill-rule="evenodd">
        <rect id="矩形" x="0" y="0" width="36" height="36"></rect>
        <path d="M11,1 C13.7614237,1 16,3.23857625 16,6 C16,6.78912893 15.8171893,7.53556013 15.4916077,8.19925366 L20.937,14.69 L23.8452754,11.782707 C23.3114356,10.987232 23,10.0299858 23,9 C23,6.23857625 25.2385763,4 28,4 C30.7614237,4 33,6.23857625 33,9 C33,11.7614237 30.7614237,14 28,14 C27.3666874,14 26.7608756,13.8822551 26.2032614,13.6674622 L22.873,16.996 L28.1933209,23.3363791 C28.7536731,23.1191491 29.3629221,23 30,23 C32.7614237,23 35,25.2385763 35,28 C35,30.7614237 32.7614237,33 30,33 C27.2385763,33 25,30.7614237 25,28 C25,26.9674033 25.3130165,26.0079156 25.8493393,25.2112469 L20.743,19.126 L12.7120111,27.1581707 C12.8990004,27.7385174 13,28.3574638 13,29 C13,32.3137085 10.3137085,35 7,35 C3.6862915,35 1,32.3137085 1,29 C1,25.900299 3.35052103,23.3495916 6.36638276,23.0330581 L8.59634774,10.3854079 C7.04887204,9.53542807 6,7.89020263 6,6 C6,3.23857625 8.23857625,1 11,1 Z M7,26 C5.34314575,26 4,27.3431458 4,29 C4,30.6568542 5.34314575,32 7,32 C8.65685425,32 10,30.6568542 10,29 C10,27.3431458 8.65685425,26 7,26 Z M30,26 C28.8954305,26 28,26.8954305 28,28 C28,29.1045695 28.8954305,30 30,30 C31.1045695,30 32,29.1045695 32,28 C32,26.8954305 31.1045695,26 30,26 Z M11.53974,10.9712069 L9.33547077,23.4715097 C9.97131094,23.7404475 10.5511431,24.1158747 11.0526094,24.5754338 L18.808,16.819 L13.4067253,10.3837186 C12.8419819,10.6944313 12.2107267,10.8991875 11.53974,10.9712069 Z M28,7 C26.8954305,7 26,7.8954305 26,9 C26,10.1045695 26.8954305,11 28,11 C29.1045695,11 30,10.1045695 30,9 C30,7.8954305 29.1045695,7 28,7 Z M11,4 C9.8954305,4 9,4.8954305 9,6 C9,7.1045695 9.8954305,8 11,8 C12.1045695,8 13,7.1045695 13,6 C13,4.8954305 12.1045695,4 11,4 Z"
              id="形状结合" fill="white"></path>
    </g>
</svg>