<?xml version="1.0" encoding="UTF-8"?>
<svg width="36px" height="36px" viewBox="0 0 36 36" version="1.1" xmlns="http://www.w3.org/2000/svg" xmlns:xlink="http://www.w3.org/1999/xlink">
    <title>Icon/查人物</title>
    <g id="Icon/查人物" stroke="none" stroke-width="1" fill="none" fill-rule="evenodd">
        <rect id="矩形" x="0" y="0" width="36" height="36"></rect>
        <path d="M22,2 C26.418278,2 30,6.25329488 30,11.5 C30,14.3769381 28.9230896,16.9551891 27.2218537,18.6973084 L35,23 L35,32 L28.999615,32 L28.999615,28.999 L32,29 L32,24.7722163 L23.7490997,20.1897706 C23.3028074,19.9318292 23,19.4462768 23,18.89 C23,18.268972 23.3774043,17.7360916 23.9153724,17.5081991 L23.875,17.53 L24.0135217,17.456269 C25.7682971,16.4516766 27,14.1628301 27,11.5 C27,7.91014913 24.7614237,5 22,5 C21.5547711,5 21.123134,5.0756512 20.7122797,5.21760509 C19.8909259,4.43535988 18.9454697,3.79536822 17.910615,3.33323113 C19.1067323,2.4866379 20.5055092,2 22,2 Z" id="形状结合" fill="#0596B3" fill-rule="nonzero"></path>
        <path d="M14,4 C18.418278,4 22,8.25329488 22,13.5 C22,16.3769381 20.9230896,18.9551891 19.2218537,20.6973084 L27,25 L27,34 L1,34 L1,25 L8.77837477,20.6975424 C7.07700686,18.95542 6,16.3770669 6,13.5 C6,8.25329488 9.581722,4 14,4 Z M14,7 C11.2385763,7 9,9.91014913 9,13.5 C9,16.2369917 10.3012659,18.5788784 12.1434016,19.5371452 C12.6500339,19.7756851 13,20.2919731 13,20.89 C13,21.4462768 12.6971926,21.9318292 12.2474181,22.1908168 L4,26.7722163 L4,31 L24,31 L24,26.7722163 L15.7490997,22.1897706 C15.3028074,21.9318292 15,21.4462768 15,20.89 C15,20.268972 15.3774043,19.7360916 15.9153724,19.5081991 L15.875,19.53 L16.0135217,19.456269 C17.7682971,18.4516766 19,16.1628301 19,13.5 C19,9.91014913 16.7614237,7 14,7 Z" id="形状结合" fill="#666666"></path>
    </g>
</svg>