<?xml version="1.0" encoding="UTF-8"?>
<svg width="36px" height="36px" viewBox="0 0 36 36" version="1.1" xmlns="http://www.w3.org/2000/svg"
>
    <title>Icon/多对一触达 line</title>
    <g id="Icon/多对一触达-line" stroke="none" stroke-width="1" fill="none" fill-rule="evenodd">
        <rect id="矩形" x="0" y="0" width="36" height="36"></rect>
        <path d="M7,1 C9.76142375,1 12,3.23857625 12,6 C12,6.60959163 11.8909103,7.193704 11.6911881,7.73387988 L14.5801857,10.6235083 C15.2972154,10.2262069 16.122191,10 17,10 C18.5096874,10 19.8631021,10.6690828 20.7798878,11.7268918 L25.0035398,10.1899036 C25.0011869,10.1268936 25,10.0635854 25,10 C25,7.23857625 27.2385763,5 30,5 C32.7614237,5 35,7.23857625 35,10 C35,12.4825693 33.1907085,14.542556 30.8188015,14.9332839 L28.1011939,25.0776777 C29.2579061,25.993476 30,27.4100753 30,29 C30,31.7614237 27.7614237,34 25,34 C22.2385763,34 20,31.7614237 20,29 C20,27.6958072 20.499332,26.5082396 21.3172474,25.6180458 L18.0141593,19.8970863 C17.6866635,19.964556 17.3474709,20 17,20 C16.5163875,20 16.0488113,19.9313405 15.6064874,19.8032374 L11.4327206,24.9563065 C12.4062597,26.0229012 13,27.4421129 13,29 C13,32.3137085 10.3137085,35 7,35 C3.6862915,35 1,32.3137085 1,29 C1,25.6862915 3.6862915,23 7,23 C7.66604806,23 8.30674841,23.1085265 8.90538229,23.3088607 L13.1001724,18.1293975 C12.4118565,17.2727241 12,16.1844592 12,15 C12,14.2092822 12.1835476,13.4614343 12.5103606,12.7967385 L9.83389935,10.1199089 C9.02844834,10.6749993 8.05217816,11 7,11 C4.23857625,11 2,8.76142375 2,6 C2,3.23857625 4.23857625,1 7,1 Z M7,26 C5.34314575,26 4,27.3431458 4,29 C4,30.6568542 5.34314575,32 7,32 C8.65685425,32 10,30.6568542 10,29 C10,27.3431458 8.65685425,26 7,26 Z M25,27 C23.8954305,27 23,27.8954305 23,29 C23,30.1045695 23.8954305,31 25,31 C26.1045695,31 27,30.1045695 27,29 C27,27.8954305 26.1045695,27 25,27 Z M26.0118937,13.0162531 L21.9738284,14.4852741 C21.9911336,14.6544934 22,14.8262113 22,15 C22,16.3299431 21.4807555,17.5386101 20.6339341,18.4343336 L23.9149524,24.1180575 C24.2643055,24.0407575 24.627393,24 25,24 C25.0943008,24 25.1879918,24.0026106 25.2810048,24.0077634 L27.8275062,14.504636 C27.1102606,14.1580876 26.4883787,13.6452823 26.0118937,13.0162531 Z M17,13 C15.8954305,13 15,13.8954305 15,15 C15,16.1045695 15.8954305,17 17,17 C18.1045695,17 19,16.1045695 19,15 C19,13.8954305 18.1045695,13 17,13 Z M30,8 C28.8954305,8 28,8.8954305 28,10 C28,11.1045695 28.8954305,12 30,12 C31.1045695,12 32,11.1045695 32,10 C32,8.8954305 31.1045695,8 30,8 Z M7,4 C5.8954305,4 5,4.8954305 5,6 C5,7.1045695 5.8954305,8 7,8 C8.1045695,8 9,7.1045695 9,6 C9,4.8954305 8.1045695,4 7,4 Z"
              id="形状结合" fill="white"></path>
    </g>
</svg>