<?xml version="1.0" encoding="UTF-8"?>
<svg width="36px" height="36px" viewBox="0 0 36 36" version="1.1" xmlns="http://www.w3.org/2000/svg" xmlns:xlink="http://www.w3.org/1999/xlink">
    <title>Icon/关联方图谱</title>
    <g id="Icon/关联方图谱" stroke="none" stroke-width="1" fill="none" fill-rule="evenodd">
        <rect id="矩形" x="0" y="0" width="36" height="36"></rect>
        <rect id="矩形" fill="#666666" transform="translate(10.4393, 10.8393) rotate(45) translate(-10.4393, -10.8393)" x="5.93933983" y="9.33933983" width="9" height="3"></rect>
        <rect id="矩形" fill="#666666" transform="translate(12.7929, 23.4858) scale(1, -1) rotate(45) translate(-12.7929, -23.4858)" x="8.79289322" y="21.9857864" width="8" height="3"></rect>
        <rect id="矩形" fill="#666666" transform="translate(26.5566, 10.6881) rotate(45) translate(-26.5566, -10.6881)" x="25.0565712" y="6.68813246" width="3" height="8"></rect>
        <rect id="矩形" fill="#666666" transform="translate(23.5566, 23.6881) scale(1, -1) rotate(45) translate(-23.5566, -23.6881)" x="22.0565712" y="19.6881325" width="3" height="8"></rect>
        <path d="M24,12 C25.1045695,12 26,12.8954305 26,14 L26,20 C26,21.1045695 25.1045695,22 24,22 L12,22 C10.8954305,22 10,21.1045695 10,20 L10,14 C10,12.8954305 10.8954305,12 12,12 L24,12 Z M23,15 L13,15 L13,19 L23,19 L23,15 Z" id="形状结合" fill="#0596B3"></path>
        <path d="M12,1 C13.1045695,1 14,1.8954305 14,3 L14,7 C14,8.1045695 13.1045695,9 12,9 L3,9 C1.8954305,9 1,8.1045695 1,7 L1,3 C1,1.8954305 1.8954305,1 3,1 L12,1 Z M11,4 L4,4 L4,6 L11,6 L11,4 Z" id="形状结合" fill="#0596B3"></path>
        <path d="M33,1 C34.1045695,1 35,1.8954305 35,3 L35,7 C35,8.1045695 34.1045695,9 33,9 L24,9 C22.8954305,9 22,8.1045695 22,7 L22,3 C22,1.8954305 22.8954305,1 24,1 L33,1 Z M32,4 L25,4 L25,6 L32,6 L32,4 Z" id="形状结合" fill="#666666"></path>
        <path d="M33,25 C34.1045695,25 35,25.8954305 35,27 L35,33 C35,34.1045695 34.1045695,35 33,35 L22,35 C20.8954305,35 20,34.1045695 20,33 L20,27 C20,25.8954305 20.8954305,25 22,25 L33,25 Z M32,28 L23,28 L23,32 L32,32 L32,28 Z" id="形状结合" fill="#666666"></path>
        <path d="M14,25 C15.1045695,25 16,25.8954305 16,27 L16,33 C16,34.1045695 15.1045695,35 14,35 L3,35 C1.8954305,35 1,34.1045695 1,33 L1,27 C1,25.8954305 1.8954305,25 3,25 L14,25 Z M13,28 L4,28 L4,32 L13,32 L13,28 Z" id="形状结合" fill="#666666"></path>
    </g>
</svg>