<?xml version="1.0" encoding="UTF-8"?>
<svg width="36px" height="36px" viewBox="0 0 36 36" version="1.1" xmlns="http://www.w3.org/2000/svg" xmlns:xlink="http://www.w3.org/1999/xlink">
    <title>Icon/股权穿透图</title>
    <g id="Icon/股权穿透图" stroke="none" stroke-width="1" fill="none" fill-rule="evenodd">
        <rect id="矩形" x="0" y="0" width="36" height="36"></rect>
        <path d="M24,23 C25.1045695,23 26,23.8954305 26,25 L26,33 C26,34.1045695 25.1045695,35 24,35 L12,35 C10.8954305,35 10,34.1045695 10,33 L10,25 C10,23.8954305 10.8954305,23 12,23 L24,23 Z M23,26 L13,26 L13,32 L23,32 L23,26 Z" id="形状结合" fill="#0596B3" transform="translate(18, 29) scale(1, -1) translate(-18, -29)"></path>
        <path d="M6.5,6 C6.5,5.17157288 7.17157288,4.5 8,4.5 L16.5,4.5 L16.5,1 L19.5,1 L19.5,4.499 L28,4.5 C28.8284271,4.5 29.5,5.17157288 29.5,6 L29.5,11 L33,11 C34.1045695,11 35,11.8954305 35,13 L35,21 C35,22.1045695 34.1045695,23 33,23 L22,23 C20.8954305,23 20,22.1045695 20,21 L20,13 C20,11.8954305 20.8954305,11 22,11 L26.5,11 L26.5,7.499 L9.5,7.5 L9.5,11 L14,11 C15.1045695,11 16,11.8954305 16,13 L16,21 C16,22.1045695 15.1045695,23 14,23 L3,23 C1.8954305,23 1,22.1045695 1,21 L1,13 C1,11.8954305 1.8954305,11 3,11 L6.5,11 L6.5,6 Z M32,14 L23,14 L23,20 L32,20 L32,14 Z M13,14 L4,14 L4,20 L13,20 L13,14 Z" id="形状结合" fill="#666666" transform="translate(18, 12) scale(1, -1) translate(-18, -12)"></path>
    </g>
</svg>