<?xml version="1.0" encoding="UTF-8"?>
<svg width="36px" height="36px" viewBox="0 0 36 36" version="1.1" xmlns="http://www.w3.org/2000/svg"
>
    <title>Icon/企业图谱平台 line</title>
    <g id="Icon/企业图谱平台-line" stroke="none" stroke-width="1" fill="none" fill-rule="evenodd">
        <path d="M30,5 C32.7614237,5 35,7.23857625 35,10 C35,12.7614237 32.7614237,15 30,15 C28.6396952,15 27.4062669,14.4567769 26.5048117,13.5754271 L23.7199768,15.1830805 C23.9018671,15.7562165 24,16.3666482 24,17 C24,19.3477387 22.6515835,21.3805378 20.6869616,22.3661865 L21.4578426,26.0001934 L21.5,26 C23.9852814,26 26,28.0147186 26,30.5 C26,32.9852814 23.9852814,35 21.5,35 C19.0147186,35 17,32.9852814 17,30.5 C17,29.1132271 17.6272981,27.8729675 18.6136191,27.0474964 L17.7519782,22.9949669 C14.5532822,22.8649078 12,20.2306294 12,17 C12,16.5230268 12.0556561,16.0590528 12.1608282,15.6142179 L8.02384029,13.226157 C7.30409885,13.7146111 6.4353775,14 5.5,14 C3.01471863,14 1,11.9852814 1,9.5 C1,7.01471863 3.01471863,5 5.5,5 C7.98528137,5 10,7.01471863 10,9.5 C10,9.94947357 9.9341021,10.3835559 9.81144063,10.7931125 L13.5645652,12.9592821 C14.6619037,11.7554424 16.2427303,11 18,11 C19.596605,11 21.0475559,11.6236192 22.1225605,12.6405654 L25.0861646,10.929117 C25.0295907,10.628061 25,10.3174861 25,10 C25,7.23857625 27.2385763,5 30,5 Z M2.11726892,15.051112 C2.98022863,15.578238 3.97415077,15.9092557 5.03878363,15.9838897 L5.03149143,16.0847372 C5.01046189,16.3870939 4.99977155,16.6922985 4.99977155,17 C4.99977155,23.1664948 9.2932489,28.3301943 15.0539061,29.6648008 C15.0181055,29.9379191 15,30.2168452 15,30.5 C15,31.3067928 15.1469895,32.0792543 15.4156495,32.7920655 C7.80797636,31.5571903 1.99977155,24.9568846 1.99977155,17 C1.99977155,16.3402836 2.03969889,15.6898927 2.11726892,15.051112 Z M21.5,29 C20.6715729,29 20,29.6715729 20,30.5 C20,31.3284271 20.6715729,32 21.5,32 C22.3284271,32 23,31.3284271 23,30.5 C23,29.6715729 22.3284271,29 21.5,29 Z M33.9539267,15.7771753 C33.9842276,16.1803784 33.9997716,16.5883739 33.9997716,17 C33.9997716,22.0851361 31.6275188,26.6162029 27.9293157,29.5468979 C27.771533,28.4661742 27.347542,27.4733857 26.7267137,26.6351767 C29.3511852,24.2571736 30.9997716,20.8211108 30.9997716,17 L30.9992189,16.9292228 C32.084253,16.7741458 33.0890393,16.3702463 33.9539267,15.7771753 Z M18,14 C16.3431458,14 15,15.3431458 15,17 C15,18.6568542 16.3431458,20 18,20 C19.6568542,20 21,18.6568542 21,17 C21,15.3431458 19.6568542,14 18,14 Z M30,8 C28.8954305,8 28,8.8954305 28,10 C28,11.1045695 28.8954305,12 30,12 C31.1045695,12 32,11.1045695 32,10 C32,8.8954305 31.1045695,8 30,8 Z M5.5,8 C4.67157288,8 4,8.67157288 4,9.5 C4,10.3284271 4.67157288,11 5.5,11 C6.32842712,11 7,10.3284271 7,9.5 C7,8.67157288 6.32842712,8 5.5,8 Z M17.9997716,1 C21.301575,1 24.3697847,2.00013412 26.9179806,3.71398247 C25.953288,4.18720774 25.1141164,4.87604875 24.4624592,5.71744088 C22.5587882,4.62486258 20.3522521,4 17.9997716,4 C15.4240535,4 13.0232929,4.74908148 11.0034566,6.04127741 C10.4530953,5.16585085 9.69900954,4.43134362 8.80802407,3.90355147 C11.407543,2.07398424 14.578236,1 17.9997716,1 Z"
              id="形状结合" fill="white"></path>
        <rect id="矩形" x="0" y="0" width="36" height="36"></rect>
    </g>
</svg>