<?xml version="1.0" encoding="UTF-8"?>
<svg width="18px" height="18px" viewBox="0 0 18 18" version="1.1" xmlns="http://www.w3.org/2000/svg" xmlns:xlink="http://www.w3.org/1999/xlink">
    <title>RimeIcon/Colored/Menu/SuperList</title>
    <g id="RimeIcon/Colored/Menu/SuperList" stroke="none" stroke-width="1" fill="none" fill-rule="evenodd">
        <path d="M15.5,0.5 L15.5,7 L14,7 L14,2 L2,2 L2,16 L8,16 L8,17.5 L0.5,17.5 L0.5,0.5 L15.5,0.5 Z M8.5,6.49355469 L8.5,7.99355469 L3.5,7.99355469 L3.5,6.49355469 L8.5,6.49355469 Z M12.585561,3.49045891 L12.585561,4.99045891 L3.5,4.99045891 L3.5,3.49045891 L12.585561,3.49045891 Z" id="形状" fill="#666666"></path>
        <path d="M12.25,7.5 C14.8733526,7.5 17,9.62664744 17,12.25 C17,13.2905189 16.6654338,14.2528957 16.0980086,15.035423 L17.2935395,16.2289781 C17.5681266,16.5029886 17.5857265,16.937045 17.3460244,17.231568 L17.2935395,17.2896377 C17.165494,17.4176832 17.0026568,17.4897566 16.835445,17.5058417 L16.7636036,17.5093077 C16.5717853,17.5094083 16.3799286,17.4363787 16.2334371,17.2901948 L15.0374433,16.0965428 C14.3006048,16.6314273 13.4041012,16.9597647 12.4329457,16.9965418 L12.25,17 C9.62664744,17 7.5,14.8733526 7.5,12.25 C7.5,9.67187766 9.55394695,7.57348032 12.1147607,7.50188818 L12.25,7.5 Z M12.25,9 C10.4550746,9 9,10.4550746 9,12.25 C9,14.0449254 10.4550746,15.5 12.25,15.5 L12.4298088,15.4951352 L12.565037,15.485 L12.6968835,15.469667 L12.8371257,15.4471218 L12.9796362,15.4180472 L13.1399586,15.3770442 L13.2571536,15.3409808 L13.4288863,15.2800858 L13.5280907,15.2395477 L13.6651833,15.1765318 L13.762967,15.1270991 L13.8588246,15.0745029 L14.0366776,14.9654768 L14.1562616,14.882657 L14.5775,14.5765 L14.8984208,14.1341535 C15.045724,13.9274719 15.1694376,13.702815 15.2656317,13.4641126 L15.2818903,13.4229558 C15.313223,13.3428509 15.3411346,13.26147 15.3657009,13.1789553 L15.4028449,13.0418829 L15.4282082,12.9325414 L15.4498582,12.8218238 L15.4677259,12.7097989 C15.4889975,12.5595912 15.5,12.4060805 15.5,12.25 C15.5,10.4550746 14.0449254,9 12.25,9 Z M13.3958936,10.2188943 L12.6515722,11.8127273 L14.1966439,11.8127273 L11.0329193,14.6183522 L12.131955,12.5612754 L10.6719986,12.5612754 L11.9019189,10.2188943 L13.3958936,10.2188943 Z" id="形状" fill="#0596B3" fill-rule="nonzero"></path>
    </g>
</svg>