<?xml version="1.0" encoding="UTF-8"?>
<svg width="36px" height="36px" viewBox="0 0 36 36" version="1.1" xmlns="http://www.w3.org/2000/svg" xmlns:xlink="http://www.w3.org/1999/xlink">
    <title>Icon/企业动态 line</title>
    <g id="Icon/企业动态-line" stroke="none" stroke-width="1" fill="none" fill-rule="evenodd">
        <rect id="矩形" x="0" y="0" width="36" height="36"></rect>
        <path d="M32,1 C33.1045695,1 34,1.8954305 34,3 L34,32.9984025 C34,34.102972 33.1045695,34.9984025 32,34.9984025 C31.7356172,34.9984025 31.4738579,34.9459837 31.2298622,34.8441781 L18.7701378,29.6454397 C18.2773021,29.4398072 17.7226979,29.4398072 17.2298622,29.6454397 L4.77013781,34.8441781 C3.75074407,35.2695135 2.57955972,34.787934 2.15422435,33.7685403 C2.05241874,33.5245446 2,33.2627853 2,32.9984025 L2,3 C2,1.8954305 2.8954305,1 4,1 L32,1 Z M31,4 L5,4 L5,31.497 L16.0746555,26.8767762 C17.2246054,26.3969671 18.5090735,26.3649798 19.6769592,26.7808144 L19.9253445,26.8767762 L31,31.497 L31,4 Z M19.2060521,6.7211633 C19.3531828,6.83238466 19.4842216,6.96342345 19.595443,7.11055418 L21.3380112,9.415735 C21.5770917,9.7320061 21.9047778,9.97008395 22.2794494,10.0997299 L25.0102899,11.0446707 C26.054134,11.4058676 26.607529,12.5448783 26.2463322,13.5887225 C26.1860203,13.7630214 26.1018882,13.9281399 25.9963279,14.0793836 L24.3424538,16.4490045 C24.1155421,16.7741168 23.9903771,17.1593348 23.9828564,17.5557315 L23.9280404,20.4449179 C23.9070874,21.5492886 22.9948322,22.4275722 21.8904615,22.4066192 C21.7060559,22.4031205 21.5230207,22.3741306 21.3465594,22.3204736 L18.5818408,21.479799 C18.2025211,21.3644584 17.7974789,21.3644584 17.4181592,21.479799 L14.6534406,22.3204736 C13.5966468,22.6418154 12.4794471,22.0456138 12.1581052,20.9888199 C12.1044482,20.8123587 12.0754583,20.6293234 12.0719596,20.4449179 L12.0171436,17.5557315 C12.0096229,17.1593348 11.8844579,16.7741168 11.6575462,16.4490045 L10.0036721,14.0793836 C9.37149065,13.173613 9.59327843,11.9268565 10.499049,11.2946751 C10.6502927,11.1891147 10.8154112,11.1049826 10.9897101,11.0446707 L13.7205506,10.0997299 C14.0952222,9.97008395 14.4229083,9.7320061 14.6619888,9.415735 L16.404557,7.11055418 C17.0706412,6.22941535 18.3249133,6.05507912 19.2060521,6.7211633 Z M18,9.974 L17.0551533,11.2248132 C16.5117884,11.9436111 15.7853543,12.5008528 14.9540251,12.8397413 L14.7015576,12.9348005 L13.22,13.447 L14.1176103,14.7320057 C14.6333187,15.4708973 14.9388066,16.3339743 15.0042139,17.2293377 L15.0166038,17.4988234 L15.046,19.065 L16.5453979,18.6095573 C17.3988673,18.3500408 18.3044247,18.3240891 19.1683117,18.5317023 L19.4546021,18.6095573 L20.953,19.065 L20.9833962,17.4988234 C21.0004888,16.5979217 21.2606479,15.7201165 21.7340137,14.9573068 L21.8823897,14.7320057 L22.779,13.447 L21.2984424,12.9348005 C20.4469159,12.6401505 19.6924671,12.1214678 19.1132701,11.4355491 L18.9448467,11.2248132 L18,9.974 Z" id="形状结合" fill="#333333" fill-rule="nonzero"></path>
    </g>
</svg>