<?xml version="1.0" encoding="UTF-8"?>
<svg width="36px" height="36px" viewBox="0 0 36 36" version="1.1" xmlns="http://www.w3.org/2000/svg" xmlns:xlink="http://www.w3.org/1999/xlink">
    <title>Icon/供应链探索 line</title>
    <g id="Icon/供应链探索-line" stroke="none" stroke-width="1" fill="none" fill-rule="evenodd">
        <rect id="矩形" x="0" y="0" width="36" height="36"></rect>
        <path d="M18,1 L27.041,5.787 L28.5,6.51686146 L28.46,6.537 L35,10 L35,28 L18,35 L1,28 L1,10 L18,1 Z M4,14.4767029 L4,25.9918289 L16.5048498,31.1379455 L16.5048498,19.649319 L11.5,17.579 L11.5,21.948566 C11.5,22.7769931 10.8284271,23.448566 10,23.448566 C9.17157288,23.448566 8.5,22.7769931 8.5,21.948566 L8.5,16.338 L4,14.4767029 Z M32.0048498,14.4767029 L19.5,19.649319 L19.5,31.1379455 L32.0048498,25.9918289 L32.0048498,14.4767029 Z M25.303,8.261 L13.032,14.962 L18,17 L31.32968,11.4599912 L25.303,8.261 Z M18,4.38601703 L4.49406667,11.4599912 L10.087,13.754 L22.836,6.952 L18,4.38601703 Z" id="形状结合" fill="#333333"></path>
    </g>
</svg>