<?xml version="1.0" encoding="UTF-8"?>
<svg width="36px" height="36px" viewBox="0 0 36 36" version="1.1" xmlns="http://www.w3.org/2000/svg" xmlns:xlink="http://www.w3.org/1999/xlink">
    <title>Icon/发债企业 line</title>
    <g id="Icon/发债企业-line" stroke="none" stroke-width="1" fill="none" fill-rule="evenodd">
        <rect id="矩形" x="0" y="0" width="36" height="36"></rect>
        <path d="M1,24 C2.6568542,24 4,22.6568542 4,21 C4,19.3431458 2.6568542,18 1,18 L1,10 C1,8.8954305 1.8954305,8 3,8 L33,8 C34.1045695,8 35,8.8954305 35,10 L35,18 C33.3431458,18 32,19.3431458 32,21 C32,22.6568542 33.3431458,24 35,24 L35,32 C35,33.1045695 34.1045695,34 33,34 L3,34 C1.8954305,34 1,33.1045695 1,32 L1,24 Z M32,11 L4,11 L4.00096298,15.8032504 C5.793836,16.8408157 7,18.7795505 7,21 C7,23.2204495 5.793836,25.1591843 4.00096298,26.1967496 L4,31 L32,31 L32.0000394,26.1973296 C30.2066136,25.1599069 29,23.2208633 29,21 C29,18.7791367 30.2066136,16.8400931 32.0000394,15.8026704 L32,11 Z M28,25 L28,28 L8,28 L8,25 L28,25 Z M25.6252814,12.8263425 L27.7466017,14.9476629 L20.722,21.971 L18.603961,24.0952814 L14.361,19.852 L10.1213203,24.0925397 L8,21.9712193 L12.9497475,17.0214719 L14.3613203,15.61 L18.601,19.849 L25.6252814,12.8263425 Z M5,5 L31,5 C31.5522847,5 32,5.44771525 32,6 L32,7 L32,7 L4,7 L4,6 C4,5.44771525 4.44771525,5 5,5 Z M8,2 L28,2 C28.5522847,2 29,2.44771525 29,3 L29,4 L29,4 L7,4 L7,3 C7,2.44771525 7.44771525,2 8,2 Z" id="形状结合" fill="#333333"></path>
    </g>
</svg>