<?xml version="1.0" encoding="UTF-8"?>
<svg width="36px" height="36px" viewBox="0 0 36 36" version="1.1" xmlns="http://www.w3.org/2000/svg" xmlns:xlink="http://www.w3.org/1999/xlink">
    <title>Icon/查专利 line</title>
    <g id="Icon/查专利-line" stroke="none" stroke-width="1" fill="none" fill-rule="evenodd">
        <rect id="矩形" x="0" y="0" width="36" height="36"></rect>
        <path d="M17.9997716,1 C27.3886123,1 34.9997716,8.61115925 34.9997716,18 C34.9997716,27.3888407 27.3886123,35 17.9997716,35 C8.6109308,35 0.999771551,27.3888407 0.999771551,18 C0.999771551,8.61115925 8.6109308,1 17.9997716,1 Z M17.9997716,4 C10.2677851,4 3.99977155,10.2680135 3.99977155,18 C3.99977155,25.7319865 10.2677851,32 17.9997716,32 C25.731758,32 31.9997716,25.7319865 31.9997716,18 C31.9997716,10.2680135 25.731758,4 17.9997716,4 Z M17.3125,9.8203125 C19.421875,9.8203125 20.796875,9.90625 21.4375,10.078125 C22.421875,10.3359375 23.2460938,10.8964844 23.9101562,11.7597656 C24.5742188,12.6230469 24.90625,13.7382812 24.90625,15.1054688 C24.90625,16.1601562 24.7148438,17.046875 24.3320312,17.765625 C23.9492188,18.484375 23.4628906,19.0488281 22.8730469,19.4589844 C22.2832031,19.8691406 21.6835938,20.140625 21.0742188,20.2734375 C20.2460938,20.4375 19.046875,20.5195312 17.4765625,20.5195312 L15.2148438,20.5195312 L15.2148438,27 L11.7460938,27 L11.7460938,9.8203125 L17.3125,9.8203125 Z M16.890625,12.7265625 L15.2148438,12.7265625 L15.2148438,17.6015625 L17.1132812,17.6015625 C18.4804688,17.6015625 19.3945312,17.5117188 19.8554688,17.3320312 C20.3164062,17.1523438 20.6777344,16.8710938 20.9394531,16.4882812 C21.2011719,16.1054688 21.3320312,15.6601562 21.3320312,15.1523438 C21.3320312,14.5273438 21.1484375,14.0117188 20.78125,13.6054688 C20.4140625,13.1992188 19.9492188,12.9453125 19.3867188,12.84375 C18.9726562,12.765625 18.140625,12.7265625 16.890625,12.7265625 Z" id="形状结合" fill="#333333"></path>
    </g>
</svg>