<?xml version="1.0" encoding="UTF-8"?>
<svg width="36px" height="36px" viewBox="0 0 36 36" version="1.1" xmlns="http://www.w3.org/2000/svg" xmlns:xlink="http://www.w3.org/1999/xlink">
    <title>Icon/金融机构 line</title>
    <g id="Icon/金融机构-line" stroke="none" stroke-width="1" fill="none" fill-rule="evenodd">
        <rect id="矩形" x="0" y="0" width="36" height="36"></rect>
        <path d="M3,32 L33,32 L33,35 L3,35 Z M6,18 L9,18 L9,31 L6,31 Z M13,18 L16,18 L16,31 L13,31 Z M20,18 L23,18 L23,31 L20,31 Z M27,18 L30,18 L30,31 L27,31 Z M18,1 L35,14 L35,17 L1,17 L1,14 L18,1 Z M18,5 L6,14 L30,14 L18,5 Z" id="形状结合" fill="#333333"></path>
    </g>
</svg>