<svg viewBox="0 0 18 18" focusable="false" class="" data-icon="edit" width="18px" height="18px"
    fill="#707680" aria-hidden="true" version="1.1" xmlns="http://www.w3.org/2000/svg"
    xmlns:xlink="http://www.w3.org/1999/xlink">
    <path
        d="M15.9 14.9c.11 0 .2.09.2.2v.8a.2.2 0 01-.2.2H2.1a.2.2 0 01-.2-.2v-.8c0-.11.09-.2.2-.2h13.8zM14.02 2.03L16 4.01a.2.2 0 010 .29l-8.39 8.38a.2.2 0 01-.14.06l-2.16.16a.2.2 0 01-.2-.2l.18-2.14c0-.05.02-.1.06-.14l8.39-8.39a.2.2 0 01.28 0zm-.14 1.56l-7.39 7.38-.18.73.75-.16 7.38-7.39-.56-.56z"
        fill-rule="nonzero"></path>
</svg>