<?xml version="1.0" encoding="UTF-8"?>
<svg width="36px" height="36px" viewBox="0 0 36 36" version="1.1" xmlns="http://www.w3.org/2000/svg"
    xmlns:xlink="http://www.w3.org/1999/xlink">
    <title>Icon/点赞</title>
    <defs>
        <linearGradient id="wicon-svg-effect-alice-hover" x1="0%" y1="0%" x2="100%" y2="85%">
            <stop offset="0%" stop-color="#5879fb" />
            <stop offset="85%" stop-color="#3ec0d3" />
        </linearGradient>
    </defs>
    <g id="Icon/点赞" stroke="none" stroke-width="1" fill="none" fill-rule="evenodd">
        <rect id="矩形" x="0" y="0" width="36" height="36"></rect>
        <path
            d="M34.36,14.9916441 C33.6191166,13.784327 32.3477081,13.031617 31.0303095,12.9918699 L23.5,12.9521229 C24.0446229,11.3597561 24.2,9.70031617 24.2,8.02100271 C24.2,7.18631436 24.1570084,6.33175248 24,5.41011743 L23.9,4.74435411 C23.4657736,2.83649503 21.5558339,1 19.2767589,1 C16.9976839,1 15.2692784,3.24815176 15.2692784,5.55844986 C15.2692784,5.69259621 15.2692784,5.81407271 15.2692784,5.93356278 C15.1821038,9.09798696 11.9912138,13.3181649 10.2814122,14.2087473 C9.6029761,14.3904697 8.8984398,14.3879855 8.52168359,14.3879855 L2.45232769,14.3904697 C1.65992593,14.3904697 1.01471954,15.0462963 1.01471954,15.8486902 L1,33.0392954 C1,33.8541102 1.69672477,34.447832 2.57008399,34.4726739 L7.82986534,34.4627371 L8.03103235,34.5 L8.2076668,34.4751581 L28.2262376,34.4826107 C28.9303222,34.4329268 29.6098741,34.2118338 30.1986556,33.8317525 C30.8365022,33.4168925 31.351686,32.8331075 31.5847454,32.3188799 L31.830071,31.9065041 C32.0711689,31.3252643 32.3215691,30.5342852 32.571013,29.6223966 C33.7480262,25.3196059 34.8933208,18.324802 34.95,17.9701897 L34.99,17.5578139 C35.0586912,16.6436314 34.8310252,15.7567751 34.36,14.9916441 Z M4,17.39 L7,17.39 L7,31.47 L4,31.47 L4,17.39 Z M29.5,30.26 L29.4,30.51 C29.2601644,30.795682 29.1363957,31.041075 28.8763505,31.21 C28.6383847,31.3640199 28.3562602,31.4550949 28.1428269,31.47 L10,31.47 L10,17.39 C13.235845,16.7515628 17.8626177,11.1038844 18,5.94173442 L18,5.68834688 C18,4.74932249 18.4726691,4 19.4,4 C20.1874952,4 20.7364464,4.52574526 20.9130808,5.3032972 L21.0504631,5.89453478 C21.1706727,6.60749774 21.2295509,7.3204607 21.2295509,8.01603433 C21.2295509,9.4270551 20.90727,10.7826753 20.5352793,12.1546974 C20.29306,13.048081 19.916894,14.3531819 19.4067815,16.07 L30.5789103,16.07 L30.843862,16.07 C31.43755,16.0923577 31.7459839,16.4570679 31.9,16.95 C32.0540161,17.4429321 32.0294391,17.6261518 32,18.2 C31.9705609,18.7738482 30.6922825,27.3510117 29.5,30.26 Z"
            id="形状" fill="#999999" fill-rule="nonzero"></path>
    </g>
</svg>