<svg t="1744857258127" class="icon" viewBox="0 0 1024 1024" version="1.1" xmlns="http://www.w3.org/2000/svg" p-id="26020" xmlns:xlink="http://www.w3.org/1999/xlink" width="200" height="200">
    <defs>
        <linearGradient id="myGradient" x1="0%" y1="0%" x2="100%" y2="100%">
            <stop offset="0%" stop-color="#3862ed" />
            <stop offset="29%" stop-color="#274cda" />
            <stop offset="62%" stop-color="#00aec7" />
            <stop offset="76%" stop-color="#12cbbe" />
            <stop offset="100%" stop-color="#9d9ae3" />
        </linearGradient>
    </defs>
    <path d="M841.728 530.8416q3.9936-67.3792-18.8416-129.4336t-64.6144-107.9296-101.1712-74.9568-126.2592-32.768q-66.2528-3.9936-128.8192 18.2272t-109.7728 63.1808-77.1072 99.9424-33.9968 126.0544Q177.152 560.5376 199.9872 622.592t64.6144 107.9296 101.376 74.9568 126.5664 32.768q88.576 5.2224 167.424-33.6896t128-111.7184T841.728 530.8416zM1024 0L824.5248 198.8608q68.608 66.8672 103.2192 155.4432t28.8768 183.3984q-6.3488 104.5504-58.368 193.7408T760.5248 877.4656t-189.6448 71.0656L0 1024l198.2464-198.2464q-68.5056-66.3552-103.1168-155.136T66.2528 486.8096q6.3488-105.0624 58.368-194.2528t137.9328-146.0224T452.608 75.4688q95.4368-12.5952 285.696-37.7856T1024 0z" p-id="26021" fill="url(#myGradient)" />
</svg>
    