<?xml version="1.0" encoding="UTF-8"?><svg version="1.1" width="57px" height="22px" viewBox="0 0 57.0 22.0" xmlns="http://www.w3.org/2000/svg" xmlns:xlink="http://www.w3.org/1999/xlink"><defs><clipPath id="i0"><path d="M1920,0 L1920,1040 L0,1040 L0,0 L1920,0 Z"></path></clipPath><clipPath id="i1"><path d="M57,0 L57,22 L0,22 L0,0 L57,0 Z"></path></clipPath><clipPath id="i2"><path d="M4.69640896,0 L4.86413785,0.769579619 L8.24831489,0.769579619 L8.24831489,2.7527271 L7.1728767,2.7527271 L7.1728767,5.16999641 L2.26927324,5.16999641 L2.26927324,5.65345028 L7.42940324,5.65345028 L7.42940324,8.68243673 L1.00637335,8.68243673 L1.00637335,2.7527271 L0,2.7527271 L0,0.769579619 L3.51244031,0.769579619 L3.34471142,0.0591984322 L4.69640896,0 Z M6.16650336,6.71902206 L2.26927324,6.71902206 L2.26927324,7.62673135 L6.16650336,7.62673135 L6.16650336,6.71902206 Z M5.89024401,3.52230672 L2.26927324,3.52230672 L2.26927324,4.08469182 L5.89024401,4.08469182 L5.89024401,3.52230672 Z M6.93608298,1.91408264 L1.32209832,1.91408264 L1.32209832,2.45673494 L6.93608298,2.45673494 L6.93608298,1.91408264 Z"></path></clipPath><clipPath id="i3"><path d="M5.00226752,0 L5.23906125,1.1050374 L8.6429711,1.1050374 L8.6429711,2.33833807 L3.83803169,2.33833807 C3.83145409,2.48304535 3.82652088,2.63761904 3.82323208,2.80205913 C3.81994328,2.96649921 3.81172127,3.14080571 3.79856607,3.32497861 L7.68592978,3.32497861 C7.67935218,3.38417704 7.67113018,3.51079591 7.66126377,3.70483522 C7.65139736,3.89887452 7.63824216,4.12580185 7.62179815,4.38561719 C7.60535414,4.64543253 7.58726573,4.92004748 7.56753292,5.20946204 C7.54780011,5.49887659 7.5297117,5.77349154 7.51326769,6.03330688 C7.49682368,6.29312223 7.48202407,6.51840515 7.46886887,6.70915565 C7.45571366,6.89990616 7.44584725,7.02488062 7.43926965,7.08407906 C7.41295923,7.39980403 7.36198281,7.65468617 7.28634037,7.84872547 C7.21069792,8.04276478 7.10052306,8.19733846 6.95581579,8.31244652 C6.81110851,8.42755459 6.62693561,8.51141903 6.40329709,8.56403986 C6.17965856,8.61666069 5.90997682,8.65612631 5.59425184,8.68243673 L4.66680974,8.75150156 L4.26228712,7.51820089 L5.1403972,7.45900246 C5.34430291,7.44584725 5.5136762,7.42611444 5.64851707,7.39980403 C5.78335795,7.37349361 5.88859961,7.33238359 5.96424205,7.27647396 C6.03988449,7.22056433 6.09414972,7.14327749 6.12703773,7.04461343 C6.15992575,6.94594938 6.17965856,6.81439731 6.18623617,6.64995722 C6.18623617,6.6170692 6.19116937,6.54635996 6.20103578,6.4378295 C6.21090218,6.32929904 6.22076859,6.20268018 6.23063499,6.0579729 C6.2405014,5.91326562 6.2520122,5.76033634 6.26516741,5.59918505 C6.27832262,5.43803376 6.28983342,5.28510448 6.29969983,5.1403972 C6.30956623,4.99568992 6.31778824,4.86907105 6.32436584,4.76054059 C6.33094345,4.65201013 6.33752105,4.58130089 6.34409865,4.54841288 L3.69003561,4.54841288 C3.62425957,5.00884513 3.52559552,5.43310056 3.39404345,5.82117917 C3.26249138,6.20925778 3.08654048,6.58089238 2.86619076,6.93608298 C2.64584104,7.29127357 2.37615929,7.63988656 2.05714552,7.98192194 C1.73813175,8.32395733 1.35827514,8.67257032 0.917575699,9.02776091 L0,7.99178835 C0.460432251,7.64317536 0.84522206,7.30936198 1.15436943,6.9903482 C1.4635168,6.67133443 1.71182133,6.33094345 1.89928303,5.96917525 C2.08674474,5.60740705 2.22816321,5.20946204 2.32353846,4.7753402 C2.41891372,4.34121836 2.48633415,3.83145409 2.52579977,3.24604737 C2.53895498,3.10791769 2.54882139,2.95992161 2.55539899,2.80205913 C2.56197659,2.64419664 2.5685542,2.48962296 2.5751318,2.33833807 L0.394656215,2.33833807 L0.394656215,1.1050374 L3.89723012,1.1050374 L3.65056999,0.0690648376 L5.00226752,0 Z"></path></clipPath><clipPath id="i4"><path d="M2.77245991,0 L3.97616136,0.365056999 C3.91696293,0.470298656 3.84460929,0.585406719 3.75910045,0.710381187 L7.83392586,0.710381187 L7.83392586,1.91408264 C7.51820089,2.15745397 7.19754272,2.3893145 6.87195134,2.60966422 C6.54635996,2.83001394 6.19939137,3.04214166 5.83104557,3.24604737 C6.2454346,3.37759944 6.70422245,3.4943519 7.20740912,3.59630476 C7.7105958,3.69825761 8.2713365,3.79527727 8.88963124,3.88736372 L8.48510862,5.07133236 C8.36671175,5.05159955 8.24995929,5.03022234 8.13485123,5.00720073 C8.01974316,4.98417911 7.9062795,4.9628019 7.79446024,4.94306909 L7.79446024,8.84029921 L1.1050374,8.84029921 L1.1050374,4.9529355 C0.986640537,4.97924591 0.868243673,5.00391192 0.749846808,5.02693354 C0.631449944,5.04995515 0.509764277,5.07133236 0.384789809,5.09106517 L0,3.96629496 C0.578829115,3.8610533 1.12148141,3.74430084 1.62795689,3.61603757 C2.13443236,3.4877743 2.61130862,3.34800022 3.05858566,3.19671534 C2.90730078,3.09147368 2.7625935,2.98129882 2.62446383,2.86619076 C2.48633415,2.7510827 2.35149328,2.63104143 2.21994121,2.50606696 C2.05550112,2.65735185 1.88283902,2.80534793 1.70195493,2.95005521 C1.52107083,3.09476248 1.32538712,3.23946976 1.11490381,3.38417704 L0.315724972,2.50606696 C0.591984322,2.30873886 0.855088465,2.10154434 1.1050374,1.88448343 C1.35498634,1.66742251 1.58355806,1.44871719 1.79075257,1.22836747 C1.99794709,1.00801775 2.18376439,0.792601231 2.34820448,0.582117917 C2.51264457,0.371634602 2.65406304,0.177595297 2.77245991,0 Z M3.87749731,7.18274311 L2.28900605,7.18274311 L2.28900605,7.82405946 L3.87749731,7.82405946 L3.87749731,7.18274311 Z M6.59075879,7.18274311 L5.02200033,7.18274311 L5.02200033,7.82405946 L6.59075879,7.82405946 L6.59075879,7.18274311 Z M3.87749731,5.63371747 L2.28900605,5.63371747 L2.28900605,6.2454346 L3.87749731,6.2454346 L3.87749731,5.63371747 Z M6.59075879,5.63371747 L5.02200033,5.63371747 L5.02200033,6.2454346 L6.59075879,6.2454346 L6.59075879,5.63371747 Z M4.39055039,3.94656215 C4.05509261,4.08469182 3.71141282,4.21295509 3.35951103,4.33135196 C3.00760924,4.44974882 2.63433023,4.56485688 2.23967402,4.67667615 L6.60062519,4.67667615 C5.75869193,4.47277043 5.02200033,4.2293991 4.39055039,3.94656215 Z M6.0678393,1.80555218 L3.19671534,1.80555218 C3.38088824,1.97656988 3.57328314,2.13278796 3.77390005,2.27420644 C3.97451696,2.41562491 4.19322228,2.54882139 4.43001601,2.67379586 C5.07462116,2.3843813 5.62056226,2.09496674 6.0678393,1.80555218 Z"></path></clipPath><clipPath id="i5"><path d="M3.82816528,5.1403972 L5.06146595,5.17986282 L5.06146595,5.7027823 L8.43577659,5.7027823 L8.43577659,6.66969003 L5.89024401,6.66969003 C6.25858981,6.88017334 6.68120084,7.07421265 7.1580771,7.25180795 C7.63495336,7.42940324 8.20884927,7.60042094 8.87976483,7.76486103 L8.41604378,8.80083359 C8.05427558,8.68243673 7.7188178,8.56403986 7.40967043,8.445643 C7.10052306,8.32724613 6.80946411,8.20556047 6.53649356,8.080586 C6.26352301,7.95561153 6.00535207,7.82570386 5.76198074,7.69086299 C5.5186094,7.55602211 5.28510448,7.41295923 5.06146595,7.26167435 L5.06146595,8.91923045 L3.82816528,8.91923045 L3.82816528,7.24194154 C3.38088824,7.55766651 2.89085677,7.84543667 2.35807088,8.10525201 C1.82528499,8.36506735 1.19712385,8.61994949 0.473587458,8.86989843 L0,7.75499462 C0.342035386,7.66948577 0.656115957,7.58562133 0.942241713,7.50340128 C1.22836747,7.42118124 1.49147161,7.33567239 1.73155414,7.24687474 C1.97163667,7.1580771 2.19527519,7.06599065 2.40246971,6.97061539 C2.60966422,6.87524014 2.80205913,6.77493169 2.97965442,6.66969003 L0.483453863,6.66969003 L0.483453863,5.7027823 L3.82816528,5.7027823 L3.82816528,5.1403972 Z M3.18684893,1.71675453 L4.32148555,2.0226131 C4.28201993,2.08181153 4.23926551,2.14429877 4.19322228,2.2100748 C4.14717906,2.27585084 4.10113583,2.34491568 4.05509261,2.41726932 L8.60350548,2.41726932 L8.60350548,3.32497861 L6.94594938,3.32497861 C6.69600044,3.63412598 6.38027547,3.91367413 5.99877447,4.16362307 L7.99178835,4.69640896 L7.7253954,5.66331668 C7.25180795,5.5054542 6.76999848,5.35088051 6.27996702,5.19959563 C5.78993555,5.04831075 5.28839328,4.90031467 4.7753402,4.75560739 C4.30175274,4.93320269 3.74430084,5.09270957 3.10298449,5.23412805 C2.46166814,5.37554653 1.70359933,5.50216539 0.828778051,5.61398466 L0.513053079,4.67667615 C1.05899418,4.62405532 1.54902564,4.56979009 1.98314748,4.51388046 C2.41726932,4.45797083 2.80863673,4.39383919 3.15724972,4.32148555 L2.74532729,4.21418839 L2.33833807,4.10935784 C2.06865633,4.040293 1.79568578,3.96958376 1.51942643,3.89723012 C1.60493527,3.81172127 1.68879972,3.72127923 1.77101976,3.62590397 C1.85323981,3.53052872 1.94039306,3.43022027 2.03247951,3.32497861 L0.295992161,3.32497861 L0.295992161,2.41726932 L2.73299429,2.41726932 C2.82508074,2.28571724 2.91058958,2.16074278 2.98952083,2.04234591 C3.06845207,1.92394905 3.13422811,1.81541859 3.18684893,1.71675453 Z M5.53505341,3.32497861 L3.37431064,3.32497861 L3.20658175,3.51244031 C3.2736733,3.52033344 3.36918011,3.53651434 3.49310216,3.56098303 L3.77883326,3.62097077 C4.048515,3.6801692 4.36095117,3.75581164 4.71614177,3.84789809 C5.04502195,3.69661321 5.31799249,3.52230672 5.53505341,3.32497861 Z M4.9628019,0 L5.11079798,0.730113997 L8.2680477,0.730113997 L8.2680477,2.17060918 L7.08407906,2.17060918 L7.08407906,1.68715532 L1.8450178,1.68715532 L1.8450178,2.2002084 L0.641316349,2.2002084 L0.641316349,0.730113997 L3.79856607,0.730113997 L3.64070358,0.078931243 L4.9628019,0 Z"></path></clipPath><clipPath id="i6"><path d="M2.53070561,1.70822629 C2.62273127,1.7235639 2.72626014,1.7350671 2.84129221,1.74273591 C2.95632428,1.75040471 3.06560475,1.75040471 3.16913362,1.74273591 C3.22281525,1.73890151 3.25253187,1.74752891 3.25828347,1.76861813 C3.26403508,1.78970734 3.24390447,1.81175515 3.19789164,1.83476157 C3.15571321,1.85776798 3.12024499,1.90090501 3.09148697,1.96417265 C3.06272895,2.02744029 3.04834994,2.08974933 3.04834994,2.15109977 L3.04834994,2.85854702 C3.25540767,2.85854702 3.43850039,2.85758842 3.59762809,2.85567122 C3.75675579,2.85375402 3.89767008,2.85087822 4.02037096,2.84704381 C4.14307184,2.84320941 4.24851791,2.83745781 4.33670916,2.829789 C4.42490042,2.8221202 4.50158847,2.81445139 4.56677331,2.80678259 L4.56677331,3.32442692 C4.50158847,3.31675811 4.42490042,3.31004791 4.33670916,3.3042963 C4.24851791,3.2985447 4.14307184,3.2937517 4.02037096,3.28991729 C3.89767008,3.28608289 3.75675579,3.28320709 3.59762809,3.28128989 C3.43850039,3.27937269 3.25540767,3.27841409 3.04834994,3.27841409 L3.04834994,4.52651208 C3.27457969,4.52651208 3.47972022,4.52555348 3.66377153,4.52363628 C3.84782285,4.52171908 4.02037096,4.51788468 4.18141586,4.51213307 C4.34246077,4.50638147 4.49583686,4.49871266 4.64154416,4.48912666 C4.78725145,4.47954065 4.93487594,4.46899605 5.08441764,4.45749284 L5.08441764,5.0326532 C4.94254475,5.02115 4.79779606,5.01156399 4.65017156,5.00389519 C4.50254707,4.99622638 4.33670916,4.98951618 4.15265784,4.98376457 C3.96860653,4.97801297 3.75867299,4.97417857 3.52285724,4.97226137 C3.34599543,4.97082347 3.14594747,4.96992478 2.92271335,4.9695653 L2.69175051,4.96938556 C2.3543231,4.96938556 2.06003271,4.97034416 1.80887935,4.97226137 C1.55772599,4.97417857 1.33437205,4.97801297 1.13881753,4.98376457 C0.943263001,4.98951618 0.767839089,4.99622638 0.61254579,5.00389519 C0.457252491,5.01156399 0.308669397,5.02115 0.166796506,5.0326532 L0.166796506,4.45749284 C0.377688641,4.47666485 0.56461576,4.49104386 0.727577863,4.50062987 C0.890539967,4.51021587 1.03912306,4.51692608 1.17332715,4.52076048 L1.17332715,3.33593012 C1.17332715,3.19405723 1.17236855,3.07327356 1.17045135,2.97357909 C1.16853414,2.87388463 1.16661694,2.78761058 1.16469974,2.71475693 C1.16278254,2.64190328 1.15894814,2.58151144 1.15319653,2.53358141 C1.14744493,2.48565138 1.14073473,2.44059715 1.13306592,2.39841873 C1.22125718,2.40992193 1.31807584,2.41950794 1.42352191,2.42717675 C1.52896797,2.43484555 1.62003503,2.43676275 1.69672308,2.43292835 C1.74273591,2.42909395 1.76861813,2.43676275 1.77436973,2.45593476 C1.78012133,2.47510678 1.76190792,2.49811319 1.7197295,2.52495401 C1.69288868,2.54029162 1.67371667,2.56617383 1.66221346,2.60260066 C1.65071025,2.63902748 1.64495865,2.67833011 1.64495865,2.72050853 L1.64495865,4.52651208 L2.57671844,4.52651208 L2.57671844,2.64573768 C2.57671844,2.52303681 2.57575984,2.41567354 2.57384264,2.32364788 C2.57192544,2.23162222 2.56904964,2.14918257 2.56521523,2.07632892 C2.56138083,2.00347528 2.55658783,1.93733183 2.55083622,1.8778986 C2.54508462,1.81846536 2.53837442,1.76190792 2.53070561,1.70822629 Z M2.38116392,0 C2.49619599,0.0306752195 2.60931086,0.0555988354 2.72050853,0.0747708476 C2.8317062,0.0939428598 2.92564906,0.107363268 3.00233711,0.115032073 C3.05601875,0.122700878 3.08094236,0.14091429 3.07710796,0.169672308 C3.07327356,0.198430326 3.02917793,0.228146945 2.94482108,0.258822165 C3.06368755,0.454376689 3.20556044,0.635552205 3.37043975,0.802348711 C3.53531905,0.969145217 3.71745317,1.11485251 3.91684209,1.23947059 C4.11623102,1.36408867 4.33191616,1.46570033 4.56389751,1.54430558 C4.79587885,1.62291083 5.03840481,1.67371667 5.29147537,1.69672308 C5.21478732,1.77341113 5.14289227,1.85776798 5.07579023,1.94979364 C5.00868819,2.0418193 4.94829635,2.14726537 4.89461472,2.26613184 C4.61086894,2.17027178 4.35971558,2.06961872 4.14115464,1.96417265 C3.9225937,1.85872658 3.72608057,1.73890151 3.55161526,1.60469742 C3.37714995,1.47049334 3.21993945,1.31615864 3.07998376,1.14169333 C2.94002807,0.967228016 2.80678259,0.763046086 2.68024731,0.529147537 C2.5192024,0.763046086 2.3600747,0.97297962 2.2028642,1.15894814 C2.0456537,1.34491666 1.8788572,1.51746477 1.70247468,1.67659247 C1.52609217,1.83572017 1.33437205,1.98622046 1.12731432,2.12809336 C0.920256586,2.26996625 0.690192439,2.41183914 0.437121878,2.55371203 C0.371937037,2.46552077 0.306752195,2.38787412 0.241567354,2.32077208 C0.176382512,2.25367004 0.095860061,2.18752659 0,2.12234175 C0.149541695,2.08399773 0.304834994,2.02552309 0.465879897,1.94691784 C0.626924799,1.86831259 0.784135299,1.77820413 0.937511397,1.67659247 C1.09088749,1.5749808 1.23659479,1.46570033 1.37463328,1.34875106 C1.51267176,1.23180178 1.63537264,1.11389391 1.74273591,0.995027434 C1.84243037,0.887664165 1.92870443,0.787969702 2.00155807,0.695944043 C2.07441172,0.603918385 2.13480356,0.51764433 2.18273359,0.437121878 C2.23066362,0.356599427 2.27092485,0.280869979 2.30351727,0.209933534 C2.33610969,0.138997089 2.3619919,0.0690192439 2.38116392,0 Z"></path></clipPath><clipPath id="i7"><path d="M1.58169101,0 C1.66988226,0.0191720122 1.76574232,0.0325924208 1.86927119,0.0402612256 C1.97280006,0.0479300305 2.07441172,0.0498472317 2.17410618,0.0460128293 C2.21628461,0.0460128293 2.24120823,0.0546402348 2.24887703,0.0718950458 C2.25654584,0.0891498568 2.24312543,0.113114872 2.20861581,0.143790092 C2.17027178,0.174465311 2.14438957,0.202264729 2.13096916,0.227188345 C2.11754875,0.252111961 2.11083854,0.285662982 2.11083854,0.327841409 L2.11083854,4.31945435 L2.76652136,4.31945435 L2.76652136,0.828230927 C2.76652136,0.705530049 2.76268696,0.574201766 2.75501815,0.434246077 C2.74734935,0.294290387 2.73584614,0.153376098 2.72050853,0.0115032073 C2.80486539,0.0306752195 2.89976685,0.0431370275 3.00521291,0.0488886311 C3.11065898,0.0546402348 3.21322925,0.0555988354 3.31292371,0.051764433 C3.35510214,0.051764433 3.38002575,0.0603918385 3.38769456,0.0776466494 C3.39536336,0.0949014604 3.38194295,0.118866476 3.34743333,0.149541695 C3.30908931,0.180216915 3.28320709,0.208974933 3.26978668,0.23581575 C3.25636627,0.262656567 3.24965607,0.297166189 3.24965607,0.339344616 L3.24965607,4.31945435 C3.68294355,4.31945435 4.04817038,4.31466135 4.34533657,4.30507534 C4.64250276,4.29548934 4.85243629,4.28302753 4.97513717,4.26768992 L4.97513717,4.81409227 C4.90611792,4.80642346 4.81409227,4.79875466 4.69906019,4.79108585 C4.58402812,4.78341705 4.42873482,4.77766544 4.2331803,4.77383104 C4.03762577,4.76999664 3.79414122,4.76712084 3.50272663,4.76520363 C3.32787788,4.76405331 3.13025278,4.76324809 2.90985132,4.76278796 L2.00938026,4.76278796 C1.80784406,4.76324809 1.62597836,4.76405331 1.46378313,4.76520363 C1.19345776,4.76712084 0.964352214,4.76999664 0.776466494,4.77383104 C0.588580775,4.77766544 0.433287476,4.78341705 0.310586598,4.79108585 C0.18788572,4.79875466 0.0843568537,4.80642346 0,4.81409227 L0,4.26768992 C0.168713707,4.28686193 0.393984851,4.30028234 0.67581343,4.30795114 C0.95764201,4.31561995 1.27493881,4.31945435 1.62770384,4.31945435 L1.62770384,0.81672772 C1.62770384,0.682523635 1.62386943,0.542567945 1.61620063,0.396860653 C1.60853182,0.25115336 1.59702862,0.118866476 1.58169101,0 Z M0.632676403,1.12731432 C0.682523635,1.28452482 0.736205269,1.45036272 0.793721305,1.62482803 C0.851237342,1.79929335 0.912587781,1.97663446 0.977772623,2.15685137 C1.04295746,2.33706829 1.11101811,2.5172852 1.18195455,2.69750212 C1.252891,2.87771903 1.32286884,3.05218434 1.39188809,3.22089805 L0.799472909,3.41645258 C0.76879769,3.24007006 0.730453665,3.05697735 0.684440836,2.86717443 C0.638428007,2.6773715 0.584746372,2.49236159 0.523395933,2.31214467 C0.462045494,2.13192776 0.395902052,1.95937965 0.324965607,1.79450034 C0.254029162,1.62962104 0.180216915,1.48199654 0.103528866,1.35162686 L0.632676403,1.12731432 Z M4.14690624,0.98927583 C4.2350975,1.03145426 4.33958496,1.06979828 4.46036864,1.1043079 C4.58115232,1.13881753 4.69139139,1.15990674 4.79108585,1.16757554 C4.83326428,1.17140995 4.85435349,1.18291315 4.85435349,1.20208517 C4.85435349,1.22125718 4.83326428,1.24426359 4.79108585,1.27110441 C4.77191384,1.28260762 4.74794882,1.30944843 4.71919081,1.35162686 C4.69043279,1.39380529 4.66167477,1.44461112 4.63291675,1.50404436 C4.60415873,1.5634776 4.57540071,1.62770384 4.5466427,1.69672308 C4.51788468,1.76574232 4.49391966,1.83284437 4.47474765,1.89802921 C4.38272199,2.22395342 4.29453073,2.510575 4.21017388,2.75789396 C4.12581703,3.00521291 4.05296338,3.20747764 3.99161294,3.36468814 C3.90342169,3.31484091 3.82481644,3.28224849 3.75579719,3.26691088 C3.68677795,3.25157327 3.60050389,3.24773887 3.49697503,3.25540767 C3.56982867,3.11353478 3.63788932,2.95344848 3.70115696,2.77514877 C3.7644246,2.59684905 3.82385783,2.40896333 3.87945667,2.21149161 C3.93505551,2.01401988 3.98490274,1.81175515 4.02899837,1.60469742 C4.07309399,1.39763969 4.11239662,1.19249916 4.14690624,0.98927583 Z"></path></clipPath><clipPath id="i8"><path d="M1.38613648,1.23084318 C1.45132132,1.29602803 1.51746477,1.35066826 1.58456681,1.39476389 C1.65166885,1.43885952 1.71014349,1.47049334 1.75999072,1.48966535 C1.81367235,1.50883736 1.84051317,1.53280238 1.84051317,1.56156039 C1.84051317,1.59031841 1.80983795,1.61811783 1.74848751,1.64495865 C1.73698431,1.65262745 1.7235639,1.66413066 1.70822629,1.67946827 C1.69288868,1.69480588 1.66892366,1.7254811 1.63633124,1.77149393 C1.60373882,1.81750676 1.55868459,1.8836502 1.50116856,1.96992425 C1.44365252,2.05619831 1.36696447,2.17410618 1.27110441,2.32364788 L1.27110441,5.06716283 L0.782218098,5.06716283 C0.80139011,4.90611792 0.813851918,4.75561763 0.819603522,4.61566194 C0.825355126,4.47570625 0.828230927,4.32328875 0.828230927,4.15840945 L0.828230927,2.84704381 C0.732370866,2.95057268 0.637469406,3.05218434 0.543526546,3.15187881 C0.449583686,3.25157327 0.371937037,3.33209572 0.310586598,3.39344616 C0.245401756,3.24773887 0.14187289,3.11545198 0,2.99658551 C0.0690192439,2.94290387 0.143790092,2.87963623 0.224312543,2.80678259 C0.304834994,2.73392894 0.384398845,2.65628229 0.463004095,2.57384264 C0.541609345,2.49140299 0.616380192,2.40704613 0.687316638,2.32077208 C0.758253083,2.23449802 0.822479324,2.15109977 0.87999536,2.07057732 C0.979689824,1.92103562 1.07171548,1.77628693 1.15607234,1.63633124 C1.24042919,1.49637555 1.31711724,1.36121287 1.38613648,1.23084318 Z M4.92337274,0.465879897 L4.92337274,0.977772623 C4.76232783,0.962435013 4.58019372,0.950931806 4.37697039,0.943263001 C4.17374706,0.935594196 3.9283453,0.929842592 3.64076512,0.92600819 L3.64076512,2.2028642 C3.7711348,2.2028642 3.88616687,2.2019056 3.98586134,2.1999884 C4.0855558,2.1980712 4.17854006,2.1942368 4.26481412,2.18848519 C4.35108817,2.18273359 4.43352782,2.17602339 4.51213307,2.16835458 C4.59073832,2.16068578 4.67413658,2.15109977 4.76232783,2.13959656 L4.76232783,2.69175051 C4.67413658,2.68408171 4.59169692,2.6773715 4.51500888,2.6716199 C4.43832083,2.6658683 4.35683977,2.6620339 4.27056572,2.66011669 C4.18429166,2.65819949 4.0903488,2.65628229 3.98873714,2.65436509 C3.88712548,2.65244789 3.7711348,2.65148929 3.64076512,2.65148929 L3.64076512,4.33670916 C3.94751731,4.33670916 4.21975989,4.33287476 4.45749284,4.32520595 C4.69522579,4.31753715 4.88502871,4.30603394 5.0269016,4.29069633 L5.0269016,4.77958264 C4.98088877,4.77191384 4.92145553,4.76424503 4.84860189,4.75657623 C4.77574824,4.74890742 4.67413658,4.74315582 4.54376689,4.73932142 C4.41339721,4.73548702 4.2446835,4.73261121 4.03762577,4.73069401 C3.83056804,4.72877681 3.56791147,4.72781821 3.24965607,4.72781821 C2.77035576,4.72781821 2.39650153,4.73165261 2.12809336,4.73932142 C1.85968518,4.74699022 1.66413066,4.76041063 1.54142978,4.77958264 L1.54142978,4.29069633 C1.61811783,4.30219954 1.70439189,4.31082695 1.80025195,4.31657855 C1.89611201,4.32233015 2.01114408,4.32712316 2.14534817,4.33095756 L2.14534817,2.89305664 C2.14534817,2.65148929 2.14151376,2.46072777 2.13384496,2.32077208 C2.12617615,2.18081639 2.11467295,2.07824612 2.09933534,2.01306128 C2.26038024,2.0360677 2.43676275,2.0475709 2.62848287,2.0475709 C2.6744957,2.0475709 2.69941932,2.05619831 2.70325372,2.07345312 C2.70708812,2.09070793 2.68983331,2.11083854 2.65148929,2.13384496 C2.60164206,2.16835458 2.57671844,2.27763505 2.57671844,2.46168637 L2.57671844,4.33670916 L3.19789164,4.33670916 L3.19789164,0.92600819 C2.93715227,0.929842592 2.71188113,0.935594196 2.52207821,0.943263001 C2.33227529,0.950931806 2.16260298,0.962435013 2.01306128,0.977772623 L2.01306128,0.465879897 C2.1932782,0.485051909 2.39746013,0.498472317 2.62560707,0.506141122 C2.85375402,0.513809927 3.134624,0.51764433 3.46821701,0.51764433 C3.80181002,0.51764433 4.0836386,0.513809927 4.31370275,0.506141122 C4.54376689,0.498472317 4.74699022,0.485051909 4.92337274,0.465879897 Z M1.20208517,0 C1.26727001,0.0536816342 1.33724785,0.108321869 1.4120187,0.163920704 C1.48678955,0.21951954 1.55293299,0.262656567 1.61044903,0.293331787 C1.69864028,0.347013421 1.69480588,0.385357445 1.59894582,0.40836386 C1.57977381,0.412198262 1.53759538,0.452459488 1.47241054,0.529147537 C1.4072257,0.605835586 1.30177963,0.73812247 1.15607234,0.92600819 C1.11389391,0.983524226 1.06404668,1.04583327 1.00653064,1.11293531 C0.949014604,1.18003735 0.888622766,1.24809799 0.825355126,1.31711724 L0.635552205,1.52129917 C0.572284564,1.58840121 0.515727128,1.64687585 0.465879897,1.69672308 C0.416032665,1.62003503 0.359475229,1.55580879 0.296207589,1.50404436 C0.232939948,1.45227992 0.168713707,1.4168117 0.103528866,1.39763969 C0.164879305,1.34779246 0.228146945,1.29027642 0.293331787,1.22509158 C0.358516628,1.15990674 0.422742869,1.0947219 0.486010509,1.02953706 C0.54927815,0.964352214 0.607752787,0.899167373 0.661434421,0.833982531 C0.715116055,0.76879769 0.761128885,0.709364452 0.799472909,0.655682818 C0.872326555,0.555988354 0.944221601,0.446707884 1.01515805,0.327841409 C1.08609449,0.208974933 1.14840353,0.0996944635 1.20208517,0 Z"></path></clipPath><clipPath id="i9"><path d="M1.05829507,0.0690192439 C1.15798954,0.122700878 1.24713939,0.163920704 1.32574464,0.192678723 C1.40434989,0.221436741 1.48774815,0.243484555 1.5759394,0.258822165 C1.64495865,0.270325372 1.68234407,0.287580183 1.68809567,0.310586598 C1.69384728,0.333593012 1.66604786,0.366185433 1.60469742,0.40836386 C1.59319421,0.416032665 1.58264961,0.426577272 1.5730636,0.43999768 C1.5634776,0.453418089 1.55197439,0.4716315 1.53855398,0.494637915 C1.52513357,0.51764433 1.50979596,0.54927815 1.49254115,0.589539375 C1.47528634,0.629800601 1.45323853,0.680606433 1.42639771,0.741956872 C1.39188809,0.826313726 1.36025427,0.905877577 1.33149625,0.980648424 C1.30273823,1.05541927 1.27302161,1.12539712 1.24234639,1.19058196 L1.24234639,5.28572377 L0.701695647,5.28572377 C0.724702061,5.11701006 0.741956872,4.94637915 0.75346008,4.77383104 C0.764963287,4.60128293 0.770714891,4.40764561 0.770714891,4.19291907 L0.770714891,2.17410618 C0.713198854,2.27380065 0.649931214,2.37541231 0.58091197,2.47894118 C0.511892726,2.58247004 0.433287476,2.69750212 0.34509622,2.8240374 C0.310586598,2.73584614 0.264573768,2.65819949 0.207057732,2.59109745 C0.149541695,2.52399541 0.0805224513,2.46168637 0,2.40417033 C0.0805224513,2.31597907 0.154334698,2.22874642 0.221436741,2.14247236 C0.288538784,2.05619831 0.350847823,1.96513125 0.40836386,1.86927119 C0.465879897,1.77341113 0.520520131,1.67179946 0.572284564,1.5644362 C0.624048997,1.45707293 0.67485483,1.34012365 0.724702061,1.21358837 C0.797555708,1.02953706 0.86369915,0.835899732 0.923132388,0.632676403 C0.982565626,0.429453073 1.02761985,0.241567354 1.05829507,0.0690192439 Z M4.79683745,3.25540767 C4.78533425,3.32826132 4.77574824,3.40590797 4.76807944,3.48834762 C4.76041063,3.57078727 4.75657623,3.66185433 4.75657623,3.7615488 L4.75657623,4.64729576 C4.75657623,4.83134708 4.76999664,5.00197799 4.79683745,5.15918849 L4.29644794,5.15918849 L4.29644794,4.79683745 L2.42717675,4.79683745 L2.42717675,5.27422056 L1.92678723,5.27422056 C1.94212484,5.1898637 1.95266944,5.10934125 1.95842105,5.0326532 C1.96417265,4.95596516 1.96704845,4.8677739 1.96704845,4.76807944 L1.96704845,3.7615488 C1.96704845,3.65035112 1.96417265,3.55544966 1.95842105,3.47684441 C1.95266944,3.39823916 1.94212484,3.32442692 1.92678723,3.25540767 C1.96896565,3.26307648 2.02456449,3.26978668 2.09358373,3.27553829 C2.16260298,3.28128989 2.25271143,3.28704149 2.36390911,3.2927931 C2.47510678,3.2985447 2.61218666,3.3023791 2.77514877,3.3042963 C2.93811087,3.30621351 3.13270679,3.30717211 3.35893654,3.30717211 C3.6043383,3.30717211 3.80947883,3.30621351 3.97435813,3.3042963 C4.13923744,3.3023791 4.27535872,3.2985447 4.38272199,3.2927931 C4.49008526,3.28704149 4.57540071,3.28128989 4.63866835,3.27553829 C4.70193599,3.26978668 4.75465903,3.26307648 4.79683745,3.25540767 Z M4.29644794,3.70978436 L2.42717675,3.70978436 L2.42717675,4.3942252 L4.29644794,4.3942252 L4.29644794,3.70978436 Z M4.84285028,2.39266712 L4.84285028,2.88155343 C4.65879897,2.86621583 4.45078263,2.85471262 4.21880129,2.84704381 C3.98681994,2.83937501 3.70019836,2.83554061 3.35893654,2.83554061 C3.02150912,2.83554061 2.73584614,2.83937501 2.50194759,2.84704381 C2.26804904,2.85471262 2.06099131,2.86621583 1.8807744,2.88155343 L1.8807744,2.39266712 C2.06482571,2.40800473 2.27380065,2.41950794 2.5076992,2.42717675 C2.74159775,2.43484555 3.02534353,2.43867995 3.35893654,2.43867995 C3.70019836,2.43867995 3.98681994,2.43484555 4.21880129,2.42717675 C4.45078263,2.41950794 4.65879897,2.40800473 4.84285028,2.39266712 Z M4.81409227,1.59894582 L4.81409227,2.08783213 C4.63770975,2.07249452 4.43448642,2.06099131 4.20442228,2.05332251 C3.97435813,2.0456537 3.69252955,2.0418193 3.35893654,2.0418193 C3.02917793,2.0418193 2.74926655,2.0446951 2.5192024,2.05044671 C2.28913826,2.05619831 2.08591493,2.06866012 1.90953242,2.08783213 L1.90953242,1.59894582 C2.08974933,1.61811783 2.29393126,1.63057964 2.52207821,1.63633124 C2.69318841,1.64064494 2.8928769,1.64334101 3.12114367,1.64441943 L3.35893654,1.64495865 C3.69252955,1.64495865 3.97339953,1.64112425 4.20154648,1.63345544 C4.42969342,1.62578664 4.63387535,1.61428343 4.81409227,1.59894582 Z M5.15918849,0.764963287 L5.15918849,1.27110441 C4.94062755,1.2596012 4.69426719,1.2490566 4.42010741,1.23947059 C4.20077959,1.23180178 3.94157399,1.2272005 3.6424906,1.22566674 L3.41070097,1.22509158 C3.01575752,1.22509158 2.68024731,1.22892598 2.40417033,1.23659479 C2.12809336,1.24426359 1.8826916,1.2557668 1.66796506,1.27110441 L1.66796506,0.764963287 C1.886526,0.784135299 2.13288636,0.798514308 2.40704613,0.808100315 C2.68120591,0.817686321 3.01575752,0.822479324 3.41070097,0.822479324 C3.80564442,0.822479324 4.14211324,0.817686321 4.42010741,0.808100315 C4.69810159,0.798514308 4.94446195,0.784135299 5.15918849,0.764963287 Z M3.58324908,8.92341756e-14 C3.62159311,0.0881912562 3.65993713,0.179258314 3.69828115,0.273201174 C3.73662518,0.367144034 3.773052,0.460128293 3.80756162,0.552153952 L3.16338201,0.736205269 C3.14421,0.640345208 3.11736919,0.540650744 3.08285956,0.437121878 C3.04834994,0.333593012 3.01000592,0.237732951 2.96782749,0.149541695 L3.58324908,8.92341756e-14 Z"></path></clipPath><clipPath id="i10"><path d="M2.47894118,0.281828579 C2.59397325,0.297166189 2.73968054,0.308669397 2.91606306,0.316338201 C3.09244557,0.324007006 3.27841409,0.327841409 3.47396861,0.327841409 C3.66952314,0.327841409 3.85165725,0.324965607 4.02037096,0.319214003 C4.18908467,0.3134624 4.33287476,0.302917793 4.45174123,0.287580183 C4.43256922,0.371937037 4.41627301,0.4706729 4.4028526,0.583787772 C4.3894322,0.696902644 4.38272199,0.845485738 4.38272199,1.02953706 L4.34246077,4.25043511 C4.34246077,4.35779837 4.36450858,4.42777622 4.40860421,4.46036864 C4.45269984,4.49296106 4.52267768,4.50925727 4.61853774,4.50925727 C4.66455057,4.50925727 4.70193599,4.49967127 4.73069401,4.48049925 C4.75945203,4.46132724 4.78245845,4.42490042 4.79971326,4.37121878 C4.81696807,4.31753715 4.82942988,4.2437249 4.83709868,4.14978204 C4.84476749,4.05583918 4.85051909,3.93409691 4.85435349,3.78455521 C4.90803513,3.88424967 4.97993017,3.96381352 5.07003863,4.02324676 C5.16014709,4.08268 5.25696575,4.12198262 5.36049461,4.14115464 C5.30681298,4.33287476 5.26080015,4.48337505 5.22245613,4.59265552 C5.1841121,4.70193599 5.13522347,4.78341705 5.07579023,4.83709868 C5.01635699,4.89078031 4.94062755,4.92433134 4.84860189,4.93775174 C4.75657623,4.95117215 4.63387535,4.95788236 4.48049925,4.95788236 C4.35779837,4.95788236 4.25714531,4.95213075 4.17854006,4.94062755 C4.09993481,4.92912434 4.03762577,4.90036632 3.99161294,4.85435349 C3.94560011,4.80834066 3.91396629,4.73836282 3.89671148,4.64441996 C3.87945667,4.5504771 3.87082926,4.42106602 3.87082926,4.25618671 L3.91109049,0.747708476 L2.9850823,0.747708476 C2.99275111,1.03912306 2.99562691,1.33053765 2.99370971,1.62195223 C2.99179251,1.91336682 2.9869995,2.1971126 2.9793307,2.47318957 C2.97166189,2.76843856 2.95248988,3.03780533 2.92181466,3.28128989 C2.89113944,3.52477444 2.84225081,3.75387999 2.77514877,3.96860653 C2.70804672,4.18333306 2.61697967,4.3903908 2.50194759,4.58977972 C2.38691552,4.78916865 2.23929103,4.99430918 2.05907411,5.20520131 C1.98238606,5.13234767 1.90186361,5.07099723 1.81750676,5.02115 C1.7331499,4.97130277 1.63153824,4.92720714 1.51267176,4.88886311 C1.66988226,4.76616223 1.80408635,4.64346136 1.91528402,4.52076048 C2.02648169,4.3980596 2.12042455,4.26289691 2.1971126,4.11527242 C2.27380065,3.96764793 2.33610969,3.79989282 2.38403972,3.6120071 C2.43196975,3.42412138 2.46935517,3.20172604 2.49619599,2.94482108 C2.5115336,2.78377617 2.52207821,2.61410386 2.52782981,2.43580415 C2.53358141,2.25750444 2.53549861,2.06099131 2.53358141,1.84626478 C2.53166421,1.63153824 2.52591261,1.39668109 2.5163266,1.14169333 C2.5067406,0.886705565 2.49427879,0.600083982 2.47894118,0.281828579 Z M0.845485738,0 C0.945180202,0.0115032073 1.03720586,0.0182134116 1.12156271,0.0201306128 C1.20591957,0.022047814 1.29219362,0.0191720122 1.38038488,0.0115032073 C1.43790092,0.00383440244 1.47049334,0.0134204085 1.47816214,0.0402612256 C1.48583095,0.0671020427 1.46282453,0.105446067 1.4091429,0.155293299 C1.38230208,0.178299714 1.36600587,0.201306128 1.36025427,0.224312543 C1.35450266,0.247318957 1.35162686,0.276076976 1.35162686,0.310586598 L1.35162686,1.17332715 C1.52800937,1.16949274 1.68330267,1.16469974 1.81750676,1.15894814 C1.95171084,1.15319653 2.06866012,1.14265193 2.16835458,1.12731432 L2.16835458,1.58169101 C2.06866012,1.5701878 1.95171084,1.56060179 1.81750676,1.55293299 C1.68330267,1.54526418 1.52800937,1.53951258 1.35162686,1.53567818 L1.35162686,4.04337737 C1.35162686,4.19675347 1.35546126,4.36930158 1.36313007,4.5610217 C1.37079887,4.75274183 1.38421928,4.94062755 1.40339129,5.12467886 L0.833982531,5.12467886 C0.853154543,4.94062755 0.868492153,4.75274183 0.87999536,4.5610217 C0.891498568,4.36930158 0.897250171,4.19675347 0.897250171,4.04337737 L0.897250171,2.55946363 C0.820562123,2.80103098 0.735246668,3.02821933 0.641303808,3.24102866 C0.547360949,3.453838 0.429453073,3.68294355 0.287580183,3.9283453 C0.245401756,3.82481644 0.201306128,3.73279078 0.155293299,3.65226833 C0.10928047,3.57174587 0.0575160366,3.48738902 0,3.39919776 C0.095860061,3.2956689 0.184051317,3.18734703 0.264573768,3.07423216 C0.34509622,2.96111729 0.420825668,2.83554061 0.491762113,2.69750212 C0.562698558,2.55946363 0.630759202,2.40225313 0.695944043,2.22587062 C0.761128885,2.04948811 0.828230927,1.84434757 0.897250171,1.61044903 L0.897250171,1.53567818 C0.720867659,1.53951258 0.566532961,1.54526418 0.434246077,1.55293299 C0.301959192,1.56060179 0.185968518,1.5701878 0.0862740549,1.58169101 L0.0862740549,1.12731432 C0.185968518,1.14265193 0.301959192,1.15319653 0.434246077,1.15894814 C0.566532961,1.16469974 0.720867659,1.16949274 0.897250171,1.17332715 C0.897250171,1.01228224 0.896291571,0.872326555 0.89437437,0.75346008 C0.892457168,0.634593604 0.889581366,0.530106138 0.885746964,0.43999768 C0.881912562,0.349889223 0.876160958,0.270325372 0.868492153,0.201306128 C0.860823348,0.132286884 0.853154543,0.0651848415 0.845485738,0 Z M1.78299714,2.2028642 C1.8826916,2.3485715 1.97375866,2.48948579 2.05619831,2.62560707 C2.13863796,2.76172836 2.21628461,2.89113944 2.28913826,3.01384032 L1.886526,3.23815286 C1.83667877,3.10394878 1.77628693,2.96974469 1.70535049,2.83554061 C1.63441404,2.70133652 1.54334698,2.54987762 1.43214931,2.38116392 L1.78299714,2.2028642 Z"></path></clipPath><clipPath id="i11"><path d="M2.86429862,0 C2.97549629,0.0536816342 3.08381816,0.0968186617 3.18926423,0.129411082 C3.2947103,0.162003503 3.39152896,0.184051317 3.47972022,0.195554525 C3.52189864,0.203223329 3.54586366,0.215685137 3.55161526,0.232939948 C3.55736687,0.250194759 3.53915345,0.279911378 3.49697503,0.322089805 C3.46629981,0.352765025 3.41549397,0.430411674 3.34455753,0.555029753 C3.27362108,0.679647833 3.19214003,0.833982531 3.10011437,1.01803385 L4.10664502,1.01803385 C4.34821237,1.01803385 4.5591045,1.01419945 4.73932142,1.00653064 C4.91953833,0.998861836 5.06524563,0.98927583 5.1764433,0.977772623 L4.99814358,4.43448642 C4.99047478,4.58019372 4.96459256,4.7038532 4.92049693,4.80546486 C4.87640131,4.90707652 4.81025786,4.99239198 4.72206661,5.06141122 C4.63387535,5.13043047 4.51884328,5.1860293 4.37697039,5.22820773 C4.2350975,5.27038616 4.06446659,5.30297858 3.86507766,5.32598499 C3.84207125,5.21478732 3.80660302,5.10838265 3.75867299,5.00677099 C3.71074296,4.90515932 3.64843392,4.81025786 3.57174587,4.72206661 C3.87082926,4.77574824 4.10472781,4.76903804 4.27344152,4.70193599 C4.44215523,4.63483395 4.53034648,4.50925727 4.53801529,4.32520595 L4.68180538,1.43790092 L2.88155343,1.43790092 C2.80869979,1.57977381 2.73680474,1.7216467 2.6658683,1.86351959 C2.59493185,2.00539248 2.5172852,2.16835458 2.43292835,2.3524059 C2.36390911,2.31022747 2.28434525,2.26996625 2.1942368,2.23162222 C2.10412834,2.1932782 2.01114408,2.16260298 1.91528402,2.13959656 C2.0418193,2.02073009 2.16739598,1.84914058 2.29201406,1.62482803 C2.41663214,1.40051549 2.53454001,1.14648633 2.64573768,0.862740549 C2.70708812,0.705530049 2.75405955,0.556946955 2.78665197,0.416991266 C2.8192444,0.277035576 2.84512661,0.138038488 2.86429862,0 Z M0.92600819,0.051764433 C1.02186825,0.0671020427 1.12060411,0.0776466494 1.22221578,0.0833982531 C1.32382744,0.0891498568 1.40147409,0.0881912562 1.45515573,0.0805224513 C1.58552541,0.0690192439 1.59702862,0.111197671 1.48966535,0.207057732 C1.46282453,0.230064146 1.44556972,0.253070561 1.43790092,0.276076976 C1.43023211,0.29908339 1.42639771,0.327841409 1.42639771,0.362351031 L1.42639771,1.28260762 C1.56060179,1.27877321 1.67467527,1.27302161 1.76861813,1.26535281 C1.86256099,1.257684 1.95362804,1.24809799 2.0418193,1.23659479 L2.0418193,1.7197295 C1.95362804,1.70822629 1.86256099,1.69959888 1.76861813,1.69384728 C1.67467527,1.68809567 1.56060179,1.68330267 1.42639771,1.67946827 L1.42639771,4.10664502 C1.42639771,4.18333306 1.42735631,4.26960712 1.42927351,4.36546718 C1.43119071,4.46132724 1.43502511,4.5619803 1.44077672,4.66742637 L1.46090733,4.98376457 C1.46857614,5.08921064 1.47624494,5.1879465 1.48391374,5.27997216 L0.914504982,5.27997216 C0.922173787,5.1879465 0.929842592,5.08921064 0.937511397,4.98376457 C0.945180202,4.87831851 0.951890406,4.77287244 0.95764201,4.66742637 C0.963393613,4.5619803 0.967228016,4.46132724 0.969145217,4.36546718 C0.971062418,4.26960712 0.972021019,4.18333306 0.972021019,4.10664502 L0.972021019,2.69750212 C0.868492153,2.96207589 0.764963287,3.20651904 0.661434421,3.43083158 C0.557905555,3.65514413 0.452459488,3.85357445 0.34509622,4.02612256 C0.302917793,3.9225937 0.25115336,3.82481644 0.189802921,3.73279078 C0.128452482,3.64076512 0.0651848415,3.56215987 0,3.49697503 C0.168713707,3.33976453 0.334551613,3.11736919 0.497513717,2.829789 C0.660475821,2.54220882 0.818644921,2.15685137 0.972021019,1.67371667 C0.799472909,1.67755107 0.655682818,1.68330267 0.540650744,1.69097148 C0.425618671,1.69864028 0.316338201,1.70822629 0.212809336,1.7197295 L0.212809336,1.23659479 C0.320172604,1.2519324 0.430411674,1.262477 0.543526546,1.26822861 C0.656641418,1.27398021 0.799472909,1.27877321 0.972021019,1.28260762 C0.972021019,1.00653064 0.969145217,0.764963287 0.963393613,0.557905555 C0.95764201,0.350847823 0.945180202,0.182134116 0.92600819,0.051764433 Z M2.9793307,1.86927119 C3.01767472,1.8807744 3.06081175,1.89419481 3.10874178,1.90953242 C3.15667181,1.92487003 3.20364324,1.93924903 3.24965607,1.95266944 C3.2956689,1.96608985 3.33784733,1.97759306 3.37619135,1.98717907 C3.41453537,1.99676507 3.44329339,2.00347528 3.4624654,2.00730968 C3.51614704,2.01497848 3.54586366,2.02935749 3.55161526,2.05044671 C3.55736687,2.07153592 3.53531905,2.10316974 3.48547182,2.14534817 C3.46629981,2.16452018 3.43945899,2.2038228 3.40494937,2.26325604 C3.37043975,2.32268928 3.33976453,2.38308112 3.31292371,2.44443156 C3.27074528,2.54412602 3.22377385,2.64765489 3.17200942,2.75501815 L3.01671612,3.07710796 C2.96495169,3.18447123 2.91414586,3.28895869 2.86429862,3.39057036 C2.81445139,3.49218202 2.76652136,3.58516628 2.72050853,3.66952314 L3.7615488,3.55449106 C3.73087358,3.43945899 3.69636395,3.32442692 3.65801993,3.20939484 C3.6196759,3.09436277 3.57558028,2.9793307 3.52573305,2.86429862 L3.91109049,2.76076976 C3.99544734,2.96782749 4.077887,3.18830563 4.15840945,3.42220418 C4.2389319,3.65610273 4.31178555,3.88233247 4.37697039,4.10089341 L3.88808408,4.25618671 C3.87658087,4.12965143 3.85932606,4.00311615 3.83631964,3.87658087 L2.87580183,4.06063219 C2.79911378,4.07213539 2.70804672,4.09130741 2.60260066,4.11814822 C2.49715459,4.14498904 2.40608753,4.17182986 2.32939948,4.19867067 C2.31789628,4.13348583 2.29968286,4.06159079 2.27475925,3.98298554 C2.24983563,3.90438029 2.21820181,3.82673364 2.17985779,3.75004559 C2.23353942,3.71553597 2.27571785,3.67910914 2.30639307,3.64076512 C2.33706829,3.60242109 2.37541231,3.54107065 2.42142514,3.4567138 C2.48660998,3.33784733 2.54987762,3.20843624 2.61122806,3.06848055 C2.6725785,2.92852486 2.72721874,2.78761058 2.77514877,2.64573768 C2.8230788,2.50386479 2.86525722,2.36582631 2.90168405,2.23162222 C2.93811087,2.09741814 2.96399309,1.97663446 2.9793307,1.86927119 Z M1.80600355,2.40417033 C1.89419481,2.53837442 1.96896565,2.65532369 2.03031609,2.75501815 C2.09166653,2.85471262 2.15493417,2.96974469 2.22011901,3.10011437 L1.80025195,3.31292371 C1.75423912,3.18255403 1.70439189,3.05697735 1.65071025,2.93619367 C1.59702862,2.81540999 1.53376098,2.69366772 1.46090733,2.57096684 L1.80600355,2.40417033 Z"></path></clipPath></defs><g transform="translate(-473.0 -100.0)"><g clip-path="url(#i0)"><g transform="translate(473.0 100.0)"><g clip-path="url(#i1)"><polygon points="0,0 57,0 57,22 0,22 0,0 0,0" stroke="#DC3022" stroke-width="2" fill="none" stroke-miterlimit="5"></polygon></g><g transform="translate(6.096559972174873 3.143029561588264)"><g transform="translate(0.0 0.15786248592115726)"><g clip-path="url(#i2)"><polygon points="0,0 8.24831489,0 8.24831489,8.68243673 0,8.68243673 0,0" stroke="none" fill="#DC3022"></polygon></g></g><g transform="translate(11.6033905343601 0.15786248592115726)"><g clip-path="url(#i3)"><polygon points="0,0 8.6429711,0 8.6429711,9.02776091 0,9.02776091 0,0" stroke="none" fill="#DC3022"></polygon></g></g><g transform="translate(23.60143728352309 0.0)"><g clip-path="url(#i4)"><polygon points="0,0 8.88963124,0 8.88963124,8.84029921 0,8.84029921 0,0" stroke="none" fill="#DC3022"></polygon></g></g><g transform="translate(35.84614416693887 0.07893124296057863)"><g clip-path="url(#i5)"><polygon points="0,0 8.87976483,0 8.87976483,8.91923045 0,8.91923045 0,0" stroke="none" fill="#DC3022"></polygon></g></g><g transform="translate(1.8189894035458565e-12 10.476765205294214)"><g clip-path="url(#i6)"><polygon points="0,0 5.29147537,0 5.29147537,5.0326532 0,5.0326532 0,0" stroke="none" fill="#FF3F31"></polygon></g><g transform="translate(7.859046262792617 0.1667965062119947)"><g clip-path="url(#i7)"><polygon points="0,0 4.97513717,0 4.97513717,4.81409227 0,4.81409227 0,0" stroke="none" fill="#FF3F31"></polygon></g></g><g transform="translate(15.40175432414981 0.13803848789939366)"><g clip-path="url(#i8)"><polygon points="0,0 5.0269016,0 5.0269016,5.06716283 0,5.06716283 0,0" stroke="none" fill="#FF3F31"></polygon></g></g><g transform="translate(22.99622681846813 0.023006414649898943)"><g clip-path="url(#i9)"><polygon points="0,8.92341756e-14 5.15918849,8.92341756e-14 5.15918849,5.28572377 0,5.28572377 0,8.92341756e-14" stroke="none" fill="#FF3F31"></polygon></g></g><g transform="translate(30.722986197024508 0.10928046958724735)"><g clip-path="url(#i10)"><polygon points="0,0 5.36049461,0 5.36049461,5.20520131 0,5.20520131 0,0" stroke="none" fill="#FF3F31"></polygon></g></g><g transform="translate(38.65105170376772 0.023006414649898943)"><g clip-path="url(#i11)"><polygon points="0,0 5.1764433,0 5.1764433,5.32598499 0,5.32598499 0,0" stroke="none" fill="#FF3F31"></polygon></g></g></g></g></g></g></g></svg>