<?xml version="1.0" encoding="UTF-8"?>
<svg width="28px" height="12px" viewBox="0 0 28 12" version="1.1" xmlns="http://www.w3.org/2000/svg" xmlns:xlink="http://www.w3.org/1999/xlink">
    <title>New</title>
    <g id="企业库PC" stroke="none" stroke-width="1" fill="none" fill-rule="evenodd">
        <g id="首页-全部功能-20241025" transform="translate(-426, -243)" fill-rule="nonzero">
            <g id="New" transform="translate(426, 243)">
                <path d="M5.89473684,12 C2.65263158,12 0,9.3 0,6 L0,0 L23.2842105,0 C25.8778947,0 28,2.16 28,4.8 L28,12 L5.89473684,12 Z" id="形状" fill="#FF9601"></path>
                <path d="M4.5,9.3763587 L5.70471014,9.3763587 L5.70471014,6.82065217 C5.70471014,6.08922101 5.61005435,5.28894928 5.54981884,4.60054348 L5.5928442,4.60054348 L6.23822464,5.96875 L8.07971014,9.3763587 L9.37047101,9.3763587 L9.37047101,3 L8.16576087,3 L8.16576087,5.54710145 C8.16576087,6.26992754 8.26902174,7.11322464 8.32925725,7.77581522 L8.28623188,7.77581522 L7.64945652,6.39900362 L5.79936594,3 L4.5,3 L4.5,9.3763587 Z M11.1173007,9.3763587 L15.1186594,9.3763587 L15.1186594,8.30932971 L12.3908514,8.30932971 L12.3908514,6.60552536 L14.6281703,6.60552536 L14.6281703,5.53849638 L12.3908514,5.53849638 L12.3908514,4.06702899 L15.0240036,4.06702899 L15.0240036,3 L11.1173007,3 L11.1173007,9.3763587 Z M17.1838768,9.3763587 L18.7413949,9.3763587 L19.4384058,6.22690217 C19.5416667,5.72780797 19.6277174,5.23731884 19.7137681,4.74682971 L19.7481884,4.74682971 C19.8256341,5.23731884 19.9202899,5.72780797 20.0235507,6.22690217 L20.7377717,9.3763587 L22.3211051,9.3763587 L23.5,3 L22.2952899,3 L21.7875906,6.11503623 C21.6929348,6.77762681 21.598279,7.45742754 21.5036232,8.14583333 L21.4605978,8.14583333 C21.3229167,7.45742754 21.1938406,6.76902174 21.0561594,6.11503623 L20.3247283,3 L19.2318841,3 L18.4918478,6.11503623 C18.3541667,6.77762681 18.2164855,7.45742754 18.0874094,8.14583333 L18.0529891,8.14583333 C17.9583333,7.45742754 17.8550725,6.78623188 17.7604167,6.11503623 L17.2527174,3 L15.9619565,3 L17.1838768,9.3763587 Z" id="形状结合" fill="#FFFFFF"></path>
            </g>
        </g>
    </g>
</svg>