<svg t="1746701438675" class="icon" viewBox="0 0 1024 1024" version="1.1" xmlns="http://www.w3.org/2000/svg" p-id="2495" width="200" height="200"><path d="M331.434667 610.255238c21.333333 13.336381 44.373333 24.210286 68.705523 32.231619L219.428571 853.333333h328.582096v73.142857H219.428571a73.142857 73.142857 0 0 1-55.539809-120.734476zM499.248762 97.52381c134.656 0 243.809524 109.153524 243.809524 243.809523s-109.153524 243.809524-243.809524 243.809524-243.809524-109.153524-243.809524-243.809524 109.153524-243.809524 243.809524-243.809523z m0 73.142857a170.666667 170.666667 0 1 0 0 341.333333 170.666667 170.666667 0 0 0 0-341.333333z m316.952381 465.115428a73.142857 73.142857 0 0 1 73.142857 73.142857v219.428572l-146.285714-54.857143-146.285715 54.857143v-219.428572a73.142857 73.142857 0 0 1 73.142858-73.142857h146.285714z m0 73.142857h-146.285714v113.859048l73.142857-27.40419 73.142857 27.428571v-113.883429z" p-id="2496"></path></svg>