<?xml version="1.0" encoding="UTF-8"?>
<svg width="18px" height="18px" viewBox="0 0 18 18" version="1.1" xmlns="http://www.w3.org/2000/svg" xmlns:xlink="http://www.w3.org/1999/xlink">
    <title>AI</title>
    <defs>
        <linearGradient x1="-1.42247325e-13%" y1="100%" x2="93.9903846%" y2="100%" id="linearGradient-1">
            <stop stop-color="#3862ED" offset="0%"></stop>
            <stop stop-color="#274CDA" offset="11.9837194%"></stop>
            <stop stop-color="#00AEC7" offset="49.6175699%"></stop>
            <stop stop-color="#17D9CB" offset="66.1604021%"></stop>
            <stop stop-color="#B388E8" offset="100%"></stop>
        </linearGradient>
    </defs>
    <g id="页面-1" stroke="none" stroke-width="1" fill="none" fill-rule="evenodd">
        <g id="编组-21" transform="translate(2.000000, 1.000000)">
            <path d="M12.3300877,6.97542079 L12.3300877,14.9942119 L10.9133195,14.9942119 L10.9133195,6.97663806 L12.3300877,6.97542079 Z M4.72082284,3.90171852 C5.1270164,3.90171852 5.48848031,4.15856317 5.62508708,4.54321878 L9.24332136,14.9942119 L7.85844931,14.9942119 L6.64473585,11.8017676 L2.76118068,11.8017676 L1.3491429,14.9942119 L0,14.9942119 L3.8165586,4.54321878 C3.95301299,4.15842277 4.31503707,3.90159752 4.72082284,3.90171852 Z M4.72082284,6.2826899 L3.25804245,10.4055651 L6.18481213,10.4055651 L4.72324066,6.28147264 L4.72082284,6.2826899 Z" id="形状" fill="url(#linearGradient-1)" fill-rule="nonzero"></path>
            <path d="M5.98765317,1.60588071 C6.9843135,1.60929824 7.49706968,1.07400467 7.52592171,0 C7.57761473,1.1390048 8.08562567,1.67833132 9.04995452,1.61797956 C8.02237495,1.6119242 7.51555464,2.14089969 7.52949359,3.20490603 C7.53002551,2.67686617 7.40109164,2.27885456 7.14269199,2.0108712 C6.75509252,1.60889615 5.98765317,1.60588071 5.98765317,1.60588071 Z" id="路径-28" fill="#B388E8"></path>
            <path d="M9.1762067,4.09412669 C10.7311046,4.09945841 11.5310597,3.26434255 11.576072,1.58877912 C11.6567187,3.36574979 12.4492707,4.20715748 13.953728,4.11300221 C12.3505927,4.10355519 11.5598982,4.92881416 11.5816445,6.58877912 C11.5824743,5.76497983 11.3813236,5.14403867 10.9781922,4.72595565 C10.3734951,4.09883111 9.1762067,4.09412669 9.1762067,4.09412669 Z" id="路径-28" fill="#B388E8"></path>
        </g>
    </g>
</svg>