<svg width="18px" height="18px" viewBox="0 0 18 18" version="1.1" xmlns="http://www.w3.org/2000/svg"
    xmlns:xlink="http://www.w3.org/1999/xlink">
    <title>WindIcon/Outlined/Direction/MenuUnfold</title>
    <g id="WindIcon/Outlined/Direction/MenuUnfold" stroke="none" stroke-width="1" fill="none"
        fill-rule="evenodd">
        <path
            d="M6.9,13.9 C7.01045695,13.9 7.1,13.9895431 7.1,14.1 L7.1,14.9 C7.1,15.0104569 7.01045695,15.1 6.9,15.1 L1.1,15.1 C0.98954305,15.1 0.9,15.0104569 0.9,14.9 L0.9,14.1 C0.9,13.9895431 0.98954305,13.9 1.1,13.9 L6.9,13.9 Z M10.9471468,11.987453 C10.9294893,12.0520969 10.9455413,12.1221614 10.990313,12.1726978 L11.0291987,12.2065488 L16.7489212,16.0196971 C16.7817747,16.0415995 16.8203762,16.0532871 16.8598612,16.0532871 C16.9519087,16.0532871 17.0294326,15.9911044 17.052717,15.906455 L17.0598612,15.8532871 L17.0598612,8.22699049 C17.0598612,8.18750549 17.0481736,8.14890396 17.0262713,8.11605045 C16.9772549,8.04252586 16.8879803,8.01192669 16.8071754,8.03399849 L16.7489212,8.06058043 L11.0291987,11.8737287 L10.9987174,11.8987174 L10.9737287,11.9291987 L10.9471468,11.987453 Z M6.9,7.9 C7.01045695,7.9 7.1,7.98954305 7.1,8.1 L7.1,8.9 C7.1,9.01045695 7.01045695,9.1 6.9,9.1 L1.1,9.1 C0.98954305,9.1 0.9,9.01045695 0.9,8.9 L0.9,8.1 C0.9,7.98954305 0.98954305,7.9 1.1,7.9 L6.9,7.9 Z M16.9,1.9 C17.0104569,1.9 17.1,1.98954305 17.1,2.1 L17.1,2.9 C17.1,3.01045695 17.0104569,3.1 16.9,3.1 L1.1,3.1 C0.98954305,3.1 0.9,3.01045695 0.9,2.9 L0.9,2.1 C0.9,1.98954305 0.98954305,1.9 1.1,1.9 L16.9,1.9 Z"
            id="MenuUnfold" fill="#666666" fill-rule="nonzero"></path>
    </g>
</svg>