<?xml version="1.0" encoding="UTF-8"?>
<svg width="36px" height="36px" viewBox="0 0 36 36" version="1.1" xmlns="http://www.w3.org/2000/svg" xmlns:xlink="http://www.w3.org/1999/xlink">
    <title>Icon/发送消息</title>
    <defs>
        <linearGradient x1="-2.47162737%" y1="103.029003%" x2="102.647645%" y2="-2.56269232%" id="linearGradient-1">
            <stop stop-color="#3862ED" offset="0%"></stop>
            <stop stop-color="#274CDA" offset="22.5770323%"></stop>
            <stop stop-color="#00AEC7" offset="63.5680726%"></stop>
            <stop stop-color="#12CBBE" offset="75.9506119%"></stop>
            <stop stop-color="#9D9AE3" offset="100%"></stop>
        </linearGradient>
    </defs>
    <g id="Icon/发送消息" stroke="none" stroke-width="1" fill="none" fill-rule="evenodd">
        <rect id="矩形" x="0" y="0" width="36" height="36"></rect>
        <rect id="矩形" fill="url(#linearGradient-1)" x="1" y="1" width="34" height="34" rx="17"></rect>
        <path d="M11.3777036,7.88598336 L29.074727,17.0246102 C29.5961157,17.2938519 29.8005212,17.9347844 29.5312795,18.4561731 C29.4301392,18.6520321 29.270586,18.8115853 29.074727,18.9127256 L11.3813207,28.0494846 C10.8599321,28.3187263 10.2189995,28.1143207 9.94975785,27.5929321 C9.83154534,27.3640126 9.80053862,27.0999384 9.86250906,26.8498624 L11.7924498,19.0615395 L18.7083333,19.0625 C19.2560157,19.0625 19.7069132,18.6481147 19.7645987,18.1157711 L19.7708333,18 C19.7708333,17.4131975 19.2951359,16.9375 18.7083333,16.9375 L11.7934498,16.9365395 L9.85855846,9.08425618 C9.71815932,8.51449718 10.0662243,7.93880027 10.6359833,7.79840113 C10.8856754,7.73687239 11.1492094,7.76799044 11.3777036,7.88598336 Z" id="形状结合" fill="#FFFFFF"></path>
    </g>
</svg>