<svg xmlns="http://www.w3.org/2000/svg" xmlns:xlink="http://www.w3.org/1999/xlink" fill="none"
    version="1.1" width="20" height="16" viewBox="0 0 20 16">
    <defs>
        <clipPath id="master_svg0_124_49696/50_06880/48_4816/39_01451">
            <rect x="0" y="0" width="20" height="16" rx="0" />
        </clipPath>
    </defs>
    <g clip-path="url(#master_svg0_124_49696/50_06880/48_4816/39_01451)">
        <g transform="matrix(1,0,0,-1,0,32.68752670288086)">
            <g>
                <path
                    d="M6.584630104308128,21.34376335144043Q9.317550104308129,21.40626335144043,11.14980010430813,22.96876335144043Q12.98210010430813,24.50001335144043,13.044300104308128,26.84376335144043Q12.98210010430813,29.18756335144043,11.14980010430813,30.71876335144043Q9.317550104308129,32.28126335144043,6.584630104308128,32.34376335144043Q3.8517101043081285,32.28126335144043,2.019410104308128,30.71876335144043Q0.18711190430812835,29.18756335144043,0.12500010430812836,26.84376335144043Q0.15605600430812835,25.00001335144043,1.3672401043081284,23.62501335144043Q1.1809001043081284,23.15626335144043,0.9013981043081284,22.84376335144043Q0.6840061043081284,22.56251335144043,0.49767110430812833,22.40626335144043Q0.40450310430812836,22.31251335144043,0.37344710430812833,22.28126335144043Q0.34239110430812836,22.25001335144043,0.34239110430812836,22.25001335144043L0.3113351043081284,22.25001335144043Q0.06288830430812836,22.03126335144043,0.15605600430812835,21.68751335144043Q0.28028010430812833,21.37501335144043,0.6218941043081283,21.34376335144043Q1.6778001043081283,21.37501335144043,2.547360104308128,21.71876335144043Q2.982140104308128,21.90626335144043,3.3237601043081284,22.09376335144043Q4.783390104308128,21.37501335144043,6.584630104308128,21.34376335144043ZM14.038000104308129,26.84376335144043Q13.944900104308129,24.15626335144043,12.050500104308128,22.40626335144043Q10.125000104308128,20.65626335144043,7.329970104308129,20.37501335144043Q7.920030104308128,18.59376335144043,9.597050104308128,17.50001335144043Q11.274100104308129,16.37501335144043,13.541100104308128,16.34376335144043Q15.342400104308128,16.37501335144043,16.802000104308128,17.09376335144043Q17.143600104308128,16.90626335144043,17.578400104308127,16.71876335144043Q18.44800010430813,16.37501335144043,19.50390010430813,16.34376335144043Q19.84550010430813,16.37501335144043,19.969700104308128,16.68751335144043Q20.062900104308127,17.03126335144043,19.78340010430813,17.25001335144043L19.78340010430813,17.28126335144043Q19.75230010430813,17.28126335144043,19.75230010430813,17.28126335144043Q19.721300104308128,17.31251335144043,19.62810010430813,17.40626335144043Q19.44180010430813,17.56251335144043,19.224400104308128,17.84376335144043Q18.94490010430813,18.18751335144043,18.75850010430813,18.62501335144043Q19.969700104308128,20.00001335144043,20.00080010430813,21.84376335144043Q19.93870010430813,24.06251335144043,18.26160010430813,25.59376335144043Q16.584600104308127,27.124963351440428,14.007000104308128,27.34376335144043Q14.038000104308129,27.09376335144043,14.038000104308129,26.84376335144043Z"
                    fill="#000000" fill-opacity="1" style="mix-blend-mode:passthrough" />
            </g>
        </g>
    </g>
</svg>