<svg xmlns="http://www.w3.org/2000/svg" xmlns:xlink="http://www.w3.org/1999/xlink" fill="none"
    version="1.1" width="16" height="16" viewBox="0 0 16 16">
    <defs>
        <clipPath id="master_svg0_124_49603">
            <rect x="0" y="0" width="16" height="16" rx="0" />
        </clipPath>
    </defs>
    <g clip-path="url(#master_svg0_124_49603)">
        <g transform="matrix(1,0,0,-1,0,30.6875)">
            <g>
                <path
                    d="M0,27.34375Q0.03125,28.18755,0.59375,28.74995Q1.15625,29.31255,2,29.34375L14,29.34375Q14.8438,29.31255,15.4062,28.74995Q15.9688,28.18755,16,27.34375L16,17.34375Q15.9688,16.5,15.4062,15.9375Q14.8438,15.375,14,15.34375L2,15.34375Q1.15625,15.375,0.59375,15.9375Q0.03125,16.5,0,17.34375L0,27.34375ZM10.125,24Q9.875,24.34375,9.5,24.34375Q9.09375,24.34375,8.875,24L6.15625,20.03125L5.34375,21.0625Q5.09375,21.34375,4.75,21.34375Q4.40625,21.34375,4.15625,21.0625L2.15625,18.5625Q1.90625,18.1875,2.0625,17.78125Q2.28125,17.375,2.75,17.34375L5.75,17.34375L13.25,17.34375Q13.6875,17.34375,13.9062,17.75Q14.0938,18.15625,13.875,18.5L10.125,24ZM3.5,24.34375Q4.34375,24.375,4.8125,25.09375Q5.1875,25.84375,4.8125,26.59375Q4.34375,27.31255,3.5,27.34375Q2.65625,27.31255,2.1875,26.59375Q1.8125,25.84375,2.1875,25.09375Q2.65625,24.375,3.5,24.34375Z"
                    fill="#22C55E" fill-opacity="1" style="mix-blend-mode:passthrough" />
            </g>
        </g>
    </g>
</svg>