<svg viewBox="0 0 18 18" focusable="false" class="" data-icon="close" width="18px" height="18px" fill="#707680" aria-hidden="true" version="1.1" xmlns="http://www.w3.org/2000/svg" xmlns:xlink="http://www.w3.org/1999/xlink"><path d="M9.02 8.15l4.45-4.45a.2.2 0 01.28 0l.57.56a.2.2 0 010 .29L9.87 9l4.45 4.45a.2.2 0 010 .29l-.57.56a.2.2 0 01-.28 0L9.02 9.85 4.56 14.3a.2.2 0 01-.28 0l-.57-.56a.2.2 0 010-.29L8.17 9 3.7 4.55a.2.2 0 010-.29l.57-.56a.2.2 0 01.28 0l4.46 4.45z" fill-rule="nonzero"></path></svg>