<svg viewBox="0 0 18 18" focusable="false" class="" data-icon="exclamation-circle" width="18px" height="18px" fill="#707680" aria-hidden="true" version="1.1" xmlns="http://www.w3.org/2000/svg" xmlns:xlink="http://www.w3.org/1999/xlink"><path d="M9 .9a8.1 8.1 0 110 16.2A8.1 8.1 0 019 .9zm0 1.2a6.9 6.9 0 100 13.8A6.9 6.9 0 009 2.1zm-.46 1.8h.91c.11 0 .2.09.2.2l-.17 6.5c0 .11-.1.2-.2.2h-.55a.2.2 0 01-.2-.2l-.19-6.5c0-.1.09-.2.2-.2zM9 12.2a.8.8 0 01.83.8.8.8 0 01-.23.6.86.86 0 01-.6.23.79.79 0 01-.57-.24.8.8 0 01-.25-.58c0-.24.09-.43.24-.58A.74.74 0 019 12.2z" fill-rule="nonzero"></path></svg>