<?xml version="1.0" encoding="UTF-8"?>
<svg width="18px" height="18px" viewBox="0 0 18 18" version="1.1" xmlns="http://www.w3.org/2000/svg" xmlns:xlink="http://www.w3.org/1999/xlink">
    <title>深度思考-选中</title>
    <defs>
        <linearGradient x1="-1.42247325e-13%" y1="100%" x2="93.9903846%" y2="100%" id="linearGradient-1">
            <stop stop-color="#2C80FC" offset="0%"></stop>
            <stop stop-color="#16EBFF" offset="52.3963341%"></stop>
            <stop stop-color="#A45AFF" offset="100%"></stop>
        </linearGradient>
    </defs>
    <g id="页面-1" stroke="none" stroke-width="1" fill="none" fill-rule="evenodd">
        <g id="画板" fill="url(#linearGradient-1)" fill-rule="nonzero">
            <path d="M10.4777302,15.0665933 C10.5477298,15.0665933 10.6099516,15.1132597 10.6255071,15.1832593 L10.6255071,15.8443667 C10.6287373,15.9149263 10.5840221,15.9788052 10.5166188,15.9999214 L7.5221912,15.9999214 C7.44942794,16.0022237 7.38480003,15.9537527 7.36663652,15.8832554 L7.36663652,15.222148 C7.36663652,15.1443706 7.41330293,15.0899265 7.4755248,15.0665933 L10.4777302,15.0665933 Z M11.2555036,13.5888238 C11.3255032,13.5888238 11.387725,13.6354902 11.4032805,13.7054898 L11.4032805,14.3665972 C11.4065108,14.4371568 11.3617955,14.5010357 11.2943922,14.5221519 L6.7444178,14.5221519 C6.67165454,14.5244542 6.60702662,14.4759832 6.58886311,14.4054859 L6.58886311,13.7443785 C6.58886311,13.6666011 6.63552952,13.612157 6.69775139,13.5888238 L11.2555036,13.5888238 Z M8.99996068,4.25554289 C11.0464369,4.25660951 12.8616034,5.56977377 13.502923,7.51316647 C14.1442426,9.45655916 13.4671694,11.5921625 11.8232782,12.8110504 L11.6988344,12.8966055 C11.6451691,12.9343216 11.5736119,12.9343216 11.5199465,12.8966055 L11.4810579,12.8577168 L11.1388376,12.3443863 C11.1140842,12.3113818 11.1034556,12.2698958 11.10929,12.2290548 C11.1151245,12.1882138 11.136944,12.1513632 11.1699485,12.1266098 L11.2399481,12.0799434 C12.2230741,11.3610582 12.8062142,10.2178725 12.8110504,8.99996068 C12.8098003,7.22906731 11.5888741,5.69236378 9.86410444,5.29082373 C8.13933475,4.88928368 6.36522465,5.72871905 5.58193993,7.31696649 C4.79865521,8.90521393 5.21260335,10.823746 6.58108538,11.9477219 L6.8144174,12.1266098 C6.87663928,12.1654985 6.89219474,12.2354981 6.87663928,12.2977199 L6.86108381,12.3366086 L6.51108577,12.8577168 C6.46485717,12.9269238 6.37229469,12.9475378 6.30108695,12.9043832 L6.24664281,12.8654945 C4.99981256,11.9722567 4.25884108,10.5337301 4.25554289,8.99996068 C4.25554289,6.37969109 6.37969109,4.25554289 8.99996068,4.25554289 Z M9.07773802,5.8110897 L9.12440443,5.8110897 C10.7752309,5.87769247 12.1018033,7.19413831 12.1810539,8.844406 L12.1810539,8.92218334 C12.1842842,8.99274296 12.1395689,9.05662187 12.0721656,9.07773802 L11.4110583,9.07773802 C11.3433511,9.07747114 11.2835931,9.03343894 11.2632813,8.96884975 L11.2632813,8.89885014 C11.2141543,7.79682304 10.3751497,6.89201416 9.27995911,6.75997326 L9.10884896,6.7444178 L9.07773802,6.7444178 C9.01003084,6.74415092 8.95027286,6.70011872 8.92994738,6.63552952 L8.92994738,5.96664439 C8.92909308,5.90098111 8.96955404,5.84184586 9.03107162,5.81886744 L9.07773802,5.81886744 L9.07773802,5.8110897 Z M3.55554682,8.14440993 C3.63332416,8.14440993 3.6877683,8.19107634 3.7111015,8.26107594 L3.7111015,8.92218334 C3.7134038,8.9949466 3.66493286,9.05957452 3.59443549,9.07773802 L2.15555468,9.07773802 C2.08279142,9.08004032 2.0181635,9.03156938 2,8.96107201 L2,8.29996461 C2,8.22218727 2.0466664,8.16774313 2.11666601,8.14440993 L3.55554682,8.14440993 L3.55554682,8.14440993 Z M15.8443667,8.14440993 C15.922144,8.14440993 15.9765882,8.19107634 15.9999214,8.26107594 L15.9999214,8.92218334 C16.0022237,8.9949466 15.9537527,9.05957452 15.8832554,9.07773802 L14.4443745,9.07773802 C14.3716113,9.08004032 14.3069834,9.03156938 14.2888199,8.96107201 L14.2888199,8.29996461 C14.2888199,8.22218727 14.3354863,8.16774313 14.4054859,8.14440993 L15.8443667,8.14440993 L15.8443667,8.14440993 Z M4.25554289,3.60999096 L4.30220929,3.64110189 L5.28998152,4.62887412 C5.33768785,4.67563709 5.35020982,4.7476384 5.32109246,4.80776201 L5.28998152,4.84665068 L4.85442841,5.28998152 C4.80766545,5.33768785 4.73566413,5.35020982 4.67554053,5.32109246 L4.62887412,5.28998152 L3.64110189,4.30220929 C3.59339556,4.25544633 3.5808736,4.18344501 3.60999096,4.12332141 L3.64110189,4.076655 L4.08443274,3.64110189 C4.1311957,3.59339556 4.20319702,3.5808736 4.26332062,3.60999096 L4.25554289,3.60999096 Z M13.7910449,3.60999096 C13.8350743,3.58780441 13.8870147,3.58780441 13.9310441,3.60999096 L13.9699328,3.64110189 L14.4132636,4.076655 L14.4443745,4.12332141 C14.4665611,4.16735078 14.4665611,4.21929125 14.4443745,4.26332062 L14.4132636,4.30220929 L13.4254914,5.28998152 L13.378825,5.32109246 C13.3369444,5.34075595 13.2884841,5.34075595 13.2466035,5.32109246 L13.1999371,5.28998152 L12.764384,4.84665068 L12.733273,4.80776201 C12.7110865,4.76373263 12.7110865,4.71179217 12.733273,4.66776279 L12.764384,4.62887412 L13.7521562,3.64110189 L13.7910449,3.60999096 L13.7910449,3.60999096 Z M9.31107005,2 C9.38106965,2 9.44329153,2.05444414 9.45884699,2.11666601 L9.45884699,3.55554682 C9.46207723,3.62610644 9.417362,3.68998535 9.34995872,3.7111015 L8.68885132,3.7111015 C8.6182917,3.71433174 8.55441279,3.6696165 8.53329664,3.60221322 L8.53329664,2.15555468 C8.53329664,2.08555508 8.57996304,2.03111094 8.64218491,2.00777773 L9.31107005,2.00777773 L9.31107005,2 Z" id="形状"></path>
        </g>
    </g>
</svg>