<?xml version="1.0" encoding="UTF-8"?>
<svg width="36px" height="36px" viewBox="0 0 36 36" version="1.1" xmlns="http://www.w3.org/2000/svg"
    xmlns:xlink="http://www.w3.org/1999/xlink">
    <title>Icon/深度思考</title>
    <g id="Icon/深度思考" stroke="none" stroke-width="1" fill="none" fill-rule="evenodd">
        <rect id="矩形" x="0" y="0" width="36" height="36"></rect>
        <path
            d="M18,6.15555556 C22.6776862,6.15799356 26.8266614,9.15952874 28.292543,13.6015941 C29.7584246,18.0436595 28.2108201,22.925066 24.4533333,25.7111111 L24.1688889,25.9066667 C24.0462246,25.9928754 23.8826643,25.9928754 23.76,25.9066667 L23.6711111,25.8177778 L22.8888889,24.6444444 C22.8323094,24.5690051 22.8080154,24.4741794 22.8213513,24.380828 C22.8346872,24.2874765 22.8845606,24.2032462 22.96,24.1466667 L23.12,24.04 C25.3671578,22.3968246 26.700057,19.7838142 26.7111111,17 C26.7082537,12.952221 23.9175497,9.43973604 19.9751968,8.52192506 C16.032844,7.60411408 11.9777124,9.52283426 10.1873373,13.1531345 C8.39696213,16.7834348 9.34313462,21.1686756 12.4711111,23.7377778 L13.0044444,24.1466667 C13.1466667,24.2355556 13.1822222,24.3955556 13.1466667,24.5377778 L13.1111111,24.6266667 L12.3111111,25.8177778 C12.2054451,25.9759661 11.9938726,26.023084 11.8311111,25.9244444 L11.7066667,25.8355556 C8.85675293,23.7938577 7.16309433,20.5057783 7.15555556,17 C7.15555556,11.0107787 12.0107787,6.15555556 18,6.15555556 L18,6.15555556 Z"
            id="路径" fill="#666666" fill-rule="nonzero"></path>
        <path
            d="M18.1777778,11.7111111 L18.2844444,11.7111111 C22.0577834,11.8633469 24.0899658,13.8723828 24.2711111,17.6444444 L24.2711111,17.8222222 C24.2784946,17.9835023 24.1762877,18.129512 24.0222222,18.1777778 L22.5111111,18.1777778 C22.356351,18.1771678 22.2197605,18.0765222 22.1733333,17.9288889 L22.1733333,17.7688889 C22.0610424,15.2499557 21.1433068,14.1818095 18.64,13.88 L18.2488889,13.8444444 L18.1777778,13.8444444 C18.0230176,13.8438344 17.8864272,13.7431888 17.8399384,13.5955556 L17.8399384,12.0666667 C17.838016,11.9165783 17.9304987,11.7814113 18.0711111,11.7288889 L18.1777778,11.7288889 L18.1777778,11.7111111 Z"
            id="路径" fill="#0596B3" fill-rule="nonzero"
            transform="translate(21.0557, 14.9444) rotate(8) translate(-21.0557, -14.9444)"></path>
        <rect id="矩形" fill="#666666" fill-rule="nonzero" x="16.8" y="1" width="2.4" height="4"
            rx="0.400000006"></rect>
        <rect id="矩形" fill="#666666" fill-rule="nonzero" x="2" y="15" width="4" height="2.4"
            rx="0.400000006"></rect>
        <rect id="矩形" fill="#666666" fill-rule="nonzero"
            transform="translate(7, 7.2) rotate(45) translate(-7, -7.2)" x="5" y="6" width="4"
            height="2.4" rx="0.400000006"></rect>
        <rect id="矩形" fill="#666666" fill-rule="nonzero" x="30" y="15" width="4" height="2.4"
            rx="0.400000006"></rect>
        <rect id="矩形" fill="#666666" fill-rule="nonzero"
            transform="translate(29, 7.2) rotate(135) translate(-29, -7.2)" x="27" y="6" width="4"
            height="2.4" rx="0.400000006"></rect>
        <rect id="矩形" fill="#666666" fill-rule="nonzero" x="14" y="33.2" width="8" height="1.8"
            rx="0.400000006"></rect>
        <path
            d="M10.2218254,9.22182541 C14.5175926,4.9260582 21.4824074,4.9260582 25.7781746,9.22182541 C30.0739418,13.5175926 30.0739418,20.4824074 25.7781746,24.7781746 C25.1676319,25.3887173 24.5755155,26.7959924 24.0018254,29 L12,29 C11.7712263,27.1421258 11.1785015,25.7348507 10.2218254,24.7781746 C5.9260582,20.4824074 5.9260582,13.5175926 10.2218254,9.22182541 Z M12.3449712,11.3367966 C9.22077682,14.4609909 9.2496285,19.4977258 12.3449712,22.6505051 C13.7007878,24.03148 14.5146916,25.1502584 14.7866826,26.0068403 L21.3618823,26.0068403 C21.8046702,24.8913807 22.5702693,23.7726022 23.6586797,22.6505051 C26.7349097,19.4790643 26.782874,14.4609909 23.6586797,11.3367966 C20.5344853,8.21260223 15.4691655,8.21260223 12.3449712,11.3367966 Z"
            id="形状结合" fill="#666666"></path>
        <rect id="矩形" fill="#666666" fill-rule="nonzero" x="12" y="30" width="12" height="2.4"
            rx="0.400000006"></rect>
    </g>
</svg>