<?xml version="1.0" encoding="UTF-8"?>
<svg width="36px" height="36px" viewBox="0 0 36 36" version="1.1" xmlns="http://www.w3.org/2000/svg" xmlns:xlink="http://www.w3.org/1999/xlink">
    <title>Icon/已踩</title>
    <g id="Icon/已踩" stroke="none" stroke-width="1" fill="none" fill-rule="evenodd">
        <rect id="矩形" x="0" y="0" width="36" height="36"></rect>
        <path d="M28.2262376,1.51738934 C28.9303222,1.56707317 29.6098741,1.78816621 30.1986556,2.16824752 C30.8365022,2.5831075 31.351686,3.1668925 31.5847454,3.68112014 L31.830071,4.09349593 C32.0711689,4.67473574 32.3215691,5.46571484 32.571013,6.37760339 C32.8248786,7.30565629 33.0772686,8.35894317 33.3175783,9.44382612 L33.4473946,10.0381511 C34.2611691,13.814926 34.9077685,17.7655894 34.95,18.0298103 L34.99,18.4421861 C35.0586912,19.3563686 34.8310252,20.2432249 34.36,21.0083559 C33.6191166,22.215673 32.3477081,22.968383 31.0303095,23.0081301 L23.5,23.0478771 C24.0446229,24.6402439 24.2,26.2996838 24.2,27.9789973 C24.2,28.8136856 24.1570084,29.6682475 24,30.5898826 L23.9,31.2556459 C23.4657736,33.163505 21.5558339,35 19.2767589,35 C16.9976839,35 15.2692784,32.7518482 15.2692784,30.4415501 L15.2692784,30.0664372 C15.1821038,26.902013 11.9912138,22.6818351 10.2814122,21.7912527 C10.1879388,21.7662154 10.0939699,21.7446748 10.0004312,21.7261427 L10,1.52338934 L28.2262376,1.51738934 Z M2.57008399,1.52732611 L7,1.53438934 L7,21.6103893 L2.45232769,21.6095303 C1.65992593,21.6095303 1.01471954,20.9537037 1.01471954,20.1513098 L1,2.96070461 C1,2.14588979 1.69672477,1.55216802 2.57008399,1.52732611 Z" id="形状结合" fill="#333333" fill-rule="nonzero"></path>
    </g>
</svg>