<?xml version="1.0" encoding="UTF-8"?>
<svg width="24px" height="24px" viewBox="0 0 24 24" version="1.1" xmlns="http://www.w3.org/2000/svg" xmlns:xlink="http://www.w3.org/1999/xlink">
    <title>AI构建-选中</title>
    <defs>
        <linearGradient x1="-9.50390865e-14%" y1="83.5815672%" x2="87.7754273%" y2="30.9065071%" id="linearGradient-1">
            <stop stop-color="#274CDA" offset="0%"></stop>
            <stop stop-color="#00AEC7" offset="68.9220935%"></stop>
            <stop stop-color="#00AEC7" offset="100%"></stop>
        </linearGradient>
    </defs>
    <g id="AI构建-选中" stroke="none" stroke-width="1" fill="none" fill-rule="evenodd">
        <path d="M14.8218482,2.97563594 C14.9323052,2.97563594 15.0218483,3.06517899 15.0218483,3.17563594 L15.0218483,4.37563594 C15.0218483,4.48609289 14.9323052,4.57563594 14.8218482,4.57563594 L12.8127302,4.57563594 L12.8127302,5.99963594 L19.8,6 C19.9104569,6 20,6.08954305 20,6.2 L20,20.8 C20,20.9104569 19.9104569,21 19.8,21 L4.2,21 C4.08954305,21 4,20.9104569 4,20.8 L4,6.2 C4,6.08954305 4.08954305,6 4.2,6 L11.2127302,5.99963594 L11.2127302,4.57563594 L9.18532168,4.57563594 C9.07486473,4.57563594 8.98532168,4.48609289 8.98532168,4.37563594 L8.98532168,3.17563594 C8.98532168,3.06517899 9.07486473,2.97563594 9.18532168,2.97563594 L14.8218482,2.97563594 Z M14.4634226,13.5515236 C13.8111461,14.5363983 12.9990424,15.0288357 12.0271115,15.0288357 C11.0551805,15.0288357 10.2430768,14.5363983 9.59080036,13.5515236 L8.14942623,14.2461031 C8.97944722,15.8345915 10.272009,16.6288357 12.0271115,16.6288357 C13.782214,16.6288357 15.0747757,15.8345915 15.9047967,14.2461031 Z M2.40973024,11.2 C2.52018719,11.2 2.60973025,11.2895431 2.60973025,11.4 L2.60973025,16.1 C2.60973025,16.2104569 2.52018719,16.3 2.40973024,16.3 L1.20973025,16.3 C1.0992733,16.3 1.00973025,16.2104569 1.00973025,16.1 L1.00973025,11.4 C1.00973025,11.2895431 1.0992733,11.2 1.20973025,11.2 L2.40973024,11.2 Z M22.8032366,11.2 C22.9136935,11.2 23.0032366,11.2895431 23.0032366,11.4 L23.0032366,16.1 C23.0032366,16.2104569 22.9136935,16.3 22.8032366,16.3 L21.6032366,16.3 C21.4927796,16.3 21.4032366,16.2104569 21.4032366,16.1 L21.4032366,11.4 C21.4032366,11.2895431 21.4927796,11.2 21.6032366,11.2 L22.8032366,11.2 Z" id="形状结合" fill="url(#linearGradient-1)" fill-rule="nonzero"></path>
    </g>
</svg>