<?xml version="1.0" encoding="UTF-8"?>
<svg width="24px" height="24px" viewBox="0 0 24 24" version="1.1" xmlns="http://www.w3.org/2000/svg" xmlns:xlink="http://www.w3.org/1999/xlink">
    <title>图谱平台-默认</title>
    <g id="图谱平台-默认" stroke="none" stroke-width="1" fill="none" fill-rule="evenodd">
        <path d="M11,16.1907523 L11,21.7907523 C11,21.9012093 10.9104569,21.9907523 10.8,21.9907523 L3.2,21.9907523 C3.08954305,21.9907523 3,21.9012093 3,21.7907523 L3,16.1907523 C3,16.0802954 3.08954305,15.9907523 3.2,15.9907523 L10.8,15.9907523 C10.9104569,15.9907523 11,16.0802954 11,16.1907523 Z M9.4,17.5907523 L4.6,17.5907523 L4.6,20.3907523 L9.4,20.3907523 L9.4,17.5907523 Z M21,16.1907523 L21,21.7907523 C21,21.9012093 20.9104569,21.9907523 20.8,21.9907523 L13.2,21.9907523 C13.0895431,21.9907523 13,21.9012093 13,21.7907523 L13,16.1907523 C13,16.0802954 13.0895431,15.9907523 13.2,15.9907523 L20.8,15.9907523 C20.9104569,15.9907523 21,16.0802954 21,16.1907523 Z M19.4,17.5907523 L14.6,17.5907523 L14.6,20.3907523 L19.4,20.3907523 L19.4,17.5907523 Z M12.65,2 C12.7604569,2 12.85,2.08954305 12.85,2.2 L12.849,4.995 L12.85,5.409 L17.6969048,5.40997105 C17.7889418,5.41001288 17.8664503,5.4721989 17.8897485,5.55684094 L17.8969048,5.61000339 L17.8969048,12.3431736 C17.8969048,12.4536306 17.8073618,12.5431736 17.6969048,12.5431736 L12.85,12.543 L12.85,13.19 L17.7,13.1907523 C17.8104569,13.1907523 17.9,13.2802954 17.9,13.3907523 L17.9,15.9907523 L16.3,15.9907523 L16.3,14.7907523 L7.8,14.7907523 L7.8,15.9907523 L6.2,15.9907523 L6.2,13.3907523 C6.2,13.2802954 6.28954305,13.1907523 6.4,13.1907523 L11.25,13.19 L11.25,12.543 L6.4,12.5431736 C6.28954305,12.5431736 6.2,12.4536306 6.2,12.3431736 L6.2,5.8663566 C6.2,5.79539786 6.23759844,5.72975178 6.29880345,5.69384788 L12.5488034,2.02749128 C12.5794901,2.00948998 12.6144231,2 12.65,2 Z M11.25,4.44921292 L7.799,6.47321292 L7.799,10.9431736 L11.25,10.943 L11.25,4.44921292 Z M16.296,6.81521292 L12.85,6.816 L12.85,10.943 L16.296,10.9431736 L16.296,6.81521292 Z M10.3412862,8.69148361 C10.4517432,8.69148361 10.5412863,8.78102666 10.5412863,8.89148362 L10.5412863,10.0914836 C10.5412863,10.2019406 10.4517432,10.2914836 10.3412862,10.2914836 L8.61205413,10.2914836 C8.50159718,10.2914836 8.41205413,10.2019406 8.41205413,10.0914836 L8.41205413,8.89148362 C8.41205413,8.78102666 8.50159718,8.69148361 8.61205413,8.69148361 L10.3412862,8.69148361 Z M15.4389457,8.00085476 C15.5494026,8.00085476 15.6389457,8.09039781 15.6389457,8.20085477 L15.6389457,9.40085476 C15.6389457,9.51131171 15.5494026,9.60085476 15.4389457,9.60085476 L13.7097135,9.60085476 C13.5992566,9.60085476 13.5097135,9.51131171 13.5097135,9.40085476 L13.5097135,8.20085477 C13.5097135,8.09039781 13.5992566,8.00085476 13.7097135,8.00085476 L15.4389457,8.00085476 Z M10.3412862,6.69148361 C10.4517432,6.69148361 10.5412863,6.78102666 10.5412863,6.89148362 L10.5412863,8.09148361 C10.5412863,8.20194056 10.4517432,8.29148361 10.3412862,8.29148361 L8.61205413,8.29148361 C8.50159718,8.29148361 8.41205413,8.20194056 8.41205413,8.09148361 L8.41205413,6.89148362 C8.41205413,6.78102666 8.50159718,6.69148361 8.61205413,6.69148361 L10.3412862,6.69148361 Z" id="形状结合" fill="#707680" fill-rule="nonzero"></path>
    </g>
</svg>