<?xml version="1.0" encoding="UTF-8"?>
<svg width="380px" height="32px" viewBox="0 0 380 32" version="1.1" xmlns="http://www.w3.org/2000/svg" xmlns:xlink="http://www.w3.org/1999/xlink">
    <title>英文大标题</title>
    <g id="英文大标题" stroke="none" stroke-width="1" fill="none" fill-rule="evenodd">
        <g id="Global-Enterprise-Li" transform="translate(16.7935, 1.232)" fill="#FFFFFF" fill-rule="nonzero">
            <path d="M10.332,23.66 C13.244,23.66 15.82,22.512 17.276,21.112 L17.276,11.368 L9.52,11.368 L9.52,15.456 L12.824,15.456 L12.824,18.816 C12.376,19.152 11.592,19.348 10.836,19.348 C6.972,19.348 5.124,16.94 5.124,12.796 C5.124,8.736 7.336,6.328 10.416,6.328 C12.152,6.328 13.244,7.028 14.252,7.952 L16.912,4.76 C15.484,3.332 13.3,2.044 10.248,2.044 C4.676,2.044 0,6.02 0,12.964 C0,20.02 4.536,23.66 10.332,23.66 Z" id="路径"></path>
            <path d="M24.8475862,23.66 C25.9395862,23.66 26.7795862,23.464 27.3115862,23.24 L26.7235862,19.572 C26.4435862,19.628 26.3315862,19.628 26.1635862,19.628 C25.7715862,19.628 25.2675862,19.32 25.2675862,18.284 L25.2675862,0.896 L20.3115862,0.896 L20.3115862,18.088 C20.3115862,21.42 21.4315862,23.66 24.8475862,23.66 Z" id="路径"></path>
            <path d="M35.7511724,23.66 C39.7831724,23.66 43.5351724,20.58 43.5351724,15.316 C43.5351724,10.024 39.7831724,6.944 35.7511724,6.944 C31.6911724,6.944 27.9391724,10.024 27.9391724,15.316 C27.9391724,20.58 31.6911724,23.66 35.7511724,23.66 Z M35.7511724,19.628 C33.8751724,19.628 33.0351724,17.948 33.0351724,15.316 C33.0351724,12.656 33.8751724,10.976 35.7511724,10.976 C37.5991724,10.976 38.4391724,12.656 38.4391724,15.316 C38.4391724,17.948 37.5991724,19.628 35.7511724,19.628 Z" id="形状"></path>
            <path d="M54.4107586,23.66 C57.8267586,23.66 61.1027586,20.524 61.1027586,15.008 C61.1027586,10.136 58.6667586,6.944 54.8587586,6.944 C53.4027586,6.944 51.9187586,7.588 50.7427586,8.652 L50.8547586,6.272 L50.8547586,0.896 L45.8987586,0.896 L45.8987586,23.268 L49.7907586,23.268 L50.1827586,21.56 L50.2947586,21.56 C51.5547586,22.96 53.0107586,23.66 54.4107586,23.66 Z M53.2347586,19.572 C52.4787586,19.572 51.6387586,19.348 50.8547586,18.648 L50.8547586,12.348 C51.7227586,11.424 52.4787586,11.004 53.4027586,11.004 C55.1667586,11.004 55.9787586,12.32 55.9787586,15.12 C55.9787586,18.312 54.7467586,19.572 53.2347586,19.572 Z" id="形状"></path>
            <path d="M67.2183448,23.66 C68.9823448,23.66 70.4663448,22.848 71.7823448,21.672 L71.8943448,21.672 L72.2583448,23.268 L76.3183448,23.268 L76.3183448,14.224 C76.3183448,9.24 73.9943448,6.944 69.8783448,6.944 C67.3863448,6.944 65.1183448,7.784 63.0183448,9.044 L64.7543448,12.32 C66.3503448,11.424 67.6663448,10.92 68.9263448,10.92 C70.5503448,10.92 71.2223448,11.676 71.3343448,12.964 C65.1183448,13.636 62.4863448,15.456 62.4863448,18.816 C62.4863448,21.476 64.2783448,23.66 67.2183448,23.66 Z M68.9263448,19.796 C67.8903448,19.796 67.2183448,19.348 67.2183448,18.424 C67.2183448,17.304 68.2263448,16.408 71.3343448,15.988 L71.3343448,18.536 C70.6063448,19.32 69.9343448,19.796 68.9263448,19.796 Z" id="形状"></path>
            <path d="M83.917931,23.66 C85.009931,23.66 85.849931,23.464 86.381931,23.24 L85.793931,19.572 C85.513931,19.628 85.401931,19.628 85.233931,19.628 C84.841931,19.628 84.337931,19.32 84.337931,18.284 L84.337931,0.896 L79.381931,0.896 L79.381931,18.088 C79.381931,21.42 80.501931,23.66 83.917931,23.66 Z" id="路径"></path>
            <polygon id="路径" points="99.5766897 23.268 113.10069 23.268 113.10069 19.068 104.58869 19.068 104.58869 14.644 111.56069 14.644 111.56069 10.444 104.58869 10.444 104.58869 6.58 112.79269 6.58 112.79269 2.436 99.5766897 2.436"></polygon>
            <path d="M116.052276,23.268 L121.008276,23.268 L121.008276,12.628 C121.988276,11.704 122.660276,11.2 123.780276,11.2 C125.040276,11.2 125.628276,11.844 125.628276,14.028 L125.628276,23.268 L130.612276,23.268 L130.612276,13.412 C130.612276,9.436 129.128276,6.944 125.656276,6.944 C123.500276,6.944 121.876276,8.036 120.560276,9.324 L120.448276,9.324 L120.112276,7.336 L116.052276,7.336 L116.052276,23.268 Z" id="路径"></path>
            <path d="M139.975862,23.66 C141.599862,23.66 142.747862,23.324 143.587862,23.072 L142.803862,19.488 C142.411862,19.6 141.851862,19.768 141.347862,19.768 C140.171862,19.768 139.331862,19.068 139.331862,17.304 L139.331862,11.228 L143.083862,11.228 L143.083862,7.336 L139.331862,7.336 L139.331862,3.136 L135.187862,3.136 L134.627862,7.336 L132.191862,7.532 L132.191862,11.228 L134.347862,11.228 L134.347862,17.36 C134.347862,21.14 135.971862,23.66 139.975862,23.66 Z" id="路径"></path>
            <path d="M151.971448,23.66 C153.847448,23.66 156.031448,23.016 157.683448,21.84 L156.031448,18.844 C154.883448,19.516 153.819448,19.852 152.671448,19.852 C150.655448,19.852 149.143448,18.956 148.695448,16.772 L158.047448,16.772 C158.159448,16.408 158.271448,15.512 158.271448,14.644 C158.271448,10.276 156.031448,6.944 151.439448,6.944 C147.575448,6.944 143.879448,10.136 143.879448,15.316 C143.879448,20.58 147.407448,23.66 151.971448,23.66 Z M148.611448,13.524 C148.947448,11.62 150.151448,10.752 151.523448,10.752 C153.343448,10.752 154.043448,11.928 154.043448,13.524 L148.611448,13.524 Z" id="形状"></path>
            <path d="M160.691034,23.268 L165.647034,23.268 L165.647034,14.168 C166.487034,12.068 167.915034,11.312 169.091034,11.312 C169.791034,11.312 170.267034,11.424 170.827034,11.564 L171.667034,7.28 C171.219034,7.084 170.687034,6.944 169.735034,6.944 C168.139034,6.944 166.375034,7.98 165.199034,10.108 L165.087034,10.108 L164.751034,7.336 L160.691034,7.336 L160.691034,23.268 Z" id="路径"></path>
            <path d="M172.910621,29.064 L177.866621,29.064 L177.866621,24.5 L177.726621,22.008 C178.790621,23.072 180.078621,23.66 181.422621,23.66 C184.838621,23.66 188.114621,20.524 188.114621,15.036 C188.114621,10.136 185.706621,6.944 181.898621,6.944 C180.246621,6.944 178.678621,7.756 177.418621,8.876 L177.306621,8.876 L176.970621,7.336 L172.910621,7.336 L172.910621,29.064 Z M180.246621,19.572 C179.490621,19.572 178.650621,19.348 177.866621,18.648 L177.866621,12.348 C178.734621,11.424 179.490621,11.004 180.414621,11.004 C182.178621,11.004 182.990621,12.32 182.990621,15.12 C182.990621,18.312 181.758621,19.572 180.246621,19.572 Z" id="形状"></path>
            <path d="M190.562207,23.268 L195.518207,23.268 L195.518207,14.168 C196.358207,12.068 197.786207,11.312 198.962207,11.312 C199.662207,11.312 200.138207,11.424 200.698207,11.564 L201.538207,7.28 C201.090207,7.084 200.558207,6.944 199.606207,6.944 C198.010207,6.944 196.246207,7.98 195.070207,10.108 L194.958207,10.108 L194.622207,7.336 L190.562207,7.336 L190.562207,23.268 Z" id="路径"></path>
            <path d="M202.781793,23.268 L207.737793,23.268 L207.737793,7.336 L202.781793,7.336 L202.781793,23.268 Z M205.273793,5.124 C206.925793,5.124 208.101793,4.06 208.101793,2.576 C208.101793,1.064 206.925793,0 205.273793,0 C203.593793,0 202.417793,1.064 202.417793,2.576 C202.417793,4.06 203.593793,5.124 205.273793,5.124 Z" id="形状"></path>
            <path d="M215.757379,23.66 C220.097379,23.66 222.393379,21.392 222.393379,18.452 C222.393379,15.568 220.181379,14.42 218.193379,13.664 C216.541379,13.076 215.085379,12.712 215.085379,11.76 C215.085379,11.004 215.645379,10.612 216.765379,10.612 C217.829379,10.612 218.949379,11.172 220.069379,11.956 L222.309379,8.988 C220.909379,7.952 219.117379,6.944 216.597379,6.944 C212.901379,6.944 210.437379,8.988 210.437379,12.012 C210.437379,14.644 212.677379,15.932 214.581379,16.688 C216.205379,17.332 217.745379,17.78 217.745379,18.732 C217.745379,19.516 217.185379,19.992 215.869379,19.992 C214.609379,19.992 213.293379,19.432 211.837379,18.312 L209.625379,21.42 C211.221379,22.764 213.685379,23.66 215.757379,23.66 Z" id="路径"></path>
            <path d="M231.700966,23.66 C233.576966,23.66 235.760966,23.016 237.412966,21.84 L235.760966,18.844 C234.612966,19.516 233.548966,19.852 232.400966,19.852 C230.384966,19.852 228.872966,18.956 228.424966,16.772 L237.776966,16.772 C237.888966,16.408 238.000966,15.512 238.000966,14.644 C238.000966,10.276 235.760966,6.944 231.168966,6.944 C227.304966,6.944 223.608966,10.136 223.608966,15.316 C223.608966,20.58 227.136966,23.66 231.700966,23.66 Z M228.340966,13.524 C228.676966,11.62 229.880966,10.752 231.252966,10.752 C233.072966,10.752 233.772966,11.928 233.772966,13.524 L228.340966,13.524 Z" id="形状"></path>
            <polygon id="路径" points="252.091724 23.268 265.195724 23.268 265.195724 19.068 257.103724 19.068 257.103724 2.436 252.091724 2.436"></polygon>
            <path d="M267.64331,23.268 L272.59931,23.268 L272.59931,7.336 L267.64331,7.336 L267.64331,23.268 Z M270.13531,5.124 C271.78731,5.124 272.96331,4.06 272.96331,2.576 C272.96331,1.064 271.78731,0 270.13531,0 C268.45531,0 267.27931,1.064 267.27931,2.576 C267.27931,4.06 268.45531,5.124 270.13531,5.124 Z" id="形状"></path>
            <path d="M284.370897,23.66 C287.786897,23.66 291.062897,20.524 291.062897,15.008 C291.062897,10.136 288.626897,6.944 284.818897,6.944 C283.362897,6.944 281.878897,7.588 280.702897,8.652 L280.814897,6.272 L280.814897,0.896 L275.858897,0.896 L275.858897,23.268 L279.750897,23.268 L280.142897,21.56 L280.254897,21.56 C281.514897,22.96 282.970897,23.66 284.370897,23.66 Z M283.194897,19.572 C282.438897,19.572 281.598897,19.348 280.814897,18.648 L280.814897,12.348 C281.682897,11.424 282.438897,11.004 283.362897,11.004 C285.126897,11.004 285.938897,12.32 285.938897,15.12 C285.938897,18.312 284.706897,19.572 283.194897,19.572 Z" id="形状"></path>
            <path d="M293.510483,23.268 L298.466483,23.268 L298.466483,14.168 C299.306483,12.068 300.734483,11.312 301.910483,11.312 C302.610483,11.312 303.086483,11.424 303.646483,11.564 L304.486483,7.28 C304.038483,7.084 303.506483,6.944 302.554483,6.944 C300.958483,6.944 299.194483,7.98 298.018483,10.108 L297.906483,10.108 L297.570483,7.336 L293.510483,7.336 L293.510483,23.268 Z" id="路径"></path>
            <path d="M308.838069,23.66 C310.602069,23.66 312.086069,22.848 313.402069,21.672 L313.514069,21.672 L313.878069,23.268 L317.938069,23.268 L317.938069,14.224 C317.938069,9.24 315.614069,6.944 311.498069,6.944 C309.006069,6.944 306.738069,7.784 304.638069,9.044 L306.374069,12.32 C307.970069,11.424 309.286069,10.92 310.546069,10.92 C312.170069,10.92 312.842069,11.676 312.954069,12.964 C306.738069,13.636 304.106069,15.456 304.106069,18.816 C304.106069,21.476 305.898069,23.66 308.838069,23.66 Z M310.546069,19.796 C309.510069,19.796 308.838069,19.348 308.838069,18.424 C308.838069,17.304 309.846069,16.408 312.954069,15.988 L312.954069,18.536 C312.226069,19.32 311.554069,19.796 310.546069,19.796 Z" id="形状"></path>
            <path d="M321.001655,23.268 L325.957655,23.268 L325.957655,14.168 C326.797655,12.068 328.225655,11.312 329.401655,11.312 C330.101655,11.312 330.577655,11.424 331.137655,11.564 L331.977655,7.28 C331.529655,7.084 330.997655,6.944 330.045655,6.944 C328.449655,6.944 326.685655,7.98 325.509655,10.108 L325.397655,10.108 L325.061655,7.336 L321.001655,7.336 L321.001655,23.268 Z" id="路径"></path>
            <path d="M335.349241,29.4 C339.129241,29.4 340.837241,27.384 342.405241,23.296 L347.865241,7.336 L343.133241,7.336 L341.285241,13.944 C340.921241,15.456 340.557241,16.94 340.249241,18.452 L340.109241,18.452 C339.689241,16.884 339.353241,15.4 338.877241,13.944 L336.749241,7.336 L331.737241,7.336 L337.841241,22.792 L337.617241,23.604 C337.253241,24.724 336.469241,25.508 334.957241,25.508 C334.593241,25.508 334.173241,25.368 333.893241,25.312 L332.997241,29.092 C333.669241,29.288 334.313241,29.4 335.349241,29.4 Z" id="路径"></path>
        </g>
    </g>
</svg>