<svg version="1.1" width="18px" height="18px" viewBox="0 0 18.0 18.0" data-uc-id="2V_UHy0OKz"
    data-uc-ct="svg">
    <defs>
        <clipPath id="edit-summary-title-i0">
            <path d="M1920,0 L1920,1040 L0,1040 L0,0 L1920,0 Z"></path>
        </clipPath>
        <clipPath id="edit-summary-title-i1">
            <path
                d="M13.8658709,7.9351429 L14.4315563,8.50082832 C14.5096612,8.57893318 14.5096612,8.70556618 14.4315563,8.78367104 L8.85284714,14.3623802 C8.77474228,14.4404851 8.64810928,14.4404851 8.57000443,14.3623802 L5.70259895,11.4949747 C5.62449409,11.4168699 5.62449409,11.2902369 5.70259895,11.212132 L6.26828438,10.6464466 C6.34638924,10.5683418 6.47302223,10.5683418 6.55112709,10.6464466 L8.71142578,12.8067453 L13.5830282,7.9351429 C13.661133,7.85703804 13.787766,7.85703804 13.8658709,7.9351429 Z M13,0 C13.1104569,0 13.2,0.08954305 13.2,0.2 L13.2,5 C13.2,5.11045695 13.1104569,5.2 13,5.2 L12.2,5.2 C12.0895431,5.2 12,5.11045695 12,5 L12,1.2 L1.2,1.2 L1.2,13 L5,13 C5.11045695,13 5.2,13.0895431 5.2,13.2 L5.2,14 C5.2,14.1104569 5.11045695,14.2 5,14.2 L0.2,14.2 C0.08954305,14.2 0,14.1104569 0,14 L0,0.2 C0,0.08954305 0.08954305,0 0.2,0 L13,0 Z M9,7 C9.11045695,7 9.2,7.08954305 9.2,7.2 L9.2,8 C9.2,8.11045695 9.11045695,8.2 9,8.2 L5.2,8.2 C5.08954305,8.2 5,8.11045695 5,8 L5,7.2 C5,7.08954305 5.08954305,7 5.2,7 L9,7 Z M3.6,7 C3.93137085,7 4.2,7.26862915 4.2,7.6 C4.2,7.93137085 3.93137085,8.2 3.6,8.2 C3.26862915,8.2 3,7.93137085 3,7.6 C3,7.26862915 3.26862915,7 3.6,7 Z M10,4 C10.1104569,4 10.2,4.08954305 10.2,4.2 L10.2,5 C10.2,5.11045695 10.1104569,5.2 10,5.2 L5.2,5.2 C5.08954305,5.2 5,5.11045695 5,5 L5,4.2 C5,4.08954305 5.08954305,4 5.2,4 L10,4 Z M3.6,4 C3.93137085,4 4.2,4.26862915 4.2,4.6 C4.2,4.93137085 3.93137085,5.2 3.6,5.2 C3.26862915,5.2 3,4.93137085 3,4.6 C3,4.26862915 3.26862915,4 3.6,4 Z"></path>
        </clipPath>
    </defs>
    <g transform="translate(-912.0 -722.0)">
        <g clip-path="url(#edit-summary-title-i0)">
            <g transform="translate(912.0 722.0)">
                <g transform="translate(2.0000000000000338 2.0000000000029132)">
                    <g clip-path="url(#edit-summary-title-i1)">
                        <polygon points="0,0 14.490135,0 14.490135,14.4209589 0,14.4209589 0,0"
                            stroke="none" fill="#666666"></polygon>
                    </g>
                </g>
            </g>
        </g>
    </g>
</svg>