<svg width="18px" height="18px" viewBox="0 0 18 18" version="1.1" xmlns="http://www.w3.org/2000/svg" xmlns:xlink="http://www.w3.org/1999/xlink"><g id="页面-1" stroke="none" stroke-width="1" fill="none" fill-rule="evenodd"><g id="编组-41"><rect id="矩形" x="0" y="0" width="18" height="18"></rect><path d="M15.9,2 C15.9552285,2 16,2.04477153 16,2.1 L16,15.9 C16,15.9552285 15.9552285,16 15.9,16 L2.1,16 C2.04477153,16 2,15.9552285 2,15.9 L2,2.1 C2,2.04477153 2.04477153,2 2.1,2 L15.9,2 Z M14.8,3.2 L3.2,3.2 L3.2,14.8 L14.8,14.8 L14.8,3.2 Z M13.6156074,6.55120709 L13.428,7.655 L13.4592238,7.68967156 L13.416,7.727 L13.0588235,9.84532474 L12.112,8.896 L9.50564936,11.2322339 L7.036,8.97620709 L4.40559623,11.3908431 L3.59440377,10.5065543 L7.03490646,7.35044779 L9.514,9.61320709 L11.264,8.044 L10.3214898,7.09879132 L13.6156074,6.55120709 Z" id="形状结合" fill="#707680" fill-rule="nonzero"></path></g></g></svg>