<svg xmlns="http://www.w3.org/2000/svg" xmlns:xlink="http://www.w3.org/1999/xlink" fill="none" version="1.1" width="16" height="16" viewBox="0 0 16 16"><defs><linearGradient x1="-1.4224732503009818e-15" y1="1" x2="0.9399038553237915" y2="1" id="master_svg0_0_885"><stop offset="0%" stop-color="#3862ED" stop-opacity="1"/><stop offset="11.98371946811676%" stop-color="#274CDA" stop-opacity="1"/><stop offset="49.617570638656616%" stop-color="#00AEC7" stop-opacity="1"/><stop offset="66.16040468215942%" stop-color="#17D9CB" stop-opacity="1"/><stop offset="100%" stop-color="#B388E8" stop-opacity="1"/></linearGradient></defs><g><g></g><g><g><path d="M5.844564865665435,4.0384162462921145C5.723134865665436,3.696500246292114,5.401834865665435,3.4681942462921143,5.040774865665436,3.4681942462921143C4.680074865665436,3.4680866972921143,4.358274865665436,3.696376246292114,4.236984865665436,4.0384162462921145L0.8444848656654358,13.328184246292114L2.043724865665436,13.328184246292114L3.298864865665436,10.490464246292113L6.750914865665436,10.490464246292113L7.829774865665436,13.328184246292114L9.060774865665437,13.328184246292114L5.844564865665435,4.0384162462921145ZM5.041214865665435,5.584514246292114L3.7409648656654357,9.249284246292113L6.3425448656654355,9.249284246292113L5.043364865665436,5.583424246292115L5.041214865665435,5.584514246292114ZM11.741484865665436,6.200614246292114L11.741484865665436,13.328434246292113L10.482184865665436,13.328434246292113L10.482184865665436,6.201694246292114L11.741484865665436,6.200614246292114Z" fill-rule="evenodd" fill="url(#master_svg0_0_885)" fill-opacity="1"/></g><g><path d="M6.166842997074127,1.42745Q7.495722997074127,1.43201,7.534192997074127,-6.47743e-13Q7.603112997074128,1.51867,8.888892997074127,1.4382Q7.518782997074127,1.43013,7.537362997074127,2.84881Q7.538072997074127,2.14475,7.193542997074127,1.78744C6.849010997074127,1.43013,6.166842997074127,1.42745,6.166842997074127,1.42745Z" fill-rule="evenodd" fill="#B388E8" fill-opacity="1"/></g><g><path d="M8.82050997018814,3.6392281346130373Q10.89370997018814,3.646328134613037,10.953719970188141,1.412248134613037Q11.061249970188141,3.781538134613037,13.067199970188142,3.655998134613037Q10.929679970188142,3.643408134613037,10.958679970188141,5.856688134613037Q10.95977997018814,4.758298134613037,10.422269970188141,4.200848134613038C9.884769970188142,3.643408134613037,8.82050997018814,3.6392281346130373,8.82050997018814,3.6392281346130373Z" fill-rule="evenodd" fill="#B388E8" fill-opacity="1"/></g></g></g></svg>