<svg viewBox="0 0 18 18" focusable="false" class="" data-icon="refresh" width="18px" height="18px" fill="#707680" aria-hidden="true" version="1.1" xmlns="http://www.w3.org/2000/svg" xmlns:xlink="http://www.w3.org/1999/xlink"><path d="M9 1.9a7.1 7.1 0 106.56 9.82l.08-.2.08-.23.04-.13v-.02l.01-.04c0-.1-.05-.16-.13-.19l-.77-.24a.2.2 0 00-.25.13l-.06.2-.1.26A5.9 5.9 0 119 3.1h.3c1.25.07 2.45.53 3.42 1.32l.13.11-1.26.98a.2.2 0 00.07.35L15.47 7a.2.2 0 00.26-.2l-.18-3.97a.2.2 0 00-.04-.11l-.05-.05a.2.2 0 00-.23.01L13.8 3.78l.07.06A7.08 7.08 0 009 1.9z" fill-rule="nonzero"></path></svg>