<?xml version="1.0" encoding="UTF-8"?>
<svg width="16px" height="16px" viewBox="0 0 16 16" version="1.1" xmlns="http://www.w3.org/2000/svg" xmlns:xlink="http://www.w3.org/1999/xlink">
    <g id="页面-1" stroke="none" stroke-width="1" fill="none" fill-rule="evenodd">
        <g id="企业库-超级名单对话框-空表格-AI生成列-单元格详情" transform="translate(-834.000000, -686.000000)" fill="#2277A2" fill-rule="nonzero">
            <g id="编组-47" transform="translate(814.000000, 540.000000)">
                <g id="编组-46" transform="translate(20.000000, 146.000000)">
                    <g id="编组-34" transform="translate(1.500000, 0.941457)">
                        <path d="M0.7,14 C0.313400675,14 0,13.6865993 0,13.3 L0,10.769286 C0,10.4848848 0.172071818,10.2287531 0.435366505,10.1212358 L4.886,8.304 L4.78128051,8.25654964 C3.75253588,7.75243753 3.19024312,6.86992607 3.13094129,5.66880353 L3.12570506,5.45354552 L3.12570506,3.66476519 C3.12570506,1.68717497 4.62012786,0.0658419482 6.50022748,0.00195523996 C6.51922081,0 6.53840428,0.000162689526 6.55754926,0.000486815756 L6.61547954,0 C8.49565514,0.0661988788 9.98974382,1.68739816 9.98974382,3.66476519 L9.98974382,5.45354552 L9.98450759,5.66880353 C9.92520575,6.86992607 9.36291299,7.75243753 8.33416837,8.25654964 L8.229,8.304 L12.4608199,10.123529 C12.7178684,10.2339848 12.8844591,10.48689 12.8844591,10.7666657 L12.8844591,13.3 C12.8844591,13.6865993 12.5710585,14 12.1844591,14 L0.7,14 Z M11.885,13 L11.885,10.964 L7.76991592,9.19622687 C6.7855696,8.71506257 6.59436168,7.90746574 7.5860734,7.48827598 C8.54956635,7.13686076 8.98974382,6.49416637 8.98974382,5.45354552 L8.98974382,3.66476519 C8.98974382,2.1869013 7.8684783,1 6.5,1 L6.557,1.002 L6.45872203,1.00521632 C5.16238166,1.0917302 4.12570506,2.2437381 4.12570506,3.66476519 L4.12570506,5.45354552 C4.12570506,6.49416637 4.56588252,7.13686076 5.52937548,7.48827598 C6.52108719,7.90746574 6.32987927,8.71506257 5.33715631,9.1997366 L1,10.971 L1,13 L11.885,13 Z" id="形状结合"></path>
                    </g>
                </g>
            </g>
        </g>
    </g>
</svg>