<svg version="1.1" width="18px" height="18px" viewBox="0 0 18.0 18.0" data-uc-id="urpspPDNw4"
    data-uc-ct="svg">
    <defs>
        <clipPath id="edit-bulletpoint-i0">
            <path d="M1920,0 L1920,1040 L0,1040 L0,0 L1920,0 Z"></path>
        </clipPath>
        <clipPath id="edit-bulletpoint-i1">
            <path
                d="M1.6,11.9 C2.4836556,11.9 3.2,12.6163444 3.2,13.5 C3.2,14.3836556 2.4836556,15.1 1.6,15.1 C0.7163444,15.1 0,14.3836556 0,13.5 C0,12.6163444 0.7163444,11.9 1.6,11.9 Z M14,12.9 C14.1104569,12.9 14.2,12.9895431 14.2,13.1 L14.2,13.9 C14.2,14.0104569 14.1104569,14.1 14,14.1 L5.2,14.1 C5.08954305,14.1 5,14.0104569 5,13.9 L5,13.1 C5,12.9895431 5.08954305,12.9 5.2,12.9 L14,12.9 Z M1.6,13.1 C1.3790861,13.1 1.2,13.2790861 1.2,13.5 C1.2,13.7209139 1.3790861,13.9 1.6,13.9 C1.8209139,13.9 2,13.7209139 2,13.5 C2,13.2790861 1.8209139,13.1 1.6,13.1 Z M1.6,5.9 C2.4836556,5.9 3.2,6.6163444 3.2,7.5 C3.2,8.3836556 2.4836556,9.1 1.6,9.1 C0.7163444,9.1 0,8.3836556 0,7.5 C0,6.6163444 0.7163444,5.9 1.6,5.9 Z M14,6.9 C14.1104569,6.9 14.2,6.98954305 14.2,7.1 L14.2,7.9 C14.2,8.01045695 14.1104569,8.1 14,8.1 L5.2,8.1 C5.08954305,8.1 5,8.01045695 5,7.9 L5,7.1 C5,6.98954305 5.08954305,6.9 5.2,6.9 L14,6.9 Z M1.6,7.1 C1.3790861,7.1 1.2,7.2790861 1.2,7.5 C1.2,7.7209139 1.3790861,7.9 1.6,7.9 C1.8209139,7.9 2,7.7209139 2,7.5 C2,7.2790861 1.8209139,7.1 1.6,7.1 Z M3.83421946,0.0473980899 L4.29193591,0.505114536 C4.35513336,0.568311989 4.35513336,0.670775305 4.29193591,0.733972759 L1.93659224,3.05409377 C1.87339479,3.11729122 1.77093148,3.11729122 1.70773402,3.05409377 L0.14739809,1.58818162 C0.0842006367,1.52498417 0.0842006367,1.42252085 0.14739809,1.3593234 L0.605114536,0.901606955 C0.668311989,0.838409501 0.770775305,0.838409501 0.833972759,0.901606955 L1.82216313,1.79537355 L3.60536124,0.0473980899 C3.66855869,-0.0157993633 3.77102201,-0.0157993633 3.83421946,0.0473980899 Z M14,0.9 C14.1104569,0.9 14.2,0.98954305 14.2,1.1 L14.2,1.9 C14.2,2.01045695 14.1104569,2.1 14,2.1 L5.2,2.1 C5.08954305,2.1 5,2.01045695 5,1.9 L5,1.1 C5,0.98954305 5.08954305,0.9 5.2,0.9 L14,0.9 Z"></path>
        </clipPath>
    </defs>
    <g transform="translate(-1175.0 -722.0)">
        <g clip-path="url(#edit-bulletpoint-i0)">
            <g transform="translate(1175.0 722.0)">
                <g transform="translate(1.9999999999999725 2.0000000000000213)">
                    <g clip-path="url(#edit-bulletpoint-i1)">
                        <polygon points="0,0 14.2,0 14.2,15.1 0,15.1 0,0" stroke="none"
                            fill="#666666"></polygon>
                    </g>
                </g>
            </g>
        </g>
    </g>
</svg>