<svg version="1.1" width="18px" height="18px" viewBox="0 0 18.0 18.0" data-uc-id="yyO_4prxYF"
    data-uc-ct="svg">
    <defs>
        <clipPath id="edit-longer-i0">
            <path d="M1920,0 L1920,1040 L0,1040 L0,0 L1920,0 Z"></path>
        </clipPath>
        <clipPath id="edit-longer-i1">
            <path
                d="M5.84507042,12 C5.93063567,12 6,12.0895431 6,12.2 L6,13 C6,13.1104569 5.93063567,13.2 5.84507042,13.2 L0.154929577,13.2 C0.0693643345,13.2 0,13.1104569 0,13 L0,12.2 C0,12.0895431 0.0693643345,12 0.154929577,12 L5.84507042,12 Z M13.8028169,8 C13.9117181,8 14,8.08954305 14,8.2 L14,9 C14,9.11045695 13.9117181,9.2 13.8028169,9.2 L0.197183099,9.2 C0.0882818803,9.2 0,9.11045695 0,9 L0,8.2 C0,8.08954305 0.0882818803,8 0.197183099,8 L13.8028169,8 Z M14,4 C14.1104569,4 14.2,4.08954305 14.2,4.2 L14.2,5 C14.2,5.11045695 14.1104569,5.2 14,5.2 L0.2,5.2 C0.08954305,5.2 0,5.11045695 0,5 L0,4.2 C0,4.08954305 0.08954305,4 0.2,4 L14,4 Z M14,0 C14.1104569,0 14.2,0.08954305 14.2,0.2 L14.2,1 C14.2,1.11045695 14.1104569,1.2 14,1.2 L0.2,1.2 C0.08954305,1.2 0,1.11045695 0,1 L0,0.2 C0,0.08954305 0.08954305,0 0.2,0 L14,0 Z"></path>
        </clipPath>
    </defs>
    <g transform="translate(-1175.0 -848.0)">
        <g clip-path="url(#edit-longer-i0)">
            <g transform="translate(1175.0 848.0)">
                <g transform="translate(1.9999999999998934 2.0)">
                    <g clip-path="url(#edit-longer-i1)">
                        <polygon points="0,0 14.2,0 14.2,13.2 0,13.2 0,0" stroke="none"
                            fill="#666666"></polygon>
                    </g>
                </g>
            </g>
        </g>
    </g>
</svg>