<?xml version="1.0" encoding="UTF-8"?>
<svg version="1.1" width="18px" height="18px" viewBox="0 0 18.0 18.0" xmlns="http://www.w3.org/2000/svg"
>
    <defs>
        <clipPath id="i0">
            <path d="M1920,0 L1920,1040 L0,1040 L0,0 L1920,0 Z"></path>
        </clipPath>
        <clipPath id="i1">
            <path d="M8.50783603,6.25907336 L9.75447527,7.54655125 C9.79258903,7.58591391 9.79192978,7.64861737 9.75299683,7.68716997 L1.42883774,15.9300074 C1.38974036,15.9687228 1.32671126,15.9685796 1.28779017,15.929687 L0.0293151724,14.6721316 C-0.00975152874,14.6330935 -0.00977467139,14.569777 0.0292634818,14.5307103 L8.36641576,6.25852023 C8.40562063,6.21962084 8.46893664,6.21986848 8.50783603,6.25907336 Z M13.2856263,7.02034373 C13.3657715,7.02034373 13.4379869,7.0687344 13.4684676,7.14286346 C13.8262109,8.26822556 14.7083666,9.14960447 15.8339777,9.50629034 C15.9052078,9.52200855 15.9565783,9.58422398 15.9585383,9.65714738 C15.9697311,9.74852878 15.9195248,9.83639747 15.8351204,9.87314722 C14.7098987,10.2316564 13.8287429,11.1141661 13.4718959,12.2400027 C13.442114,12.3146686 13.3694288,12.363281 13.2890546,12.3623177 C13.2078199,12.3627372 13.1348835,12.3125891 13.1062132,12.2365741 C12.7477856,11.1104169 11.864198,10.228885 10.7372749,9.87314722 C10.662193,9.84352537 10.6128502,9.77101019 10.6128502,9.69029022 C10.6128502,9.60957025 10.662193,9.53705507 10.7372749,9.50743321 C11.8631506,9.15051906 12.7453574,8.268663 13.1027849,7.14286346 C13.1332657,7.0687344 13.2054811,7.02034373 13.2856263,7.02034373 Z M11.1187897,3.66353004 L12.3771131,4.92093392 C12.4161798,4.95997208 12.4162029,5.02328857 12.3771648,5.06235527 L10.9388506,6.44219101 C10.89959,6.47985453 10.8374226,6.47922062 10.7989381,6.44076434 L9.54165315,5.18439897 C9.50258643,5.14536084 9.50256327,5.08204434 9.54160141,5.04297763 L10.978824,3.66215442 C11.0180775,3.62444207 11.080285,3.62505347 11.1187897,3.66353004 Z M5.64171493,0 C5.73457889,0 5.81619067,0.061568528 5.84169766,0.150868443 C6.23101188,1.42742555 7.23080549,2.42601903 8.50775316,2.81372368 C8.59606402,2.83989444 8.65664508,2.92103777 8.65664508,3.01315212 C8.65664508,3.10526646 8.59606402,3.18640979 8.50775316,3.21258055 C7.23053414,3.6005074 6.23068654,4.5995834 5.84169766,5.87657864 C5.81618646,5.96587402 5.73457571,6.02743621 5.64171494,6.02743621 C5.54802994,6.02758395 5.46652154,5.96656387 5.44058945,5.87772151 C5.05182271,4.60099783 4.0524577,3.6019758 2.77567672,3.2137234 C2.69631431,3.17962907 2.64628296,3.10002693 2.64997329,3.01372355 C2.64628295,2.92742016 2.6963143,2.84781801 2.77567672,2.81372368 C4.05262439,2.42601902 5.05241799,1.42742554 5.4417322,0.150868443 C5.46723919,0.061568528 5.54885097,0 5.64171493,0 Z M13.9718527,0.0156591138 C14.0338313,0.0156591138 14.0882387,0.0569040794 14.1049841,0.116582769 C14.3548905,0.968556599 15.0224126,1.63398097 15.8751169,1.88115292 C15.9347905,1.8978997 15.976032,1.95231181 15.976032,2.01429568 C15.976032,2.07627956 15.9347905,2.13069166 15.8751169,2.14743844 C15.0214764,2.39543828 14.3541054,3.06172352 14.1049841,3.91543718 C14.088619,3.97460846 14.0337717,4.01480173 13.9724241,4.01257998 C13.9089396,4.01784616 13.8537488,3.97597373 13.8387214,3.91543718 C13.5900593,3.06435054 12.9243341,2.39899932 12.0731596,2.15086703 C12.013486,2.13412025 11.9722445,2.07970814 11.9722445,2.01772427 C11.9722445,1.95574039 12.013486,1.90132829 12.0731596,1.8845815 C12.9249428,1.63542062 13.590684,0.968760567 13.8387214,0.116582769 C13.8554667,0.0569040794 13.9098742,0.0156591138 13.9718527,0.0156591138 Z"></path>
        </clipPath>
    </defs>
    <g transform="translate(-950.0 -609.0)">
        <g clip-path="url(#i0)">
            <g transform="translate(936.0 561.0)">
                <g transform="translate(14.0 48.0)">
                    <g transform="translate(1.0239680384147931 0.999999999999817)">
                        <g clip-path="url(#i1)">
                            <polygon
                                    points="6.67868538e-13,0 15.976032,0 15.976032,15.9589505 6.67868538e-13,15.9589505 6.67868538e-13,0"
                                    stroke="none" fill="#707680"></polygon>
                        </g>
                    </g>
                </g>
            </g>
        </g>
    </g>
</svg>