<svg version="1.1" width="18px" height="18px" viewBox="0 0 18.0 18.0" data-uc-id="bmOnvm_tb8"
    data-uc-ct="svg">
    <defs>
        <clipPath id="edit-contract-i0">
            <path d="M1920,0 L1920,1040 L0,1040 L0,0 L1920,0 Z"></path>
        </clipPath>
        <clipPath id="edit-contract-i1">
            <path
                d="M5.8028169,4 C5.91171812,4 6,4.08954305 6,4.2 L6,5 C6,5.11045695 5.91171812,5.2 5.8028169,5.2 L0.197183099,5.2 C0.0882818803,5.2 0,5.11045695 0,5 L0,4.2 C0,4.08954305 0.0882818803,4 0.197183099,4 L5.8028169,4 Z M14,0 C14.1104569,0 14.2,0.08954305 14.2,0.2 L14.2,1 C14.2,1.11045695 14.1104569,1.2 14,1.2 L0.2,1.2 C0.08954305,1.2 0,1.11045695 0,1 L0,0.2 C0,0.08954305 0.08954305,0 0.2,0 L14,0 Z"></path>
        </clipPath>
    </defs>
    <g transform="translate(-912.0 -848.0)">
        <g clip-path="url(#edit-contract-i0)">
            <g transform="translate(912.0 848.0)">
                <g transform="translate(2.0 6.0)">
                    <g clip-path="url(#edit-contract-i1)">
                        <polygon points="0,0 14.2,0 14.2,5.2 0,5.2 0,0" stroke="none" fill="#666666"></polygon>
                    </g>
                </g>
            </g>
        </g>
    </g>
</svg>