<svg viewBox="0 0 18 18" focusable="false" class="" data-icon="file-excel" width="1em" height="1em"
    fill="currentColor" aria-hidden="true">
    <path
        d="M4.1 14.68v1.22h11.8V5.1h-2.8a.2.2 0 01-.2-.2V2.1H4.1v4.27a.2.2 0 01-.2.2h-.8a.2.2 0 01-.2-.2V1.1c0-.11.09-.2.2-.2h10.86c.05 0 .1.02.14.06l2.94 2.94a.2.2 0 01.06.14V16.9a.2.2 0 01-.2.2H3.1a.2.2 0 01-.2-.2v-2.22c0-.1.09-.2.2-.2h.8c.11 0 .2.1.2.2zm-3.04-1.86l1.57-2.4a.05.05 0 000-.06L1.23 8.17a.15.15 0 01.12-.23h.95c.05 0 .1.03.13.07l.88 1.43a.05.05 0 00.09 0L4.26 8a.15.15 0 01.13-.07h.93a.15.15 0 01.13.23l-1.43 2.22a.05.05 0 000 .06l1.58 2.37a.15.15 0 01-.13.23H4.5a.15.15 0 01-.12-.07l-1-1.55a.05.05 0 00-.08 0l-1 1.55a.15.15 0 01-.13.07h-.97a.15.15 0 01-.13-.23zm4.9.08V8.13c0-.08.07-.15.15-.15h.81c.08 0 .15.07.15.15v3.93c0 .02.02.05.05.05h2.32c.08 0 .15.06.15.15v.64c0 .08-.07.15-.15.15H6.1a.15.15 0 01-.15-.15zm4.92-1.67c.09 0 .15.05.17.12.06.28.17.48.33.61.17.15.4.22.7.22.31 0 .55-.06.7-.2a.57.57 0 00.23-.44.4.4 0 00-.09-.27.79.79 0 00-.34-.2l-.8-.22c-.56-.13-.94-.3-1.17-.5a1.35 1.35 0 01-.25-1.8c.15-.22.36-.4.64-.52s.62-.18 1.01-.18c.64 0 1.12.15 1.45.43.3.26.47.6.51 1.02v.03c.01.07-.05.14-.12.15l-.83.03h-.01a.15.15 0 01-.16-.12.76.76 0 00-.24-.44c-.13-.1-.34-.16-.61-.16-.28 0-.5.06-.66.17a.32.32 0 00-.14.27c0 .1.04.2.13.27.12.1.43.2.91.32.5.12.86.24 1.1.37.25.13.44.3.58.53.14.22.2.5.2.82a1.53 1.53 0 01-.94 1.41c-.3.13-.67.19-1.11.19-.65 0-1.14-.15-1.5-.45a1.9 1.9 0 01-.6-1.2v-.02a.14.14 0 01.11-.16h.01l.79-.08z"
        fill-rule="nonzero"></path>
</svg>