<?xml version="1.0" encoding="UTF-8"?>
<svg width="36px" height="36px" viewBox="0 0 36 36" version="1.1" xmlns="http://www.w3.org/2000/svg"
    xmlns:xlink="http://www.w3.org/1999/xlink">
    <title>Icon/踩</title>
    <defs>
        <linearGradient id="wicon-svg-effect-alice-hover" x1="0%" y1="0%" x2="100%" y2="85%">
            <stop offset="0%" stop-color="#5879fb" />
            <stop offset="85%" stop-color="#3ec0d3" />
        </linearGradient>
    </defs>
    <g id="Icon/踩" stroke="none" stroke-width="1" fill="none" fill-rule="evenodd">
        <rect id="矩形" x="0" y="0" width="36" height="36"></rect>
        <path
            d="M34.36,15.4916441 C33.6191166,14.284327 32.3477081,13.531617 31.0303095,13.4918699 L23.5,13.4521229 C24.0446229,11.8597561 24.2,10.2003162 24.2,8.52100271 C24.2,7.68631436 24.1570084,6.83175248 24,5.91011743 L23.9,5.24435411 C23.4657736,3.33649503 21.5558339,1.5 19.2767589,1.5 C16.9976839,1.5 15.2692784,3.74815176 15.2692784,6.05844986 C15.2692784,6.19259621 15.2692784,6.31407271 15.2692784,6.43356278 C15.1821038,9.59798696 11.9912138,13.8181649 10.2814122,14.7087473 C9.6029761,14.8904697 8.8984398,14.8879855 8.52168359,14.8879855 L2.45232769,14.8904697 C1.65992593,14.8904697 1.01471954,15.5462963 1.01471954,16.3486902 L1,33.5392954 C1,34.3541102 1.69672477,34.947832 2.57008399,34.9726739 L7.82986534,34.9627371 L8.03103235,35 L8.2076668,34.9751581 L28.2262376,34.9826107 C28.9303222,34.9329268 29.6098741,34.7118338 30.1986556,34.3317525 C30.8365022,33.9168925 31.351686,33.3331075 31.5847454,32.8188799 L31.830071,32.4065041 C32.0711689,31.8252643 32.3215691,31.0342852 32.571013,30.1223966 C33.7480262,25.8196059 34.8933208,18.824802 34.95,18.4701897 L34.99,18.0578139 C35.0586912,17.1436314 34.8310252,16.2567751 34.36,15.4916441 Z M4,17.89 L7,17.89 L7,31.97 L4,31.97 L4,17.89 Z M29.5,30.76 L29.4,31.01 C29.2601644,31.295682 29.1363957,31.541075 28.8763505,31.71 C28.6383847,31.8640199 28.3562602,31.9550949 28.1428269,31.97 L10,31.97 L10,17.89 C13.235845,17.2515628 17.8626177,11.6038844 18,6.44173442 L18,6.18834688 C18,5.24932249 18.4726691,4.5 19.4,4.5 C20.1874952,4.5 20.7364464,5.02574526 20.9130808,5.8032972 L21.0504631,6.39453478 C21.1706727,7.10749774 21.2295509,7.8204607 21.2295509,8.51603433 C21.2295509,9.9270551 20.90727,11.2826753 20.5352793,12.6546974 C20.29306,13.548081 19.916894,14.8531819 19.4067815,16.57 L30.5789103,16.57 L30.843862,16.57 C31.43755,16.5923577 31.7459839,16.9570679 31.9,17.45 C32.0540161,17.9429321 32.0294391,18.1261518 32,18.7 C31.9705609,19.2738482 30.6922825,27.8510117 29.5,30.76 Z"
            id="形状" fill="#999999" fill-rule="nonzero"
            transform="translate(18.001, 18.25) scale(1, -1) translate(-18.001, -18.25)"></path>
    </g>
</svg>