<?xml version="1.0" encoding="UTF-8"?>
<svg width="28px" height="12px" viewBox="0 0 28 12" version="1.1" xmlns="http://www.w3.org/2000/svg" xmlns:xlink="http://www.w3.org/1999/xlink">
    <title>hot</title>
    <g id="企业库PC" stroke="none" stroke-width="1" fill="none" fill-rule="evenodd">
        <g id="首页-全部功能-20241025" transform="translate(-1102, -207)" fill-rule="nonzero">
            <g id="hot" transform="translate(1102, 207)">
                <path d="M5.89473684,12 C2.65263158,12 0,9.3 0,6 L0,0 L23.2842105,0 C25.8778947,0 28,2.16 28,4.8 L28,12 L5.89473684,12 Z" id="形状" fill="#EF5956"></path>
                <path d="M4.66666667,9.42596603 L6.02025151,9.42596603 L6.02025151,6.4992961 L8.5810877,6.4992961 L8.5810877,9.42596603 L9.9255267,9.42596603 L9.9255267,2.64889597 L8.5810877,2.64889597 L8.5810877,5.31948228 L6.02025151,5.31948228 L6.02025151,2.64889597 L4.66666667,2.64889597 L4.66666667,9.42596603 Z M14.4618651,9.55400784 C16.2544504,9.55400784 17.4891393,8.20956884 17.4891393,6.01456639 C17.4891393,3.81956394 16.2544504,2.53 14.4618651,2.53 C12.6692798,2.53 11.4345909,3.8104181 11.4345909,6.01456639 C11.4345909,8.20956884 12.6692798,9.55400784 14.4618651,9.55400784 Z M14.4618651,8.38333987 C13.4558223,8.38333987 12.8156133,7.45960967 12.8156133,6.01456639 C12.8156133,4.56037727 13.4558223,3.69152213 14.4618651,3.69152213 C15.4679079,3.69152213 16.1081169,4.56037727 16.1081169,6.01456639 C16.1081169,7.45960967 15.4679079,8.38333987 14.4618651,8.38333987 Z M20.0591213,9.42596603 L21.4127062,9.42596603 L21.4127062,3.78298057 L23.3333333,3.78298057 L23.3333333,2.64889597 L18.1567859,2.64889597 L18.1567859,3.78298057 L20.0591213,3.78298057 L20.0591213,9.42596603 Z" id="形状结合" fill="#FFFFFF"></path>
            </g>
        </g>
    </g>
</svg>