<svg className="loading-icon" version="1.1" width="20px" height="20px" viewBox="0 0 20.0 20.0">
    <defs>
        <clipPath id="smart-loading-i0">
            <path d="M1912,0 L1912,1212 L0,1212 L0,0 L1912,0 Z"></path>
        </clipPath>
        <clipPath id="smart-loading-i1">
            <path d="M1.63636364,7.50760008 C2.54010232,7.50760008 3.12236537,8.09773821 3.23328152,9.47570173 L3.21559652,9.54139278 C3.26281776,9.75247495 3.31934664,9.96010995 3.38473688,10.1638575 C4.08561426,13.4959858 7.07824448,16 10.6637431,16 C14.2341517,16 17.2166718,13.5170183 17.9336442,10.2060067 C17.391638,14.5977689 13.5985873,18 9,18 C4.02943725,18 0,14.0251014 0,9.12181545 L0.00448832981,9.00134467 C0.0669558094,8.16610132 0.773703986,7.50760008 1.63636364,7.50760008 Z M9,0 C13.9705627,0 18,3.97489862 18,8.87818455 L17.9955117,8.99865533 C17.9330442,9.83389868 17.226296,10.4923999 16.3636364,10.4923999 C15.4598977,10.4923999 14.8776346,9.90226179 14.7667185,8.52429827 L14.7844035,8.45860722 C14.7373376,8.24821935 14.6810251,8.04125601 14.6159081,7.83815311 C13.9157714,4.50517377 10.9225856,2 7.33625694,2 C3.7668551,2 0.785010312,4.48158162 0.0669628418,7.79119259 C0.609940928,3.40081502 4.40236979,0 9,0 Z"></path>
        </clipPath>
        <linearGradient
                id="smart-loading-i2"
                x1="-1.71070356e-14px"
                y1="18px"
                x2="18px"
                y2="-7.99360578e-15px"
                gradientUnits="userSpaceOnUse"
        >
            <stop stopColor="#264CDA" offset="0%"></stop>
            <stop stopColor="#1579D1" offset="35.1016171%"></stop>
            <stop stopColor="#00AEC7" offset="69.9628497%"></stop>
            <stop stopColor="#0596B3" offset="100%"></stop>
        </linearGradient>
    </defs>
    <g transform="translate(-163.0 -222.0)">
        <g clipPath="url(#smart-loading-i0)">
            <g transform="translate(147.0 205.0)">
                <g transform="translate(16.0 17.0)">
                    <g transform="translate(1.0 1.0)">
                        <g clipPath="url(#smart-loading-i1)">
                            <polygon points="0,0 18,0 18,18 0,18 0,0" stroke="none" fill="#C98383"></polygon>
                            <polygon points="0,0 18,0 18,18 0,18 0,0" stroke="none" fill="url(#smart-loading-i2)"></polygon>
                        </g>
                    </g>
                </g>
            </g>
        </g>
    </g>
</svg>