<svg t="1742371662684" class="icon" viewBox="0 0 1024 1024" version="1.1" xmlns="http://www.w3.org/2000/svg" p-id="16328" width="200" height="200"><path d="M867.2 886.4H642.6V427c0-3.6 3-6.6 6.6-6.6h197c11.6 0 21.2 9.4 21.2 21.2l-0.2 444.8c0.2-0.2 0.2 0 0 0z" fill="#d3eef5" p-id="16329" data-spm-anchor-id="a313x.search_index.0.i11.2fe23a81xH9omA" class="selected"></path><path d="M375.4 628.8H454v-39.2h-78.6v39.2z m-117.8-235.8h78.6v-39.2h-78.6v39.2z m0 117.8h78.6v-39.2h-78.6v39.2z m0 118h78.6v-39.2h-78.6v39.2z m117.8-235.8H454v-39.2h-78.6v39.2z m334 176.8h39.2v-59h-39.2v59z m-334-59H454v-39.2h-78.6v39.2z m451.8-157H591.4V236c0-43.4-35.2-78.6-78.6-78.6H198.6C155.2 157.2 120 192.4 120 235.8v589.4c0 43.4 35.2 78.6 78.6 78.6h707.2V432.4c0-43.6-35.2-78.6-78.6-78.6zM552.2 864.4H198.6c-21.8 0-39.2-17.6-39.2-39.2V235.8c0-21.8 17.6-39.2 39.2-39.2h314.4c21.8 0 39.2 17.6 39.2 39.2v628.6z m314.2 0H591.4V393h235.8c21.8 0 39.2 17.6 39.2 39.2v432.2z m-157-176.8h39.2v-59h-39.2v59z" fill="#828282" p-id="16330"></path></svg>