<?xml version="1.0" encoding="UTF-8"?>
<svg width="36px" height="36px" viewBox="0 0 36 36" version="1.1" xmlns="http://www.w3.org/2000/svg" xmlns:xlink="http://www.w3.org/1999/xlink">
    <title>Icon/复制</title>
    <g id="Icon/复制" stroke="none" stroke-width="1" fill="none" fill-rule="evenodd">
        <rect id="矩形" x="0" y="0" width="36" height="36"></rect>
        <path d="M33.1428571,9 C34.1685288,9 35,9.83147118 35,10.8571429 L35,33.1428571 C35,34.1685288 34.1685288,35 33.1428571,35 L10.8571429,35 C9.83147118,35 9,34.1685288 9,33.1428571 L9,27 L2.85714286,27 C1.83147118,27 1,26.1685288 1,25.1428571 L1,2.85714286 C1,1.83147118 1.83147118,1 2.85714286,1 L25.1428571,1 C26.1685288,1 27,1.83147118 27,2.85714286 L27,9 L33.1428571,9 Z M32.2141578,11.7851403 L11.7855864,11.7851403 L11.7855864,32.2137117 L32.2141578,32.2137117 L32.2141578,11.7851403 Z M24.2141578,3.78514028 L3.78558637,3.78514028 L3.78558637,24.2137117 L9,24.213 L9,10.8571429 C9,9.83147118 9.83147118,9 10.8571429,9 L24.214,9 L24.2141578,3.78514028 Z" id="形状结合" fill="#999999" fill-rule="nonzero"></path>
    </g>
</svg>