<?xml version="1.0" encoding="UTF-8"?>
<svg width="36px" height="36px" viewBox="0 0 36 36" version="1.1" xmlns="http://www.w3.org/2000/svg" xmlns:xlink="http://www.w3.org/1999/xlink">
    <title>Icon/已点赞</title>
    <g id="Icon/已点赞" stroke="none" stroke-width="1" fill="none" fill-rule="evenodd">
        <rect id="矩形" x="0" y="0" width="36" height="36"></rect>
        <path d="M19.2767589,1 C21.5558339,1 23.4657736,2.83649503 23.9,4.74435411 L24,5.41011743 C24.1570084,6.33175248 24.2,7.18631436 24.2,8.02100271 C24.2,9.70031617 24.0446229,11.3597561 23.5,12.9521229 L31.0303095,12.9918699 C32.3477081,13.031617 33.6191166,13.784327 34.36,14.9916441 C34.8310252,15.7567751 35.0586912,16.6436314 34.99,17.5578139 L34.95,17.9701897 C34.8933208,18.324802 33.7480262,25.3196059 32.571013,29.6223966 C32.3215691,30.5342852 32.0711689,31.3252643 31.830071,31.9065041 L31.5847454,32.3188799 C31.351686,32.8331075 30.8365022,33.4168925 30.1986556,33.8317525 C29.6098741,34.2118338 28.9303222,34.4329268 28.2262376,34.4826107 L10,34.476 L10.0004312,14.2738573 C10.0185354,14.2702704 10.0366558,14.2665709 10.0547856,14.2627551 L10.2814122,14.2087473 C11.9912138,13.3181649 15.1821038,9.09798696 15.2692784,5.93356278 L15.2692784,5.55844986 C15.2692784,3.24815176 16.9976839,1 19.2767589,1 Z M7,14.388 L7,34.464 L2.57008399,34.4726739 C1.74809884,34.4492933 1.08257881,33.9219914 1.00712658,33.1807204 L1,33.0392954 L1.01471954,15.8486902 C1.01471954,15.0462963 1.65992593,14.3904697 2.45232769,14.3904697 L7,14.388 Z" id="形状结合" fill="#333333" fill-rule="nonzero"></path>
    </g>
</svg>