<?xml version="1.0" encoding="UTF-8"?>
<svg version="1.1" width="18px" height="18px" viewBox="0 0 18 18" xmlns="http://www.w3.org/2000/svg">
  <g transform="translate(1.5025257383777264 1.0154582997142825)">
    <path d="M13.8992546,7.99779627 C14.4515393,7.99779627 14.8992546,8.44551152 14.8992546,8.99779627 C14.8992546,9.34485803 14.7224517,9.65062527 14.4540009,9.82994306 L14.4538838,12.0187965 C14.4538819,12.0546631 14.4346717,12.0877819 14.4035393,12.1055917 L7.52560189,16.0402103 C7.49469289,16.0578922 7.45671302,16.0578036 7.4258868,16.0399778 L0.547309796,12.0623102 C0.516459517,12.0444705 0.497434388,12.0115609 0.497369596,11.975924 L0.492853725,9.49212437 C0.492778416,9.45070308 0.517897742,9.41511803 0.553761587,9.39987197 L0.59294624,9.3919426 L1.47167145,9.39275699 C1.52686363,9.39290086 1.57157869,9.43765738 1.57167141,9.49284967 L1.57167141,11.3546874 C1.57167141,11.3902878 1.590598,11.4232037 1.62136572,11.4411127 L7.40079482,14.805152 C7.43166513,14.8231207 7.46977572,14.8232594 7.50077597,14.8055158 L13.3035452,11.4841861 C13.3345651,11.4664312 13.3537506,11.4334704 13.3538692,11.3977289 L13.3590416,9.83946964 C13.0824569,9.6615809 12.8992546,9.35108318 12.8992546,8.99779627 C12.8992546,8.44551152 13.3469698,7.99779627 13.8992546,7.99779627 Z M7.52559535,0.0135054487 L14.4040673,4.00458874 C14.4349022,4.02248003 14.4538807,4.05543374 14.4538807,4.0910833 L14.4538807,6.47392416 C14.4538807,6.52915264 14.4091092,6.57392416 14.3538807,6.57392416 L13.4704539,6.57392416 C13.4290326,6.57392416 13.3934932,6.54874018 13.3783124,6.51284867 L13.3704549,6.47347214 L13.3784181,4.71183421 C13.3785803,4.67594477 13.3594973,4.64272069 13.328415,4.62477727 L7.52446473,1.27423341 C7.49363862,1.25643791 7.45567689,1.25636924 7.4247866,1.27405311 L1.64679396,4.58180154 C1.6157827,4.59955467 1.59660099,4.63250612 1.59647682,4.66823925 L1.59118452,6.19117658 C1.83908112,6.37317108 2,6.66669137 2,6.99779627 C2,7.55008102 1.55228475,7.99779627 1,7.99779627 C0.44771525,7.99779627 0,7.55008102 0,6.99779627 C0,6.62892862 0.199717868,6.30670758 0.496918234,6.13336851 L0.497459244,4.04807506 C0.497468534,4.01226847 0.516621766,3.97919952 0.547675823,3.96137378 L7.42562535,0.0132727771 C7.45659937,-0.00450701919 7.49470443,-0.00441833295 7.52559535,0.0135054487 Z" fill="currentColor" stroke="none"/>
  </g>
  <g transform="translate(4.999985262197718 3.5690099943294626)">
    <path d="M5.67279625,7.744515 L6.48204865,8.56740956 L6.3821881,8.64216854 C5.8506899,9.03888231 5.2362474,9.28607809 4.54213475,9.38321021 L4.41771833,9.40067216 L4.41771833,8.26564517 L4.50884791,8.25091165 C4.92902616,8.18106384 5.29081601,8.03100017 5.59640019,7.80181204 L5.67279625,7.744515 Z M3.19773499,0 L5.52454031,2.3268053 L3.19773499,4.61650397 L3.19773499,2.71915358 C2.83951805,2.79084628 2.50197939,2.94208598 2.21004324,3.16170496 C1.88099354,3.40604972 1.61174496,3.72194567 1.42261827,4.08555144 C1.23085297,4.45179053 1.13209431,4.85956823 1.13504172,5.27296429 C1.13504172,5.6991451 1.1601341,6.20605284 1.3516699,6.57220817 C1.54079659,6.93581395 1.77402353,7.36383918 2.10307323,7.60818394 C2.42952134,7.85363799 2.70091466,8.13081266 3.10496835,8.19045054 L3.19773499,8.20463837 L3.19773499,9.36304234 C3.19773499,9.36304234 3.15511171,9.35128487 3.06986515,9.32776992 C2.21004324,9.08370658 2.05271272,8.9626336 1.5119295,8.57654207 C0.971146279,8.19045054 0.662739664,7.67318948 0.378711685,7.14954401 C0.0824441263,6.60841385 -0.00128025102,5.88988782 1.47377999e-05,5.27296429 C1.47377999e-05,4.65088219 0.150078397,4.06154126 0.449660051,3.50821561 C0.73125841,2.97974015 1.14209273,2.52861987 1.63561584,2.18947553 C2.10195263,1.86291181 2.63353579,1.59636437 3.19773499,1.52025172 L3.19773499,0 Z M7.99880621,5.65549518 L7.9889124,5.77950799 C7.9418033,6.44442979 7.71911839,7.08494779 7.34358564,7.63568858 L7.27461466,7.73766148 L6.41003328,6.98463086 L6.46483123,6.90416526 C6.67811206,6.59463422 6.80869043,6.22932959 6.8565092,5.8071615 L6.86696955,5.71481223 L7.99880621,5.65549518 Z M6.94008554,2.70933573 L7.02193845,2.79967767 C7.4706543,3.29272011 7.78050481,3.89600094 7.91985895,4.54793437 L7.94691572,4.66936333 L6.81675147,4.76823989 L6.79413155,4.67874121 C6.68792858,4.2662495 6.50690388,3.91891528 6.25195446,3.63446898 L6.18703477,3.56236532 L6.94008554,2.70933573 Z" fill="currentColor" stroke="none"/>
  </g>
</svg>
