<?xml version="1.0" encoding="UTF-8"?><svg version="1.1" width="30px" height="30px" viewBox="0 0 30.0 30.0" xmlns="http://www.w3.org/2000/svg" xmlns:xlink="http://www.w3.org/1999/xlink"><defs><clipPath id="i0"><path d="M375,0 L375,812 L0,812 L0,0 L375,0 Z"></path></clipPath><clipPath id="i1"><path d="M15,0 C23.2842712,0 30,6.71572875 30,15 C30,23.2842712 23.2842712,30 15,30 C6.71572875,30 0,23.2842712 0,15 C0,6.71572875 6.71572875,0 15,0 Z M8.69406304,6.18354899 C8.16716768,6.34907763 7.87422208,6.91039818 8.03975071,7.43729353 L9.91256622,13.4002773 C10.0434579,13.8170322 10.4297112,14.1005998 10.8665375,14.1006349 L15.2857434,14.1009897 C15.782199,14.1009897 16.1846558,14.5034464 16.1846558,14.999902 L16.177652,15.1126597 C16.1221832,15.5558926 15.7440101,15.8988144 15.2857434,15.8988144 L10.8666564,15.8986099 C10.429773,15.8985897 10.0434473,16.1821813 9.91255018,16.5989942 L8.03975071,22.5625105 C7.95955877,22.81777 7.98500357,23.0945195 8.11039559,23.3308773 C8.36922424,23.8187566 8.97455061,24.0044388 9.46242987,23.7456102 L24.2825249,15.8832856 C24.4591146,15.7896016 24.6035737,15.6451424 24.6972577,15.4685527 C24.9560864,14.9806735 24.7704041,14.3753471 24.2825249,14.1165185 L9.46242987,6.25419387 C9.22607207,6.12880185 8.94932255,6.10335705 8.69406304,6.18354899 Z"></path></clipPath></defs><g transform="translate(-317.0 -725.0)"><g clip-path="url(#i0)"><g transform="translate(12.0 716.0)"><g transform="translate(305.0 9.0)"><g clip-path="url(#i1)"><polygon points="0,0 30,0 30,30 0,30 0,0" stroke="none" fill="#D9DADB"></polygon></g></g></g></g></g></svg>