<?xml version="1.0" encoding="UTF-8"?>
<svg version="1.1" width="17px" height="17px" viewBox="0 0 17.0 17.0"
    xmlns="http://www.w3.org/2000/svg" xmlns:xlink="http://www.w3.org/1999/xlink">
    <defs>
        <clipPath id="i0">
            <path d="M375,0 L375,812 L0,812 L0,0 L375,0 Z"></path>
        </clipPath>
        <clipPath id="i1">
            <path
                d="M7.5,0 C11.6421356,0 15,3.35786438 15,7.5 C15,11.6421356 11.6421356,15 7.5,15 C3.35786438,15 0,11.6421356 0,7.5 C0,3.35786438 3.35786438,0 7.5,0 Z M7.5,1 C3.91014913,1 1,3.91014913 1,7.5 C1,11.0898509 3.91014913,14 7.5,14 C11.0898509,14 14,11.0898509 14,7.5 C14,3.91014913 11.0898509,1 7.5,1 Z M9.8,5 C9.91045695,5 10,5.08954305 10,5.2 L10,9.8 C10,9.91045695 9.91045695,10 9.8,10 L5.2,10 C5.08954305,10 5,9.91045695 5,9.8 L5,5.2 C5,5.08954305 5.08954305,5 5.2,5 L9.8,5 Z"></path>
        </clipPath>
        <linearGradient id="i2" x1="1.18758582px" y1="15px" x2="16.0398775px" y2="1.08793861px"
            gradientUnits="userSpaceOnUse">
            <stop stop-color="#3862ED" offset="0%"></stop>
            <stop stop-color="#264CDA" offset="18.3960342%"></stop>
            <stop stop-color="#00AEC7" offset="53.637162%"></stop>
            <stop stop-color="#17D9CB" offset="74.1875719%"></stop>
            <stop stop-color="#B388E8" offset="100%"></stop>
        </linearGradient>
    </defs>
    <g transform="translate(-150.0 -670.0)">
        <g clip-path="url(#i0)">
            <g transform="translate(136.5 663.0)">
                <g transform="translate(14.0 6.0)">
                    <g transform="translate(0.0 1.5)">
                        <g transform="translate(0.5 0.5)">
                            <g clip-path="url(#i1)">
                                <polygon points="0,0 15,0 15,15 0,15 0,0" stroke="none"
                                    fill="url(#i2)"></polygon>
                            </g>
                        </g>
                    </g>
                </g>
            </g>
        </g>
    </g>
</svg>