<?xml version="1.0" encoding="UTF-8"?>
<svg width="16px" height="16px" viewBox="0 0 16 16" version="1.1" xmlns="http://www.w3.org/2000/svg" xmlns:xlink="http://www.w3.org/1999/xlink">
    <title>找线索</title>
    <g id="页面-1" stroke="none" stroke-width="1" fill="none" fill-rule="evenodd">
        <g id="画板" fill="#333333" fill-rule="nonzero">
            <path d="M7.43053459,0.763792065 L7.43053459,1.96379207 C4.20753592,1.96379207 1.6,4.51527288 1.6,7.65608722 C1.6,10.7969016 4.20753592,13.3483824 7.43053459,13.3483824 C10.6535332,13.3483824 13.2610692,10.7969016 13.2610692,7.65608722 L14.4610692,7.65608722 C14.4610692,9.30427057 13.8713145,10.8164356 12.8878911,12.0017563 L15.4272921,14.5787857 L14.5727079,15.4212143 L12.0439876,12.857047 C10.8088861,13.9107194 9.19514739,14.5483824 7.43053459,14.5483824 C3.55056088,14.5483824 0.4,11.4655502 0.4,7.65608722 C0.4,3.84662424 3.55056088,0.763792065 7.43053459,0.763792065 Z M12.0917278,1 L12.091,3.01179207 L14.1609083,3.01180025 L14.1609083,4.21180025 L12.091,4.21179207 L12.0917278,6.22360051 L10.8917278,6.22360051 L10.891,4.21179207 L8.8225472,4.21180025 L8.8225472,3.01180025 L10.891,3.01179207 L10.8917278,1 L12.0917278,1 Z" id="形状结合"></path>
        </g>
    </g>
</svg>