<svg viewBox="0 0 18 18" focusable="false" class="" data-icon="copy" width="40px" height="40px" fill="#666" aria-hidden="true" version="1.1" xmlns="http://www.w3.org/2000/svg" xmlns:xlink="http://www.w3.org/1999/xlink"><path d="M5.9 13.1H3.63l2.27 2.27V13.1zm-2.8-1.2h3.8c.11 0 .2.09.2.2v3.8h5.8V4.1H3.1v7.8zm2.77 5.14l-3.91-3.91a.2.2 0 01-.06-.15V3.1c0-.11.09-.2.2-.2h11.8c.11 0 .2.09.2.2v13.8a.2.2 0 01-.2.2H6.02a.2.2 0 01-.15-.06zM5.1.9h10.8c.11 0 .2.09.2.2v13.8a.2.2 0 01-.2.2h-.8a.2.2 0 01-.2-.2V2.1H5.1a.2.2 0 01-.2-.2v-.8c0-.11.09-.2.2-.2z" fill-rule="nonzero"></path></svg>