<svg viewBox="0 0 18 18" focusable="false" class="" data-icon="file-add" width="40px" height="40px" fill="#666" aria-hidden="true" version="1.1" xmlns="http://www.w3.org/2000/svg" xmlns:xlink="http://www.w3.org/1999/xlink"><path d="M10.9 2.1H4.1v13.8h10.8V6.1h-3.8a.2.2 0 01-.2-.2V2.1zm1.2.56V4.9h2.24L12.1 2.66zM3.1.9h8.86c.05 0 .1.02.14.06l3.94 3.94a.2.2 0 01.06.14V16.9a.2.2 0 01-.2.2H3.1a.2.2 0 01-.2-.2V1.1c0-.11.09-.2.2-.2zm5.8 9V8.1c0-.11.09-.2.2-.2h.8c.11 0 .2.09.2.2v1.8h1.8c.11 0 .2.09.2.2v.8a.2.2 0 01-.2.2h-1.8v1.8a.2.2 0 01-.2.2h-.8a.2.2 0 01-.2-.2v-1.8H7.1a.2.2 0 01-.2-.2v-.8c0-.11.09-.2.2-.2h1.8z" fill-rule="nonzero"></path></svg>