<?xml version="1.0" encoding="UTF-8"?>
<svg width="18px" height="18px" viewBox="0 0 18 18" version="1.1" xmlns="http://www.w3.org/2000/svg" xmlns:xlink="http://www.w3.org/1999/xlink">
    <title>WindIcon/Outlined/General/Refresh</title>
    <g id="WindIcon/Outlined/General/Refresh" stroke="none" stroke-width="1" fill="none" fill-rule="evenodd">
        <path d="M16.6176941,2.57961757 C16.7047354,2.51161348 16.8304245,2.52704616 16.8984285,2.61408742 C16.9255847,2.64884566 16.9404886,2.69160625 16.9408207,2.73571384 L16.9715832,6.81822474 C16.9723922,6.92867856 16.8835259,7.01889327 16.7730721,7.01972495 C16.7471241,7.01879565 16.7471241,7.01879565 16.721722,7.01341996 L12.7679158,5.99594448 C12.6609441,5.96841631 12.5965424,5.85938265 12.6240706,5.75241098 C12.6350634,5.70969393 12.6598694,5.6718091 12.6946277,5.64465299 L14.2021296,4.4668634 C12.900918,2.97454914 11.0217549,2.1 9,2.1 C5.18923523,2.1 2.1,5.18923523 2.1,9 C2.1,12.8107648 5.18923523,15.9 9,15.9 C12.0593462,15.9 14.7276084,13.8910957 15.6032206,11.0082442 C15.6185129,10.9570087 15.6185129,10.9570087 15.6394514,10.883518 C15.6699172,10.7791001 15.7781763,10.717808 15.8833244,10.7459823 L16.656242,10.9530851 C16.7630847,10.9815439 16.8264986,11.0913083 16.7978856,11.1980935 C16.7794099,11.2636006 16.7794099,11.2636006 16.7657379,11.3102624 C15.75337,14.7183041 12.6093358,17.1 9,17.1 C4.52649353,17.1 0.9,13.4735065 0.9,9 C0.9,4.52649353 4.52649353,0.9 9,0.9 C11.3955426,0.9 13.6206751,1.94627976 15.1489311,3.72714102 L16.6176941,2.57961757 Z" id="Refresh" fill="#666666" fill-rule="nonzero"></path>
    </g>
</svg>