<svg height="25" viewBox="0 0 80 80" width="35" transform="scale(1.2)" xmlns="http://www.w3.org/2000/svg"><g fill="none" fill-rule="nonzero"><rect height="80" rx="4" width="80"/><g fill-rule="nonzero"><path d="m41.8316967 16-.0006967 13.647 20.4977221.0004062v13.7373199h-4l-.0007221-9.7377261-20.4963033.0004062-.0006967-13.6474062h-17.831v39.095l15.9393045.0006062v4h-19.9393045v-47.0956062z" fill="#fff"/><path d="m50.2967537 39.5406417 3.616502 7.7223424 8.0867443 1.2383351-5.8516231 6.0110052 1.3813808 8.4876756-7.233004-4.0073368-7.2330039 4.0073368 1.3813808-8.4876756-5.8516231-6.0110052 8.0867443-1.2383351zm-.0007537 9.4313583-.8991166 1.921609-2.5178834.384391 1.8378751 1.8880091-.3808751 2.3389909 1.9607537-1.0852216 1.9602463 1.0852216-.3803676-2.3389909 1.8373676-1.8880091-2.5173759-.384391z" fill="#fff"/><path d="m34.5829904 29.6550824v4h-11.641251v-4z" fill="#fff"/><path d="m34.5829904 38.4523417v4h-11.641251v-4z" fill="#fff"/></g></g></svg>