<?xml version="1.0" encoding="UTF-8"?>
<svg width="36px" height="36px" viewBox="0 0 36 36" version="1.1" xmlns="http://www.w3.org/2000/svg" xmlns:xlink="http://www.w3.org/1999/xlink">
    <title>Icon/查集团系</title>
    <g id="Icon/查集团系" stroke="none" stroke-width="1" fill="none" fill-rule="evenodd">
        <rect id="矩形" x="0" y="0" width="36" height="36"></rect>
        <path d="M22,1 L22,8 L29,8 L29,19 L7,19 L7,1 L22,1 Z M19,4 L10,4 L10,16 L19,16 L19,4 Z M26,11 L22,11 L22,16 L26,16 L26,11 Z" id="形状结合" fill="#0596B3"></path>
        <rect id="矩形" fill="#666666" x="3.5" y="24" width="3" height="2"></rect>
        <rect id="矩形" fill="#666666" x="29.5" y="24" width="3" height="2"></rect>
        <rect id="矩形" fill="#666666" x="16.5" y="19" width="3" height="7"></rect>
        <rect id="矩形" fill="#666666" x="3.5" y="21" width="29" height="3"></rect>
        <rect id="矩形" fill="#0596B3" x="12" y="6" width="5" height="3"></rect>
        <rect id="矩形" fill="#0596B3" x="12" y="11" width="5" height="3"></rect>
        <path d="M9,27 L9,35 L1,35 L1,27 L9,27 Z M6,30 L4,30 L4,32 L6,32 L6,30 Z" id="形状结合" fill="#666666"></path>
        <path d="M22,27 L22,35 L14,35 L14,27 L22,27 Z M19,30 L17,30 L17,32 L19,32 L19,30 Z" id="形状结合" fill="#666666"></path>
        <path d="M35,27 L35,35 L27,35 L27,27 L35,27 Z M32,30 L30,30 L30,32 L32,32 L32,30 Z" id="形状结合" fill="#666666"></path>
    </g>
</svg>