<?xml version="1.0" encoding="UTF-8"?>
<svg width="36px" height="36px" viewBox="0 0 36 36" version="1.1" xmlns="http://www.w3.org/2000/svg"
>
    <title>Icon/查集团系 line</title>
    <g id="Icon/查集团系-line" stroke="none" stroke-width="1" fill="none" fill-rule="evenodd">
        <rect id="矩形" x="0" y="0" width="36" height="36"></rect>
        <path d="M32.5,26 L29.5,26 L29.5,24 L19.5,24 L19.5,26 L16.5,26 L16.5,24 L6.5,24 L6.5,26 L3.5,26 L3.5,21 L16.5,21 L16.5,19 L7,19 L7,1 L22,1 L22,8 L29,8 L29,19 L19.5,19 L19.5,21 L32.5,21 L32.5,26 Z M19,4 L10,4 L10,16 L19,16 L19,4 Z M26,11 L22,11 L22,16 L26,16 L26,11 Z M17,11 L17,14 L12,14 L12,11 L17,11 Z M17,6 L17,9 L12,9 L12,6 L17,6 Z M9,27 L9,35 L1,35 L1,27 L9,27 Z M6,30 L4,30 L4,32 L6,32 L6,30 Z M22,27 L22,35 L14,35 L14,27 L22,27 Z M19,30 L17,30 L17,32 L19,32 L19,30 Z M35,27 L35,35 L27,35 L27,27 L35,27 Z M32,30 L30,30 L30,32 L32,32 L32,30 Z"
              id="形状结合" fill="white"></path>
    </g>
</svg>