<?xml version="1.0" encoding="UTF-8"?>
<svg width="36px" height="36px" viewBox="0 0 36 36" version="1.1" xmlns="http://www.w3.org/2000/svg" xmlns:xlink="http://www.w3.org/1999/xlink">
    <title>Icon/查全球企业</title>
    <g id="Icon/查全球企业" stroke="none" stroke-width="1" fill="none" fill-rule="evenodd">
        <rect id="矩形" x="0" y="0" width="36" height="36"></rect>
        <path d="M18,1 C21.8659932,1 25,8.61115925 25,18 C25,27.3888407 21.8659932,35 18,35 C14.1340068,35 11,27.3888407 11,18 C11,8.61115925 14.1340068,1 18,1 Z M18,4 C15.790861,4 14,10.2680135 14,18 C14,25.7319865 15.790861,32 18,32 C20.209139,32 22,25.7319865 22,18 C22,10.2680135 20.209139,4 18,4 Z" id="形状结合" fill="#0596B3"></path>
        <path d="M31.0011065,20 L31.0000447,22.1421846 L32.7246252,22.1425487 C29.7850834,24.5334593 24.2915108,26.1420139 17.9995799,26.1420139 C11.7079486,26.1420139 6.21459974,24.5336125 3.27495467,22.1428904 L5.00004473,22.1421846 L4.99905518,20.0008933 C7.06462141,21.8418221 12.1069541,23.1420139 17.9995799,23.1420139 C23.8931586,23.1420139 28.9361693,21.8414015 31.0011065,20 Z" id="形状结合" fill="#0596B3" transform="translate(17.9998, 23.071) rotate(180) translate(-17.9998, -23.071)"></path>
        <path d="M31.0011065,10 L31.0000447,12.1421846 L32.7246252,12.1425487 C29.7850834,14.5334593 24.2915108,16.1420139 17.9995799,16.1420139 C11.7079486,16.1420139 6.21459974,14.5336125 3.27495467,12.1428904 L5.00004473,12.1421846 L4.99905518,10.0008933 C7.06462141,11.8418221 12.1069541,13.1420139 17.9995799,13.1420139 C23.8931586,13.1420139 28.9361693,11.8414015 31.0011065,10 Z" id="形状结合" fill="#0596B3" transform="translate(17.9998, 13.071) scale(1, -1) rotate(180) translate(-17.9998, -13.071)"></path>
        <path d="M18,1 C27.3888407,1 35,8.61115925 35,18 C35,27.3888407 27.3888407,35 18,35 C8.61115925,35 1,27.3888407 1,18 C1,8.61115925 8.61115925,1 18,1 Z M18,4 C10.2680135,4 4,10.2680135 4,18 C4,25.7319865 10.2680135,32 18,32 C25.7319865,32 32,25.7319865 32,18 C32,10.2680135 25.7319865,4 18,4 Z" id="形状结合" fill="#666666"></path>
    </g>
</svg>