<?xml version="1.0" encoding="UTF-8"?>
<svg width="36px" height="36px" viewBox="0 0 36 36" version="1.1" xmlns="http://www.w3.org/2000/svg"
>
    <title>Icon/查招投标 line</title>
    <g id="Icon/查招投标-line" stroke="none" stroke-width="1" fill="none" fill-rule="evenodd">
        <rect id="矩形" x="0" y="0" width="36" height="36"></rect>
        <path d="M17.9997716,2 C21.2253882,2 24.2280666,2.9545118 26.7407599,4.59648836 L24.5627912,6.77585997 C22.6364913,5.64707389 20.3936976,5 17.9997716,5 C10.8200698,5 4.99977155,10.8202983 4.99977155,18 C4.99977155,25.1797017 10.8200698,31 17.9997716,31 C25.1794733,31 30.9997716,25.1797017 30.9997716,18 C30.9997716,15.7576556 30.4320478,13.6479101 29.4324972,11.8066607 L31.6267399,9.61087996 C33.1315374,12.0500192 33.9997716,14.9236161 33.9997716,18 C33.9997716,26.836556 26.8363275,34 17.9997716,34 C9.16321555,34 1.99977155,26.836556 1.99977155,18 C1.99977155,9.163444 9.16321555,2 17.9997716,2 Z M17.9997716,8 C19.5575282,8 21.0320934,8.35618447 22.3464678,8.99155386 L20.0366622,11.3009693 C19.3921367,11.1052508 18.7082454,11 17.9997716,11 C14.1337783,11 10.9997716,14.1340068 10.9997716,18 C10.9997716,21.8659932 14.1337783,25 17.9997716,25 C21.8657648,25 24.9997716,21.8659932 24.9997716,18 C24.9997716,17.4560786 24.9377347,16.9266467 24.8203505,16.4183939 L27.1888532,14.0488063 C27.7106998,15.2608233 27.9997716,16.5966535 27.9997716,18 C27.9997716,23.5228475 23.522619,28 17.9997716,28 C12.4769241,28 7.99977155,23.5228475 7.99977155,18 C7.99977155,12.4771525 12.4769241,8 17.9997716,8 Z M31,1 L30.9997716,5 L35,5 L35,8 L30.4077716,8 L20.9512168,17.4582774 C20.9832616,17.6339874 21,17.8150389 21,18 C21,19.6568542 19.6568542,21 18,21 C16.3431458,21 15,19.6568542 15,18 C15,16.3431458 16.3431458,15 18,15 C18.3495271,15 18.6850932,15.0597746 18.9970334,15.1696589 L27.9997716,6.166 L28,1 L31,1 Z"
              id="形状结合" fill="white"></path>
    </g>
</svg>