<?xml version="1.0" encoding="UTF-8"?>
<svg width="36px" height="36px" viewBox="0 0 36 36" version="1.1" xmlns="http://www.w3.org/2000/svg" xmlns:xlink="http://www.w3.org/1999/xlink">
    <title>Icon/多对一触达</title>
    <g id="Icon/多对一触达" stroke="none" stroke-width="1" fill="none" fill-rule="evenodd">
        <rect id="矩形" x="0" y="0" width="36" height="36"></rect>
        <rect id="矩形" fill="#0596B3" transform="translate(12.5221, 21.2271) rotate(39) translate(-12.5221, -21.2271)" x="11.0221151" y="15.7270558" width="3" height="11"></rect>
        <rect id="矩形" fill="#0596B3" transform="translate(23.9488, 12.1699) rotate(70) translate(-23.9488, -12.1699)" x="22.4488141" y="9.16992073" width="3" height="6"></rect>
        <rect id="矩形" fill="#666666" transform="translate(28.0018, 19.6497) rotate(15) translate(-28.0018, -19.6497)" x="26.501803" y="13.649703" width="3" height="12"></rect>
        <rect id="矩形" fill="#666666" transform="translate(12.1313, 10.2961) rotate(45) translate(-12.1313, -10.2961)" x="8.63131086" y="8.79611697" width="7" height="3"></rect>
        <rect id="矩形" fill="#666666" transform="translate(20.8813, 21.8631) rotate(60) translate(-20.8813, -21.8631)" x="16.8813109" y="20.3631043" width="8" height="3"></rect>
        <path d="M7,23 C10.3137085,23 13,25.6862915 13,29 C13,32.3137085 10.3137085,35 7,35 C3.6862915,35 1,32.3137085 1,29 C1,25.6862915 3.6862915,23 7,23 Z M7,26 C5.34314575,26 4,27.3431458 4,29 C4,30.6568542 5.34314575,32 7,32 C8.65685425,32 10,30.6568542 10,29 C10,27.3431458 8.65685425,26 7,26 Z" id="形状结合" fill="#0596B3"></path>
        <path d="M17,10 C19.7614237,10 22,12.2385763 22,15 C22,17.7614237 19.7614237,20 17,20 C14.2385763,20 12,17.7614237 12,15 C12,12.2385763 14.2385763,10 17,10 Z M17,13 C15.8954305,13 15,13.8954305 15,15 C15,16.1045695 15.8954305,17 17,17 C18.1045695,17 19,16.1045695 19,15 C19,13.8954305 18.1045695,13 17,13 Z" id="形状结合" fill="#0596B3"></path>
        <path d="M7,1 C9.76142375,1 12,3.23857625 12,6 C12,8.76142375 9.76142375,11 7,11 C4.23857625,11 2,8.76142375 2,6 C2,3.23857625 4.23857625,1 7,1 Z M7,4 C5.8954305,4 5,4.8954305 5,6 C5,7.1045695 5.8954305,8 7,8 C8.1045695,8 9,7.1045695 9,6 C9,4.8954305 8.1045695,4 7,4 Z" id="形状结合" fill="#666666"></path>
        <path d="M30,5 C32.7614237,5 35,7.23857625 35,10 C35,12.7614237 32.7614237,15 30,15 C27.2385763,15 25,12.7614237 25,10 C25,7.23857625 27.2385763,5 30,5 Z M30,8 C28.8954305,8 28,8.8954305 28,10 C28,11.1045695 28.8954305,12 30,12 C31.1045695,12 32,11.1045695 32,10 C32,8.8954305 31.1045695,8 30,8 Z" id="形状结合" fill="#0596B3"></path>
        <path d="M25,24 C27.7614237,24 30,26.2385763 30,29 C30,31.7614237 27.7614237,34 25,34 C22.2385763,34 20,31.7614237 20,29 C20,26.2385763 22.2385763,24 25,24 Z M25,27 C23.8954305,27 23,27.8954305 23,29 C23,30.1045695 23.8954305,31 25,31 C26.1045695,31 27,30.1045695 27,29 C27,27.8954305 26.1045695,27 25,27 Z" id="形状结合" fill="#666666"></path>
    </g>
</svg>