<?xml version="1.0" encoding="UTF-8"?>
<svg width="36px" height="36px" viewBox="0 0 36 36" version="1.1" xmlns="http://www.w3.org/2000/svg" xmlns:xlink="http://www.w3.org/1999/xlink">
    <title>Icon/EAPI</title>
    <g id="Icon/EAPI" stroke="none" stroke-width="1" fill="none" fill-rule="evenodd">
        <rect id="矩形" x="0" y="0" width="36" height="36"></rect>
        <path d="M33.7175144,13.7824856 L33.7175144,17.7824856 L15.7175144,17.7824856 L15.7175144,13.7824856 L18.7175144,13.7824856 L18.7175144,14.7824856 L30.7175144,14.7824856 L30.7175144,13.7824856 L33.7175144,13.7824856 Z M24.7175144,4.78248558 C29.6880772,4.78248558 33.7175144,8.81192283 33.7175144,13.7824856 L30.7175143,13.7814814 C30.7169717,10.4682344 28.0308882,7.78248558 24.7175144,7.78248558 C21.4038059,7.78248558 18.7175144,10.4687771 18.7175144,13.7824856 L18.7175144,13.7824856 L15.7175144,13.7824856 C15.7175144,8.81192283 19.7469517,4.78248558 24.7175144,4.78248558 Z" id="形状结合" fill="#666666" transform="translate(24.7175, 11.2825) rotate(45) translate(-24.7175, -11.2825)"></path>
        <path d="M20.2824856,27.2175144 L20.2824856,31.2175144 L2.28248558,31.2175144 L2.28248558,27.2175144 L5.28248558,27.2175144 L5.28248558,28.2175144 L17.2824856,28.2175144 L17.2824856,27.2175144 L20.2824856,27.2175144 Z M11.2824856,18.2175144 C16.2530483,18.2175144 20.2824856,22.2469517 20.2824856,27.2175144 L17.2824855,27.2165103 C17.2819429,23.9032633 14.5958594,21.2175144 11.2824856,21.2175144 C7.96877708,21.2175144 5.28248558,23.9038059 5.28248558,27.2175144 L5.28248558,27.2175144 L2.28248558,27.2175144 C2.28248558,22.2469517 6.31192283,18.2175144 11.2824856,18.2175144 Z" id="形状结合" fill="#0596B3" transform="translate(11.2825, 24.7175) scale(1, -1) rotate(-45) translate(-11.2825, -24.7175)"></path>
        <rect id="矩形" fill="#0596B3" transform="translate(14.818, 16.2322) rotate(45) translate(-14.818, -16.2322)" x="13.3180195" y="14.232233" width="3" height="4"></rect>
        <rect id="矩形" fill="#666666" transform="translate(31.0815, 4.9185) rotate(45) translate(-31.0815, -4.9185)" x="29.5814755" y="1.41852455" width="3" height="7"></rect>
        <rect id="矩形" fill="#0596B3" transform="translate(4.9185, 31.0815) rotate(45) translate(-4.9185, -31.0815)" x="3.41852455" y="27.5814755" width="3" height="7"></rect>
        <rect id="矩形" fill="#0596B3" transform="translate(19.7678, 21.182) rotate(45) translate(-19.7678, -21.182)" x="18.267767" y="19.1819805" width="3" height="4"></rect>
    </g>
</svg>