<?xml version="1.0" encoding="UTF-8"?>
<svg width="36px" height="36px" viewBox="0 0 36 36" version="1.1" xmlns="http://www.w3.org/2000/svg"
>
    <title>Icon/股权穿透图 line</title>
    <g id="Icon/股权穿透图-line" stroke="none" stroke-width="1" fill="none" fill-rule="evenodd">
        <rect id="矩形" x="0" y="0" width="36" height="36"></rect>
        <path d="M33,1 C34.1045695,1 35,1.8954305 35,3 L35,14 C35,15.1045695 34.1045695,16 33,16 L25,16 C23.8954305,16 23,15.1045695 23,14 L23,9.5 L19.5,9.5 L19.5,26.5 L23,26.5 L23,22 C23,20.8954305 23.8954305,20 25,20 L33,20 C34.1045695,20 35,20.8954305 35,22 L35,33 C35,34.1045695 34.1045695,35 33,35 L25,35 C23.8954305,35 23,34.1045695 23,33 L23,29.5 L18,29.5 C17.1715729,29.5 16.5,28.8284271 16.5,28 L16.5,19.5 L13,19.5 L13,24 C13,25.1045695 12.1045695,26 11,26 L3,26 C1.8954305,26 1,25.1045695 1,24 L1,12 C1,10.8954305 1.8954305,10 3,10 L11,10 C12.1045695,10 13,10.8954305 13,12 L13,16.5 L16.5,16.5 L16.5,8 C16.5,7.17157288 17.1715729,6.5 18,6.5 L23,6.5 L23,3 C23,1.8954305 23.8954305,1 25,1 L33,1 Z M32,23 L26,23 L26,32 L32,32 L32,23 Z M10,13 L4,13 L4,23 L10,23 L10,13 Z M32,4 L26,4 L26,13 L32,13 L32,4 Z"
              id="形状结合" fill="white"
              transform="translate(18, 18) scale(1, -1) rotate(90) translate(-18, -18)"></path>
    </g>
</svg>