<?xml version="1.0" encoding="UTF-8"?>
<svg width="36px" height="36px" viewBox="0 0 36 36" version="1.1" xmlns="http://www.w3.org/2000/svg">
    <title>Icon/开户商机</title>
    <g id="Icon/开户商机" stroke="none" stroke-width="1" fill="none" fill-rule="evenodd">
        <rect id="矩形" x="0" y="0" width="36" height="36"></rect>
        <path d="M33,13 C34.1045695,13 35,13.8954305 35,15 L35,33 C35,34.1045695 34.1045695,35 33,35 L7,35 C5.8954305,35 5,34.1045695 5,33 L5,15 C5,13.8954305 5.8954305,13 7,13 L33,13 Z M32,16 L8,16 L8,32 L32,32 L32,16 Z" id="形状结合" fill="white"></path>
        <path d="M26.8443117,2.41578702 L30.5481624,14.53 L27.4101624,14.53 L24.2677692,4.24920689 L4.18536929,10.3890127 L5.4511624,14.53 L5,14.5309903 L4.9991624,23.314 L1.02408332,10.309823 C0.70113845,9.25351798 1.29564435,8.13541499 2.35194942,7.81247012 L24.3469588,1.08792092 C25.4032639,0.764976048 26.5213669,1.35948195 26.8443117,2.41578702 Z" id="形状结合" fill="white"></path>
        <rect id="矩形" fill="white" transform="translate(21.9489, 21.1118) rotate(-15) translate(-21.9489, -21.1118)" x="15.9488887" y="19.6117714" width="12" height="3" rx="1.5"></rect>
        <rect id="矩形" fill="white" transform="translate(21.9489, 27.1118) rotate(-15) translate(-21.9489, -27.1118)" x="15.9488887" y="25.6117714" width="12" height="3" rx="1.5"></rect>
    </g>
</svg>