<?xml version="1.0" encoding="UTF-8"?>
<svg width="36px" height="36px" viewBox="0 0 36 36" version="1.1" xmlns="http://www.w3.org/2000/svg" xmlns:xlink="http://www.w3.org/1999/xlink">
    <title>Icon/PEVC被投企业</title>
    <g id="Icon/PEVC被投企业" stroke="none" stroke-width="1" fill="none" fill-rule="evenodd">
        <rect id="矩形" x="0" y="0" width="36" height="36"></rect>
        <path d="M18,35 C9.28762745,35 2.10600002,28.4461011 1.11635209,19.9995376 L4.1417549,19.9998405 C5.11214559,26.7845065 10.9470009,32 18,32 C25.0529991,32 30.8878544,26.7845065 31.8582451,19.9998405 L34.8836479,19.9995376 C33.894,28.4461011 26.7123725,35 18,35 Z M18,1 C26.7120278,1 33.8934316,7.55338021 34.8835304,15.9994596 L31.8581018,15.9991577 C30.8872801,9.21498008 25.052652,4 18,4 C10.947348,4 5.11271995,9.21498008 4.14189822,15.9991577 L1.11646961,15.9994596 C2.10656844,7.55338021 9.28797224,1 18,1 Z" id="形状结合" fill="#666666"></path>
        <rect id="矩形" fill="#666666" fill-rule="nonzero" x="31.88" y="5" width="3" height="11"></rect>
        <rect id="矩形" fill="#666666" fill-rule="nonzero" x="1.12" y="20" width="3" height="11"></rect>
        <path d="M20.95,8.08 L23.5480762,9.58 L21.288,13.495 L25,13.4950635 L25,16.4950635 L19.5,16.495 L19.5,18.995 L25,18.9950635 L25,21.9950635 L19.5,21.995 L19.5,28.4950635 L16.5,28.4950635 L16.5,21.995 L11,21.9950635 L11,18.9950635 L16.5,18.995 L16.5,16.495 L11,16.4950635 L11,13.4950635 L14.81,13.495 L12.55,9.58 L15.1480762,8.08 L18.049,13.104 L20.95,8.08 Z" id="形状结合" fill="#0596B3"></path>
    </g>
</svg>