<?xml version="1.0" encoding="UTF-8"?>
<svg width="36px" height="36px" viewBox="0 0 36 36" version="1.1" xmlns="http://www.w3.org/2000/svg" xmlns:xlink="http://www.w3.org/1999/xlink">
    <title>Icon/PEVC被投企业 line</title>
    <g id="Icon/PEVC被投企业-line" stroke="none" stroke-width="1" fill="none" fill-rule="evenodd">
        <rect id="矩形" x="0" y="0" width="36" height="36"></rect>
        <path d="M4.1417549,19.9998405 C5.11214559,26.7845065 10.9470009,32 18,32 C25.0529991,32 30.8878544,26.7845065 31.8582451,19.9998405 L34.8836479,19.9995376 C33.894,28.4461011 26.7123725,35 18,35 C12.268176,35 7.19889741,32.1633055 4.11946767,27.8172199 L4.12,31 L1.12,31 L1.11919287,20.0236349 C1.11824035,20.0156042 1.11729342,20.0075718 1.11635209,19.9995376 L4.1417549,19.9998405 Z M20.95,8.08 L23.5480762,9.58 L21.288,13.495 L25,13.4950635 L25,16.4950635 L19.5,16.495 L19.5,18.995 L25,18.9950635 L25,21.9950635 L19.5,21.995 L19.5,28.4950635 L16.5,28.4950635 L16.5,21.995 L11,21.9950635 L11,18.9950635 L16.5,18.995 L16.5,16.495 L11,16.4950635 L11,13.4950635 L14.81,13.495 L12.55,9.58 L15.1480762,8.08 L18.049,13.104 L20.95,8.08 Z M18,1 C23.7315972,1 28.8007014,3.83646997 31.8801667,8.18226416 L31.88,5 L34.88,5 L34.8798531,15.9683377 C34.8810882,15.9787088 34.882314,15.9890828 34.8835304,15.9994596 L31.8581018,15.9991577 C30.8872801,9.21498008 25.052652,4 18,4 C10.947348,4 5.11271995,9.21498008 4.14189822,15.9991577 L1.11646961,15.9994596 C2.10656844,7.55338021 9.28797224,1 18,1 Z" id="形状结合" fill="#333333"></path>
    </g>
</svg>