<?xml version="1.0" encoding="UTF-8"?>
<svg width="36px" height="36px" viewBox="0 0 36 36" version="1.1" xmlns="http://www.w3.org/2000/svg"
>
    <title>Icon/批量查询导出 line</title>
    <g id="Icon/批量查询导出-line" stroke="none" stroke-width="1" fill="none" fill-rule="evenodd">
        <rect id="矩形" x="0" y="0" width="36" height="36"></rect>
        <path d="M34,7 C34.5522847,7 35,7.44771525 35,8 L35,34 C35,34.5522847 34.5522847,35 34,35 L8,35 C7.44771525,35 7,34.5522847 7,34 L7,8 C7,7.44771525 7.44771525,7 8,7 L34,7 Z M32,10 L10,10 L10,32 L32,32 L32,10 Z M28,1 C28.5522847,1 29,1.44771525 29,2 L29,4 L4,4 L4,29 L2,29 C1.44771525,29 1,28.5522847 1,28 L1,2 C1,1.44771525 1.44771525,1 2,1 L28,1 Z M23.8313203,15.61 L29.2053319,20.9840115 L23.8313203,26.3653319 L21.71,24.2440115 L23.454,22.5 L13,22.5 L13,19.5 L23.478,19.5 L21.71,17.7313203 L23.8313203,15.61 Z"
              id="形状结合" fill="white" fill-rule="nonzero"></path>
    </g>
</svg>