<?xml version="1.0" encoding="UTF-8"?>
<svg width="36px" height="36px" viewBox="0 0 36 36" version="1.1" xmlns="http://www.w3.org/2000/svg">
    <title>Icon/授信挖掘</title>
    <g id="Icon/授信挖掘" stroke="none" stroke-width="1" fill="none" fill-rule="evenodd">
        <rect id="矩形" x="0" y="0" width="36" height="36"></rect>
        <path d="M13.2,6 L15.7980762,7.5 L14.651,9.486 L16,9.4869873 L16,12.4869873 L12.5,12.486 L12.5,14.482 L16,14.4820508 L16,17.4820508 L12.5,17.482 L12.5,19.9820508 L9.5,19.9820508 L9.5,17.482 L6,17.4820508 L6,14.4820508 L9.5,14.482 L9.5,12.486 L6,12.4869873 L6,9.4869873 L7.446,9.486 L6.3,7.5 L8.89807621,6 L10.911,9.486 L11.186,9.486 L13.2,6 Z" id="形状结合" fill="white"></path>
        <path d="M31,14 L28,14 L28,4 L4,4 L4,32 L16,32 L16,35 L1,35 L1,1 L31,1 L31,14 Z" id="形状结合" fill="white"></path>
        <path d="M24.5,15 C29.7467051,15 34,19.2532949 34,24.5 C34,26.5810378 33.3308675,28.5057913 32.1960172,30.0708459 L34.587079,32.4579562 C35.1362532,33.0059771 35.171453,33.8740901 34.6920488,34.4631361 L34.587079,34.5792753 C34.3309879,34.8353665 34.0053136,34.9795132 33.6708899,35.0116835 L33.5272072,35.0186152 C33.1435706,35.0188166 32.7598571,34.8727574 32.4668741,34.5803896 L30.0748866,32.1930856 C28.6012096,33.2628545 26.8082024,33.9195293 24.8658914,33.9930835 L24.5,34 C19.2532949,34 15,29.7467051 15,24.5 C15,19.3437553 19.1078939,15.1469606 24.2295213,15.0037764 L24.5,15 Z M27.0561813,30.4790954 L27.3303665,30.3530636 L27.5259339,30.2541982 C27.6550434,30.1861637 27.7815848,30.1139111 27.9053748,30.0376239 L28.0733553,29.9309535 L28.1834505,29.856345 L28.3125231,29.765314 L29.155,29.153 L29.7968417,28.268307 C30.0914479,27.8549438 30.3388751,27.4056299 30.5312634,26.9282251 L30.5637807,26.8459116 C30.626446,26.6857018 30.6822692,26.52294 30.7314018,26.3579106 L30.8056897,26.0837658 L30.8564165,25.8650829 L30.8997164,25.6436477 L30.9354518,25.4195977 C30.9779951,25.1191824 31,24.8121609 31,24.5 C31,20.9101491 28.0898509,18 24.5,18 C20.9101491,18 18,20.9101491 18,24.5 C18,28.0898509 20.9101491,31 24.5,31 C24.6204542,31 24.740358,30.9967412 24.8596177,30.9902704 L25.1300739,30.97 L25.3937671,30.9393341 L25.6742513,30.8942436 L25.9592725,30.8360945 L26.2799172,30.7540883 L26.5143071,30.6819616 L26.8577726,30.5601716 L27.0561813,30.4790954 Z" id="形状结合" fill="white" fill-rule="nonzero"></path>
    </g>
</svg>