<?xml version="1.0" encoding="UTF-8"?>
<svg width="36px" height="36px" viewBox="0 0 36 36" version="1.1" xmlns="http://www.w3.org/2000/svg"
>
    <title>Icon/新企发现 line</title>
    <g id="Icon/新企发现-line" stroke="none" stroke-width="1" fill="none" fill-rule="evenodd">
        <rect id="矩形" x="0" y="0" width="36" height="36"></rect>
        <path d="M21,1 L21,9 L29,9 L29.0012814,30.0927041 C30.8793722,29.2417479 32,28.1676127 32,27 C32,26.0576453 31.2700508,25.1761794 30.0010721,24.423788 L30.0008005,21.3337426 C33.0889551,22.7821946 35,24.7860741 35,27 C35,31.418278 27.3888407,35 18,35 C8.61115925,35 1,31.418278 1,27 C1,24.7858348 2.91145808,22.7817613 6.00020108,21.3332729 L5.99994398,24.4231856 C4.73033886,25.1757089 4,26.0573938 4,27 C4,28.1678213 5.12102829,29.2421318 6.99972528,30.0931602 L7,1 L21,1 Z M18,4 L10,4 L9.99987836,31.1037631 C12.2675683,31.6686919 15.0254505,32 18,32 L18,4 Z M26,12 L21,12 L21.000856,31.8848691 C22.8262269,31.7424964 24.5184706,31.4729418 26.0011247,31.1035132 L26,12 Z M16,23 L16,26 L12,26 L12,23 L16,23 Z M25,23 L25,26 L22,26 L22,23 L25,23 Z M16,16 L16,19 L12,19 L12,16 L16,16 Z M25,16 L25,19 L22,19 L22,16 L25,16 Z M16,9 L16,12 L12,12 L12,9 L16,9 Z"
              id="形状结合" fill="white"></path>
    </g>
</svg>