<?xml version="1.0" encoding="UTF-8"?>
<svg width="36px" height="36px" viewBox="0 0 36 36" version="1.1" xmlns="http://www.w3.org/2000/svg" xmlns:xlink="http://www.w3.org/1999/xlink">
    <title>Icon/疑似关系图</title>
    <g id="Icon/疑似关系图" stroke="none" stroke-width="1" fill="none" fill-rule="evenodd">
        <rect id="矩形" x="0" y="0" width="36" height="36"></rect>
        <rect id="矩形" fill="#666666" transform="translate(11.5, 11.9) rotate(46) translate(-11.5, -11.9)" x="6.5" y="10.4" width="10" height="3"></rect>
        <rect id="矩形" fill="#666666" transform="translate(24.2842, 23.9267) rotate(49) translate(-24.2842, -23.9267)" x="19.2842276" y="22.4267136" width="10" height="3"></rect>
        <rect id="矩形" fill="#666666" transform="translate(23.4898, 12.7426) rotate(46) translate(-23.4898, -12.7426)" x="21.9897945" y="9.24256843" width="3" height="7"></rect>
        <rect id="矩形" fill="#666666" transform="translate(11.9981, 23.074) rotate(49) translate(-11.9981, -23.074)" x="10.4980602" y="19.5739862" width="3" height="7"></rect>
        <path d="M18,12 C21.3137085,12 24,14.6862915 24,18 C24,21.3137085 21.3137085,24 18,24 C14.6862915,24 12,21.3137085 12,18 C12,14.6862915 14.6862915,12 18,12 Z M18,15 C16.3431458,15 15,16.3431458 15,18 C15,19.6568542 16.3431458,21 18,21 C19.6568542,21 21,19.6568542 21,18 C21,16.3431458 19.6568542,15 18,15 Z" id="形状结合" fill="#0596B3"></path>
        <path d="M7,22 C9.76142375,22 12,24.2385763 12,27 C12,29.7614237 9.76142375,32 7,32 C4.23857625,32 2,29.7614237 2,27 C2,24.2385763 4.23857625,22 7,22 Z M7,25 C5.8954305,25 5,25.8954305 5,27 C5,28.1045695 5.8954305,29 7,29 C8.1045695,29 9,28.1045695 9,27 C9,25.8954305 8.1045695,25 7,25 Z" id="形状结合" fill="#666666"></path>
        <path d="M6,1 C8.76142375,1 11,3.23857625 11,6 C11,8.76142375 8.76142375,11 6,11 C3.23857625,11 1,8.76142375 1,6 C1,3.23857625 3.23857625,1 6,1 Z M6,4 C4.8954305,4 4,4.8954305 4,6 C4,7.1045695 4.8954305,8 6,8 C7.1045695,8 8,7.1045695 8,6 C8,4.8954305 7.1045695,4 6,4 Z" id="形状结合" fill="#666666"></path>
        <path d="M30,25 C32.7614237,25 35,27.2385763 35,30 C35,32.7614237 32.7614237,35 30,35 C27.2385763,35 25,32.7614237 25,30 C25,27.2385763 27.2385763,25 30,25 Z M30,28 C28.8954305,28 28,28.8954305 28,30 C28,31.1045695 28.8954305,32 30,32 C31.1045695,32 32,31.1045695 32,30 C32,28.8954305 31.1045695,28 30,28 Z" id="形状结合" fill="#666666"></path>
        <path d="M29,3 C31.7614237,3 34,5.23857625 34,8 C34,10.7614237 31.7614237,13 29,13 C26.2385763,13 24,10.7614237 24,8 C24,5.23857625 26.2385763,3 29,3 Z M29,6 C27.8954305,6 27,6.8954305 27,8 C27,9.1045695 27.8954305,10 29,10 C30.1045695,10 31,9.1045695 31,8 C31,6.8954305 30.1045695,6 29,6 Z" id="形状结合" fill="#0596B3"></path>
    </g>
</svg>