<?xml version="1.0" encoding="UTF-8"?>
<svg width="36px" height="36px" viewBox="0 0 36 36" version="1.1" xmlns="http://www.w3.org/2000/svg"
>
    <title>Icon/战略性新兴产业 line</title>
    <g id="Icon/战略性新兴产业-line" stroke="none" stroke-width="1" fill="none" fill-rule="evenodd">
        <rect id="矩形" x="0" y="0" width="36" height="36"></rect>
        <path d="M25.7781746,4.22182541 C30.0739418,8.51759262 30.0739418,15.4824074 25.7781746,19.7781746 C25.1676319,20.3887173 24.5755155,23.1293258 24.0018254,28 L12,28 C11.7712263,23.4754591 11.1785015,20.7348507 10.2218254,19.7781746 C5.9260582,15.4824074 5.9260582,8.51759262 10.2218254,4.22182541 C14.5175926,-0.0739418023 21.4824074,-0.0739418023 25.7781746,4.22182541 Z M12.3449712,6.33679656 C9.22077682,9.4609909 9.2496285,14.4977258 12.3449712,17.6505051 C13.7007878,19.03148 14.5146916,21.4835917 14.7866826,25.0068403 L21.3618823,25.0068403 C21.8046702,21.224714 22.5702693,18.7726022 23.6586797,17.6505051 C26.7349097,14.4790643 26.782874,9.4609909 23.6586797,6.33679656 C20.5344853,3.21260223 15.4691655,3.21260223 12.3449712,6.33679656 Z M19.2,6.16 C19.3111017,6.16 19.4193823,6.17207887 19.5236001,6.19499504 L19.625,6.223 L19.8444538,6.28883515 C21.7298939,6.8972932 23.2075193,8.41348082 23.7623187,10.3223868 C23.8127011,10.4723268 23.84,10.6329754 23.84,10.8 C23.84,11.6284271 23.1684271,12.3 22.34,12.3 C21.6473747,12.3 21.0643933,11.8305588 20.8918725,11.1924931 C20.6105005,10.187942 19.8195421,9.39489139 18.8148579,9.11198879 C18.1733349,8.94043031 17.7,8.3554918 17.7,7.66 C17.7,6.83157288 18.3715729,6.16 19.2,6.16 Z M12,29 L24,29 L24,32 L12,32 Z M14,33 L21,33 L21,35 L14,35 Z"
              id="形状结合" fill="white" fill-rule="nonzero"></path>
    </g>
</svg>