<?xml version="1.0" encoding="UTF-8"?>
<svg width="36px" height="36px" viewBox="0 0 36 36" version="1.1" xmlns="http://www.w3.org/2000/svg" xmlns:xlink="http://www.w3.org/1999/xlink">
    <title>Icon/产业链 line</title>
    <g id="Icon/产业链-line" stroke="none" stroke-width="1" fill="none" fill-rule="evenodd">
        <rect id="矩形" x="0" y="0" width="36" height="36"></rect>
        <path d="M26,1 C29.3137085,1 32,3.6862915 32,7 C32,9.30284215 30.7026628,11.302675 28.7989907,12.3084961 L30.16,22.003 L30.2168896,22.0046195 C32.8776933,22.1181819 35,24.3112453 35,27 C35,29.7614237 32.7614237,32 30,32 C27.2385763,32 25,29.7614237 25,27 C25,25.2559429 25.8929501,23.7204455 27.2466037,22.8257543 L25.865,12.997 L25.7750617,12.9958615 C25.1484654,12.9727675 24.5464123,12.8535881 23.9832023,12.6526231 L15.1949368,27.2781668 C15.704171,28.0614009 16,28.9961532 16,30 C16,32.7614237 13.7614237,35 11,35 C8.23857625,35 6,32.7614237 6,30 C6,28.3313201 6.8174324,26.8535618 8.0737077,25.9453145 L5.39838413,15.9641765 C2.92062893,15.6670397 1,13.5578133 1,11 C1,8.23857625 3.23857625,6 6,6 C8.76142375,6 11,8.23857625 11,11 C11,12.909581 9.92951159,14.5691361 8.35590134,15.4112987 L10.9257841,25.0005396 L11,25 C11.6540214,25 12.2787141,25.1255711 12.8512839,25.3539191 L21.4964659,10.964729 C20.5650255,9.90752842 20,8.51974859 20,7 C20,3.6862915 22.6862915,1 26,1 Z M11,28 C9.8954305,28 9,28.8954305 9,30 C9,31.1045695 9.8954305,32 11,32 C12.1045695,32 13,31.1045695 13,30 C13,28.8954305 12.1045695,28 11,28 Z M30,25 C28.8954305,25 28,25.8954305 28,27 C28,28.1045695 28.8954305,29 30,29 C31.1045695,29 32,28.1045695 32,27 C32,25.8954305 31.1045695,25 30,25 Z M6,9 C4.8954305,9 4,9.8954305 4,11 C4,12.1045695 4.8954305,13 6,13 C7.1045695,13 8,12.1045695 8,11 C8,9.8954305 7.1045695,9 6,9 Z M26,4 C24.3431458,4 23,5.34314575 23,7 C23,8.65685425 24.3431458,10 26,10 C27.6568542,10 29,8.65685425 29,7 C29,5.34314575 27.6568542,4 26,4 Z" id="形状结合" fill="#333333"></path>
    </g>
</svg>