<?xml version="1.0" encoding="UTF-8"?>
<svg width="36px" height="36px" viewBox="0 0 36 36" version="1.1" xmlns="http://www.w3.org/2000/svg" xmlns:xlink="http://www.w3.org/1999/xlink">
    <title>Icon/关联方图谱 line</title>
    <g id="Icon/关联方图谱-line" stroke="none" stroke-width="1" fill="none" fill-rule="evenodd">
        <rect id="矩形" x="0" y="0" width="36" height="36"></rect>
        <path d="M12,1 C13.1045695,1 14,1.8954305 14,3 L14,7 C14,8.1045695 13.1045695,9 12,9 L10.722,9 L13.721,12 L23.122,12 L26.123,9 L24,9 C22.8954305,9 22,8.1045695 22,7 L22,3 C22,1.8954305 22.8954305,1 24,1 L33,1 C34.1045695,1 35,1.8954305 35,3 L35,7 C35,8.1045695 34.1045695,9 33,9 L30.365,9 L25.92174,13.4441338 C25.9726952,13.6206088 26,13.8071157 26,14 L26,20 C26,21.1045695 25.1045695,22 24,22 L23.989,22 L26.99,25 L33,25 C34.1045695,25 35,25.8954305 35,27 L35,33 C35,34.1045695 34.1045695,35 33,35 L22,35 C20.8954305,35 20,34.1045695 20,33 L20,27 C20,25.8954305 20.8954305,25 22,25 L22.747,25 L19.747,22 L16.399,22 L13.399,25 L14,25 C15.1045695,25 16,25.8954305 16,27 L16,33 C16,34.1045695 15.1045695,35 14,35 L3,35 C1.8954305,35 1,34.1045695 1,33 L1,27 C1,25.8954305 1.8954305,25 3,25 L9.156,25 L12.156,22 L12,22 C10.8954305,22 10,21.1045695 10,20 L10,14 C10,13.581162 10.1287472,13.1923946 10.3488248,12.8711146 L6.478,9 L3,9 C1.8954305,9 1,8.1045695 1,7 L1,3 C1,1.8954305 1.8954305,1 3,1 L12,1 Z M13,28 L4,28 L4,32 L13,32 L13,28 Z M32,28 L23,28 L23,32 L32,32 L32,28 Z M23,15 L13,15 L13,19 L23,19 L23,15 Z M11,4 L4,4 L4,6 L11,6 L11,4 Z M32,4 L25,4 L25,6 L32,6 L32,4 Z" id="形状结合" fill="#333333"></path>
    </g>
</svg>