<?xml version="1.0" encoding="UTF-8"?>
<svg width="36px" height="36px" viewBox="0 0 36 36" version="1.1" xmlns="http://www.w3.org/2000/svg" xmlns:xlink="http://www.w3.org/1999/xlink">
    <title>Icon/央企国企 line</title>
    <g id="Icon/央企国企-line" stroke="none" stroke-width="1" fill="none" fill-rule="evenodd">
        <rect id="矩形" x="0" y="0" width="36" height="36"></rect>
        <path d="M12,31 L12,35 L1,35 L1,19 L35,19 L35,35 L24,35 L24,31 L12,31 Z M32,31 L32,22 L4,22 L4,31 L9,31 L9,28 L27,28 L27,31 L32,31 Z M19.5,1 L19.4997916,1.83207727 C20.0484099,1.67735909 20.6484793,1.6 21.3,1.6 C22.5830192,1.6 22.858384,2.4 23.9,2.4 C24.5944107,2.4 24.9610773,2.26666667 25,2 L25,6 C24.8515362,6.26666667 24.4848695,6.4 23.9,6.4 C23.0226957,6.4 22.45,5.6 21.3,5.6 C20.7001158,5.6 20.1002316,5.681632 19.5003474,5.844896 L19.5007793,8.11186769 C23.3085924,8.68495839 26.4131633,11.4051279 27.5422351,15.0001193 L30,15 L30,18 L6,18 L6,15 L8.45776485,15.0001193 C9.58693598,11.4048117 12.6919536,8.68448 16.5002252,8.11171655 L16.5,1 L19.5,1 Z M18,11 C15.207499,11 12.7969137,12.6351758 11.6735043,15.0002671 L24.3264957,15.0002671 C23.2030863,12.6351758 20.792501,11 18,11 Z" id="形状结合" fill="#333333"></path>
    </g>
</svg>