<?xml version="1.0" encoding="UTF-8"?>
<svg width="36px" height="36px" viewBox="0 0 36 36" version="1.1" xmlns="http://www.w3.org/2000/svg" xmlns:xlink="http://www.w3.org/1999/xlink">
    <title>Icon/实际控制人 line</title>
    <g id="Icon/实际控制人-line" stroke="none" stroke-width="1" fill="none" fill-rule="evenodd">
        <rect id="矩形" x="0" y="0" width="36" height="36"></rect>
        <path d="M18,1 C22.9705627,1 27,5.92486775 27,12 C27,15.1291493 25.9309808,17.9531307 24.2149623,19.9561423 L29.531,22.935 L27.336,25.136 L21.07,21.6252559 L21.0811477,21.6267942 C20.561466,21.3911213 20.2,20.8677731 20.2,20.26 C20.2,19.6971156 20.5100438,19.2066457 20.9686714,18.9500504 L20.8761209,19.0226921 C22.7376193,17.6644881 24,15.0288072 24,12 C24,7.581722 21.3137085,4 18,4 C14.6862915,4 12,7.581722 12,12 C12,14.9783054 13.2206341,17.5764849 15.0312669,18.9536912 C15.490411,19.2073655 15.8,19.6975285 15.8,20.26 C15.8,20.8677731 15.438534,21.3911213 14.9188523,21.6267942 L14.9330316,21.6252559 L4,27.75 L4,32 L20.096,31.999 L23.097,35 L1,35 L1,26 L11.7855846,19.9567806 C10.0692463,17.9537307 9,15.1294817 9,12 C9,5.92486775 13.0294373,1 18,1 Z M32.2923882,23 L34.4137085,25.1213203 L25.2213203,34.3137085 L23.1,32.1923882 L23.105,32.187 L19.54,28.6213203 L21.6613203,26.5 L25.227,30.065 L32.2923882,23 Z" id="形状结合" fill="#333333"></path>
    </g>
</svg>