<?xml version="1.0" encoding="UTF-8"?>
<svg width="36px" height="36px" viewBox="0 0 36 36" version="1.1" xmlns="http://www.w3.org/2000/svg" xmlns:xlink="http://www.w3.org/1999/xlink">
    <title>Icon/科创企业 line</title>
    <g id="Icon/科创企业-line" stroke="none" stroke-width="1" fill="none" fill-rule="evenodd">
        <rect id="矩形" x="0" y="0" width="36" height="36"></rect>
        <path d="M35,2 L35,5 L33,5 L33,23 L35,23 L35,26 L24.722,26 L29.0980762,33.580127 L26.5,35.080127 L21.257,26 L19.5,26 L19.5,35 L16.5,35 L16.5,26 L14.74,26 L9.49807621,35.080127 L6.9,33.580127 L11.276,26 L1,26 L1,23 L3,23 L3,5 L1,5 L1,2 L35,2 Z M30,5 L6,5 L6,23 L30,23 L30,5 Z M28,18 L28,21 L8,21 L8,18 L28,18 Z M25.6252814,5.82634253 L27.7466017,7.94766288 L20.723,14.971 L18.603961,17.0952814 L14.361,12.852 L10.1213203,17.0925397 L8,14.9712193 L12.9497475,10.0214719 L14.3613203,8.61 L18.601,12.849 L25.6252814,5.82634253 Z" id="形状结合" fill="#333333"></path>
    </g>
</svg>