<?xml version="1.0" encoding="UTF-8"?>
<svg width="36px" height="36px" viewBox="0 0 36 36" version="1.1" xmlns="http://www.w3.org/2000/svg" xmlns:xlink="http://www.w3.org/1999/xlink">
    <title>Icon/资质大全 line</title>
    <g id="Icon/资质大全-line" stroke="none" stroke-width="1" fill="none" fill-rule="evenodd">
        <rect id="矩形" x="0" y="0" width="36" height="36"></rect>
        <path d="M18.0001161,1.2 C22.3674365,3.0392009 27.4961849,4.14769795 32.9999399,4.26787706 L33,16.2787801 L32.9754284,16.278915 C32.5383183,25.1545479 26.315366,32.5087807 17.9993164,34.6488687 C9.6841077,32.5081945 3.46164563,25.1541694 3.02456973,16.2788764 L3,16.2787801 L3.00061104,4.2678651 C8.50457432,4.14761616 13.6334471,3.03899452 18.0001161,1.2 Z M18.0001161,4.2 C14.4375901,5.70033488 10.3677386,6.71453107 6.00077563,7.10248711 L5.99445198,16.0787841 C6.98287552,23.1341883 11.6524323,29.0093311 17.9999546,31.7007072 C24.3474086,29.0098047 29.0174202,23.134132 30,16.0787801 L30.0004893,7.10259515 C25.6334202,6.71474224 21.56334,5.70057332 18.0001161,4.2 Z M24.1666017,11 L26.2879221,13.1213203 L16.3884271,23.0208153 L14.2671068,20.8994949 L14.272,20.894 L10,16.6213203 L12.1213203,14.5 L16.394,18.772 L24.1666017,11 Z" id="形状结合" fill="#333333"></path>
    </g>
</svg>