<?xml version="1.0" encoding="UTF-8"?>
<svg width="36px" height="36px" viewBox="0 0 36 36" version="1.1" xmlns="http://www.w3.org/2000/svg" xmlns:xlink="http://www.w3.org/1999/xlink">
    <title>Icon/EAPI line</title>
    <g id="Icon/EAPI-line" stroke="none" stroke-width="1" fill="none" fill-rule="evenodd">
        <rect id="矩形" x="0" y="0" width="36" height="36"></rect>
        <path d="M19.5,-4 L19.5007422,2.1245622 C23.756947,2.83898511 27,6.54076475 27,11 L27,15 L9,15 L9,11 C9,6.54041667 12.2435593,2.83840721 16.5002546,2.12439496 L16.5,-4 L19.5,-4 Z M18,5 C14.7616031,5 12.1224282,7.56557489 12.0041385,10.7750617 L12,11 L12,12 L24,12 L24,11 L27,11 L23.9999999,10.9989959 C23.9994573,7.68574884 21.3133738,5 18,5 Z M27,21 L27,25 L26.9961629,25.2653623 C26.8704941,29.6054178 23.6722282,33.1752353 19.5007422,33.8754378 L19.5,40 L16.5,40 L16.5002546,33.875605 C12.2435593,33.1615928 9,29.4595833 9,25 L9,21 L27,21 Z M24,24 L12,24 L12,25 L12.0041385,25.2249383 C12.1224282,28.4344251 14.7616031,31 18,31 C21.3133738,31 23.9994573,28.3142512 23.9999999,25.0010041 L27,25 L24,25 L24,24 Z M13,17 L16,17 L16,21 L13,21 Z M20,17 L23,17 L23,21 L20,21 Z" id="形状结合" fill="#333333" transform="translate(18, 18) rotate(45) translate(-18, -18)"></path>
    </g>
</svg>