<?xml version="1.0" encoding="UTF-8"?>
<svg width="36px" height="36px" viewBox="0 0 36 36" version="1.1" xmlns="http://www.w3.org/2000/svg" xmlns:xlink="http://www.w3.org/1999/xlink">
    <title>Icon/供应链探索</title>
    <g id="Icon/供应链探索" stroke="none" stroke-width="1" fill="none" fill-rule="evenodd">
        <rect id="矩形" x="0" y="0" width="36" height="36"></rect>
        <path d="M18,1 L35,10 L35,28 L18,35 L1,28 L1,10 L18,1 Z M4,14.4767029 L4,25.9918289 L16.5048498,31.1379455 L16.5048498,19.649319 L4,14.4767029 Z M32.0048498,14.4767029 L19.5,19.649319 L19.5,31.1379455 L32.0048498,25.9918289 L32.0048498,14.4767029 Z M18,4.38601703 L4.49406667,11.4599912 L18,17 L31.32968,11.4599912 L18,4.38601703 Z" id="形状结合" fill="#666666"></path>
        <path d="M8.5,14.6 L11.5,15.8 L11.5,15.7042551 L11.5,21.948566 C11.5,22.7769931 10.8284271,23.448566 10,23.448566 C9.17157288,23.448566 8.5,22.7769931 8.5,21.948566 L8.5,15.7291515 L8.5,15.7291515 L8.5,14.6 Z" id="矩形" fill="#0596B3"></path>
        <polygon id="矩形" fill="#0596B3" transform="translate(18.541, 10.639) rotate(63) translate(-18.541, -10.639)" points="17.1391283 1.55330332 19.3894712 -0.105905322 19.9429697 19.2556623 17.5117904 21.3838933"></polygon>
    </g>
</svg>