<?xml version="1.0" encoding="UTF-8"?>
<svg width="18px" height="18px" viewBox="0 0 18 18" version="1.1" xmlns="http://www.w3.org/2000/svg"
>
    <title>Icon/换一组</title>
    <g id="企业库PC" stroke="none" stroke-width="1" fill="none" fill-rule="evenodd">
        <g id="首页-全部功能-20241025" transform="translate(-1526, -495)" fill-rule="nonzero">
            <g id="Icon/换一组" transform="translate(1526, 495)">
                <rect id="矩形" fill="#000000" opacity="0" x="0" y="0" width="18" height="18"></rect>
                <path d="M2.953125,8.86289063 C2.97070312,8.09472656 3.12890625,7.34941406 3.42597656,6.64804688 C3.73007812,5.92734375 4.16601562,5.28222656 4.72148437,4.725 C5.27695312,4.16777344 5.92382813,3.73183594 6.64453125,3.42773437 C7.38984375,3.11308594 8.18085938,2.953125 8.99824219,2.953125 C9.815625,2.953125 10.6066406,3.11308594 11.3501953,3.42773437 C12.0691406,3.73183594 12.7160156,4.16777344 13.2714844,4.725 C13.4455078,4.89902344 13.6089844,5.08359375 13.7601563,5.27695313 L12.7019531,6.103125 C12.6087891,6.17519531 12.6404297,6.32285156 12.7546875,6.35097656 L15.8431641,7.10683594 C15.9310547,7.12792969 16.0171875,7.06113281 16.0171875,6.97148437 L16.03125,3.79160156 C16.03125,3.67382813 15.8958984,3.60703125 15.8044922,3.68085938 L14.8130859,4.45605469 C13.4613281,2.72636719 11.3589844,1.6171875 8.99648438,1.6171875 C4.96933594,1.6171875 1.69277344,4.84453125 1.61715175,8.85585938 C1.61542969,8.93496094 1.67871094,9 1.7578125,9 L2.8125,9 C2.88984375,9 2.95136719,8.93847656 2.953125,8.86289063 Z M16.2421875,9 L15.1875,9 C15.1101563,9 15.0486328,9.06152344 15.046875,9.13710937 C15.0292969,9.90527344 14.8710938,10.6505859 14.5740234,11.3519531 C14.2699219,12.0726562 13.8339844,12.7195313 13.2785156,13.275 C12.7230469,13.8304687 12.0761719,14.2681641 11.3554688,14.5722656 C10.6101563,14.8869141 9.81914063,15.046875 9.00175781,15.046875 C8.184375,15.046875 7.39335938,14.8869141 6.64804688,14.5722656 C5.92910156,14.2681641 5.28222656,13.8322266 4.72675781,13.275 C4.55273438,13.1009766 4.38925781,12.9164063 4.23808594,12.7230469 L5.29628906,11.896875 C5.38945312,11.8248047 5.3578125,11.6771484 5.24355469,11.6490234 L2.15507812,10.8931641 C2.0671875,10.8720703 1.98105469,10.9388672 1.98105469,11.0285156 L1.96875,14.2101563 C1.96875,14.3279297 2.10410156,14.3947266 2.19550781,14.3208984 L3.18691406,13.5457031 C4.53867187,15.2736328 6.64101562,16.3828125 9.00351563,16.3828125 C13.0324219,16.3828125 16.3072266,13.1537109 16.3828483,9.14414063 C16.3845703,9.06503906 16.3212891,9 16.2421875,9 Z"
                      id="形状" fill="#FFFFFF"></path>
            </g>
        </g>
    </g>
</svg>