<?xml version="1.0" encoding="UTF-8"?>
<svg width="36px" height="36px" viewBox="0 0 36 36" version="1.1" xmlns="http://www.w3.org/2000/svg">
    <title>Icon/网点拓客 Color</title>
    <g id="Icon/网点拓客-Color" stroke="none" stroke-width="1" fill="none" fill-rule="evenodd">
        <rect id="矩形" x="0" y="0" width="36" height="36"></rect>
        <rect id="矩形" x="0" y="0" width="36" height="36"></rect>
        <circle id="椭圆形" fill="white" cx="18" cy="10" r="2"></circle>
        <path d="M18,1 C22.9705627,1 27,5.02943725 27,10 C27,13.3137085 24,18.9803752 18,27 C12,18.9803752 9,13.3137085 9,10 C9,5.02943725 13.0294373,1 18,1 Z M18,4 C14.6862915,4 12,6.6862915 12,10 C12,12.209139 14,16.1909276 18,21.9453657 C22,16.1909276 24,12.209139 24,10 C24,6.6862915 21.3137085,4 18,4 Z" id="形状结合" fill="white"></path>
        <path d="M35,18 L29,35 L1,35 L7,18 L8.68255771,17.9983831 C9.20668753,18.9489073 9.80762242,19.9490038 10.4853624,20.9986726 L9.121,21 L7.709,24.999 L12.3,24.9999963 L12.6166843,24.1130748 C13.5074048,25.3504563 14.4880552,26.6458813 15.5586354,27.9993497 L14.414,27.9999963 L12.986,32 L18.801,32 L20.0576906,28.4820692 C23.242977,24.4935146 25.6628942,20.9989525 27.3174423,17.9983831 L35,18 Z M6.651,27.999 L5.239,32 L9.801,32 L11.229,27.9999963 L6.651,27.999 Z M28.289,27.999 L23.414,27.9999963 L21.986,32 L26.877,32 L28.289,27.999 Z M30.76,21 L25.914,21 L24.485,24.9999963 L29.348,24.999 L30.76,21 Z" id="形状结合" fill="white" fill-rule="nonzero"></path>
    </g>
</svg>