<?xml version="1.0" encoding="UTF-8"?>
<svg width="36px" height="36px" viewBox="0 0 36 36" version="1.1" xmlns="http://www.w3.org/2000/svg"
>
    <title>Icon/万寻地图 line</title>
    <g id="Icon/万寻地图-line" stroke="none" stroke-width="1" fill="none" fill-rule="evenodd">
        <rect id="矩形" x="0" y="0" width="36" height="36"></rect>
        <path d="M35,16 L35,31 L27,35 L13,30 L1,34 L1,19 L8.661,16.446 L9.998,19.054 L4,21.1620359 L4,30 L13,26.8 L27,31.8202116 L32,29.1354133 L32,19.8183301 L27,21.0235235 L25.332,20.663 L26.776,17.952 L27,18 L35,16 Z M18,1 C22.9705627,1 27,5.02943725 27,10 C27,13.3137085 24,18.9803752 18,27 C12,18.9803752 9,13.3137085 9,10 C9,5.02943725 13.0294373,1 18,1 Z M18,4 C14.6862915,4 12,6.6862915 12,10 C12,12.209139 14,16.1909276 18,21.9453657 C22,16.1909276 24,12.209139 24,10 C24,6.6862915 21.3137085,4 18,4 Z M18,8 C19.1045695,8 20,8.8954305 20,10 C20,11.1045695 19.1045695,12 18,12 C16.8954305,12 16,11.1045695 16,10 C16,8.8954305 16.8954305,8 18,8 Z"
              id="形状结合" fill="white"></path>
    </g>
</svg>