<?xml version="1.0" encoding="UTF-8"?>
<svg width="36px" height="36px" viewBox="0 0 36 36" version="1.1" xmlns="http://www.w3.org/2000/svg" xmlns:xlink="http://www.w3.org/1999/xlink">
    <title>Icon/新企发现</title>
    <g id="Icon/新企发现" stroke="none" stroke-width="1" fill="none" fill-rule="evenodd">
        <rect id="矩形" x="0" y="0" width="36" height="36"></rect>
        <path d="M21,1 L21,9 L29,9 L29,32 L26,32 L26,12 L21,12 L21,33 L18,33 L18,4 L10,4 L10,32 L7,32 L7,1 L21,1 Z M16,23 L16,26 L12,26 L12,23 L16,23 Z M25,23 L25,26 L22,26 L22,23 L25,23 Z M16,16 L16,19 L12,19 L12,16 L16,16 Z M25,16 L25,19 L22,19 L22,16 L25,16 Z M16,9 L16,12 L12,12 L12,9 L16,9 Z" id="形状结合" fill="#666666"></path>
        <path d="M35,27 C35,31.418278 27.3888407,35 18,35 C8.61115925,35 1,31.418278 1,27 C1,24.7858348 2.91145808,22.7817613 6.00020108,21.3332729 L5.99994398,24.4231856 C4.73033886,25.1757089 4,26.0573938 4,27 C4,29.7614237 10.2680135,32 18,32 C25.7319865,32 32,29.7614237 32,27 C32,26.0576453 31.2700508,25.1761794 30.0010721,24.423788 L30.0008005,21.3337426 C33.0889551,22.7821946 35,24.7860741 35,27 Z" id="形状结合" fill="#0596B3"></path>
    </g>
</svg>