<?xml version="1.0" encoding="UTF-8"?>
<svg width="36px" height="36px" viewBox="0 0 36 36" version="1.1" xmlns="http://www.w3.org/2000/svg"
>
    <title>Icon/政策法规备份</title>
    <g id="Icon/政策法规备份" stroke="none" stroke-width="1" fill="none" fill-rule="evenodd">
        <rect id="矩形" x="0" y="0" width="36" height="36"></rect>
        <path d="M11,1 L11,35 L1,35 L1,1 L11,1 Z M8,4 L4,4 L4,32 L8,32 L8,4 Z M7,16 L7,18 L5,18 L5,16 L7,16 Z M7,12 L7,14 L5,14 L5,12 L7,12 Z M7,8 L7,10 L5,10 L5,8 L7,8 Z M23,1 L23,35 L13,35 L13,1 L23,1 Z M20,4 L16,4 L16,32 L20,32 L20,4 Z M19,16 L19,18 L17,18 L17,16 L19,16 Z M19,12 L19,14 L17,14 L17,12 L19,12 Z M19,8 L19,10 L17,10 L17,8 L19,8 Z M35,1 L35,35 L25,35 L25,1 L35,1 Z M32,4 L28,4 L28,32 L32,32 L32,4 Z M31,16 L31,18 L29,18 L29,16 L31,16 Z M31,12 L31,14 L29,14 L29,12 L31,12 Z M31,8 L31,10 L29,10 L29,8 L31,8 Z"
              id="形状结合" fill="white"></path>
    </g>
</svg>