<?xml version="1.0" encoding="UTF-8"?>
<svg width="36px" height="36px" viewBox="0 0 36 36" version="1.1" xmlns="http://www.w3.org/2000/svg" xmlns:xlink="http://www.w3.org/1999/xlink">
    <title>Icon/查司法 line</title>
    <g id="Icon/查司法-line" stroke="none" stroke-width="1" fill="none" fill-rule="evenodd">
        <rect id="矩形" x="0" y="0" width="36" height="36"></rect>
        <path d="M21.3847763,1.58578644 L29.8700577,10.0710678 C30.6511063,10.8521164 30.6511063,12.1184464 29.8700577,12.8994949 L27.0416306,15.7279221 C26.260582,16.5089706 24.994252,16.5089706 24.2132034,15.7279221 L23.1525433,16.7885822 L35.1733585,28.8093975 L28.8093975,35.1733585 L16.7885822,23.1525433 L15.7279221,24.2132034 C16.5089706,24.994252 16.5089706,26.260582 15.7279221,27.0416306 L12.8994949,29.8700577 C12.1184464,30.6511063 10.8521164,30.6511063 10.0710678,29.8700577 L1.58578644,21.3847763 C0.804737854,20.6037277 0.804737854,19.3373978 1.58578644,18.5563492 L4.41421356,15.7279221 C5.19526215,14.9468735 6.4615921,14.9468735 7.24264069,15.7279221 L15.728,7.242 C14.9879813,6.50269992 14.949037,5.32721577 15.6110893,4.54142833 L15.7279221,4.41421356 L18.5563492,1.58578644 C19.3373978,0.804737854 20.6037277,0.804737854 21.3847763,1.58578644 Z M21,32 L21,35 L1,35 L1,32 L21,32 Z M21.0312229,18.9099026 L18.9099026,21.0312229 L28.8093975,30.9307179 L30.9307179,28.8093975 L21.0312229,18.9099026 Z M5.82842712,18.5563492 L4.41421356,19.9705627 L11.4852814,27.0416306 L12.8994949,25.627417 L5.82842712,18.5563492 Z M17.8492424,9.36396103 L9.36396103,17.8492424 L13.6066017,22.0918831 L22.0918831,13.6066017 L17.8492424,9.36396103 Z M19.9705627,4.41421356 L18.5563492,5.82842712 L25.627417,12.8994949 L27.0416306,11.4852814 L19.9705627,4.41421356 Z" id="形状结合" fill="#333333"></path>
    </g>
</svg>