<?xml version="1.0" encoding="UTF-8"?>
<svg width="36px" height="36px" viewBox="0 0 36 36" version="1.1" xmlns="http://www.w3.org/2000/svg" xmlns:xlink="http://www.w3.org/1999/xlink">
    <title>Icon/查商标 line</title>
    <g id="Icon/查商标-line" stroke="none" stroke-width="1" fill="none" fill-rule="evenodd">
        <rect id="矩形" x="0" y="0" width="36" height="36"></rect>
        <path d="M17.9997716,1 C27.3886123,1 34.9997716,8.61115925 34.9997716,18 C34.9997716,27.3888407 27.3886123,35 17.9997716,35 C8.6109308,35 0.999771551,27.3888407 0.999771551,18 C0.999771551,8.61115925 8.6109308,1 17.9997716,1 Z M17.9997716,4 C10.2677851,4 3.99977155,10.2680135 3.99977155,18 C3.99977155,25.7319865 10.2677851,32 17.9997716,32 C25.731758,32 31.9997716,25.7319865 31.9997716,18 C31.9997716,10.2680135 25.731758,4 17.9997716,4 Z M18.0585938,9.8203125 C19.8945312,9.8203125 21.2285156,9.97460938 22.0605469,10.2832031 C22.8925781,10.5917969 23.5585938,11.140625 24.0585938,11.9296875 C24.5585938,12.71875 24.8085938,13.6210938 24.8085938,14.6367188 C24.8085938,15.9257812 24.4296875,16.9902344 23.671875,17.8300781 C22.9140625,18.6699219 21.78125,19.1992188 20.2734375,19.4179688 C21.0234375,19.8554688 21.6425781,20.3359375 22.1308594,20.859375 C22.6191406,21.3828125 23.2773438,22.3125 24.1054688,23.6484375 L26.203125,27 L22.0546875,27 L19.546875,23.2617188 C18.65625,21.9257812 18.046875,21.0839844 17.71875,20.7363281 C17.390625,20.3886719 17.0429688,20.1503906 16.6757812,20.0214844 C16.3085938,19.8925781 15.7265625,19.828125 14.9296875,19.828125 L14.2265625,19.828125 L14.2265625,27 L10.7578125,27 L10.7578125,9.8203125 L18.0585938,9.8203125 Z M17.1906738,12.7267914 L14.2265625,12.7265625 L14.2265625,17.0859375 L16.7929688,17.0859375 C18.4570312,17.0859375 19.4960938,17.015625 19.9101562,16.875 C20.3242188,16.734375 20.6484375,16.4921875 20.8828125,16.1484375 C21.1171875,15.8046875 21.234375,15.375 21.234375,14.859375 C21.234375,14.28125 21.0800781,13.8144531 20.7714844,13.4589844 C20.4628906,13.1035156 20.0273438,12.8789062 19.4648438,12.7851562 C19.2011719,12.7485352 18.4431152,12.7290802 17.1906738,12.7267914 Z" id="形状结合" fill="#333333"></path>
    </g>
</svg>