<?xml version="1.0" encoding="UTF-8"?>
<svg width="36px" height="36px" viewBox="0 0 36 36" version="1.1" xmlns="http://www.w3.org/2000/svg" xmlns:xlink="http://www.w3.org/1999/xlink">
    <title>实控人组2</title>
    <g id="企业库PC" stroke="none" stroke-width="1" fill="none" fill-rule="evenodd">
        <g id="实控人组2">
            <rect id="矩形" fill="#000000" fill-rule="nonzero" opacity="0" x="0" y="0" width="36" height="36"></rect>
            <path d="M13.1308594,17.521875 C13.0992188,17.2160156 13.0816406,16.9066406 13.0816406,16.59375 C13.0816406,16.0347656 13.134375,15.4898437 13.2328125,14.9589844 C13.2574219,14.8324219 13.190625,14.7023437 13.0746094,14.6496094 C12.5964844,14.4351562 12.1570313,14.1398437 11.7773438,13.7671875 C10.8703125,12.88125 10.3816406,11.6824219 10.4167969,10.4132812 C10.4484375,9.28476562 10.9019531,8.2125 11.6929688,7.40390625 C12.5613281,6.51445312 13.7285156,6.02929687 14.9695313,6.04335937 C16.0910156,6.05390625 17.1738281,6.48632812 17.9929688,7.25273437 C18.2707031,7.51289062 18.5097656,7.80117187 18.7101563,8.11054687 C18.7804688,8.21953125 18.9175781,8.26523437 19.0371094,8.22304687 C19.6558594,8.00859375 20.3097656,7.85742187 20.98125,7.78710937 C21.178125,7.76601562 21.290625,7.55507812 21.2027344,7.37929687 C20.0601563,5.11875 17.7257813,3.5578125 15.0257813,3.515625 C11.1304688,3.45585937 7.88203125,6.6515625 7.88203125,10.546875 C7.88203125,12.7546875 8.89804688,14.7234375 10.490625,16.0136719 C9.37265625,16.5304687 8.34257813,17.2441406 7.44960938,18.1371094 C5.52304688,20.0601562 4.43320313,22.5984375 4.36281912,25.3089844 C4.359375,25.4671875 4.4859375,25.5972656 4.64414063,25.5972656 L6.61640625,25.5972656 C6.76757813,25.5972656 6.89414063,25.4777344 6.89765625,25.3265625 C6.96445313,23.2875 7.790625,21.3785156 9.24257813,19.9300781 C10.2761719,18.8964844 11.5417969,18.1792969 12.9234375,17.83125 C13.0570313,17.7925781 13.1484375,17.6625 13.1308594,17.521875 L13.1308594,17.521875 Z M28.96875,16.59375 C28.96875,12.7476562 25.8785156,9.62226562 22.0464844,9.5625 C18.1511719,9.50273437 14.90625,12.6984375 14.90625,16.59375 C14.90625,18.8015625 15.9257812,20.7703125 17.5148437,22.0605469 C16.4003906,22.5773437 15.3738281,23.2875 14.4773437,24.1839844 C12.5507812,26.1070312 11.4609375,28.6453125 11.3905535,31.3523437 C11.3871094,31.5105469 11.5136719,31.640625 11.671875,31.640625 L13.640625,31.640625 C13.7917969,31.640625 13.9183594,31.5210937 13.921875,31.3699219 C13.9886719,29.3308594 14.8148437,27.421875 16.2667969,25.9734375 C17.7820312,24.4582031 19.7929687,23.625 21.9375,23.625 C25.81875,23.625 28.96875,20.4785156 28.96875,16.59375 Z M25.1191406,19.7753906 C24.2683594,20.6261719 23.1398437,21.09375 21.9375,21.09375 C20.7351562,21.09375 19.6066406,20.6261719 18.7558594,19.7753906 C17.8945312,18.9140625 17.4269531,17.7679688 17.4375,16.5480469 C17.4480469,15.3949219 17.9085937,14.2804688 18.7136719,13.4542969 C19.5574219,12.5894531 20.6859375,12.1078125 21.8917969,12.09375 C23.0835937,12.0832031 24.2402344,12.5472656 25.0910156,13.3804688 C25.9628906,14.2347656 26.4410156,15.3773438 26.4410156,16.59375 C26.4375,17.7960938 25.9699219,18.9246094 25.1191406,19.7753906 L25.1191406,19.7753906 Z" id="形状" fill="#2272A2" fill-rule="nonzero"></path>
            <text id="2" font-family="MicrosoftYaHei-Bold, Microsoft YaHei" font-size="10" font-weight="bold" fill="#00AEC7">
                <tspan x="25.9165039" y="32">2</tspan>
            </text>
        </g>
    </g>
</svg>