<?xml version="1.0" encoding="UTF-8"?>
<svg width="16px" height="16px" viewBox="0 0 16 16" version="1.1" xmlns="http://www.w3.org/2000/svg" xmlns:xlink="http://www.w3.org/1999/xlink">
    <title>Icon/Alert_666@1x</title>
    <g id="PC" stroke="none" stroke-width="1" fill="none" fill-rule="evenodd">
        <g id="05-名单页" transform="translate(-708.000000, -60.000000)">
            <g id="Icon/Alert_666" transform="translate(708.000000, 60.000000)">
                <rect id="矩形" x="0" y="0" width="16" height="16"></rect>
                <path d="M12.6285714,9.8097561 L12.6285714,6.97560976 C12.6285714,5.09756098 11.4971429,3.49268292 9.88571428,2.77560975 C9.81714285,1.78536584 8.9942857,1 8,1 C7.0057143,1 6.18285714,1.78536586 6.11428572,2.77560975 C4.50285714,3.49268292 3.37142857,5.09756098 3.37142857,6.97560976 L3.37142857,9.8097561 C2.44571428,10.5609756 2,11.5853659 2,12.7804878 C2,13.0536586 2.23999999,13.2926829 2.51428571,13.2926829 L5.84,13.2926829 C6.07999999,14.2829268 6.97142857,15 8,15 C9.02857143,15 9.92000001,14.2829268 10.16,13.2926829 L13.4857143,13.2926829 C13.76,13.2926829 14,13.0536586 14,12.7804878 C14,11.5512195 13.5542857,10.5609756 12.6285714,9.8097561 Z M8,2.02439024 C8.30857143,2.02439024 8.58285715,2.19512196 8.72,2.43414634 C8.48000001,2.40000001 8.23999999,2.36585365 8,2.36585365 C7.76000001,2.36585365 7.51999999,2.39999999 7.28,2.43414634 C7.41714285,2.19512196 7.69142857,2.02439024 8,2.02439024 L8,2.02439024 Z M8,13.9756098 C7.51999999,13.9756098 7.10857142,13.702439 6.93714286,13.2926829 L9.09714286,13.2926829 C8.89142858,13.702439 8.48000001,13.9756098 8,13.9756098 Z M3.06285714,12.2682927 C3.16571428,11.5170732 3.54285714,10.9365854 4.19428571,10.4585366 C4.33142856,10.3560976 4.4,10.2195122 4.4,10.0487805 L4.4,6.97560976 C4.4,4.99512195 6.01142858,3.3902439 8,3.3902439 C9.98857142,3.3902439 11.6,4.99512195 11.6,6.97560976 L11.6,10.0487805 C11.6,10.2195122 11.6685714,10.3560976 11.8057143,10.4585366 C12.4571429,10.9365854 12.8342857,11.5170732 12.9371429,12.2682927 L3.06285714,12.2682927 Z" id="形状" fill="currentColor" fill-rule="nonzero"></path>
            </g>
        </g>
    </g>
</svg>