<?xml version="1.0" encoding="UTF-8"?>
<svg width="12px" height="12px" viewBox="0 0 12 12" version="1.1" xmlns="http://www.w3.org/2000/svg" xmlns:xlink="http://www.w3.org/1999/xlink">
    <title>close_666（地图定位弹窗）@1x</title>
    <g id="PC-Web" stroke="none" stroke-width="1" fill="none" fill-rule="evenodd">
        <g id="06-地图拓客-搜索结果附近-企业列表" transform="translate(-668.000000, -237.000000)">
            <g id="close_666（地图定位弹窗）" transform="translate(668.000000, 237.000000)">
                <rect id="矩形" x="0" y="0" width="12" height="12"></rect>
                <path d="M10.3852211,10.3864172 L10.3852211,10.3864172 C10.2337977,10.5378609 9.98788613,10.5378609 9.83646275,10.3864172 L6,6.54943798 L2.16232586,10.3864172 C2.01090248,10.5378609 1.76499091,10.5378609 1.61356753,10.3864172 L1.61356753,10.3864172 C1.46214416,10.2349734 1.46214416,9.98902874 1.61356753,9.83758498 L5.45124167,6.00060578 L1.61477892,2.16241502 C1.46335554,2.01097126 1.46335554,1.76502659 1.61477892,1.61358282 L1.61477892,1.61358282 C1.7662023,1.46213906 2.01211387,1.46213906 2.16353725,1.61358282 L6,5.45177357 L9.83767414,1.61479437 C9.98909752,1.46335061 10.2350091,1.46335061 10.3864325,1.61479437 L10.3864325,1.61479437 C10.5378558,1.76623814 10.5378558,2.01218281 10.3864325,2.16362657 L6.54875833,6.00060578 L10.3852211,9.83879653 C10.5366445,9.99024029 10.5366445,10.2349734 10.3852211,10.3864172 L10.3852211,10.3864172 Z" id="Shape" stroke="#666666" stroke-width="0.54" fill="#666666" transform="translate(6.000000, 6.000000) scale(1, -1) translate(-6.000000, -6.000000) "></path>
            </g>
        </g>
    </g>
</svg>