<?xml version="1.0" encoding="UTF-8"?>
<svg width="16px" height="16px" viewBox="0 0 16 16" version="1.1" xmlns="http://www.w3.org/2000/svg" xmlns:xlink="http://www.w3.org/1999/xlink">
    <title>Icon/ControlArrow_Right_999@1x</title>
    <g id="PC" stroke="none" stroke-width="1" fill="none" fill-rule="evenodd">
        <g id="05-名单页" transform="translate(-1396.000000, -876.000000)">
            <g id="Icon/ControlArrow_Right_999" transform="translate(1396.000000, 876.000000)">
                <rect id="矩形" x="0" y="0" width="16" height="16"></rect>
                <path d="M8.51285714,10.5 C8.41,10.5 8.30714285,10.4737533 8.22999999,10.3950131 L4.11571429,6.19553805 C3.96142857,6.03805774 3.96142857,5.80183727 4.11571429,5.64435695 C4.27,5.48687664 4.50142857,5.48687664 4.65571429,5.64435695 L8.51285714,9.55511811 L12.3442857,5.61811024 C12.4985714,5.46062992 12.73,5.46062992 12.8842857,5.61811024 C13.0385714,5.77559055 13.0385714,6.01181102 12.8842857,6.16929134 L8.76999999,10.3687664 C8.71857142,10.4737533 8.61571428,10.5 8.51285714,10.5 Z" id="路径" stroke="#666666" fill="#666666" fill-rule="nonzero" transform="translate(8.500000, 8.000000) rotate(270.000000) translate(-8.500000, -8.000000) "></path>
            </g>
        </g>
    </g>
</svg>