<?xml version="1.0" encoding="UTF-8"?>
<svg width="24px" height="24px" viewBox="0 0 24 24" version="1.1" xmlns="http://www.w3.org/2000/svg" xmlns:xlink="http://www.w3.org/1999/xlink">
    <title>编组 11</title>
    <g id="页面-2" stroke="none" stroke-width="1" fill="none" fill-rule="evenodd">
        <g id="首页1备份" transform="translate(-383.000000, -1415.000000)">
            <g id="编组-29" transform="translate(359.000000, 1387.000000)">
                <g id="编组-2" transform="translate(24.000000, 26.000000)">
                    <g id="编组-11" transform="translate(0.000000, 2.000000)">
                        <rect id="矩形" x="0" y="0" width="24" height="24"></rect>
                        <path d="M2.178612,17.8459561 C2.07546759,17.8167339 2,17.7229906 2,17.6118625 L2,16.6377383 C2,16.5032398 2.11054698,16.3942073 2.24691358,16.3942073 L3.2345679,16.3942073 L3.2345679,5.67884145 L2.24691358,5.67884145 C2.11054698,5.67884145 2,5.56980889 2,5.43531041 L2,4.46118625 C2,4.32668777 2.11054698,4.21765521 2.24691358,4.21765521 L11.2592593,4.21765521 L11.2592593,3.24353104 C11.2592593,3.10903256 11.3698062,3 11.5061728,3 L12.4938272,3 C12.6301938,3 12.7407407,3.10903256 12.7407407,3.24353104 L12.7407407,4.21765521 L21.7530864,4.21765521 C21.889453,4.21765521 22,4.32668777 22,4.46118625 L22,5.43531041 C22,5.56980889 21.889453,5.67884145 21.7530864,5.67884145 L20.7654321,5.67884145 L20.7654321,16.3942073 L21.7530864,16.3942073 C21.889453,16.3942073 22,16.5032398 22,16.6377383 L22,17.6118625 C22,17.7229906 21.9245324,17.8167339 21.821388,17.8459561 L17.7843123,17.8459561 L20.4575257,20.9714852 C20.5454363,21.0743048 20.5321926,21.2279458 20.4279449,21.3146521 L19.6729167,21.9426348 C19.568669,22.0293411 19.412894,22.0162788 19.3249833,21.9134593 L15.8460407,17.8459561 L8.15221356,17.8459561 L4.67501668,21.9134593 C4.58710605,22.0162788 4.43133098,22.0293411 4.32708334,21.9426348 L3.57205507,21.3146521 C3.46780742,21.2279458 3.45456365,21.0743048 3.54247428,20.9714852 L6.21517652,17.8459561 L2.178612,17.8459561 Z M16.0239457,8.03038422 L15.9655396,8.08304751 L13.0362699,11.7368744 L10.0711442,8.15952779 C9.99983552,8.07348607 9.89378147,8.05714858 9.80927707,8.10998533 L9.75081894,8.16257479 L6.06510239,12.7489885 C5.9948899,12.8363591 5.98156028,12.9662845 6.02467644,13.0698151 L6.06759031,13.1414368 L6.71319683,13.920237 C6.78450855,14.0062609 6.89055334,14.0225922 6.97505478,13.9697666 L7.03351216,13.9171888 L9.92459436,10.31956 L12.8907961,13.8982047 C12.962248,13.9841923 13.0683203,14.0004312 13.1527885,13.9474845 L13.2112104,13.8948109 L16.9350872,9.24983023 C17.0052145,9.1623569 17.0184175,9.03241211 16.9752005,8.92894463 L16.9322168,8.85738585 L16.2858518,8.0795307 C16.2144562,7.9936112 16.1083956,7.97743499 16.0239457,8.03038422 Z" id="形状" fill="#000000"></path>
                    </g>
                </g>
            </g>
        </g>
    </g>
</svg>