<?xml version="1.0" encoding="UTF-8"?>
<svg width="16px" height="16px" viewBox="0 0 16 16" version="1.1" xmlns="http://www.w3.org/2000/svg" xmlns:xlink="http://www.w3.org/1999/xlink">
    <title>管理导入客户@1x</title>
    <g id="PC-Web" stroke="none" stroke-width="1" fill="none" fill-rule="evenodd">
        <g id="11--单条新增-新增管理已导入客户" transform="translate(-460.000000, -480.000000)">
            <g id="管理导入客户" transform="translate(460.000000, 480.000000)">
                <rect id="矩形" x="0" y="0" width="16" height="16"></rect>
                <g id="客户管理" transform="translate(1.000000, 1.500000)" fill="#3355FF" fill-rule="nonzero">
                    <path d="M7.04081095,12.5990522 L0.43408714,12.5990522 C0.194347432,12.5990522 0,12.4039362 0,12.1632484 C0.0013695602,10.2854215 0.868878027,8.51409205 2.349276,7.36635954 C3.82967398,6.21862703 5.75604934,5.82389616 7.56604054,6.29739964 C7.71647127,6.33632292 7.83479148,6.45286073 7.87643107,6.6031144 C7.91807066,6.75336808 7.8767036,6.9145105 7.76791245,7.02584089 C7.65912131,7.13717128 7.49943404,7.18177588 7.34900331,7.14285259 C5.87034628,6.74962382 4.29416127,7.03339291 3.04374254,7.91795193 C1.7933238,8.80251095 0.996833583,10.1971966 0.868174279,11.7274574 L7.04082364,11.7274574 C7.27964403,11.7287534 7.47256437,11.9234865 7.47256437,12.1632548 C7.47256437,12.4030231 7.27964403,12.5977562 7.04082364,12.5990522 L7.04081095,12.5990522 Z" id="路径"></path>
                    <path d="M6.03807916,6.97288593 C4.63351738,6.97288593 3.36725518,6.12346082 2.82975029,4.82068426 C2.2922454,3.51790769 2.58935057,2.01834525 3.58252573,1.02124248 C4.5757009,0.0241397162 6.06935654,-0.274140375 7.36700144,0.265490135 C8.66464634,0.805120644 9.51072555,2.0763904 9.51072555,3.48650665 C9.49887494,5.40703109 7.95103862,6.96098847 6.03807916,6.97288593 L6.03807916,6.97288593 Z M6.03807916,0.832490301 C4.9846634,0.832490301 4.03497064,1.46955229 3.63184114,2.44662831 C3.22871165,3.42370433 3.45153486,4.54837084 4.19640866,5.2961976 C4.94128247,6.04402436 6.06151672,6.26773969 7.03474795,5.86302549 C8.00797918,5.45831129 8.64255127,4.50486909 8.64255127,3.44728749 C8.63075402,2.00811924 7.47157839,0.84434821 6.03807916,0.832490301 Z M13.565055,10.559516 C13.3253153,10.559516 13.1309679,10.3644 13.1309679,10.1237122 L13.1309679,8.93835143 C13.1309679,8.78265373 13.2137044,8.63878312 13.3480115,8.56093426 C13.4823185,8.48308541 13.6477916,8.48308541 13.7820986,8.56093426 C13.9164056,8.63878312 13.9991422,8.78265373 13.9991422,8.93835143 L13.9991422,10.1237122 C13.9991422,10.3644 13.8047947,10.559516 13.565055,10.559516 L13.565055,10.559516 Z M11.4814621,12.9999896 C11.2837899,13.0013558 11.1101548,12.8684784 11.0590946,12.6767544 C11.0080343,12.4850305 11.0924455,12.2828851 11.2644249,12.1850355 L12.2845202,11.592355 C12.4190838,11.5063721 12.5897779,11.5014064 12.729075,11.5794223 C12.8683721,11.6574382 12.9538304,11.8058669 12.951642,11.965989 C12.9494537,12.1261112 12.8599713,12.27213 12.7185946,12.3462797 L11.6984994,12.9389728 C11.6327656,12.978138 11.5578961,12.9991828 11.4814621,12.9999896 L11.4814621,12.9999896 Z M9.35446686,12.9999896 C9.27842319,13.0005083 9.20357526,12.9809726 9.13741695,12.9433277 L8.11733437,12.3462797 C7.97595766,12.27213 7.88647528,12.1261112 7.88428694,11.965989 C7.88209859,11.8058669 7.96755684,11.6574382 8.10685394,11.5794223 C8.24615105,11.5014064 8.41684517,11.5063721 8.55140882,11.592355 L9.57150409,12.1850355 C9.74348352,12.2828851 9.82789469,12.4850305 9.77683442,12.6767544 C9.72577416,12.8684784 9.55213913,13.0013558 9.35446686,12.9999896 L9.35446686,12.9999896 Z M7.27087396,10.559516 C7.03113426,10.559516 6.83678682,10.3644 6.83678682,10.1237122 L6.83678682,8.93835143 C6.83678682,8.69766366 7.03113426,8.50254767 7.27087396,8.50254767 C7.51061366,8.50254767 7.7049611,8.69766366 7.7049611,8.93835143 L7.7049611,10.1237122 C7.7049611,10.3644 7.51061367,10.559516 7.27087396,10.559516 L7.27087396,10.559516 Z M8.3343716,7.52637052 C8.13669932,7.52773673 7.96306427,7.39485933 7.91200401,7.20313538 C7.86094374,7.01141144 7.94535492,6.80926608 8.11733437,6.7114164 L9.13741695,6.11872326 C9.27197921,6.0328295 9.44261619,6.0279183 9.58185886,6.10593152 C9.72110154,6.18394474 9.8065312,6.33232189 9.80436939,6.4923954 C9.80220758,6.6524689 9.71280235,6.79846617 9.57150409,6.87266062 L8.55140882,7.46969587 C8.48525546,7.50734305 8.41041212,7.52688314 8.3343716,7.52637052 L8.3343716,7.52637052 Z M12.5015574,7.52635992 C12.4255169,7.52688314 12.3506735,7.50734305 12.2845202,7.46969587 L11.2644249,6.87701547 C11.0682529,6.75166625 11.0053107,6.49338404 11.1216807,6.29126627 C11.2380506,6.08914851 11.492395,6.01499268 11.6984994,6.12309086 L12.7185946,6.71577126 C12.8905741,6.81362095 12.9749852,7.0157663 12.923925,7.20749023 C12.8728647,7.39921417 12.6992297,7.53209156 12.5015574,7.53072537 L12.5015574,7.52635992 Z" id="形状"></path>
                    <path d="M11.4771244,12.9999926 C11.3111339,13.0003228 11.159488,12.9055906 11.0864523,12.7559416 C10.9611505,12.4988126 10.7009203,12.3357804 10.4157956,12.3357804 C10.130671,12.3357804 9.87044082,12.4988126 9.74513895,12.7559416 C9.63010935,12.9528432 9.38323151,13.0272692 9.17918652,12.9265587 C8.97514153,12.8258481 8.88307625,12.5841298 8.96813248,12.3724343 C9.23941083,11.817058 9.80183983,11.4650649 10.4179645,11.4650649 C11.0340892,11.4650649 11.5965182,11.817058 11.8677965,12.3724343 C11.9337807,12.5076447 11.9255722,12.6674722 11.8460862,12.7951522 C11.7666002,12.9228323 11.6270976,13.0002762 11.4771244,12.9999926 L11.4771244,12.9999926 Z M10.4179645,7.59607579 C9.80144806,7.59833256 9.23805755,7.24608649 8.96813248,6.68960394 C8.86265051,6.47298845 8.95205032,6.21153872 9.16781255,6.10563961 C9.38357478,5.9997405 9.64399467,6.08949386 9.74947664,6.30610934 C9.87477851,6.56323837 10.1350087,6.72627057 10.4201333,6.72627057 C10.705258,6.72627057 10.9654882,6.56323837 11.0907901,6.30610934 C11.1590249,6.16598369 11.2965382,6.07304908 11.45153,6.06231307 C11.6065218,6.05157707 11.7554452,6.12467073 11.8422021,6.25406037 C11.928959,6.38345002 11.9403691,6.54947829 11.8721342,6.68960394 C11.6023428,7.24824459 11.03634,7.6010683 10.4179645,7.59607579 L10.4179645,7.59607579 Z M13.4825753,9.37412974 C12.8888461,9.36919798 12.3457065,9.0375425 12.0682735,8.51051953 C11.7908404,7.98349656 11.8238728,7.3461316 12.1542877,6.85086088 C12.2411327,6.72163293 12.3900515,6.64873586 12.5449478,6.65962929 C12.6998442,6.67052271 12.8371856,6.76355166 12.905237,6.90367304 C12.9732883,7.04379441 12.961711,7.20972043 12.874866,7.33894838 C12.7173055,7.57353825 12.7047447,7.8772094 12.8423893,8.12410667 C12.9800339,8.37100394 13.2444264,8.51905075 13.5259904,8.50688976 C13.6810748,8.50066185 13.8276881,8.57797076 13.9106026,8.70969496 C13.9935171,8.84141917 14.000136,9.00754663 13.9279661,9.14549874 C13.8557962,9.28345086 13.7158017,9.37226941 13.5607173,9.37849732 L13.4825753,9.37412974 Z M8.33003389,12.402931 C8.17079265,12.4020897 8.02478661,12.3137912 7.94961117,12.1728541 C7.87443573,12.0319169 7.88216055,11.860969 7.9697384,11.7274447 C8.12703506,11.4903377 8.13685511,11.1842064 7.99508043,10.9374298 C7.85330575,10.6906533 7.58444611,10.545894 7.30125055,10.5638581 C7.06151085,10.579502 6.85453154,10.3970678 6.83894934,10.15638 C6.82336713,9.91569223 7.00508268,9.70789441 7.24482238,9.69225057 C7.85649832,9.65641283 8.43568434,9.97122157 8.74017235,10.5050279 C9.04466036,11.0388342 9.02198985,11.699668 8.68164131,12.2111773 C8.60252022,12.328749 8.47134079,12.4002894 8.33003389,12.402931 L8.33003389,12.402931 Z M7.353341,9.37412974 L7.24048469,9.37412974 C7.00074499,9.35848239 6.81903229,9.15068172 6.83461799,8.90999394 C6.8502037,8.66930617 7.05718583,8.48687485 7.29692553,8.50252218 C7.5801146,8.52047748 7.84896433,8.37571773 7.99073465,8.12894682 C8.13250496,7.88217591 8.12268811,7.576053 7.9654007,7.33894838 C7.86382806,7.21095063 7.84224385,7.0366125 7.90951401,6.88754523 C7.97678417,6.73847796 8.12156786,6.63981229 8.28439364,6.63207619 C8.44721942,6.62434008 8.60063706,6.70883775 8.68162863,6.85086088 C9.01288261,7.3474281 9.04514195,7.98669444 8.76557239,8.51432996 C8.48600282,9.04196549 7.93995246,9.37238404 7.3446656,9.37412974 L7.353341,9.37412974 Z M12.5058951,12.4029182 C12.3615121,12.4031363 12.2264709,12.3312679 12.1456123,12.2111773 C11.8034827,11.6976846 11.7817856,11.033607 12.0896615,10.4987086 C12.3975373,9.96381016 12.9814643,9.65107906 13.5954443,9.69226331 C13.8336524,9.70857877 14.0140181,9.91496868 13.9991422,10.1542089 C13.982891,10.393359 13.777314,10.574438 13.5390161,10.5595033 C13.2535934,10.5384553 12.9813026,10.6830597 12.8380178,10.9317794 C12.6947331,11.1804992 12.7056714,11.4895618 12.8661779,11.7274447 C12.9561644,11.8611115 12.9652348,12.0337521 12.8897542,12.1761813 C12.8142736,12.3186105 12.6665931,12.4075224 12.5058951,12.4072863 L12.5058951,12.4029182 Z M10.4179645,10.9517458 C9.8440394,10.9517025 9.32697774,10.6036461 9.10900122,10.0706263 C8.8910247,9.53760657 9.01530696,8.92519635 9.42362698,8.52028419 C9.831947,8.11537202 10.4434306,7.99815708 10.9716234,8.22354964 C11.4998162,8.4489422 11.8401014,8.97229976 11.8330695,9.54845124 C11.8212487,10.3252793 11.1918196,10.9494495 10.4179645,10.9517458 L10.4179645,10.9517458 Z M10.4179645,8.97757058 C10.1187755,8.97780739 9.87529945,9.2193491 9.87149642,9.51969705 C9.8676934,9.82004501 10.104975,10.0677223 10.4040612,10.0755946 C10.7031475,10.0834668 10.9530299,9.84861212 10.9649079,9.54847671 C10.9695933,9.39944365 10.9141837,9.25481712 10.8112279,9.14735055 C10.708272,9.03988397 10.5664804,8.9786696 10.4179645,8.97757058 L10.4179645,8.97757058 Z" id="形状"></path>
                </g>
            </g>
        </g>
    </g>
</svg>