<?xml version="1.0" encoding="UTF-8"?>
<svg width="24px" height="24px" viewBox="0 0 24 24" version="1.1" xmlns="http://www.w3.org/2000/svg" xmlns:xlink="http://www.w3.org/1999/xlink">
    <title>Icon/商机推荐_M_666@1x</title>
    <g id="APP" stroke="none" stroke-width="1" fill="none" fill-rule="evenodd">
        <g id="02-首页-无订阅" transform="translate(-221.000000, -736.000000)">
            <g id="Icon/商机推荐_M_666" transform="translate(221.000000, 736.000000)">
                <rect id="矩形" x="0" y="0" width="24" height="24"></rect>
                <path d="M20.81,6 L17.06,6 L17.06,4.65 C17.01,3.70000001 16.21,3 15.26,3 L8.26000001,3 C7.31000002,3.04999999 6.56,3.79999999 6.56,4.75000001 L6.56,6 L3.31000001,6 C2.35999999,6 1.56,6.79999999 1.56,7.75000001 L1.56,19.25 C1.56,20.2 2.35999999,21 3.31000001,21 L20.81,21 C21.76,21 22.56,20.2 22.56,19.25 L22.56,7.75000001 C22.56,6.80000002 21.76,6 20.81,6 Z M8.05999999,4.75000001 C8.10999998,4.60000001 8.20999999,4.5 8.35999999,4.5 L15.31,4.5 C15.46,4.5 15.56,4.65 15.56,4.75000001 L15.56,6 L8.05999999,6 L8.05999999,4.75000001 Z M3.31000001,7.5 L20.81,7.5 C20.96,7.5 21.06,7.60000001 21.06,7.75000001 L21.06,10.75 L3.06,10.75 L3.06,7.75000001 C3.06,7.60000001 3.16000001,7.5 3.31000001,7.5 Z M9.81,12.25 L14.31,12.25 L14.31,13.5 C14.31,13.65 14.21,13.75 14.06,13.75 L10.06,13.75 C9.91000001,13.75 9.81,13.65 9.81,13.5 L9.81,12.25 L9.81,12.25 Z M20.81,19.5 L3.31000001,19.5 C3.16000001,19.5 3.06,19.4 3.06,19.25 L3.06,12.25 L8.31,12.25 L8.31,13.5 C8.31,14.45 9.10999999,15.25 10.06,15.25 L14.06,15.25 C15.01,15.25 15.81,14.45 15.81,13.5 L15.81,12.25 L21.06,12.25 L21.06,19.25 C21.06,19.4 20.96,19.5 20.81,19.5 Z" id="形状" fill="currentColor" fill-rule="nonzero"></path>
            </g>
        </g>
    </g>
</svg>