<?xml version="1.0" encoding="UTF-8"?>
<svg width="17px" height="16px" viewBox="0 0 17 16" version="1.1" xmlns="http://www.w3.org/2000/svg" xmlns:xlink="http://www.w3.org/1999/xlink">
    <title>Icon/DeleteColumn_666@1x</title>
    <g id="PC" stroke="none" stroke-width="1" fill="none" fill-rule="evenodd">
        <g id="05-名单页" transform="translate(-478.000000, -60.000000)">
            <g id="Icon/DeleteColumn_666" transform="translate(478.000000, 60.000000)">
                <rect id="矩形" x="0" y="0" width="16" height="16"></rect>
                <path d="M12.0609756,2.5 C12.5707317,2.5 13,2.93243244 13,3.44594595 L13,3.44594595 L13,8.5 L12.195,8.5 L12.195122,3.44594595 C12.195122,3.38108108 12.1607805,3.33351351 12.1058342,3.31708108 L12.0609756,3.31081081 L7.90243902,3.31081081 L7.90243902,11.6891892 L9,11.689 L9,12.5 L2.93902438,12.5 C2.46567944,12.5 2.06173469,12.1271373 2.00644333,11.6627236 L2,11.5540541 L2,3.44594595 C2,2.93243244 2.42926829,2.5 2.93902438,2.5 L2.93902438,2.5 Z M7.09756098,3.31081081 L2.93902438,3.31081081 C2.85853659,3.31081081 2.80487805,3.36486487 2.80487805,3.44594595 L2.80487805,3.44594595 L2.80487805,11.5540541 C2.80487805,11.6351351 2.85853658,11.6891892 2.93902438,11.6891892 L2.93902438,11.6891892 L7.09756098,11.6891892 L7.09756098,3.31081081 Z" id="形状结合" stroke="#666666" stroke-width="0.2" fill="currentColor" fill-rule="nonzero"></path>
                <path d="M14.4969374,11.5614035 L12.8741304,11.5614035 L12.8741304,9.94166667 C12.8741304,9.70043859 12.676762,9.5 12.4355339,9.5 C12.1943058,9.5 11.9969374,9.7004386 11.9969374,9.94166667 L11.9969374,11.5614035 L10.3741304,11.5614035 C10.1329023,11.5614035 9.93553391,11.7587719 9.93553391,12 C9.93553391,12.2412281 10.1329023,12.4385965 10.3741304,12.4385965 L11.9969374,12.4385965 L11.9969374,14.0583333 C11.9969374,14.2995614 12.1943058,14.5 12.4355339,14.5 C12.676762,14.5 12.8741304,14.2995614 12.8741304,14.0583333 L12.8741304,12.4385965 L14.4969374,12.4385965 C14.7381655,12.4385965 14.9355339,12.2412281 14.9355339,12 C14.9355339,11.7587719 14.7381655,11.5614035 14.4969374,11.5614035 Z" id="路径" stroke="#666666" stroke-width="0.2" fill="currentColor" fill-rule="nonzero" transform="translate(12.435534, 12.000000) rotate(45.000000) translate(-12.435534, -12.000000) "></path>
            </g>
        </g>
    </g>
</svg>