<?xml version="1.0" encoding="UTF-8"?>
<svg width="10px" height="10px" viewBox="0 0 10 10" version="1.1" xmlns="http://www.w3.org/2000/svg" xmlns:xlink="http://www.w3.org/1999/xlink">
    <title>Icon/Delete_small _3355FF@1x</title>
    <g id="PC" stroke="none" stroke-width="1" fill="none" fill-rule="evenodd">
        <g id="06-名单页-重命名" transform="translate(-52.000000, -379.000000)">
            <g id="Icon/Delete_small-_3355FF" transform="translate(52.000000, 379.000000)">
                <rect id="Rectangle" x="0" y="0" width="10" height="10"></rect>
                <path d="M8.61839798,1.38160202 C8.77094653,1.53415057 8.77094653,1.78148064 8.61839798,1.93402919 L5.5521906,4.9991906 L8.61839798,8.06597081 C8.75187796,8.19945079 8.76856296,8.40549787 8.66845298,8.55711963 L8.61839798,8.61839798 C8.46584943,8.77094653 8.21851936,8.77094653 8.06597081,8.61839798 L8.06597081,8.61839798 L4.9991906,5.5521906 L1.93402919,8.61839798 C1.78148064,8.77094653 1.53415057,8.77094653 1.38160202,8.61839798 C1.22905347,8.46584943 1.22905347,8.21851936 1.38160202,8.06597081 L4.4471906,4.9991906 L1.38160202,1.93402919 C1.24812204,1.80054921 1.23143704,1.59450213 1.33154702,1.44288037 L1.38160202,1.38160202 C1.53415057,1.22905347 1.78148064,1.22905347 1.93402919,1.38160202 L1.93402919,1.38160202 L4.9991906,4.4471906 L8.06597081,1.38160202 C8.21851936,1.22905347 8.46584943,1.22905347 8.61839798,1.38160202 Z" id="Combined-Shape" fill="#3355FF"></path>
            </g>
        </g>
    </g>
</svg>