<?xml version="1.0" encoding="UTF-8"?>
<svg width="18px" height="18px" viewBox="0 0 18 18" version="1.1" xmlns="http://www.w3.org/2000/svg" xmlns:xlink="http://www.w3.org/1999/xlink">
    <title>Icon/Excel</title>
    <g id="企业库PC" stroke="none" stroke-width="1" fill="none" fill-rule="evenodd">
        <g id="下载报告" transform="translate(-961, -617)">
            <g id="Icon/Excel" transform="translate(961, 617)">
                <rect id="矩形" x="0" y="0" width="18" height="18"></rect>
                <g id="编组-11" transform="translate(0.5, 0.5)" fill="#FFFFFF" fill-rule="nonzero">
                    <path d="M16.46875,1.43230793 L9.5625,1.43230793 L9.5625,1.09010517 C9.5625,0.403997159 8.94990234,-0.111860727 8.29414063,0.0209343721 L0.856640625,1.531053 C0.35859375,1.63150058 0,2.07925842 0,2.60022381 L0,14.4275002 C0,14.9484656 0.360253906,15.3979259 0.859960937,15.496671 L8.29746094,16.9795496 C8.95322266,17.1106422 9.5625,16.5947843 9.5625,15.9103788 L9.5625,15.5971185 L16.46875,15.5971185 C16.7625977,15.5971185 17,15.3536609 17,15.0523181 L17,1.97710834 C17,1.67576561 16.7625977,1.43230793 16.46875,1.43230793 Z M2.23955078,11.0769777 L3.49130859,8.65772335 C3.53115234,8.58111079 3.5328125,8.48917572 3.49628906,8.41086066 L2.34248047,5.97628384 C2.30429688,5.89456377 2.35244141,5.7975212 2.43876953,5.78219869 L3.18916016,5.64770109 C3.31035156,5.62556857 3.42988281,5.69196612 3.4796875,5.80773621 L4.12548828,7.35020237 C4.18691406,7.50002248 4.24003906,7.6651651 4.28486328,7.84903524 L4.29814453,7.84903524 C4.34462891,7.67878511 4.40273438,7.49831998 4.47246094,7.30593733 L5.33740234,5.37870589 C5.37392578,5.29698583 5.44697266,5.23910078 5.53330078,5.22377827 L6.64726563,5.02288312 C6.75683594,5.00245311 6.83984375,5.1216282 6.78671875,5.22207577 L5.09501953,8.38021564 C5.05185547,8.4619357 5.05185547,8.56238327 5.09501953,8.64410334 L6.83486328,11.8618307 C6.88964844,11.9622783 6.80498047,12.0814534 6.69541016,12.0627259 L5.48847656,11.8448057 C5.40214844,11.8294832 5.32910156,11.7715982 5.29257813,11.6898781 L4.35458984,9.58388404 C4.32138672,9.50727148 4.28652344,9.37107138 4.25,9.17528373 L4.23671875,9.17528373 C4.21845703,9.27062381 4.17861328,9.40512141 4.1171875,9.58218154 L3.33193359,11.2574428 C3.28046875,11.3681054 3.16425781,11.4293954 3.04638672,11.4072629 L2.33251953,11.2795753 C2.24453125,11.2591453 2.19638672,11.1586977 2.23955078,11.0769777 L2.23955078,11.0769777 Z M15.9375,14.3713176 C15.9375,14.4462277 15.8777344,14.5075177 15.8046875,14.5075177 L9.5625,14.5075177 L9.5625,13.0093166 C9.5625,12.9344066 9.62226563,12.8731165 9.6953125,12.8731165 L11.2890625,12.8731165 C11.3621094,12.8731165 11.421875,12.8118265 11.421875,12.7369164 L11.421875,11.9197158 C11.421875,11.8448057 11.3621094,11.7835157 11.2890625,11.7835157 L9.6953125,11.7835157 C9.62226563,11.7835157 9.5625,11.7222256 9.5625,11.6473156 L9.5625,11.1025152 C9.5625,11.0276051 9.62226563,10.9663151 9.6953125,10.9663151 L11.2890625,10.9663151 C11.3621094,10.9663151 11.421875,10.905025 11.421875,10.830115 L11.421875,10.0129144 C11.421875,9.93800431 11.3621094,9.87671426 11.2890625,9.87671426 L9.6953125,9.87671426 C9.62226563,9.87671426 9.5625,9.81542421 9.5625,9.74051416 L9.5625,9.19571375 C9.5625,9.12080369 9.62226563,9.05951365 9.6953125,9.05951365 L11.2890625,9.05951365 C11.3621094,9.05951365 11.421875,8.9982236 11.421875,8.92331355 L11.421875,8.10611293 C11.421875,8.03120288 11.3621094,7.96991283 11.2890625,7.96991283 L9.6953125,7.96991283 C9.62226563,7.96991283 9.5625,7.90862278 9.5625,7.83371273 L9.5625,7.28891232 C9.5625,7.21400226 9.62226563,7.15271222 9.6953125,7.15271222 L11.2890625,7.15271222 C11.3621094,7.15271222 11.421875,7.09142217 11.421875,7.01651212 L11.421875,6.1993115 C11.421875,6.12440145 11.3621094,6.0631114 11.2890625,6.0631114 L9.6953125,6.0631114 C9.62226563,6.0631114 9.5625,6.00182136 9.5625,5.9269113 L9.5625,5.38211089 C9.5625,5.30720083 9.62226563,5.24591079 9.6953125,5.24591079 L11.2890625,5.24591079 C11.3621094,5.24591079 11.421875,5.18462074 11.421875,5.10971069 L11.421875,4.29251007 C11.421875,4.21760002 11.3621094,4.15630997 11.2890625,4.15630997 L9.6953125,4.15630997 C9.62226563,4.15630997 9.5625,4.09501993 9.5625,4.02010987 L9.5625,2.52190875 L15.8046875,2.52190875 C15.8777344,2.52190875 15.9375,2.58319879 15.9375,2.65810885 L15.9375,14.3713176 Z" id="形状"></path>
                    <path d="M12.6171875,4.15630997 C12.5441406,4.15630997 12.484375,4.21760002 12.484375,4.29251007 L12.484375,5.10971069 C12.484375,5.18462074 12.5441406,5.24591079 12.6171875,5.24591079 L14.7421875,5.24591079 C14.8152344,5.24591079 14.875,5.18462074 14.875,5.10971069 L14.875,4.29251007 C14.875,4.21760002 14.8152344,4.15630997 14.7421875,4.15630997 L12.6171875,4.15630997 Z M12.6171875,6.0631114 C12.5441406,6.0631114 12.484375,6.12440145 12.484375,6.1993115 L12.484375,7.01651212 C12.484375,7.09142217 12.5441406,7.15271222 12.6171875,7.15271222 L14.7421875,7.15271222 C14.8152344,7.15271222 14.875,7.09142217 14.875,7.01651212 L14.875,6.1993115 C14.875,6.12440145 14.8152344,6.0631114 14.7421875,6.0631114 L12.6171875,6.0631114 Z M12.6171875,7.96991283 C12.5441406,7.96991283 12.484375,8.03120288 12.484375,8.10611293 L12.484375,8.92331355 C12.484375,8.9982236 12.5441406,9.05951365 12.6171875,9.05951365 L14.7421875,9.05951365 C14.8152344,9.05951365 14.875,8.9982236 14.875,8.92331355 L14.875,8.10611293 C14.875,8.03120288 14.8152344,7.96991283 14.7421875,7.96991283 L12.6171875,7.96991283 Z M12.6171875,9.87671426 C12.5441406,9.87671426 12.484375,9.93800431 12.484375,10.0129144 L12.484375,10.830115 C12.484375,10.905025 12.5441406,10.9663151 12.6171875,10.9663151 L14.7421875,10.9663151 C14.8152344,10.9663151 14.875,10.905025 14.875,10.830115 L14.875,10.0129144 C14.875,9.93800431 14.8152344,9.87671426 14.7421875,9.87671426 L12.6171875,9.87671426 Z M12.6171875,11.7835157 C12.5441406,11.7835157 12.484375,11.8448057 12.484375,11.9197158 L12.484375,12.7369164 C12.484375,12.8118265 12.5441406,12.8731165 12.6171875,12.8731165 L14.7421875,12.8731165 C14.8152344,12.8731165 14.875,12.8118265 14.875,12.7369164 L14.875,11.9197158 C14.875,11.8448057 14.8152344,11.7835157 14.7421875,11.7835157 L12.6171875,11.7835157 Z" id="形状"></path>
                </g>
            </g>
        </g>
    </g>
</svg>