<?xml version="1.0" encoding="UTF-8"?>
<svg width="18px" height="18px" viewBox="0 0 18 18" version="1.1" xmlns="http://www.w3.org/2000/svg" xmlns:xlink="http://www.w3.org/1999/xlink">
    <title>Icon/Doc</title>
    <g id="企业库PC" stroke="none" stroke-width="1" fill="none" fill-rule="evenodd">
        <g id="企业详情页-导出报告" transform="translate(-960, -469)">
            <g id="Icon/Doc" transform="translate(960, 469)">
                <rect id="矩形" x="0" y="0" width="18" height="18"></rect>
                <g id="文件,word" transform="translate(0.5, 0.5)" fill="#FFFFFF" fill-rule="nonzero">
                    <path d="M16.46875,1.43230793 L9.5625,1.43230793 L9.5625,1.09010517 C9.5625,0.403997159 8.94990234,-0.111860727 8.29414063,0.0209343721 L0.856640625,1.531053 C0.35859375,1.63150058 0,2.07925842 0,2.60022381 L0,14.4275002 C0,14.9484656 0.360253906,15.3979259 0.859960937,15.496671 L8.29746094,16.9795496 C8.95322266,17.1106422 9.5625,16.5947843 9.5625,15.9103788 L9.5625,15.5971185 L16.46875,15.5971185 C16.7625977,15.5971185 17,15.3536609 17,15.0523181 L17,1.97710834 C17,1.67576561 16.7625977,1.43230793 16.46875,1.43230793 Z M1.78300781,6.35934662 L2.30927734,6.28443657 C2.38232422,6.27422156 2.44873047,6.3252966 2.45869141,6.40020665 L2.97998047,10.1133619 C3.00488281,10.2870171 3.02148438,10.5049372 3.03144531,10.7688249 L3.04804688,10.7705274 C3.05634766,10.5662273 3.08125,10.3431996 3.12275391,10.1031469 L3.83496094,6.15845147 C3.84492188,6.10056643 3.88974609,6.0563014 3.94785156,6.04778889 L4.68994141,5.94053131 C4.76132813,5.9303163 4.82607422,5.97968884 4.83935547,6.05119389 L5.59472656,10.2785046 C5.62792969,10.4572672 5.65283203,10.6905099 5.67109375,10.9782326 L5.68603516,10.9799351 C5.69433594,10.7347749 5.71757813,10.4964247 5.75742188,10.263182 L6.46630859,5.78390119 C6.47626953,5.72431365 6.52109375,5.67834611 6.57919922,5.67153611 L7.46074219,5.54555101 C7.55205078,5.531931 7.62841797,5.61705607 7.60849609,5.70899114 L6.25048828,12.3215061 C6.23554688,12.3913086 6.17080078,12.4389787 6.10273438,12.4287637 L5.18632813,12.2976711 C5.12988281,12.2891586 5.08505859,12.2448935 5.0734375,12.1870085 L4.34130859,8.14527046 C4.303125,7.9290528 4.27988281,7.70432263 4.27324219,7.46767495 L4.26162109,7.46767495 C4.24335938,7.74518266 4.21845703,7.97161533 4.18525391,8.15037797 L3.50292969,11.9214183 C3.48964844,11.9929233 3.42490234,12.0422959 3.35351563,12.0320809 L2.65458984,11.9316333 C2.59648438,11.9231208 2.55166016,11.8788558 2.54169922,11.8192682 L1.67011719,6.51767924 C1.65849609,6.44106668 1.70830078,6.36956163 1.78300781,6.35934662 Z M15.9375,14.3713176 C15.9375,14.4462277 15.8777344,14.5075177 15.8046875,14.5075177 L9.5625,14.5075177 L9.5625,13.0093166 C9.5625,12.9344066 9.62226563,12.8731165 9.6953125,12.8731165 L14.7421875,12.8731165 C14.8152344,12.8731165 14.875,12.8118265 14.875,12.7369164 L14.875,11.9197158 C14.875,11.8448057 14.8152344,11.7835157 14.7421875,11.7835157 L9.6953125,11.7835157 C9.62226563,11.7835157 9.5625,11.7222256 9.5625,11.6473156 L9.5625,11.1025152 C9.5625,11.0276051 9.62226563,10.9663151 9.6953125,10.9663151 L14.7421875,10.9663151 C14.8152344,10.9663151 14.875,10.905025 14.875,10.830115 L14.875,10.0129144 C14.875,9.93800431 14.8152344,9.87671426 14.7421875,9.87671426 L9.6953125,9.87671426 C9.62226563,9.87671426 9.5625,9.81542421 9.5625,9.74051416 L9.5625,9.19571375 C9.5625,9.12080369 9.62226563,9.05951365 9.6953125,9.05951365 L14.7421875,9.05951365 C14.8152344,9.05951365 14.875,8.9982236 14.875,8.92331355 L14.875,8.10611293 C14.875,8.03120288 14.8152344,7.96991283 14.7421875,7.96991283 L9.6953125,7.96991283 C9.62226563,7.96991283 9.5625,7.90862278 9.5625,7.83371273 L9.5625,7.28891232 C9.5625,7.21400226 9.62226563,7.15271222 9.6953125,7.15271222 L14.7421875,7.15271222 C14.8152344,7.15271222 14.875,7.09142217 14.875,7.01651212 L14.875,6.1993115 C14.875,6.12440145 14.8152344,6.0631114 14.7421875,6.0631114 L9.6953125,6.0631114 C9.62226563,6.0631114 9.5625,6.00182136 9.5625,5.9269113 L9.5625,5.38211089 C9.5625,5.30720083 9.62226563,5.24591079 9.6953125,5.24591079 L14.7421875,5.24591079 C14.8152344,5.24591079 14.875,5.18462074 14.875,5.10971069 L14.875,4.29251007 C14.875,4.21760002 14.8152344,4.15630997 14.7421875,4.15630997 L9.6953125,4.15630997 C9.62226563,4.15630997 9.5625,4.09501993 9.5625,4.02010987 L9.5625,2.52190875 L15.8046875,2.52190875 C15.8777344,2.52190875 15.9375,2.58319879 15.9375,2.65810885 L15.9375,14.3713176 Z" id="形状"></path>
                </g>
            </g>
        </g>
    </g>
</svg>