<?xml version="1.0" encoding="UTF-8"?>
<svg width="18px" height="18px" viewBox="0 0 18 18" version="1.1" xmlns="http://www.w3.org/2000/svg" xmlns:xlink="http://www.w3.org/1999/xlink">
    <title>Icon/在线编辑</title>
    <g id="企业库PC" stroke="none" stroke-width="1" fill="none" fill-rule="evenodd">
        <g id="下载报告" transform="translate(-961, -781)">
            <g id="Icon/在线编辑" transform="translate(961, 781)">
                <rect id="矩形" x="0" y="0" width="18" height="18"></rect>
                <g id="edit-square" transform="translate(1.5, 1.5)" fill="#FFFFFF" fill-rule="nonzero">
                    <path d="M14.849536,7.5 L13.7995688,7.5 C13.7170713,7.5 13.6495735,7.5675 13.6495735,7.65 L13.6495735,13.65 L1.34995781,13.65 L1.34995781,1.35 L7.34977032,1.35 C7.43226774,1.35 7.49976563,1.2825 7.49976563,1.2 L7.49976563,0.15 C7.49976563,0.0675 7.43226774,0 7.34977032,0 L0.599981251,0 C0.268116621,0 0,0.268125 0,0.6 L0,14.4 C0,14.731875 0.268116621,15 0.599981251,15 L14.39955,15 C14.7314146,15 14.9995313,14.731875 14.9995313,14.4 L14.9995313,7.65 C14.9995313,7.5675 14.9320334,7.5 14.849536,7.5 Z" id="路径"></path>
                    <path d="M4.57298209,7.929375 L4.53733891,10.15875 C4.53548327,10.325625 4.67047905,10.4625 4.83734883,10.4625 L4.8448486,10.4625 L7.05727946,10.408125 C7.09477829,10.40625 7.13227712,10.39125 7.1585263,10.365 L14.9564076,2.58375 C15.0145308,2.525625 15.0145308,2.43 14.9564076,2.371875 L12.6258554,0.043125 C12.5958564,0.013125 12.5583576,0 12.5189838,0 C12.47961,0 12.4421112,0.015 12.4121121,0.043125 L4.61610575,7.824375 C4.58985657,7.8525 4.57298209,7.89 4.57298209,7.929375 L4.57298209,7.929375 Z M5.76356989,8.371875 L12.5189838,1.63125 L13.3664573,2.476875 L6.60729352,9.22125 L5.7504453,9.241875 L5.76356989,8.371875 L5.76356989,8.371875 Z" id="形状"></path>
                </g>
            </g>
        </g>
    </g>
</svg>