<?xml version="1.0" encoding="UTF-8"?>
<svg width="16px" height="16px" viewBox="0 0 16 16" version="1.1" xmlns="http://www.w3.org/2000/svg" xmlns:xlink="http://www.w3.org/1999/xlink">
    <title>Icon/Download_Pri@1x</title>
    <g id="PC" stroke="none" stroke-width="1" fill="none" fill-rule="evenodd">
        <g id="15-相似客户-初始" transform="translate(-812.000000, -308.000000)">
            <g id="Icon/Download_Pri" transform="translate(812.000000, 308.000000)">
                <rect id="矩形" x="0" y="0" width="16" height="16"></rect>
                <g id="download" transform="translate(1.500000, 2.000000)" fill="#3355FF" fill-rule="nonzero">
                    <path d="M12.5,8.33333333 C12.2333333,8.33333333 12,8.56666666 12,8.83333333 L12,10.8333333 C12,10.9333333 11.9333333,11 11.8333333,11 L1.16666667,11 C1.06666667,11 1,10.9333333 1,10.8333333 L1,8.83333333 C1,8.56666666 0.766666672,8.33333333 0.5,8.33333333 C0.233333328,8.33333333 0,8.56666666 0,8.83333333 L0,10.8333333 C0,11.4666667 0.533333328,12 1.16666667,12 L11.8333333,12 C12.4666667,12 13,11.4666667 13,10.8333333 L13,8.83333333 C13,8.56666666 12.7666667,8.33333333 12.5,8.33333333 Z" id="路径"></path>
                    <path d="M6.13333333,9.2 C6.23333333,9.3 6.36666666,9.33333333 6.5,9.33333333 C6.63333334,9.33333333 6.76666667,9.3 6.86666667,9.2 L10.2,5.86666666 C10.4,5.66666666 10.4,5.36666666 10.2,5.16666666 C10,4.96666666 9.7,4.96666666 9.5,5.16666666 L7.03333333,7.63333333 L7.03333333,0.5 C7.03333333,0.233333328 6.8,0 6.53333333,0 C6.26666666,0 6,0.233333328 6,0.5 L6,7.63333333 L3.53333333,5.16666666 C3.33333333,4.96666666 3.03333333,4.96666666 2.83333333,5.16666666 C2.63333333,5.36666666 2.63333333,5.66666666 2.83333333,5.86666666 L6.13333333,9.2 Z" id="路径"></path>
                </g>
            </g>
        </g>
    </g>
</svg>