<?xml version="1.0" encoding="UTF-8"?>
<svg width="20px" height="20px" viewBox="0 0 20 20" version="1.1" xmlns="http://www.w3.org/2000/svg" xmlns:xlink="http://www.w3.org/1999/xlink">
    <title>Icon/Download_666@1x</title>
    <g id="PC" stroke="none" stroke-width="1" fill="none" fill-rule="evenodd">
        <g id="02-首页-无订阅" transform="translate(-1260.000000, -14.000000)">
            <g id="Icon/Download_666" transform="translate(1260.000000, 14.000000)">
                <rect id="矩形" x="0" y="0" width="20" height="20"></rect>
                <path d="M17.525,16.4666667 L2.525,16.4666667 C2.19166666,16.4666667 1.9,16.7583333 1.9,17.0916667 C1.9,17.425 2.19166666,17.7166667 2.525,17.7166667 L17.525,17.7166667 C17.8583333,17.7166667 18.15,17.425 18.15,17.0916667 C18.15,16.7583333 17.8583333,16.4666667 17.525,16.4666667 Z M9.56666666,13.8 C9.69166666,13.925 9.85833332,13.9666667 10.025,13.9666667 C10.1916667,13.9666667 10.3583333,13.925 10.4833333,13.8 L14.65,9.63333332 C14.9,9.38333332 14.9,9.00833332 14.65,8.75833332 C14.4,8.50833332 14.025,8.50833332 13.775,8.75833332 L10.6916667,11.8416667 L10.6916667,2.925 C10.6916667,2.59166666 10.4,2.3 10.0666667,2.3 C9.73333332,2.3 9.4,2.59166666 9.4,2.925 L9.4,11.8416667 L6.31666666,8.75833332 C6.06666666,8.50833332 5.69166666,8.50833332 5.44166666,8.75833332 C5.19166666,9.00833332 5.19166666,9.38333332 5.44166666,9.63333332 L9.56666666,13.8 Z" id="形状" fill="#666666" fill-rule="nonzero"></path>
            </g>
        </g>
    </g>
</svg>