<?xml version="1.0" encoding="UTF-8"?>
<svg width="16px" height="16px" viewBox="0 0 16 16" version="1.1" xmlns="http://www.w3.org/2000/svg" xmlns:xlink="http://www.w3.org/1999/xlink">
    <title>Edit333@1x</title>
    <g id="PC" stroke="none" stroke-width="1" fill="none" fill-rule="evenodd">
        <g id="01-个人设置" transform="translate(-372.000000, -140.000000)">
            <g id="Edit333" transform="translate(372.000000, 140.000000)">
                <rect id="矩形" x="0" y="0" width="16" height="16"></rect>
                <path d="M2.86621246,2.40000055 L2.79619987,2.40432087 C2.59648551,2.43103574 2.4377834,2.58521364 2.4060726,2.78511034 L2.4,2.85789948 L2.4,13.1339242 L2.40422119,13.2037328 C2.4298594,13.4044362 2.58571776,13.5638504 2.78543212,13.5943934 L2.8578145,13.5999989 L13.1337875,13.5999989 L13.2038001,13.5957333 C13.404492,13.5689774 13.5631349,13.4135143 13.5943866,13.2136039 L13.6,13.1416761 L13.6,7.70405116 L13.5958232,7.63729133 C13.5692075,7.43355283 13.4110386,7.27200578 13.2080213,7.24097059 L13.1398601,7.23584363 L13.079223,7.24012293 C12.8757466,7.2659628 12.714734,7.42361336 12.6834971,7.62608038 L12.6778837,7.69416639 L12.6778837,12.6781581 L3.32257546,12.6781581 L3.32257546,3.32055623 L8.29583911,3.32312654 L8.36306719,3.31884724 C8.56608445,3.2929937 8.72705268,3.13576697 8.75880791,2.93416128 L8.76350306,2.86783895 L8.76065931,2.80060059 C8.73503592,2.59728592 8.57679295,2.4357252 8.37429409,2.4051822 L8.3052146,2.40000055 L2.86621246,2.40000055 Z M12.6745808,2.40000028 C12.5777303,2.40031501 12.4836495,2.43033848 12.4072236,2.4852858 L12.3521556,2.53137374 L5.80761508,8.94984742 L5.75953789,9.00324982 C5.63983369,9.16080468 5.63527184,9.36951975 5.74785185,9.53138125 L5.79455159,9.5861235 L5.84770902,9.63221144 C6.00461898,9.75099281 6.22961607,9.75382289 6.39000667,9.63910207 L6.44692614,9.59168795 L12.9928441,3.17321427 L13.0395438,3.1202357 C13.1604033,2.96471796 13.1646245,2.75109468 13.0512299,2.59039529 L13.004071,2.53613156 L12.9518318,2.49132878 C12.8733176,2.43215684 12.7750156,2.39989118 12.6736625,2.40000028 L12.6745808,2.40000028 Z" id="bianji" fill="#333333"></path>
            </g>
        </g>
    </g>
</svg>