<?xml version="1.0" encoding="UTF-8"?>
<svg width="16px" height="16px" viewBox="0 0 16 16" version="1.1" xmlns="http://www.w3.org/2000/svg" xmlns:xlink="http://www.w3.org/1999/xlink">
    <title>WindIcon/Outlined/Tips/ExclamationCircle@1x</title>
    <g id="PC-Web" stroke="none" stroke-width="1" fill="none" fill-rule="evenodd">
        <g id="05--个人中心---个性化设置" transform="translate(-284.000000, -311.000000)">
            <g id="WindIcon/Outlined/Tips/ExclamationCircle" transform="translate(284.000000, 311.000000)">
                <rect id="矩形" x="0" y="0" width="16" height="16"></rect>
                <g transform="translate(2.000000, 2.000000)" fill="#666666" fill-rule="nonzero" id="形状">
                    <path d="M6,0 C9.3137085,0 12,2.6862915 12,6 C12,9.3137085 9.3137085,12 6,12 C2.6862915,12 0,9.3137085 0,6 C0,2.6862915 2.6862915,0 6,0 Z M6,0.888888889 C3.17721128,0.888888889 0.888888889,3.17721128 0.888888889,6 C0.888888889,8.82278872 3.17721128,11.1111111 6,11.1111111 C8.82278872,11.1111111 11.1111111,8.82278872 11.1111111,6 C11.1111111,3.17721128 8.82278872,0.888888889 6,0.888888889 Z M5.66235029,2.22284388 L6.33488356,2.22284388 C6.41670352,2.22284388 6.48303171,2.28917206 6.48303171,2.37099202 L6.48292296,2.37666746 L6.35526923,7.18789766 C6.35221937,7.26745094 6.28684155,7.33037037 6.20722983,7.33037037 L5.79851427,7.33037037 C5.719049,7.33037037 5.65373671,7.26767432 5.65048983,7.18827541 L5.51432586,2.37704521 C5.51098278,2.29529358 5.57454547,2.22631068 5.6562971,2.22296759 L5.66235029,2.22284388 Z M5.99407407,8.36183449 C6.17661586,8.36183449 6.31862032,8.41569825 6.43756347,8.5346414 C6.5511751,8.64825303 6.61037037,8.79238065 6.61037037,8.96035301 C6.61037037,9.13589512 6.55202378,9.2804932 6.43523886,9.39717924 C6.31363816,9.50864655 6.16199824,9.56776042 5.99407407,9.56776042 C5.82610171,9.56776042 5.68197409,9.50856515 5.56836246,9.39495351 C5.44710428,9.27369533 5.38666667,9.13015601 5.38666667,8.96035301 C5.38666667,8.78872894 5.44852166,8.64440062 5.56613673,8.536966 C5.6755511,8.41760486 5.81751206,8.36183449 5.99407407,8.36183449 Z"></path>
                </g>
            </g>
        </g>
    </g>
</svg>