<?xml version="1.0" encoding="UTF-8"?>
<svg width="16px" height="16px" viewBox="0 0 16 16" version="1.1" xmlns="http://www.w3.org/2000/svg" xmlns:xlink="http://www.w3.org/1999/xlink">
    <title>Icon/Filter_999@1x</title>
    <g id="PC" stroke="none" stroke-width="1" fill="none" fill-rule="evenodd">
        <g id="05-名单页" transform="translate(-12.000000, -60.000000)">
            <g id="Icon/Filter_999" transform="translate(12.000000, 60.000000)">
                <rect id="矩形" x="0" y="0" width="16" height="16"></rect>
                <g id="filter" transform="translate(2.000000, 2.000000)" fill="#999999" fill-rule="nonzero">
                    <path d="M11.6292714,0.258760113 C11.4304804,0.0970350404 11.1654258,2.75790172e-16 10.8672394,2.75790172e-16 L1.15961396,2.75790172e-16 C0.530109248,2.75790172e-16 -2.82498951e-16,0.517520226 -2.82498951e-16,1.13207548 C-2.82498951e-16,1.39083559 0.0993954821,1.64959569 0.265054624,1.87601079 L4.24087391,6.4690027 L4.24087391,10.2857143 C4.24087391,10.4797844 4.34026939,10.6415094 4.50592853,10.7061995 L7.0239474,11.93531 C7.09021106,11.967655 7.15647471,12 7.25587019,12 C7.35526567,12 7.42152933,11.967655 7.52092481,11.93531 C7.65345212,11.8382749 7.7528476,11.6765499 7.7528476,11.5148248 L7.7528476,6.43665769 L11.7286669,1.84366577 C11.9274578,1.61725068 12.0268533,1.32614556 11.9937215,1.03504044 C12.0268533,0.743935315 11.894326,0.452830194 11.6292714,0.258760113 Z M11.0328985,1.22911052 L6.92455192,5.95148249 C6.85828826,6.04851753 6.79202462,6.14555257 6.79202462,6.27493262 L6.79202462,10.7061995 L5.26796055,9.96226415 L5.26796055,6.27493262 C5.26796055,6.14555257 5.23482873,6.04851753 5.13543325,5.95148249 L1.02708666,1.22911052 C1.02708666,1.19676551 0.993954821,1.16442048 0.993954821,1.13207548 C0.993954821,1.03504044 1.06021848,0.970350404 1.15961396,0.970350404 L10.8672394,0.970350404 C10.9003712,0.970350404 10.933503,0.970350404 10.9666349,1.00269543 C10.9997667,1.03504044 11.0328985,1.09973047 11.0328985,1.09973047 C11.0660303,1.13207548 11.0660303,1.19676551 11.0328985,1.22911052 Z" id="形状"></path>
                </g>
            </g>
        </g>
    </g>
</svg>