<?xml version="1.0" encoding="UTF-8"?>
<svg width="20px" height="20px" viewBox="0 0 20 20" version="1.1" xmlns="http://www.w3.org/2000/svg" xmlns:xlink="http://www.w3.org/1999/xlink">
    <title>收藏企业@1x</title>
    <g id="PC-Web" stroke="none" stroke-width="1" fill="none" fill-rule="evenodd">
        <g id="15--PC-企业详情页-基本信息" transform="translate(-1138.000000, -92.000000)">
            <g id="收藏企业" transform="translate(1138.000000, 92.000000)">
                <rect id="矩形" x="0" y="0" width="20" height="20"></rect>
                <path d="M17.2420971,7.56873793 C17.094724,7.38692442 16.8736643,7.24147362 16.6526047,7.20511091 L12.5998444,6.62330769 L10.7945239,2.98703755 C10.6839941,2.84158675 10.536621,2.69613593 10.3524046,2.58704783 C10.1313449,2.47795973 9.87344203,2.47795973 9.65238236,2.55068513 C9.4313227,2.62341054 9.24710632,2.80522404 9.13657651,3.02340025 L7.33125601,6.65967039 L3.27849574,7.24147362 C3.09427935,7.27783632 2.91006299,7.35056173 2.76268988,7.49601253 C2.39425713,7.85963954 2.4311004,8.44144277 2.76268988,8.76870708 L5.71015191,11.6049978 L5.01012966,15.6048949 C4.9732864,15.7867085 5.01012966,16.0048847 5.12065949,16.1866982 C5.34171914,16.6230506 5.93121154,16.8048641 6.37333086,16.5503252 L10.0208151,14.6594647 L13.6682994,16.5503252 C13.8156725,16.6230506 13.9630456,16.6594133 14.1104187,16.6594133 L14.2577918,16.6594133 C14.5156947,16.6230506 14.6999111,16.4775998 14.8472842,16.2957863 C14.9946573,16.1139728 15.0315006,15.8594339 14.9946573,15.6048949 L14.294635,11.6049978 L17.2420971,8.76870708 C17.3894702,8.62325628 17.5,8.44144277 17.5,8.25962926 C17.4631567,8.00509035 17.3894702,7.78691414 17.2420971,7.56873793 Z M13.5205224,10.8963643 C13.2921642,11.1214554 13.1779851,11.4215768 13.2541045,11.7216981 L13.9391791,15.5482456 L9.98097015,13.5224263 L6.02276119,15.5482456 L6.70783582,11.7216981 C6.74589551,11.4215767 6.66977612,11.1214554 6.44141792,10.8963643 L3.625,8.19527199 L7.54514926,7.63254442 C7.84962688,7.59502925 8.11604479,7.40745339 8.26828359,7.10733201 L9.98097015,3.61842105 L11.7317164,7.10733201 C11.8839552,7.3699382 12.1503731,7.59502923 12.4548508,7.63254442 L16.375,8.19527199 L13.5205224,10.8963643 Z" id="形状" fill="#3355FF" fill-rule="nonzero"></path>
            </g>
        </g>
    </g>
</svg>