<?xml version="1.0" encoding="UTF-8"?>
<svg width="16px" height="16px" viewBox="0 0 16 16" version="1.1" xmlns="http://www.w3.org/2000/svg" xmlns:xlink="http://www.w3.org/1999/xlink">
    <title>Icon/Good_666@1x</title>
    <g id="PC" stroke="none" stroke-width="1" fill="none" fill-rule="evenodd">
        <g id="10-名单-模板库" transform="translate(-948.000000, -290.000000)">
            <g id="Icon/Good_666" transform="translate(948.000000, 290.000000)">
                <rect id="矩形" x="0" y="0" width="16" height="16"></rect>
                <g id="good" transform="translate(2.000000, 2.000000)" fill="currentColor" fill-rule="nonzero">
                    <path d="M11.607681,4.2459367 C11.2922549,3.8920168 10.8506583,3.69896958 10.4090618,3.69896958 L7.72793981,3.69896958 L7.72793981,1.92937007 C7.72793981,1.25370481 7.28634324,0.642388619 6.43469273,0.159770556 C6.18235184,-0.00110213187 5.86692573,-0.0332766634 5.58304222,0.0310724147 C5.29915872,0.0954214928 5.04681782,0.288468712 4.88910478,0.545864994 C4.85756217,0.578039525 4.85756217,0.610214072 4.82601955,0.642388604 L2.96500547,4.88942742 L1.60867318,4.88942742 C0.725480068,4.88942742 2.10116001e-16,5.59726722 2.10116001e-16,6.49815426 L2.10116001e-16,10.3912732 C2.10116001e-16,11.2599857 0.725480068,12 1.60867318,12 L9.6520391,12 C10.4406044,12 11.1029992,11.4208583 11.2291697,10.6486695 L11.9861923,5.56509269 C12.0492776,5.05030011 11.8915645,4.5998566 11.607681,4.2459367 Z M2.83883503,11.0025894 L1.60867318,11.0025894 C1.23016185,11.0025894 0.946278343,10.7130185 0.946278343,10.3590986 L0.946278343,6.49815426 C0.946278343,6.14423435 1.23016185,5.85466352 1.60867318,5.85466352 L2.83883503,5.85466352 L2.83883503,11.0025894 Z M11.039914,5.37204547 L10.2513487,10.4556222 C10.1882635,10.7773676 9.9359226,11.0025894 9.62049649,11.0025894 L3.78511337,11.0025894 L3.78511337,5.40422002 L5.70921266,1.02848304 C5.74075527,0.964133979 5.77229789,0.964133979 5.8038405,0.964133979 C5.83538311,0.964133979 5.86692573,0.964133979 5.93001095,0.99630851 C6.30852229,1.22153026 6.75011886,1.57545017 6.75011884,1.96154461 L6.75011884,4.21376216 C6.75011884,4.47115845 6.97091712,4.69638021 7.22325801,4.69638021 L10.3775192,4.69638021 C10.5667748,4.69638021 10.7560305,4.76072928 10.8822009,4.92160197 C11.0083714,5.01812558 11.0714566,5.2111728 11.039914,5.37204547 Z" id="形状"></path>
                </g>
            </g>
        </g>
    </g>
</svg>