<?xml version="1.0" encoding="UTF-8"?>
<svg width="16px" height="16px" viewBox="0 0 16 16" version="1.1" xmlns="http://www.w3.org/2000/svg" xmlns:xlink="http://www.w3.org/1999/xlink">
    <title>Icon/首页_666@1x</title>
    <g id="PC" stroke="none" stroke-width="1" fill="none" fill-rule="evenodd">
        <g id="Icon/首页_666">
            <rect id="矩形" x="0" y="0" width="16" height="16"></rect>
            <path d="M14.4666667,6.38833334 C13.1333333,5.28833334 11.2333333,3.65500001 8.8,1.55499999 C8.36666666,1.18833334 7.7,1.18833334 7.26666666,1.55499999 C4.83333333,3.65499999 2.93333333,5.28833332 1.6,6.38833334 C1.36666667,6.62166666 1.2,6.92166666 1.2,7.22166666 C1.2,7.82166666 1.7,8.32166666 2.3,8.32166666 L3.03333333,8.32166666 L3.03333333,13.9216667 C3.03333333,14.3883333 3.4,14.755 3.86666666,14.755 L6.36666666,14.755 C6.83333333,14.755 7.2,14.3883333 7.2,13.9216667 L7.2,10.6883333 L8.86666666,10.6883333 L8.86666666,13.9216667 C8.86666666,14.3883333 9.23333333,14.755 9.7,14.755 L12.2,14.755 C12.6666667,14.755 13.0333333,14.3883333 13.0333333,13.9216667 L13.0333333,8.32166666 L13.7666667,8.32166666 C14.3666667,8.32166666 14.8666667,7.82166666 14.8666667,7.22166666 C14.8666667,6.88833334 14.7,6.58833334 14.4666667,6.38833334 Z M13.7666667,7.32166666 L12.8666667,7.32166666 C12.4,7.32166666 12.0333333,7.68833334 12.0333333,8.15499999 L12.0333333,13.755 L9.86666666,13.755 L9.86666666,10.555 C9.86666666,10.0883333 9.49999998,9.72166666 9.03333333,9.72166666 L7.03333333,9.72166666 C6.56666666,9.72166666 6.2,10.0883333 6.2,10.555 L6.2,13.7883333 L4.03333333,13.7883333 L4.03333333,8.15499999 C4.03333333,7.68833332 3.66666666,7.32166666 3.2,7.32166666 L2.3,7.32166666 C2.23333333,7.32166666 2.2,7.28833334 2.2,7.22166666 C2.2,7.18833334 2.23333333,7.15499999 2.23333333,7.12166666 C3.56666666,6.02166666 5.46666666,4.38833334 7.9,2.28833334 C7.96666667,2.22166666 8.06666667,2.22166666 8.13333333,2.28833334 C10.5666667,4.38833334 12.4666667,6.02166666 13.8,7.12166666 C13.8333333,7.15499999 13.8333333,7.15499999 13.8333333,7.18833334 C13.8666667,7.28833334 13.8,7.32166666 13.7666667,7.32166666 Z" id="形状" fill="currentColor" fill-rule="nonzero"></path>
        </g>
    </g>
</svg>