<?xml version="1.0" encoding="UTF-8"?>
<svg width="16px" height="16px" viewBox="0 0 16 16" version="1.1" xmlns="http://www.w3.org/2000/svg" xmlns:xlink="http://www.w3.org/1999/xlink">
    <title>Icon/超级名单_333@1x</title>
    <g id="PC" stroke="none" stroke-width="1" fill="none" fill-rule="evenodd">
        <g id="10-名单-模板库" transform="translate(-268.000000, -228.000000)">
            <g id="Icon/超级名单_333" transform="translate(268.000000, 228.000000)">
                <rect id="矩形" x="0" y="0" width="16" height="16"></rect>
                <path d="M12.98,1.36 L2.98,1.36 C2.71333333,1.36 2.48,1.59333333 2.48,1.86 L2.48,13.8266667 C2.48,14.0266667 2.54666667,14.1933333 2.68,14.36 C2.81333333,14.5266667 3.01333333,14.6266667 3.24666667,14.66 L3.34666667,14.66 C3.54666667,14.66 3.71333334,14.5933333 3.88,14.46 L8.01333333,11.1266667 L12.1466667,14.46 C12.28,14.5933333 12.48,14.66 12.68,14.66 C13.1466667,14.66 13.5133333,14.2933333 13.5133333,13.8266667 L13.5133333,1.86 C13.48,1.59333333 13.2466667,1.36 12.98,1.36 Z M12.48,13.4933333 L8.28,10.0933333 C8.11333333,9.96 7.84666667,9.96 7.64666667,10.0933333 L3.48,13.4933333 L3.48,2.36 L12.48,2.36 L12.48,13.4933333 Z" id="形状" fill="currentColor" fill-rule="nonzero"></path>
                <path d="M5.31333333,5.52666666 L10.3133333,5.52666666 C10.58,5.52666666 10.8133333,5.29333333 10.8133333,5.02666666 C10.8133333,4.75999998 10.58,4.52666666 10.3133333,4.52666666 L5.31333333,4.52666666 C5.04666666,4.52666666 4.81333333,4.75999998 4.81333333,5.02666666 C4.81333333,5.29333333 5.04666667,5.52666666 5.31333333,5.52666666 Z M5.31333333,8.19333333 L8.64666667,8.19333333 C8.91333334,8.19333333 9.14666667,7.96 9.14666667,7.69333333 C9.14666667,7.42666666 8.91333333,7.19333333 8.64666667,7.19333333 L5.31333333,7.19333333 C5.04666666,7.19333333 4.81333333,7.42666666 4.81333333,7.69333333 C4.81333333,7.96 5.04666667,8.19333333 5.31333333,8.19333333 Z" id="形状" fill="currentColor" fill-rule="nonzero"></path>
            </g>
        </g>
    </g>
</svg>