<svg viewBox="0 0 18 18" focusable="false" class="" data-icon="mobile" width="32px" height="32px"
    fill="#00aec7" aria-hidden="true" version="1.1" xmlns="http://www.w3.org/2000/svg"
    xmlns:xlink="http://www.w3.org/1999/xlink">
    <path
        d="M13.9 11.9V2.1H4.1v9.8h9.8zm0 1.2H4.1v2.8h9.8v-2.8zM3.1.9h11.8c.11 0 .2.09.2.2v15.8a.2.2 0 01-.2.2H3.1a.2.2 0 01-.2-.2V1.1c0-.11.09-.2.2-.2zm5 13h1.8c.11 0 .2.09.2.2v.8a.2.2 0 01-.2.2H8.1a.2.2 0 01-.2-.2v-.8c0-.11.09-.2.2-.2z"
        fill-rule="nonzero"></path>
</svg>