<?xml version="1.0" encoding="UTF-8"?>
<svg width="20px" height="20px" viewBox="0 0 20 20" version="1.1" xmlns="http://www.w3.org/2000/svg" xmlns:xlink="http://www.w3.org/1999/xlink">
    <title>Icon/Notification_666@1x</title>
    <g id="PC" stroke="none" stroke-width="1" fill="none" fill-rule="evenodd">
        <g id="02-首页-无订阅" transform="translate(-1304.000000, -14.000000)">
            <g id="Icon/Notification_666" transform="translate(1304.000000, 14.000000)">
                <rect id="矩形" x="0" y="0" width="20" height="20"></rect>
                <path d="M15.6166667,12.25 L15.6166667,8.79166666 C15.6166667,6.5 14.2416667,4.54166666 12.2833333,3.66666666 C12.2,2.45833332 11.2,1.5 9.99166666,1.5 C8.78333334,1.5 7.78333332,2.45833334 7.7,3.66666666 C5.74166666,4.54166666 4.36666666,6.5 4.36666666,8.79166666 L4.36666666,12.25 C3.24166666,13.1666667 2.7,14.4166667 2.7,15.875 C2.7,16.2083333 2.99166666,16.5 3.325,16.5 L7.36666666,16.5 C7.65833332,17.7083333 8.74166666,18.5833333 9.99166666,18.5833333 C11.2416667,18.5833333 12.325,17.7083333 12.6166667,16.5 L16.6583333,16.5 C16.9916667,16.5 17.2833333,16.2083333 17.2833333,15.875 C17.2833333,14.375 16.7416667,13.1666667 15.6166667,12.25 Z M9.99166666,2.75 C10.3666667,2.75 10.7,2.95833334 10.8666667,3.25 C10.575,3.20833334 10.2833333,3.16666666 9.99166666,3.16666666 C9.7,3.16666666 9.40833332,3.20833332 9.11666666,3.25 C9.28333332,2.95833334 9.61666666,2.75 9.99166666,2.75 L9.99166666,2.75 Z M9.99166666,17.3333333 C9.40833332,17.3333333 8.90833332,17 8.7,16.5 L11.325,16.5 C11.075,17 10.575,17.3333333 9.99166666,17.3333333 Z M3.99166666,15.25 C4.11666666,14.3333333 4.575,13.625 5.36666666,13.0416667 C5.53333332,12.9166667 5.61666666,12.75 5.61666666,12.5416667 L5.61666666,8.79166666 C5.61666666,6.375 7.575,4.41666666 9.99166666,4.41666666 C12.4083333,4.41666666 14.3666667,6.375 14.3666667,8.79166666 L14.3666667,12.5416667 C14.3666667,12.75 14.45,12.9166667 14.6166667,13.0416667 C15.4083333,13.625 15.8666667,14.3333333 15.9916667,15.25 L3.99166666,15.25 Z" id="形状" fill="#666666" fill-rule="nonzero"></path>
            </g>
        </g>
    </g>
</svg>