<?xml version="1.0" standalone="no"?><!DOCTYPE svg PUBLIC "-//W3C//DTD SVG 1.1//EN" "http://www.w3.org/Graphics/SVG/1.1/DTD/svg11.dtd"><svg t="1673333204237" class="icon" viewBox="0 0 1024 1024" version="1.1" xmlns="http://www.w3.org/2000/svg" p-id="2083" width="16" height="16" xmlns:xlink="http://www.w3.org/1999/xlink"><path d="M504.7 138.1c-91.4 0-175.4 31.4-241.9 83.9l51.6 63.6c52.4-41.1 118.5-65.7 190.3-65.7 170.5 0 308.7 138.2 308.7 308.7 0 21.9-2.3 43.3-6.7 64l79.5 20.1c5.9-27.1 9.1-55.2 9.1-84 0-215.7-174.9-390.6-390.6-390.6zM702.4 765.8c-53.6 44.7-122.5 71.6-197.7 71.6-170.5 0-308.7-138.2-308.7-308.7 0-36.4 6.3-71.3 17.9-103.7l-79.7-20.1c-13 38.9-20.1 80.6-20.1 123.9 0 215.7 174.9 390.6 390.6 390.6 94.8 0 181.7-33.8 249.3-89.9l-51.6-63.7z" fill="#666666" p-id="2084" data-spm-anchor-id="a313x.7781069.0.i2" class=""></path><path d="M173.5 416.4m-40.9 0a40.9 40.9 0 1 0 81.8 0 40.9 40.9 0 1 0-81.8 0Z" fill="#666666" p-id="2085"></path><path d="M286.5 256.4m-40.9 0a40.9 40.9 0 1 0 81.8 0 40.9 40.9 0 1 0-81.8 0Z" fill="#666666" p-id="2086"></path><path d="M727.5 799.4m-40.9 0a40.9 40.9 0 1 0 81.8 0 40.9 40.9 0 1 0-81.8 0Z" fill="#666666" p-id="2087"></path><path d="M845.8 605.8m-40.9 0a40.9 40.9 0 1 0 81.8 0 40.9 40.9 0 1 0-81.8 0Z" fill="#666666" p-id="2088"></path><path d="M33.5 528.4c-14.1-17.7-11.2-43.5 6.5-57.6l108-86.1c17.7-14.1 43.5-11.2 57.6 6.5 14.1 17.7 11.2 43.5-6.5 57.6L91 534.9c-17.7 14.1-43.4 11.2-57.5-6.5z" fill="#666666" p-id="2089"></path><path d="M285.2 556.4c-17.7 14.1-43.5 11.2-57.6-6.5l-86.1-108c-14.1-17.7-11.2-43.5 6.5-57.6 17.7-14.1 43.5-11.2 57.6 6.5l86.1 108c14.1 17.7 11.2 43.5-6.5 57.6zM977.7 483.6c15.4 16.5 14.5 42.5-2 57.9l-101 94.2c-16.5 15.4-42.5 14.5-57.9-2-15.4-16.5-14.5-42.5 2-57.9l101-94.2c16.6-15.4 42.5-14.5 57.9 2z" fill="#666666" p-id="2090"></path><path d="M723.2 474.1c16.5-15.4 42.5-14.5 57.9 2l94.2 101c15.4 16.5 14.5 42.5-2 57.9-16.5 15.4-42.5 14.5-57.9-2l-94.2-101c-15.5-16.6-14.6-42.5 2-57.9z" fill="#666666" p-id="2091" data-spm-anchor-id="a313x.7781069.0.i7" class="selected"></path></svg>