<?xml version="1.0" encoding="UTF-8"?>
<svg width="16px" height="16px" viewBox="0 0 16 16" version="1.1" xmlns="http://www.w3.org/2000/svg" xmlns:xlink="http://www.w3.org/1999/xlink">
    <title>Search_999@1x</title>
    <g id="PC" stroke="none" stroke-width="1" fill="none" fill-rule="evenodd">
        <g id="01-个人设置" transform="translate(-948.000000, -16.000000)">
            <g id="Search_999" transform="translate(948.000000, 16.000000)">
                <rect id="矩形" x="0" y="0" width="16" height="16"></rect>
                <path d="M14.5466667,13.8466667 L11.58,10.88 C12.4466667,9.88 12.9466667,8.54666667 12.9466667,7.11333333 C12.9466667,3.91333333 10.3133333,1.28 7.11333333,1.28 C3.91333331,1.28 1.28,3.94666666 1.28,7.14666666 C1.28,10.3466667 3.91333333,12.98 7.11333333,12.98 C8.54666666,12.98 9.84666666,12.4466667 10.88,11.6133333 L13.8466667,14.58 C13.9466667,14.68 14.08,14.7133333 14.2133333,14.7133333 C14.3466667,14.7133333 14.48,14.68 14.58,14.58 C14.7133333,14.38 14.7133333,14.0466667 14.5466667,13.8466667 Z M7.11333333,11.98 C4.44666667,11.98 2.28,9.81333333 2.28,7.14666666 C2.28,4.47999998 4.44666667,2.31333333 7.11333333,2.31333333 C9.78,2.31333333 11.9466667,4.48 11.9466667,7.14666666 C11.9466667,9.81333333 9.78,11.98 7.11333333,11.98 Z" id="形状" fill="#999999" fill-rule="nonzero"></path>
            </g>
        </g>
    </g>
</svg>