<?xml version="1.0" encoding="UTF-8"?>
<svg width="18px" height="18px" viewBox="0 0 18 18" version="1.1" xmlns="http://www.w3.org/2000/svg"
    xmlns:xlink="http://www.w3.org/1999/xlink">
    <title>发送图标</title>
    <g id="发送图标" stroke="none" stroke-width="1" fill="none" fill-rule="evenodd">
        <path
            d="M9.04725812,2.10320803 L8.97687695,2.10066883 L8.90849682,2.11433541 C8.86419061,2.12870648 8.82305902,2.15345565 8.78878324,2.18773142 L3.90148178,7.07287341 L3.85350882,7.13711248 C3.78768628,7.26572296 3.80926233,7.40577674 3.90146615,7.49798057 L4.46880651,8.06532092 L4.53303933,8.11327778 L4.61109434,8.14241226 C4.71573292,8.16763717 4.82010431,8.13909281 4.89387185,8.06535847 L8.298,4.6629156 L8.29956572,15.5518736 L8.30763322,15.6185224 C8.34595106,15.7611756 8.46400707,15.8524429 8.60014436,15.8524429 L9.40249922,15.8524429 L9.47788889,15.8412133 L9.5580022,15.8049857 L9.6211215,15.7527663 C9.67541161,15.696086 9.70309311,15.6267925 9.70307635,15.5518131 L9.702,4.6569156 L13.2165837,8.09696458 L13.2800533,8.14415931 C13.4086547,8.20995864 13.5486835,8.18838826 13.6408857,8.09621024 L14.2082446,7.5288513 L14.256202,7.46462786 C14.3220245,7.33601738 14.3004485,7.19596359 14.2082446,7.10375977 L9.21331362,2.18717468 L9.14965134,2.13977409 L9.0623598,2.10675181 L9.04725812,2.10320803 Z"
            id="路径" fill="#707680" fill-rule="nonzero"></path>
    </g>
</svg>