<?xml version="1.0" encoding="UTF-8"?>
<svg width="16px" height="16px" viewBox="0 0 16 16" version="1.1" xmlns="http://www.w3.org/2000/svg" xmlns:xlink="http://www.w3.org/1999/xlink">
    <title>Icon/Share _3355FF@1x</title>
    <g id="PC" stroke="none" stroke-width="1" fill="none" fill-rule="evenodd">
        <g id="Icon/Share-_3355FF">
            <rect id="矩形" x="0" y="0" width="16" height="16"></rect>
            <g id="share" transform="translate(2.000000, 2.000000)" fill="#3355FF" fill-rule="nonzero">
                <path d="M11.5135135,6.48648649 C11.254054,6.48648649 11.027027,6.71351351 11.027027,6.97297297 L11.027027,10.8648649 C11.027027,10.9621622 10.9621622,11.027027 10.8648649,11.027027 L1.13513514,11.027027 C1.03783784,11.027027 0.972972972,10.9621622 0.972972972,10.8648649 L0.972972972,1.13513514 C0.972972972,1.03783784 1.03783784,0.972972972 1.13513514,0.972972972 L5.02702703,0.972972972 C5.28648649,0.972972972 5.51351351,0.74594595 5.51351351,0.486486486 C5.51351351,0.227027022 5.28648649,0 5.02702703,0 L1.13513514,0 C0.518918929,0 0,0.518918929 0,1.13513514 L0,10.8648649 C0,11.4810811 0.518918913,12 1.13513514,12 L10.8648649,12 C11.4810811,12 12,11.4810811 12,10.8648649 L12,6.97297297 C12,6.71351351 11.772973,6.48648649 11.5135135,6.48648649 Z" id="路径"></path>
                <path d="M11.5135135,0 L7.94594594,0 C7.68648648,0 7.45945946,0.227027022 7.45945946,0.486486486 C7.45945946,0.74594595 7.68648648,0.972972972 7.94594594,0.972972972 L10.3459459,0.972972972 L5.96756757,5.31891892 C5.77297298,5.51351351 5.77297298,5.80540541 5.96756757,6 C6.06486487,6.0972973 6.19459459,6.12972972 6.32432432,6.12972972 C6.45405404,6.12972972 6.58378378,6.0972973 6.68108108,6 L11.027027,1.65405405 L11.027027,4.05405406 C11.027027,4.31351352 11.254054,4.54054054 11.5135135,4.54054054 C11.772973,4.54054054 12,4.31351352 12,4.05405406 L12,0.486486486 C12,0.227027022 11.772973,0 11.5135135,0 L11.5135135,0 Z" id="路径"></path>
            </g>
        </g>
    </g>
</svg>