<?xml version="1.0" encoding="UTF-8"?>
<svg width="20px" height="20px" viewBox="0 0 20 20" version="1.1" xmlns="http://www.w3.org/2000/svg" xmlns:xlink="http://www.w3.org/1999/xlink">
    <title>我的地盘名称@1x</title>
    <g id="PC-Web" stroke="none" stroke-width="1" fill="none" fill-rule="evenodd">
        <g id="13--我的地盘-重命名及删除" transform="translate(-808.000000, -60.000000)">
            <g id="我的地盘名称" transform="translate(808.000000, 60.000000)">
                <rect id="矩形" x="0" y="0" width="20" height="20"></rect>
                <g id="选范围" transform="translate(2.500000, 1.666667)">
                    <polyline id="路径-5备份-2" stroke="#3355FF" stroke-width="1.5" stroke-linecap="round" stroke-linejoin="round" points="2.49397788 13.4722222 0 15.8333333 15 15.8333333 12.6757475 13.4722222"></polyline>
                    <g id="编组-13" transform="translate(1.973684, 0.000000)" fill="#3355FF" fill-rule="nonzero">
                        <path d="M1.62723214,9.69321745 L4.9356203,13.0618724 C5.10849389,13.2380839 5.33846335,13.3333333 5.58270677,13.3333333 C5.82695019,13.3333333 6.05691964,13.2364964 6.22979323,13.0618724 L9.53818139,9.69321745 C10.0694901,9.15347065 10.4802632,8.52006191 10.7593985,7.8152161 C11.0290179,7.13418264 11.1654135,6.41504941 11.1654135,5.67686629 C11.1654135,4.93868318 11.0290179,4.21954995 10.7593985,3.53851649 C10.4802632,2.83208318 10.0679041,2.20026194 9.53818139,1.66051514 C9.00687265,1.11918085 8.38516212,0.700083343 7.69049577,0.41433504 C7.01961936,0.139699171 6.31067904,0 5.58270677,0 C4.85473449,0 4.14579417,0.139699171 3.47491776,0.41592253 C2.78025141,0.701670834 2.15854088,1.12076835 1.62723214,1.66210263 C1.0959234,2.20184943 0.685150376,2.83525817 0.406015038,3.54010398 C0.136395677,4.22113744 0,4.94027067 0,5.67845378 C0,6.4166369 0.136395677,7.13577013 0.406015038,7.81680359 C0.686736372,8.5216494 1.0975094,9.15347065 1.62723214,9.69321745 Z M2.30603853,2.32884867 C3.17833647,1.44144144 4.34087171,0.952494345 5.58270677,0.952494345 C6.82454182,0.952494345 7.98707707,1.44144144 8.859375,2.32884867 C9.73325893,3.21943088 10.2138158,4.40846132 10.2138158,5.67686629 C10.2138158,6.94527126 9.73325893,8.13588919 8.859375,9.02488391 L5.75240836,12.1903401 C5.65883459,12.2855896 5.50657895,12.2855896 5.41300517,12.1903401 L2.30603853,9.02647141 C1.43215461,8.13588919 0.951597744,6.94685875 0.951597744,5.67845378 C0.951597744,4.41004882 1.43215461,3.21943088 2.30603853,2.32884867 Z" id="形状" stroke="#3355FF" stroke-width="0.5"></path>
                        <path d="M3.85964912,4.99999998 C3.85964912,5.59544263 4.17731398,6.14565434 4.69298245,6.44337567 C5.20865091,6.741097 5.84398067,6.741097 6.35964912,6.44337567 C6.8753176,6.14565434 7.19298246,5.59544263 7.19298246,4.99999998 C7.19298246,4.07952541 6.44679037,3.33333333 5.52631579,3.33333333 C4.60584121,3.33333333 3.85964912,4.07952541 3.85964912,4.99999998 Z" id="路径"></path>
                    </g>
                </g>
            </g>
        </g>
    </g>
</svg>