<?xml version="1.0" encoding="UTF-8"?>
<svg width="16px" height="16px" viewBox="0 0 16 16" version="1.1" xmlns="http://www.w3.org/2000/svg" xmlns:xlink="http://www.w3.org/1999/xlink">
    <title>Icon/Upload_Pri@1x</title>
    <g id="PC" stroke="none" stroke-width="1" fill="none" fill-rule="evenodd">
        <g id="16-相似客户-导入后" transform="translate(-336.000000, -144.000000)">
            <g id="Icon/Upload_Pri" transform="translate(336.000000, 144.000000)">
                <rect id="矩形" x="0" y="0" width="16" height="16"></rect>
                <g id="upload" transform="translate(1.500000, 2.000000)" fill="currentColor" fill-rule="nonzero">
                    <path d="M12.5,7.67267683 C12.2333333,7.67267683 12,7.90568653 12,8.17198335 L12,10.8349515 C12,10.9348128 11.9333333,11.001387 11.8333333,11.001387 L1.16666667,11.001387 C1.06666667,11.001387 1,10.9348128 1,10.8349515 L1,8.17198335 C1,7.90568653 0.766666672,7.67267683 0.5,7.67267683 C0.233333328,7.67267683 0,7.90568653 0,8.17198335 L0,10.8349515 C0,11.4674064 0.533333328,12 1.16666667,12 L11.8333333,12 C12.4666667,12 13,11.4674064 13,10.8349515 L13,8.17198335 C13,7.90568653 12.7666667,7.67267683 12.5,7.67267683 Z" id="路径"></path>
                    <path d="M3.53333333,4.21081831 L6,1.74757281 L6,8.83772538 C6,9.10402219 6.23333333,9.3370319 6.5,9.3370319 C6.76666667,9.3370319 7,9.10402219 7,8.83772538 L7,1.71428572 L9.46666667,4.1775312 C9.56666667,4.2773925 9.7,4.3106796 9.83333333,4.31067961 C9.96666666,4.31067963 10.1,4.27739252 10.2,4.1775312 C10.4,3.97780859 10.4,3.67822468 10.2,3.47850207 L6.86666667,0.149791956 C6.66666667,-0.0499306519 6.36666667,-0.0499306519 6.16666667,0.149791956 L2.83333333,3.47850207 C2.63333333,3.67822468 2.63333333,3.97780859 2.83333333,4.1775312 C3,4.37725381 3.33333333,4.37725381 3.53333333,4.21081831 Z" id="路径"></path>
                </g>
            </g>
        </g>
    </g>
</svg>