<?xml version="1.0" encoding="UTF-8"?>
<svg width="24px" height="24px" viewBox="0 0 24 24" version="1.1" xmlns="http://www.w3.org/2000/svg" xmlns:xlink="http://www.w3.org/1999/xlink">
    <title>Icon/我的_M_666@1x</title>
    <g id="APP" stroke="none" stroke-width="1" fill="none" fill-rule="evenodd">
        <g id="02-首页-无订阅" transform="translate(-315.000000, -736.000000)">
            <g id="Icon/我的_M_666" transform="translate(315.000000, 736.000000)">
                <rect id="矩形" x="0" y="0" width="24" height="24"></rect>
                <path d="M11.9476,1.8 C6.29759999,1.8 1.6976,6.39999998 1.6976,12.05 C1.6976,17.7 6.29759999,22.3 11.9476,22.3 C17.5976,22.3 22.1976,17.7 22.1976,12.05 C22.1976,6.39999998 17.5976,1.8 11.9476,1.8 Z M6.69759999,19.05 C6.69759999,16.15 9.0476,13.8 11.9476,13.8 C14.8476,13.8 17.1976,16.15 17.1976,19.05 C15.7476,20.15 13.8976,20.8 11.9476,20.8 C9.99759999,20.8 8.1476,20.15 6.69759999,19.05 Z M9.69759999,10.05 C9.69759999,8.8 10.6976,7.8 11.9476,7.8 C13.1976,7.8 14.1976,8.8 14.1976,10.05 C14.1976,11.3 13.1976,12.3 11.9476,12.3 C10.6976,12.3 9.69759999,11.3 9.69759999,10.05 Z M18.5476,17.75 C18.0976,15.5 16.5476,13.65 14.4476,12.8 C15.1976,12.1 15.6476,11.15 15.6476,10.05 C15.6476,7.99999999 13.9476,6.3 11.8976,6.3 C9.84759999,6.3 8.1476,7.99999999 8.1476,10.05 C8.1476,11.15 8.59759999,12.1 9.3476,12.8 C7.2476,13.65 5.69760001,15.5 5.24759999,17.75 C3.94759998,16.2 3.09759999,14.25 3.09759999,12.05 C3.09759999,7.24999999 7.04759999,3.3 11.8476,3.3 C16.6476,3.3 20.6976,7.24999999 20.6976,12.05 C20.6976,14.25 19.8976,16.2 18.5476,17.75 Z" id="形状" fill="currentColor" fill-rule="nonzero"></path>
            </g>
        </g>
    </g>
</svg>