<?xml version="1.0" encoding="UTF-8"?>
<svg width="16px" height="16px" viewBox="0 0 16 16" version="1.1" xmlns="http://www.w3.org/2000/svg" xmlns:xlink="http://www.w3.org/1999/xlink">
    <title>高级会员@1x</title>
    <g id="PC" stroke="none" stroke-width="1" fill="none" fill-rule="evenodd">
        <g id="高级会员">
            <rect id="矩形" x="0" y="0" width="16" height="16"></rect>
            <g id="编组-2" transform="translate(1.000000, 1.500000)" fill-rule="nonzero">
                <path d="M13.6226559,3.79067774 C13.548926,3.7061252 13.3781662,3.505464 13.1531082,3.24128033 C12.4755963,2.44615144 11.3420107,1.11534752 10.8201067,0.550492293 C10.6044629,0.31677302 10.3362397,0.0261984292 9.81667974,0.00558803332 C9.77885008,0.00430066702 9.66365488,0 8.20692255,0 C6.55077305,0 4.21158445,0.00536085568 4.21264024,0.00536085568 C3.96494227,0.00536085568 3.58729304,0.0617965191 3.17116055,0.550893019 C2.86595924,0.910158458 2.39192121,1.45976411 1.91211086,2.01603693 C1.30085982,2.72468225 0.680643913,3.44404928 0.389120855,3.79257724 C-0.117612365,4.38189233 -0.13023168,5.2038602 0.355992025,5.93825275 L0.388272451,5.98118058 C0.962338004,6.65269435 2.21089883,8.09423346 3.68559232,9.7967347 L5.97778215,12.4441626 C6.40116382,12.9338997 6.73543732,13 7.00664253,13 C7.29154171,13 7.61340329,12.9326123 8.03550291,12.4443709 L10.4063309,9.70572642 C11.8010885,8.09550504 12.9821253,6.73209111 13.6292798,5.97536535 C14.0614315,5.45174991 14.1845358,4.47098218 13.6226559,3.79067774 Z M12.9601232,5.40861382 C12.318741,6.15846419 11.1389894,7.5205876 9.7457244,9.12887793 L7.3746733,11.8679578 C7.1558244,12.1209843 7.06969508,12.1209843 7.00664566,12.1209843 C6.94723497,12.1209843 6.85747006,12.1209843 6.63882856,11.8679578 L4.3462208,9.21988621 C2.88884744,7.53733277 1.65245658,6.1099641 1.07090303,5.43030335 C0.813583456,5.02898093 0.806529082,4.65213103 1.0555091,4.36261977 C1.34937314,4.0115171 1.96618912,3.29622355 2.57380144,2.59165171 C3.05532746,2.03344786 3.53085493,1.481908 3.83690778,1.12179063 C4.03887332,0.884433313 4.14339114,0.884433313 4.21370547,0.884433313 C4.21370547,0.884433313 6.55162772,0.879072457 8.20691311,0.879072457 C9.46039786,0.879072457 9.73331876,0.882294023 9.78355719,0.884016816 C9.91969869,0.889377671 9.9714297,0.923934501 10.1780929,1.14820048 C10.6880344,1.70017262 11.8147887,3.02260552 12.4877946,3.81280901 C12.7158346,4.08042249 12.888951,4.28345333 12.9560571,4.36049941 C13.2123115,4.67058321 13.1612403,5.16483231 12.9601232,5.40861382 Z" id="形状" fill="#3355FF"></path>
                <path d="M9.68236705,4.65010215 L6.99734144,8.10307462 L4.31577862,4.64071514 C4.28839069,4.59744969 4.28011712,4.59744969 4.24126308,4.59744969 L2.93298677,4.59744969 L2.93298677,5.20452281 L2.96439993,5.20452281 C3.21173026,5.20452281 3.30341823,5.26912439 3.4048912,5.40510513 C3.41484902,5.41876127 3.42655393,5.43431374 3.44990091,5.46331408 C4.03961805,6.26842633 6.3508751,9.08891607 7.00320804,9.96733854 C7.65533358,9.08828817 9.96511691,6.26584846 10.562674,5.45220427 C10.5771221,5.43496057 10.5883777,5.4196132 10.5983355,5.40616846 C10.7004495,5.26954405 10.7923637,5.20450703 11.0386037,5.20450703 L11.0683326,5.20450703 L11.0683326,4.59640214 L9.76473822,4.59640214 C9.72800207,4.59640214 9.71696959,4.59640214 9.68236705,4.65010215 Z" id="路径-3" fill="#FFCD36"></path>
                <polygon id="路径-2" fill="#FFCD36" points="4.24126308 4.59640214 9.76473822 4.59640214 7.00300065 8.10307462"></polygon>
            </g>
        </g>
    </g>
</svg>