<?xml version="1.0" encoding="UTF-8"?>
<svg width="15px" height="6px" viewBox="0 0 15 6" version="1.1" xmlns="http://www.w3.org/2000/svg" xmlns:xlink="http://www.w3.org/1999/xlink">
    <title>列指标（带VIP）@1x</title>
    <g id="APP" stroke="none" stroke-width="1" fill="none" fill-rule="evenodd">
        <g id="07-列指标（带VIP）" transform="translate(-828.000000, -387.000000)" fill="#F3D642" fill-rule="nonzero">
            <path d="M830.764437,392.453933 C830.541326,392.453933 830.347549,392.251685 830.184883,391.848876 L828,387.000843 L829.777773,387.000843 L831.057769,390.345506 L832.943986,387 L834.666648,387 L831.498657,391.856461 C831.231991,392.254213 830.987547,392.453933 830.764437,392.453933 L830.764437,392.453933 Z M834.111094,392.999157 L835.499534,387 L836.888864,387 L835.499534,393 L834.111094,393 L834.111094,392.999157 Z M842.975068,389.228933 C842.889735,389.882865 842.608847,390.411236 842.133293,390.819101 C841.679072,391.203371 840.840852,391.153652 840.24441,391.153652 L838.071082,391.153652 L837.637306,392.999157 L836.33331,392.999157 L837.20264,389.769101 L840.678186,389.769101 C840.863963,389.769101 841.229296,389.841573 841.373295,389.716854 C841.518895,389.586129 841.609537,389.409774 841.628406,389.220506 C841.655072,389.01573 841.614183,388.852247 841.502184,388.733427 C841.391962,388.613764 841.29774,388.385393 841.11374,388.385393 L837.20264,388.385393 L838.506637,387 L841.11374,387 C841.707517,387 842.199071,387.252809 842.553736,387.637921 C842.920846,388.045787 843.062179,388.575 842.975068,389.22809 L842.975068,389.228933 Z" id="列指标（带VIP）"></path>
        </g>
    </g>
</svg>