<?xml version="1.0" encoding="UTF-8"?>
<svg width="18px" height="18px" viewBox="0 0 18 18" version="1.1" xmlns="http://www.w3.org/2000/svg" xmlns:xlink="http://www.w3.org/1999/xlink">
    <title>编组 8</title>
    <g id="页面-1" stroke="none" stroke-width="1" fill="none" fill-rule="evenodd">
        <g id="神笔调整" transform="translate(-412.000000, -5068.000000)">
            <g id="宏观点评备份" transform="translate(412.000000, 5068.000000)">
                <rect id="矩形" x="0" y="0" width="18" height="18"></rect>
                <path d="M7,8.5 C7.27614237,8.5 7.5,8.72385763 7.5,9 C7.5,9.24545989 7.32312484,9.44960837 7.08987563,9.49194433 L7,9.5 L3.5,9.5 C2.6359127,9.5 2.125,10.0364583 2.125,10.75 C2.125,11.4189453 2.57404436,11.932251 3.34216091,11.9938011 L3.5,12 L14.5,12 C15.9275794,12 16.875,12.9947917 16.875,14.25 C16.875,15.452908 16.0048863,16.4166486 14.6759128,16.4948719 L14.5,16.5 L6,16.5 C5.72385763,16.5 5.5,16.2761424 5.5,16 C5.5,15.7545401 5.67687516,15.5503916 5.91012437,15.5080557 L6,15.5 L14.5,15.5 C15.3640873,15.5 15.875,14.9635417 15.875,14.25 C15.875,13.5810547 15.4259556,13.067749 14.6578391,13.0061989 L14.5,13 L3.5,13 C2.07242063,13 1.125,12.0052083 1.125,10.75 C1.125,9.54709201 1.99511374,8.58335142 3.32408721,8.50512808 L3.5,8.5 L7,8.5 Z M14.6923295,2.02304811 L14.7265105,2.04779796 L16.9614278,4.28847709 C17.0025715,4.32972685 17.0108002,4.39148007 16.986114,4.44093121 L16.9614278,4.47520035 L11.2204869,9.98708846 C11.2059639,10.0016489 11.1883529,10.012499 11.1691351,10.0189431 L11.1392884,10.0252179 L8.68087939,10.2492858 C8.62051792,10.2547873 8.56597347,10.2185385 8.54550149,10.1608182 L8.53753306,10.1237716 L8.7612952,7.64109397 C8.76315468,7.62058693 8.76975567,7.6009483 8.7804044,7.58366312 L8.79932657,7.55968607 L14.5402674,2.04779796 C14.5814111,2.0065482 14.6430055,1.99829825 14.6923295,2.02304811 Z M12.7753489,5.0652965 L9.51097183,8.12352254 L9.39625897,9.3886171 L10.6581004,9.2736085 L13.9224775,6.21538246 L12.7753489,5.0652965 Z M14.4568429,3.42429004 L13.5958779,4.25212058 L14.7430065,5.40220654 L15.6039715,4.574376 L14.4568429,3.42429004 Z" id="形状结合" fill="#707680" fill-rule="nonzero"></path>
            </g>
        </g>
    </g>
</svg>