<svg version="1.1" width="18px" height="18px" viewBox="0 0 18.0 18.0">
    <defs>
        <clipPath id="menu-rewrite-i0">
            <path d="M1920,0 L1920,1040 L0,1040 L0,0 L1920,0 Z"></path>
        </clipPath>
        <clipPath id="menu-rewrite-i1">
            <path
                d="M9.64929225,0.24547812 C9.97384289,-0.0905221121 10.5132369,-0.0825221065 10.8572149,0.275192426 L11.4937455,0.932335736 C12.5300928,0.797843043 13.5685387,1.1649513 14.2901378,1.92090785 C15.6706208,3.36662313 15.7186178,5.84205341 14.1050068,7.60662605 C13.8627366,7.86948337 13.6090386,8.11976926 13.3439127,8.35862657 C13.1267838,8.55634099 12.4205433,9.1700557 12.3634041,9.22377002 C11.1509103,10.3060565 10.6972251,11.0614856 10.6972251,12.3632008 C10.6972251,13.8352018 11.7554431,14.7403453 14.0455821,15.0946312 C14.2018279,15.1228837 14.332882,15.2317396 14.3884173,15.3814886 C14.4450648,15.5321011 14.4204711,15.7012474 14.3232786,15.8294889 C14.2277603,15.9551013 14.0713538,16.0186318 13.9153047,15.9952033 C11.2446186,15.579203 9.82185262,14.3654879 9.82185262,12.3654865 C9.82185262,10.7483425 10.4035296,9.77805612 11.7920121,8.54148384 C11.8571508,8.48319808 12.5553918,7.87176909 12.7633785,7.68434039 C13.0084014,7.462287 13.243656,7.22968632 13.4684762,6.98719705 C14.7529653,5.57919608 14.7163962,3.66148047 13.6673206,2.55862257 C13.3199143,2.19519375 13.2776733,2.32680907 12.7908474,2.23195186 L13.1188264,2.57138067 C13.4605188,2.92566663 13.4719466,3.48680987 13.1462532,3.8228101 L4.30267701,12.5805711 C4.1392589,12.7485713 3.82956446,12.9348571 3.60100767,13 L0.803430517,13.753892 C0.353173645,13.8807492 -0.0962675123,13.4628575 0.0180108818,13 L0.40688449,9.72895394 C0.464023687,9.49581092 0.643440766,9.16895355 0.803430517,9.00323915 Z M7.41684715,4.08681756 L1.99640017,9.31564107 L1.27377246,11.6973209 C1.24427581,11.7945377 1.25287601,11.8993358 1.29782737,11.9904431 C1.39557394,12.1885556 1.6354151,12.2699183 1.83352759,12.1721717 L4.19761834,11.0057548 L9.44364606,5.92877872 L7.41684715,4.08681756 Z M9.70702424,1.7404225 L8.3523243,3.10201214 L10.4409167,5.16128552 L11.7956166,3.80083874 L9.70702424,1.7404225 Z"></path>
        </clipPath>
    </defs>
    <g transform="translate(-950.0 -721.0)">
        <g clipPath="url(#menu-rewrite-i0)">
            <g transform="translate(950.0 721.0)">
                <g transform="translate(1.679053108965892 1.0)">
                    <g clipPath="url(#menu-rewrite-i1)">
                        <polygon
                            points="1.04083409e-17,0 15.3209469,0 15.3209469,16 1.04083409e-17,16 1.04083409e-17,0"
                            stroke="none"
                            fill="#707680"
                        ></polygon>
                    </g>
                </g>
            </g>
        </g>
    </g>
</svg>