<svg xmlns="http://www.w3.org/2000/svg" width="18" height="18">
    <defs>
        <clipPath id="translate_svg__a">
            <path d="M1777 0v1032H0V0z"></path>
        </clipPath>
        <clipPath id="translate_svg__b">
            <path
                d="M10 6.11c.381 0 .698.19.889.572l2.156 4.327 1.344 2.784a.1.1 0 0 1-.09.143h-1.18a.095.095 0 0 1-.09-.07 2 2 0 0 0-.111-.248l-.888-1.782H7.908l-1.035 2.052a.1.1 0 0 1-.09.054l-1.067-.005a.1.1 0 0 1-.09-.143l1.331-2.785 2.156-4.327c.19-.318.507-.573.888-.573M5.59 0a.1.1 0 0 1 .1.1v1.3h4.085a.1.1 0 0 1 .1.1v1.073a.1.1 0 0 1-.1.1H8.225c-.38 1.909-1.268 3.69-2.41 5.218l.381.382q.135.133.626.499c.04.032.05.089.02.13l-.588.888a.1.1 0 0 1-.138.029q-.572-.419-.807-.655l-.254-.255c-1.078 1.21-2.37 2.164-3.89 2.927q-.131.064-.3.112a.1.1 0 0 1-.096-.025l-.74-.806a.1.1 0 0 1 .002-.141.2.2 0 0 1 .028-.02q.243-.102.494-.201a12.3 12.3 0 0 0 3.678-2.8q-.686-.939-1.743-3.102a.095.095 0 0 1 .033-.12l.857-.593a.1.1 0 0 1 .14.02q.003.007.009.012.97 2.017 1.465 2.7a12.6 12.6 0 0 0 1.902-4.2H.272a.1.1 0 0 1-.1-.1V1.5a.1.1 0 0 1 .1-.1h4.149V.1a.1.1 0 0 1 .1-.1zm4.349 7.764-1.396 2.863h2.854z"></path>
        </clipPath>
    </defs>
    <g clip-path="url(#translate_svg__a)" transform="translate(-521 -244)">
        <g clip-path="url(#translate_svg__b)" transform="translate(522.836 246.057)">
            <path fill="#707680" d="M0 0h14.4v13.942H0z"></path>
        </g>
    </g>
</svg>