<svg t="1746702510805" class="icon" viewBox="0 0 1024 1024" version="1.1" xmlns="http://www.w3.org/2000/svg" p-id="1867" width="200" height="200"><path d="M235.349333 147.139048a73.630476 73.630476 0 0 1 51.687619-21.113905 73.630476 73.630476 0 0 1 51.687619 21.113905l168.667429 166.278095 178.614857-171.129905a73.874286 73.874286 0 0 1 102.64381 0.731429l116.419047 114.761143a71.338667 71.338667 0 0 1 2.925715 98.84038l-3.705905 3.803429-177.103238 169.691429 136.192 134.192762c13.702095 13.507048 21.406476 31.841524 21.406476 50.95619 0 19.114667-7.704381 37.449143-21.406476 50.95619l-116.419048 114.761143a73.630476 73.630476 0 0 1-51.687619 21.113905 73.630476 73.630476 0 0 1-51.687619-21.113905l-139.337143-137.264762-93.988571 90.063239-173.153524 58.343619c-25.35619 8.533333-53.394286 2.730667-73.118476-15.116191a71.43619 71.43619 0 0 1-21.455238-70.534095L190.415238 617.081905l94.012952-90.038857-165.522285-163.230477A71.558095 71.558095 0 0 1 97.52381 312.856381c0-19.114667 7.704381-37.449143 21.406476-50.956191l116.419047-114.761142zM556.617143 693.467429l38.814476 38.278095 73.97181-72.923429 51.687619 50.956191-73.923048 72.899047 48.079238 47.372191 116.419048-114.761143-136.923429-134.948571-118.125714 113.127619z m91.087238-414.061715l115.151238 116.028953L853.333333 308.736l-116.394666-114.761143-89.209905 85.430857zM256.341333 654.457905l-42.886095 169.447619 157.622857-53.077334 339.358476-325.168761-115.126857-116.004572-338.968381 324.803048z m30.72-456.362667l-116.419047 114.761143 48.030476 47.37219L292.571429 287.329524l51.687619 50.980571-73.923048 72.899048 66.511238 65.584762 118.076952-113.127619-167.911619-165.571048z" p-id="1868"></path></svg>