<svg t="1746698111120" class="icon" viewBox="0 0 1024 1024" version="1.1" xmlns="http://www.w3.org/2000/svg" p-id="2012" width="200" height="200"><path d="M491.568762 243.809524a112.030476 112.030476 0 0 1 112.030476 112.030476v212.845714h190.415238a73.142857 73.142857 0 0 1 73.142857 73.142857v285.305905h-72.996571V828.952381l-0.121905-187.148191H530.456381v-285.988571a38.887619 38.887619 0 0 0-77.775238 0v442.953143l-133.534476-118.735238-3.462096-2.779429a45.007238 45.007238 0 0 0-60.318476 6.802286l-2.803809 3.535238a44.739048 44.739048 0 0 0 7.363047 59.879619l102.083048 87.503238 86.576762 92.16h-91.428572l-144.822857-124.147809a117.881905 117.881905 0 0 1-16.530285-161.645715l4.510476-5.461333a118.150095 118.150095 0 0 1 162.206476-14.872381l5.217524 4.388572 11.824762 10.483809V355.84A112.030476 112.030476 0 0 1 491.568762 243.809524zM487.619048 97.52381c134.656 0 243.809524 109.153524 243.809523 243.809523a243.078095 243.078095 0 0 1-72.679619 173.665524V341.333333H658.285714a170.666667 170.666667 0 1 0-341.187047 7.314286l0.024381 166.985143A243.078095 243.078095 0 0 1 243.809524 341.333333c0-134.656 109.153524-243.809524 243.809524-243.809523z" p-id="2013"></path></svg>