<?xml version="1.0" encoding="UTF-8"?>
<svg width="16px" height="16px" viewBox="0 0 16 16" version="1.1" xmlns="http://www.w3.org/2000/svg" xmlns:xlink="http://www.w3.org/1999/xlink">
    <title>Arrow_下@1x</title>
    <g id="PC-Web" stroke="none" stroke-width="1" fill="none" fill-rule="evenodd">
        <g id="Arrow_下" transform="translate(8.000000, 8.000000) scale(1, -1) translate(-8.000000, -8.000000) ">
            <rect id="矩形" x="0" y="0" width="16" height="16"></rect>
            <path d="M8.01285714,11 C7.91,11 7.80714285,10.9737533 7.72999999,10.8950131 L3.61571429,6.69553805 C3.46142857,6.53805774 3.46142857,6.30183727 3.61571429,6.14435695 C3.77,5.98687664 4.00142857,5.98687664 4.15571429,6.14435695 L8.01285714,10.0551181 L11.8442857,6.11811024 C11.9985714,5.96062992 12.23,5.96062992 12.3842857,6.11811024 C12.5385714,6.27559055 12.5385714,6.51181102 12.3842857,6.66929134 L8.26999999,10.8687664 C8.21857142,10.9737533 8.11571428,11 8.01285714,11 Z" id="路径" fill="#999999" fill-rule="nonzero" transform="translate(8.000000, 8.500000) scale(1, -1) translate(-8.000000, -8.500000) "></path>
        </g>
    </g>
</svg>