<?xml version="1.0" encoding="UTF-8"?>
<svg width="16px" height="16px" viewBox="0 0 16 16" version="1.1" xmlns="http://www.w3.org/2000/svg" xmlns:xlink="http://www.w3.org/1999/xlink">
    <title>Icon/Delete_666</title>
    <g id="web" stroke="none" stroke-width="1" fill="none" fill-rule="evenodd">
        <g id="相似客户-单条新增" transform="translate(-927.000000, -428.000000)">
            <g id="Icon/Delete_666" transform="translate(927.000000, 428.000000)">
                <rect id="矩形" x="0" y="0" width="16" height="16"></rect>
                <g id="ashbin" transform="translate(2.500000, 2.000000)" fill="#666666" fill-rule="nonzero">
                    <path d="M10.5540541,2.0923077 L7.72972973,2.0923077 L7.72972973,1.07692308 C7.72972973,0.492307702 7.25405406,0 6.68918918,0 L4.31081082,0 C3.74594596,0 3.27027027,0.492307688 3.27027027,1.07692308 L3.27027027,2.0923077 L0.445945946,2.0923077 C0.208108103,2.0923077 0,2.30769231 0,2.55384616 C0,2.80000001 0.208108103,3.01538462 0.445945946,3.01538462 L1.1891892,3.01538462 L1.1891892,10.9230769 C1.1891892,11.5076923 1.66486487,12 2.22972973,12 L8.77027027,12 C9.33513513,12 9.81081082,11.5076923 9.8108108,10.9230769 L9.8108108,3.01538462 L10.5540541,3.01538462 C10.7918919,3.01538462 11,2.80000001 11,2.55384616 C11,2.30769231 10.7918919,2.0923077 10.5540541,2.0923077 Z M4.16216216,1.07692308 C4.16216216,0.984615389 4.22162163,0.923076923 4.31081082,0.923076923 L6.68918918,0.923076923 C6.77837837,0.923076923 6.83783784,0.984615389 6.83783784,1.07692308 L6.83783784,2.0923077 L4.16216216,2.0923077 L4.16216216,1.07692308 Z M8.91891891,10.9230769 C8.91891891,11.0153846 8.85945945,11.0769231 8.77027027,11.0769231 L2.22972973,11.0769231 C2.14054054,11.0769231 2.08108109,11.0153846 2.08108109,10.9230769 L2.08108109,3.07692307 L8.91891891,3.07692307 L8.91891891,10.9230769 Z" id="形状"></path>
                    <path d="M4.31081082,9.23076924 C4.54864866,9.23076924 4.75675676,9.01538462 4.75675676,8.76923077 L4.75675676,5.6923077 C4.75675676,5.44615385 4.54864866,5.23076924 4.31081082,5.23076924 C4.07297297,5.23076924 3.86486487,5.44615385 3.86486487,5.6923077 L3.86486487,8.76923077 C3.86486487,9.01538462 4.07297297,9.23076924 4.31081082,9.23076924 Z M6.68918918,9.23076924 C6.92702703,9.23076924 7.13513513,9.01538462 7.13513513,8.76923077 L7.13513513,5.6923077 C7.13513513,5.44615385 6.92702703,5.23076924 6.68918918,5.23076924 C6.45135134,5.23076924 6.24324324,5.44615385 6.24324324,5.6923077 L6.24324324,8.76923077 C6.24324324,9.01538462 6.45135134,9.23076924 6.68918918,9.23076924 Z" id="形状"></path>
                </g>
            </g>
        </g>
    </g>
</svg>