<?xml version="1.0" encoding="UTF-8"?>
<svg width="20px" height="16px" viewBox="0 0 20 16" version="1.1" xmlns="http://www.w3.org/2000/svg" xmlns:xlink="http://www.w3.org/1999/xlink">
    <title>Pic/删除订阅条件 点击后（出弹窗前变蓝色）@1x</title>
    <g id="APP" stroke="none" stroke-width="1" fill="none" fill-rule="evenodd">
        <g id="19-找客户-有订阅" transform="translate(-339.000000, -208.000000)">
            <g id="Pic/删除订阅条件-点击后（出弹窗前变蓝色）" transform="translate(339.000000, 208.000000)">
                <path d="M0,0 L18,0 C19.1045695,-2.02906125e-16 20,0.8954305 20,2 L20,16 L20,16 L12,16 C5.372583,16 8.11624501e-16,10.627417 0,4 L0,0 L0,0 Z" id="矩形" fill="#E3F2FD"></path>
                <path d="M15.9107275,10.9116578 L15.9107275,10.9116578 C15.7929538,11.0294474 15.6016892,11.0294474 15.4839155,10.9116578 L12.5,7.92734065 L9.51514234,10.9116578 C9.3973686,11.0294474 9.20610404,11.0294474 9.0883303,10.9116578 L9.0883303,10.9116578 C8.97055657,10.7938682 8.97055657,10.6025779 9.0883303,10.4847883 L12.073188,7.50047116 L9.08927249,4.51521168 C8.97149875,4.39742209 8.97149875,4.20613179 9.08927249,4.0883422 L9.08927249,4.0883422 C9.20704623,3.9705526 9.39831079,3.9705526 9.51608453,4.0883422 L12.5,7.07360167 L15.4848577,4.08928451 C15.6026314,3.97149492 15.793896,3.97149492 15.9116697,4.08928451 L15.9116697,4.08928451 C16.0294434,4.20707411 16.0294434,4.39836441 15.9116697,4.516154 L12.926812,7.50047116 L15.9107275,10.4857306 C16.0285012,10.6035202 16.0285012,10.7938682 15.9107275,10.9116578 L15.9107275,10.9116578 Z" id="Shape" stroke="#3355FF" stroke-width="0.5" fill="#3355FF" transform="translate(12.500000, 7.500000) scale(1, -1) translate(-12.500000, -7.500000) "></path>
            </g>
        </g>
    </g>
</svg>