<?xml version="1.0" encoding="UTF-8"?>
<svg width="18px" height="18px" viewBox="0 0 18 18" version="1.1" xmlns="http://www.w3.org/2000/svg" xmlns:xlink="http://www.w3.org/1999/xlink">
    <title>Icon/pdf</title>
    <g id="企业库PC" stroke="none" stroke-width="1" fill="none" fill-rule="evenodd">
        <g id="下载报告" transform="translate(-521, -617)">
            <g id="Icon/pdf" transform="translate(521, 617)">
                <rect id="矩形" x="0" y="0" width="18" height="18"></rect>
                <path d="M17.71875,8.15625 L16.453125,8.15625 C16.3757812,8.15625 16.3125,8.09296875 16.3125,8.015625 L16.3125,5.52832031 C16.3125,5.22949219 16.1947266,4.94296875 15.9820313,4.73203125 L11.5804687,0.33046875 C11.3677734,0.117773438 11.0830078,0 10.7841797,0 L2.53125,0 C2.06542969,0 1.6875,0.377929688 1.6875,0.84375 L1.6875,8.015625 C1.6875,8.09296875 1.62421875,8.15625 1.546875,8.15625 L0.28125,8.15625 C0.1265625,8.15625 0,8.2828125 0,8.4375 L0,15.46875 C0,15.6234375 0.1265625,15.75 0.28125,15.75 L1.6875,15.75 C1.6875,16.3705078 1.93886719,16.9330078 2.34667969,17.3408203 C2.75449219,17.7486328 3.31699219,18 3.9375,18 L15.46875,18 C15.9345703,18 16.3125,17.6220703 16.3125,17.15625 L16.3125,16.03125 C16.3125,15.8765625 16.4390625,15.75 16.59375,15.75 L17.71875,15.75 C17.8734375,15.75 18,15.6234375 18,15.46875 L18,8.4375 C18,8.2828125 17.8734375,8.15625 17.71875,8.15625 Z M12.375,2.71582031 L13.5966797,3.9375 L12.4453125,3.9375 C12.4066406,3.9375 12.375,3.90585937 12.375,3.8671875 L12.375,2.71582031 Z M15.1875,16.734375 C15.1875,16.8117188 15.1242188,16.875 15.046875,16.875 L3.9375,16.875 C3.31699219,16.875 2.8125,16.3705078 2.8125,15.75 L15.046875,15.75 C15.1242188,15.75 15.1875,15.8132813 15.1875,15.890625 L15.1875,16.734375 Z M4.25742187,13.7882812 L4.25742187,10.1197266 L5.51953125,10.1197266 C6.43183594,10.1197266 6.88886719,10.5064453 6.88886719,11.2798828 C6.88886719,11.6560547 6.75175781,11.9566406 6.47578125,12.1833984 C6.19980469,12.4101562 5.85527344,12.5191406 5.4421875,12.5085937 L5.03964844,12.5085937 L5.03964844,13.7882812 L4.25742187,13.7882812 Z M7.69042969,13.7882813 L7.69042969,10.1197266 L8.9578125,10.1197266 C10.2603516,10.1197266 10.9107422,10.715625 10.9107422,11.9074219 C10.9107422,12.4734375 10.7279297,12.9287109 10.3640625,13.2732422 C10.0001953,13.6160156 9.52910156,13.7882813 8.95253906,13.7882813 L7.69042969,13.7882813 L7.69042969,13.7882813 Z M13.6740234,11.7017578 L13.6740234,12.3416016 L12.4681641,12.3416016 L12.4681641,13.7882812 L11.6859375,13.7882812 L11.6859375,10.1197266 L13.7777344,10.1197266 L13.7777344,10.7595703 L12.4681641,10.7595703 L12.4681641,11.7017578 L13.6740234,11.7017578 L13.6740234,11.7017578 Z M15.1875,8.015625 C15.1875,8.09296875 15.1242188,8.15625 15.046875,8.15625 L2.953125,8.15625 C2.87578125,8.15625 2.8125,8.09296875 2.8125,8.015625 L2.8125,1.265625 C2.8125,1.18828125 2.87578125,1.125 2.953125,1.125 L10.125,1.125 C10.7455078,1.125 11.25,1.62773437 11.25,2.25 L11.25,4.78125 C11.25,4.9359375 11.3765625,5.0625 11.53125,5.0625 L14.0625,5.0625 C14.6830078,5.0625 15.1875,5.56523438 15.1875,6.1875 L15.1875,8.015625 Z" id="形状" fill="#FFFFFF" fill-rule="nonzero"></path>
                <path d="M6.06621094,11.3115234 C6.06621094,11.7105469 5.8359375,11.9109375 5.37714844,11.9109375 L5.03789062,11.9109375 L5.03789062,10.7261719 L5.38417969,10.7261719 C5.83945312,10.7261719 6.06621094,10.9212891 6.06621094,11.3115234 Z M10.0898438,11.9197266 C10.0898438,12.2976563 9.984375,12.5964844 9.7734375,12.8179688 C9.5625,13.0394531 9.27070313,13.1501953 8.89980469,13.1501953 L8.47265625,13.1501953 L8.47265625,10.7595703 L8.89628906,10.7595703 C9.24960938,10.7595703 9.53789062,10.8615234 9.75761719,11.0654297 C9.97910156,11.2693359 10.0898438,11.5541016 10.0898438,11.9197266 Z" id="形状" fill="#FFFFFF" fill-rule="nonzero"></path>
            </g>
        </g>
    </g>
</svg>