<?xml version="1.0" encoding="UTF-8"?>
<svg width="16px" height="16px" viewBox="0 0 16 16" version="1.1" xmlns="http://www.w3.org/2000/svg" xmlns:xlink="http://www.w3.org/1999/xlink">
    <title>Icon/Import_pri@1x</title>
    <g id="PC" stroke="none" stroke-width="1" fill="none" fill-rule="evenodd">
        <g id="17-相似客户-单条新增" transform="translate(-541.000000, -444.000000)">
            <g id="Icon/Import_pri" transform="translate(541.000000, 444.000000)">
                <rect id="矩形" x="0" y="0" width="16" height="16"></rect>
                <path d="M12.0133333,13.84 L4.24666667,13.84 C4.14666667,13.84 4.08,13.7733333 4.08,13.6733333 L4.08,3.00666667 C4.08,2.90666667 4.14666667,2.84 4.24666667,2.84 L9.08,2.84 L9.08,5.34 C9.08,5.97333333 9.61333333,6.50666667 10.2466667,6.50666667 L12.7466667,6.50666667 L12.7466667,7.10666667 C12.7466667,7.37333334 12.98,7.60666667 13.2466667,7.60666667 C13.5133333,7.60666667 13.7466667,7.37333334 13.7466667,7.10666667 L13.7466667,5.00666667 C13.7466667,4.87333334 13.68,4.74 13.6133333,4.64 L10.9466667,1.97333333 C10.8466667,1.87333333 10.7133333,1.84 10.58,1.84 L4.24666667,1.84 C3.61333333,1.84 3.08,2.37333333 3.08,3.00666667 L3.08,13.6733333 C3.08,14.3066667 3.61333333,14.84 4.24666667,14.84 L12.0133333,14.84 C12.28,14.84 12.5133333,14.6066667 12.5133333,14.34 C12.5133333,14.0733333 12.28,13.84 12.0133333,13.84 L12.0133333,13.84 Z M12.7466667,5.24 L12.7466667,5.50666667 L10.2466667,5.50666667 C10.1466667,5.50666667 10.08,5.44 10.08,5.34 L10.08,2.84 L10.38,2.84 L12.7466667,5.24 L12.7466667,5.24 Z" id="形状" fill="#3355FF" fill-rule="nonzero"></path>
                <path d="M14.9133333,9.67333333 L10.9466667,9.67333333 L11.7466667,8.87333333 C11.9466667,8.67333333 11.9466667,8.37333333 11.7466667,8.17333333 C11.5466667,7.97333333 11.2466667,7.97333333 11.0466667,8.17333333 L9.38,9.84 C9.18,10.04 9.18,10.34 9.38,10.54 L11.0466667,12.2066667 C11.1466667,12.3066667 11.28,12.34 11.4133333,12.34 C11.5466667,12.34 11.68,12.3066667 11.78,12.2066667 C11.98,12.0066667 11.98,11.7066667 11.78,11.5066667 L10.9466667,10.6733333 L14.9133333,10.6733333 C15.18,10.6733333 15.4133333,10.44 15.4133333,10.1733333 C15.4133333,9.90666666 15.18,9.67333333 14.9133333,9.67333333 Z" id="路径" fill="#3355FF" fill-rule="nonzero"></path>
            </g>
        </g>
    </g>
</svg>