<?xml version="1.0" encoding="UTF-8"?>
<svg width="18px" height="18px" viewBox="0 0 18 18" version="1.1" xmlns="http://www.w3.org/2000/svg" xmlns:xlink="http://www.w3.org/1999/xlink">
    <title>WindIcon/Outlined/Direction/Rrawleft</title>
    <g id="WindIcon/Outlined/Direction/Rrawleft" stroke="none" stroke-width="1" fill="none" fill-rule="evenodd">
        <path d="M6.9,13.9 C7.01045695,13.9 7.1,13.9895431 7.1,14.1 L7.1,14.9 C7.1,15.0104569 7.01045695,15.1 6.9,15.1 L1.1,15.1 C0.98954305,15.1 0.9,15.0104569 0.9,14.9 L0.9,14.1 C0.9,13.9895431 0.98954305,13.9 1.1,13.9 L6.9,13.9 Z M9.94714679,12.0928033 C9.92948934,12.0281594 9.94554132,11.9580949 9.990313,11.9075585 L10.0291987,11.8737075 L15.7489212,8.06055918 C15.7817747,8.03865684 15.8203762,8.02696924 15.8598612,8.02696924 C15.9519087,8.02696924 16.0294326,8.08915191 16.052717,8.17380131 L16.0598612,8.22696924 L16.0598612,15.8532658 C16.0598612,15.8927508 16.0481736,15.9313524 16.0262713,15.9642059 C15.9772549,16.0377304 15.8879803,16.0683296 15.8071754,16.0462578 L15.7489212,16.0196759 L10.0291987,12.2065276 L9.99871743,12.1815389 L9.99871743,12.1815389 L9.97372872,12.1510576 L9.94714679,12.0928033 Z M6.9,7.9 C7.01045695,7.9 7.1,7.98954305 7.1,8.1 L7.1,8.9 C7.1,9.01045695 7.01045695,9.1 6.9,9.1 L1.1,9.1 C0.98954305,9.1 0.9,9.01045695 0.9,8.9 L0.9,8.1 C0.9,7.98954305 0.98954305,7.9 1.1,7.9 L6.9,7.9 Z M16.9,1.9 C17.0104569,1.9 17.1,1.98954305 17.1,2.1 L17.1,2.9 C17.1,3.01045695 17.0104569,3.1 16.9,3.1 L1.1,3.1 C0.98954305,3.1 0.9,3.01045695 0.9,2.9 L0.9,2.1 C0.9,1.98954305 0.98954305,1.9 1.1,1.9 L16.9,1.9 Z" id="MenuFold" fill="#707680" fill-rule="nonzero"></path>
    </g>
</svg>