<?xml version="1.0" encoding="UTF-8"?>
<svg width="12px" height="16px" viewBox="0 0 12 16" version="1.1" xmlns="http://www.w3.org/2000/svg" xmlns:xlink="http://www.w3.org/1999/xlink">
    <title>Icon/Move16x12@1x</title>
    <g id="PC" stroke="none" stroke-width="1" fill="none" fill-rule="evenodd">
        <g id="05-名单页" transform="translate(-648.000000, -99.000000)">
            <g id="Icon/Move16x12" transform="translate(648.000000, 99.000000)">
                <rect id="矩形" x="0" y="0" width="12" height="16"></rect>
                <path d="M3.3,4.3 C4.29411255,4.3 5.1,3.49411255 5.1,2.5 C5.1,1.50588745 4.29411255,0.7 3.3,0.7 C2.30588745,0.7 1.5,1.50588745 1.5,2.5 C1.5,3.49411255 2.30588745,4.3 3.3,4.3 Z M3.3,9.8 C4.29411255,9.8 5.1,8.99411255 5.1,8 C5.1,7.00588745 4.29411255,6.2 3.3,6.2 C2.30588745,6.2 1.5,7.00588745 1.5,8 C1.5,8.99411255 2.30588745,9.8 3.3,9.8 Z M3.3,15.3 C4.29411255,15.3 5.1,14.4941125 5.1,13.5 C5.1,12.5058875 4.29411255,11.7 3.3,11.7 C2.30588745,11.7 1.5,12.5058875 1.5,13.5 C1.5,14.4941125 2.30588745,15.3 3.3,15.3 Z M9.3,4.3 C10.2941125,4.3 11.1,3.49411255 11.1,2.5 C11.1,1.50588745 10.2941125,0.7 9.3,0.7 C8.30588745,0.7 7.5,1.50588745 7.5,2.5 C7.5,3.49411255 8.30588745,4.3 9.3,4.3 Z M9.3,9.8 C10.2941125,9.8 11.1,8.99411255 11.1,8 C11.1,7.00588745 10.2941125,6.2 9.3,6.2 C8.30588745,6.2 7.5,7.00588745 7.5,8 C7.5,8.99411255 8.30588745,9.8 9.3,9.8 Z M9.3,15.3 C10.2941125,15.3 11.1,14.4941125 11.1,13.5 C11.1,12.5058875 10.2941125,11.7 9.3,11.7 C8.30588745,11.7 7.5,12.5058875 7.5,13.5 C7.5,14.4941125 8.30588745,15.3 9.3,15.3 Z" id="形状结合" fill="#E3E3E3"></path>
            </g>
        </g>
    </g>
</svg>