<svg viewBox="0 0 18 18" focusable="false" class="" data-icon="qr-code" width="32px" height="32px"
    fill="#707680" aria-hidden="true" version="1.1" xmlns="http://www.w3.org/2000/svg"
    xmlns:xlink="http://www.w3.org/1999/xlink">
    <path
        d="M2.1 1.9h6.8c.11 0 .2.09.2.2v6.8a.2.2 0 01-.2.2H2.1a.2.2 0 01-.2-.2V2.1c0-.11.09-.2.2-.2zm1 1.2v4.8h4.8V3.1H3.1zm-1 7.8h4.8c.11 0 .2.09.2.2v4.8a.2.2 0 01-.2.2H2.1a.2.2 0 01-.2-.2v-4.8c0-.11.09-.2.2-.2zm1 1.2v2.8h2.8v-2.8H3.1zm8-10.2h4.8c.11 0 .2.09.2.2v4.8a.2.2 0 01-.2.2h-4.8a.2.2 0 01-.2-.2V2.1c0-.11.09-.2.2-.2zm1 1.2v2.8h2.8V3.1h-2.8zm-1 7.8h4.8c.11 0 .2.09.2.2v4.8a.2.2 0 01-.2.2h-4.8a.2.2 0 01-.2-.2v-4.8c0-.11.09-.2.2-.2zm1 1.2v2.8h2.8v-2.8h-2.8zm3-3.68h.8c.11 0 .2.09.2.2v.8a.2.2 0 01-.2.2h-.8a.2.2 0 01-.2-.2v-.8c0-.11.09-.2.2-.2zm-4 0h.8c.11 0 .2.09.2.2v.8a.2.2 0 01-.2.2h-.8a.2.2 0 01-.2-.2v-.8c0-.11.09-.2.2-.2zM8.6 10.9h.8c.1 0 .2.09.2.2v.8a.2.2 0 01-.2.2h-.8a.2.2 0 01-.2-.2v-.8c0-.11.09-.2.2-.2zm-3.5-6h.8c.12 0 .2.1.2.2v.8a.2.2 0 01-.2.2h-.8a.2.2 0 01-.2-.2v-.8c0-.1.1-.2.2-.2zm3.5 10h.8c.1 0 .2.09.2.2v.8a.2.2 0 01-.2.2h-.8a.2.2 0 01-.2-.2v-.8c0-.11.09-.2.2-.2z"
        fill-rule="nonzero"></path>
</svg>