<?xml version="1.0" encoding="UTF-8"?>
<svg width="16px" height="16px" viewBox="0 0 16 16" version="1.1" xmlns="http://www.w3.org/2000/svg" xmlns:xlink="http://www.w3.org/1999/xlink">
    <title>Icon/重命名 666@1x</title>
    <g id="PC" stroke="none" stroke-width="1" fill="none" fill-rule="evenodd">
        <g id="05-名单页" transform="translate(-322.000000, -18.000000)">
            <g id="Icon/重命名-666" transform="translate(322.000000, 18.000000)">
                <rect id="矩形" x="0" y="0" width="16" height="16"></rect>
                <path d="M9.36363636,3.04 C9.60761975,3.04055397 9.80762983,3.22592605 9.81678653,3.45998574 C9.82594322,3.69404543 9.64098007,3.89329736 9.39772727,3.91141819 L9.36363636,3.91272728 L3.90909091,3.91272728 L3.90909091,12.1672727 L12.0909091,12.1672727 L12.0909091,6.59309091 C12.0898118,6.35770998 12.2833769,6.16391344 12.5283952,6.15508174 C12.7734135,6.14625005 12.9815716,6.32556644 12.9988636,6.56036364 L13,6.59309091 L13,12.1672727 C13,12.6323058 12.6201671,13.0156574 12.1363636,13.0389091 L12.0909091,13.04 L3.90909091,13.04 C3.42468151,13.04 3.02535684,12.6753605 3.00113637,12.2109091 L3,12.1672727 L3,3.91272728 C3,3.44769425 3.37983285,3.06434257 3.86363637,3.04109092 L3.90909091,3.04 L9.36363636,3.04 Z" id="路径" stroke="#666666" stroke-width="0.2" fill="#666666" fill-rule="nonzero"></path>
                <path d="M12.1159091,3.376 C12.2921389,3.21441387 12.5697531,3.21499721 12.7452444,3.37732239 C12.9207357,3.53964758 12.931656,3.80595162 12.77,3.98101819 L12.7427273,4.00807273 L8.08590909,8.26043637 C7.90930911,8.41970383 7.63361732,8.41798501 7.45918702,8.25652902 C7.28475672,8.09507303 7.27291726,7.83064749 7.43227273,7.65541818 L7.45954546,7.62814546 L12.1159091,3.376 Z" id="路径" stroke="#666666" stroke-width="0.2" fill="#666666" fill-rule="nonzero"></path>
            </g>
        </g>
    </g>
</svg>