<?xml version="1.0" encoding="UTF-8"?>
<svg width="16px" height="16px" viewBox="0 0 16 16" version="1.1" xmlns="http://www.w3.org/2000/svg" xmlns:xlink="http://www.w3.org/1999/xlink">
    <title>Icon/ToTop_small_999@1x</title>
    <defs>
        <path d="M8.01714285,12 C7.88,12 7.74285713,11.9685039 7.63999999,11.8740157 L2.15428571,6.83464566 C1.94857143,6.64566929 1.94857143,6.36220472 2.15428571,6.17322834 C2.36,5.98425196 2.66857143,5.98425196 2.87428571,6.17322834 L8.01714285,10.8661417 L13.1257143,6.14173228 C13.3314286,5.95275591 13.64,5.95275591 13.8457143,6.14173228 C14.0514286,6.33070866 14.0514286,6.61417323 13.8457143,6.80314961 L8.35999999,11.8425197 C8.29142856,11.9685039 8.15428571,12 8.01714285,12 Z" id="path-1"></path>
    </defs>
    <g id="PC" stroke="none" stroke-width="1" fill="none" fill-rule="evenodd">
        <g id="07-名单页-选择列指标1" transform="translate(-1032.000000, -349.000000)">
            <g id="Icon/ToTop_small_999" transform="translate(1032.000000, 349.000000)">
                <rect id="矩形" x="0" y="0" width="16" height="16"></rect>
                <mask id="mask-2" fill="white">
                    <use xlink:href="#path-1"></use>
                </mask>
                <use id="路径" stroke="#999999" stroke-width="0.4" fill="#999999" fill-rule="nonzero" transform="translate(8.000000, 9.000000) scale(-1, 1) rotate(180.000000) translate(-8.000000, -9.000000) " xlink:href="#path-1"></use>
                <line x1="2.4" y1="4.5" x2="13.6" y2="4.5" id="直线-3" stroke="#999999" stroke-width="1.2" fill="#999999" stroke-linecap="round"></line>
            </g>
        </g>
    </g>
</svg>