<?xml version="1.0" encoding="UTF-8"?>
<svg width="16px" height="16px" viewBox="0 0 16 16" version="1.1" xmlns="http://www.w3.org/2000/svg" xmlns:xlink="http://www.w3.org/1999/xlink">
    <title>Icon/View _3355FF@1x</title>
    <g id="PC" stroke="none" stroke-width="1" fill="none" fill-rule="evenodd">
        <g id="Icon/View-_3355FF">
            <rect id="矩形" x="0" y="0" width="16" height="16"></rect>
            <g id="查看" transform="translate(1.500000, 3.500000)" fill="#3355FF" fill-rule="nonzero">
                <path d="M13,4.50135584 C13,4.42765796 12.986803,4.36601206 12.983053,4.35867541 C12.9802125,4.3221579 12.9670155,4.25560082 12.9547441,4.22066513 C12.9514568,4.21197263 12.9471961,4.20285832 12.9434461,4.19416582 C12.9368237,4.1741294 12.9297704,4.15454493 12.9217596,4.13896773 C11.7230049,1.66367096 9.14209414,0 6.50033687,0 C3.85905832,0 1.27837097,1.66213433 0.0850577818,4.12403835 C0.070679936,4.15076362 0.0605308657,4.17635902 0.0541637655,4.19862506 C0.0513392642,4.20596171 0.0480360207,4.21286146 0.0454508906,4.21932435 C0.0218654749,4.28455572 0.0214027168,4.32994649 0.0232857176,4.31815063 C0.0122110997,4.36601207 0.00206204495,4.461283 0.00206204495,4.461283 C-0.000762456281,4.48998178 -0.000762456281,4.51291068 0.0025407716,4.54141363 C0.0025407716,4.54141363 0.0126738735,4.62466271 0.0176367151,4.64156563 C0.0190409893,4.6651574 0.025168734,4.69944528 0.0324773346,4.73061473 L0.031998608,4.73061473 C0.0383657082,4.75732494 0.0470945515,4.78314632 0.0591106542,4.80851574 C0.0652543518,4.82810021 0.0725629525,4.84635896 0.0789300527,4.86015849 C1.27931247,7.33587708 3.85953705,9 6.50033687,9 C9.14257289,9 11.7234836,7.33723294 12.9085627,4.88775754 C12.9269299,4.85569925 12.9387386,4.82543371 12.9467493,4.79916039 C12.9505153,4.79116087 12.9538345,4.78403515 12.9561803,4.77690941 C12.9769412,4.71990352 12.98117,4.67050545 12.979287,4.67050545 L12.9788402,4.67094234 C12.9872977,4.63135155 13,4.57214618 13,4.50135584 Z M12.1247866,4.53162138 C12.1243239,4.53341411 12.1233664,4.53562866 12.1224249,4.5374214 C12.1210206,4.5427544 12.1186749,4.5489913 12.1172387,4.55522821 C11.0505335,6.72553446 8.79831845,8.18177571 6.50033685,8.18177571 C4.20802023,8.18177571 1.95979458,6.72957188 0.882477567,4.55167288 C0.879876468,4.54411025 0.877993467,4.53696946 0.875168966,4.52985879 C0.874690239,4.52273305 0.873285965,4.51694811 0.872823191,4.51292576 C0.871881691,4.50849665 0.87094019,4.50225975 0.870222093,4.49689662 L0.870222093,4.49133764 C0.872823191,4.48220825 0.874690239,4.47309394 0.875647693,4.46307574 C0.877530693,4.45774274 0.87895092,4.45262064 0.881073292,4.44683569 C1.94822528,2.27539955 4.2023393,0.818495441 6.5003209,0.818495441 C8.79922805,0.818495441 11.0528952,2.27672527 12.1167599,4.44481697 C12.1177014,4.44905023 12.1186589,4.45262064 12.1200791,4.4555131 C12.1210206,4.45906843 12.1219462,4.46263884 12.1238292,4.46642015 C12.1261909,4.48267526 12.1280739,4.4987044 12.1304357,4.50670391 C12.1276111,4.51515537 12.1262069,4.52316994 12.1247866,4.53162138 Z" id="形状" stroke="#3355FF" stroke-width="0.2"></path>
                <path d="M6.5003209,2.45456737 C5.30582686,2.45456737 4.3334314,3.37211505 4.3334314,4.50001506 C4.3334314,5.62768909 5.30582686,6.54568873 6.5003209,6.54568873 C7.69481494,6.54568873 8.6672104,5.62768909 8.6672104,4.50001506 C8.6672104,3.37211505 7.69481494,2.45456737 6.5003209,2.45456737 Z M6.5003209,5.72741926 C5.78399788,5.72741926 5.20020316,5.17671891 5.20020316,4.50003012 C5.20020316,3.82355224 5.78399788,3.27286696 6.5003209,3.27286696 C7.21710669,3.27286696 7.80047056,3.82356732 7.80047056,4.50003012 C7.80047056,5.17671891 7.21710669,5.72741926 6.5003209,5.72741926 Z" id="形状"></path>
            </g>
        </g>
    </g>
</svg>