<?xml version="1.0" encoding="UTF-8"?>
<svg width="16px" height="19px" viewBox="0 0 16 19" version="1.1" xmlns="http://www.w3.org/2000/svg" xmlns:xlink="http://www.w3.org/1999/xlink">
    <title>Icon/超级名单 VIP 模版库@1x</title>
    <g id="APP" stroke="none" stroke-width="1" fill="none" fill-rule="evenodd">
        <g id="01--模板库--带VIP" transform="translate(-268.000000, -337.000000)">
            <g id="Icon/超级名单-VIP-模版库" transform="translate(268.000000, 337.500000)">
                <g id="Icon/超级名单_333">
                    <path d="M13.1185853,4.98683584 L2.8814147,4.98683584 C2.66782247,4.98683584 2.5,4.82807295 2.5,4.6260111 L2.5,2.8 C2.5,2.68453608 2.56102635,2.58350516 2.65256588,2.5113402 C2.7441054,2.43917525 2.86615811,2.42474227 2.98821082,2.45360824 L5.32246879,3.08865979 L7.70249653,0.144329894 C7.77877947,0.0577319598 7.88557559,0 7.9923717,0 C8.11442441,0 8.22122053,0.0432989672 8.29750347,0.129896912 L10.8911234,3.08865979 L13.0117892,2.45360824 C13.1338419,2.42474227 13.2558946,2.43917525 13.3474341,2.5113402 C13.4389736,2.58350516 13.5,2.68453608 13.5,2.8 L13.5,4.6260111 C13.5,4.82807295 13.3321775,4.98683584 13.1185853,4.98683584 Z" id="路径" fill="#F3D642" fill-rule="nonzero"></path>
                    <rect id="矩形" x="0" y="2.5" width="16" height="16"></rect>
                    <path d="M5.31333333,10.0266667 L10.3133333,10.0266667 C10.58,10.0266667 10.8133333,9.79333333 10.8133333,9.52666666 C10.8133333,9.25999998 10.58,9.02666666 10.3133333,9.02666666 L5.31333333,9.02666666 C5.04666666,9.02666666 4.81333333,9.25999998 4.81333333,9.52666666 C4.81333333,9.79333333 5.04666667,10.0266667 5.31333333,10.0266667 Z M5.31333333,12.6933333 L8.64666667,12.6933333 C8.91333334,12.6933333 9.14666667,12.46 9.14666667,12.1933333 C9.14666667,11.9266667 8.91333333,11.6933333 8.64666667,11.6933333 L5.31333333,11.6933333 C5.04666666,11.6933333 4.81333333,11.9266667 4.81333333,12.1933333 C4.81333333,12.46 5.04666667,12.6933333 5.31333333,12.6933333 Z" id="形状" fill="#F3D642" fill-rule="nonzero"></path>
                </g>
                <path d="M12.98,5.86 L2.98,5.86 C2.71333333,5.86 2.48,6.09333333 2.48,6.36 L2.48,17.3266667 C2.48,17.5266667 2.54666667,17.6933333 2.68,17.86 C2.81333333,18.0266667 3.01333333,18.1266667 3.24666667,18.16 L3.34666667,18.16 C3.54666667,18.16 3.71333334,18.0933333 3.88,17.96 L8.01333333,14.6266667 L12.1466667,17.96 C12.28,18.0933333 12.48,18.16 12.68,18.16 C13.1466667,18.16 13.5133333,17.7933333 13.5133333,17.3266667 L13.5133333,6.36 C13.48,6.09333333 13.2466667,5.86 12.98,5.86 Z M12.48,16.9933333 L8.28,13.5933333 C8.11333333,13.46 7.84666667,13.46 7.64666667,13.5933333 L3.48,16.9933333 L3.48,6.86 L12.48,6.86 L12.48,16.9933333 Z" id="形状" fill="#F3D642" fill-rule="nonzero"></path>
            </g>
        </g>
    </g>
</svg>