<svg t="1746701754173" class="icon" viewBox="0 0 1024 1024" version="1.1" xmlns="http://www.w3.org/2000/svg" p-id="2978" width="200" height="200"><path d="M733.988571 261.217524l127.024762 76.214857a109.714286 109.714286 0 0 1 53.272381 94.086095V828.952381a109.714286 109.714286 0 0 1-109.714285 109.714286H219.428571A109.714286 109.714286 0 0 1 109.714286 828.952381V431.518476a109.714286 109.714286 0 0 1 53.272381-94.110476l127.024762-76.190476 37.619809 62.707809-127.024762 76.214857A36.571429 36.571429 0 0 0 182.857143 431.542857V828.952381A36.571429 36.571429 0 0 0 219.428571 865.52381h585.142858a36.571429 36.571429 0 0 0 36.571428-36.571429V431.518476a36.571429 36.571429 0 0 0-17.749333-31.378286l-127.024762-76.214857 37.619809-62.707809zM512 121.904762l146.285714 87.771428-62.293333 131.657143h-2.121143L633.904762 676.254476 512 780.190476l-121.904762-103.936L430.104381 341.333333h-1.706667L365.714286 209.67619 512 121.904762z m17.578667 219.428571h-35.181715l-36.864 308.540953L512 696.295619l54.467048-46.421333L529.554286 341.333333zM512 207.213714L460.312381 238.201905 474.575238 268.190476h75.093333l14.140953-29.891047L512 207.238095z" p-id="2979"></path></svg>