<?xml version="1.0" standalone="no"?><!DOCTYPE svg PUBLIC "-//W3C//DTD SVG 1.1//EN" "http://www.w3.org/Graphics/SVG/1.1/DTD/svg11.dtd"><svg t="1744687752602" class="icon" viewBox="0 0 1024 1024" version="1.1" xmlns="http://www.w3.org/2000/svg" p-id="36925" xmlns:xlink="http://www.w3.org/1999/xlink" width="200" height="200"><path d="M277.943 409.6c146.286 36.571 329.143 36.571 475.428 0S987.43 299.886 987.43 219.429C987.429 95.086 775.314 0 512 0S36.571 102.4 36.571 219.429c0 80.457 87.772 153.6 241.372 190.171zM512 797.257c-204.8 0-373.029-58.514-446.171-138.971-21.943 21.943-29.258 51.2-29.258 80.457C36.571 855.77 248.686 958.17 512 958.17s475.429-95.085 475.429-219.428c0-29.257-14.629-51.2-29.258-80.457C885.03 738.743 716.8 797.257 512 797.257z" fill="#f06f13" p-id="36926"></path><path d="M512 533.943c-204.8 0-373.029-58.514-446.171-138.972-21.943 29.258-29.258 51.2-29.258 80.458 0 117.028 212.115 219.428 475.429 219.428s475.429-95.086 475.429-219.428c0-29.258-14.629-51.2-29.258-80.458C885.03 475.43 716.8 533.943 512 533.943z" fill="#f06f13" p-id="36927"></path></svg>