<?xml version="1.0" standalone="no"?><!DOCTYPE svg PUBLIC "-//W3C//DTD SVG 1.1//EN" "http://www.w3.org/Graphics/SVG/1.1/DTD/svg11.dtd"><svg t="1742285387721" class="icon" viewBox="0 0 1024 1024" version="1.1" xmlns="http://www.w3.org/2000/svg" p-id="1447" xmlns:xlink="http://www.w3.org/1999/xlink" width="200" height="200"><path d="M362.666667 298.666667c35.346084 0 64-28.653916 64-64S398.012751 170.666667 362.666667 170.666667s-64 28.653916-64 64 28.653916 64 64 64z m0 277.333333c35.346084 0 64-28.653916 64-64s-28.653916-64-64-64S298.666667 476.653916 298.666667 512s28.653916 64 64 64z m0 277.333333c35.346084 0 64-28.653916 64-64s-28.653916-64-64-64-64 28.653916-64 64S327.320583 853.333333 362.666667 853.333333z m298.666666-554.666666c35.346084 0 64-28.653916 64-64S696.679417 170.666667 661.333333 170.666667 597.333333 199.320583 597.333333 234.666667s28.653916 64 64 64z m0 277.333333c35.346084 0 64-28.653916 64-64s-28.653916-64-64-64S597.333333 476.653916 597.333333 512s28.653916 64 64 64z m0 277.333333c35.346084 0 64-28.653916 64-64s-28.653916-64-64-64-64 28.653916-64 64S625.987249 853.333333 661.333333 853.333333z" p-id="1448"></path></svg>