<svg xmlns="http://www.w3.org/2000/svg" xmlns:xlink="http://www.w3.org/1999/xlink" fill="none"
    version="1.1" width="16" height="16" viewBox="0 0 16 16">
    <defs>
        <clipPath id="master_svg0_124_49628/53_9846/50_06929">
            <rect x="0" y="0" width="16" height="16" rx="0" />
        </clipPath>
    </defs>
    <g clip-path="url(#master_svg0_124_49628/53_9846/50_06929)">
        <g transform="matrix(1,0,0,-1,0,32.6875)">
            <g>
                <path
                    d="M16,29.84375Q15.9688,28.99995,14.8125,28.34375Q13.375,27.56255,10.9688,27.37495Q10.8125,27.46875,10.625,27.53125Q8.71875,28.31255,6,28.34375Q5.625,28.34375,5.25,28.31255L5.1875,28.34375Q4.03125,28.99995,4,29.84375Q4.0625,30.90625,5.75,31.62495Q7.4375,32.31255,10,32.34375Q12.5625,32.31255,14.25,31.62495Q15.9375,30.90625,16,29.84375ZM5.03125,27.31255Q5.5,27.34375,6,27.34375Q7.46875,27.34375,8.6875,27.06255Q9.9375,26.81255,10.7812,26.37495Q11.9688,25.71875,12,24.84375Q12,24.65625,11.9375,24.46875Q11.6875,23.84375,10.8438,23.375Q10.8125,23.34375,10.8125,23.34375Q9.96875,22.875,8.71875,22.625Q7.5,22.34375,6,22.34375Q3.125,22.375,1.375,23.25Q1.28125,23.3125,1.1875,23.34375Q0.03125,24,0,24.84375Q0.03125,25.6875,1.125,26.3125Q2.21875,26.93755,4,27.18755Q4.5,27.28125,5.03125,27.31255ZM13,24.84375Q12.9375,25.875,12.25,26.49995Q13.5938,26.71875,14.625,27.15625Q15.4062,27.46875,16,27.93755L16,26.84375Q15.9688,25.90625,14.625,25.25Q13.9375,24.90625,13,24.6875Q13,24.75,13,24.84375ZM12,21.84375Q11.9688,21,10.8125,20.34375Q10.75,20.3125,10.6875,20.28125Q10.6562,20.28125,10.625,20.25Q8.875,19.375,6,19.34375Q4.5,19.34375,3.28125,19.625Q2.03125,19.875,1.1875,20.34375Q0.03125,21,0,21.84375L0,22.9375Q0.59375,22.46875,1.375,22.15625Q3.28125,21.375,6,21.34375Q8.71875,21.375,10.625,22.15625Q11,22.3125,11.3438,22.5Q11.625,22.65625,11.875,22.84375Q11.9062,22.875,11.9688,22.90625Q11.9688,22.9375,12,22.9375L12,22.84375L12,22.65625L12,21.84375ZM13,21.84375L13,22.84375L13,21.84375L13,22.84375L13,23.65625Q13.9062,23.84375,14.625,24.15625Q15.4062,24.46875,16,24.9375L16,23.84375Q16,23.34375,15.5312,22.875Q14.7188,22.09375,13,21.6875Q13,21.75,13,21.84375ZM6,18.34375Q8.71875,18.375,10.625,19.15625Q11.4062,19.46875,12,19.9375L12,18.84375Q11.9375,17.78125,10.25,17.0625Q8.5625,16.375,6,16.34375Q3.4375,16.375,1.75,17.0625Q0.0625,17.78125,0,18.84375L0,19.9375Q0.59375,19.46875,1.375,19.15625Q3.28125,18.375,6,18.34375Z"
                    fill="#4080FF" fill-opacity="1" style="mix-blend-mode:passthrough" />
            </g>
        </g>
    </g>
</svg> 