<?xml version="1.0" encoding="UTF-8"?>
<svg width="36px" height="36px" viewBox="0 0 36 36" version="1.1" xmlns="http://www.w3.org/2000/svg" xmlns:xlink="http://www.w3.org/1999/xlink">
    <title>Icon/分享</title>
    <g id="Icon/分享" stroke="none" stroke-width="1" fill="none" fill-rule="evenodd">
        <rect id="矩形" x="0" y="0" width="36" height="36"></rect>
        <path d="M16.5,2.5 L16.5,5.5 L4.5,5.5 L4.5,31.5 L30.5,31.5 L30.5,19.5 L33.5,19.5 L33.5,33.5 C33.5,34.0522847 33.0522847,34.5 32.5,34.5 L2.5,34.5 C1.94771525,34.5 1.5,34.0522847 1.5,33.5 L1.5,3.5 C1.5,2.94771525 1.94771525,2.5 2.5,2.5 L16.5,2.5 Z" id="形状结合" fill="#999999"></path>
        <path d="M34.1027417,1.5 C34.3236556,1.5 34.5027417,1.6790861 34.5027417,1.90000001 L34.5027417,14.1 C34.5027417,14.3209139 34.3236556,14.5 34.1027417,14.5 L31.9027417,14.5 C31.6818278,14.5 31.5027417,14.3209139 31.5027417,14.1 L31.502,6.625 L14.5784776,23.5495965 C14.4222679,23.7058062 14.1690019,23.7058062 14.0127922,23.5495965 L12.4571573,21.9939616 C12.3009476,21.8377518 12.3009476,21.5844858 12.4571573,21.4282761 L29.386,4.499 L21.9027417,4.5 C21.6818278,4.5 21.5027417,4.3209139 21.5027417,4.09999999 L21.5027417,1.90000001 C21.5027417,1.6790861 21.6818278,1.5 21.9027417,1.5 L34.1027417,1.5 Z" id="形状结合" fill="#999999"></path>
    </g>
</svg>