<?xml version="1.0" standalone="no"?><!DOCTYPE svg PUBLIC "-//W3C//DTD SVG 1.1//EN" "http://www.w3.org/Graphics/SVG/1.1/DTD/svg11.dtd"><svg t="1691573128655" class="icon" viewBox="0 0 1024 1024" version="1.1" xmlns="http://www.w3.org/2000/svg" p-id="7948" xmlns:xlink="http://www.w3.org/1999/xlink" width="35" height="25" transform="scale(0.9)"><path d="M960.284444 924.444444L894.862222 853.333333l-56.888889-61.44a238.933333 238.933333 0 1 0-46.648889 33.564445L853.333333 889.742222l64.853334 72.248889a27.306667 27.306667 0 0 0 21.048889 9.671111 26.168889 26.168889 0 0 0 18.773333-7.395555 27.875556 27.875556 0 0 0 2.275555-39.822223zM512 625.777778a170.666667 170.666667 0 1 1 170.666667 170.666666 170.666667 170.666667 0 0 1-170.666667-170.666666zM850.488889 56.888889h-169.528889l169.528889 166.684444V56.888889z" p-id="7949" fill="#fff"></path><path d="M571.733333 56.888889H113.777778a56.888889 56.888889 0 0 0-56.888889 56.888889v796.444444a56.888889 56.888889 0 0 0 56.888889 56.888889h284.444444v-56.888889H113.777778V113.777778h434.631111L796.444444 360.675556V398.222222h56.888889V341.333333l-278.755555-284.444444z" p-id="7950" fill="#fff"></path><path d="M381.724444 247.466667L341.333333 207.644444l-46.648889 46.08-47.217777-46.08-39.822223 39.822223 46.648889 46.648889-46.648889 46.08 39.822223 40.391111 47.217777-46.648889 46.648889 46.648889 40.391111-40.391111-46.648888-46.08 46.648888-46.648889z" p-id="7951" fill="#fff"></path><path d="M170.666667 455.111111m28.444444 0l170.666667 0q28.444444 0 28.444444 28.444445l0 0q0 28.444444-28.444444 28.444444l-170.666667 0q-28.444444 0-28.444444-28.444444l0 0q0-28.444444 28.444444-28.444445Z" p-id="7952" fill="#fff"></path><path d="M170.666667 625.777778m28.444444 0l170.666667 0q28.444444 0 28.444444 28.444444l0 0q0 28.444444-28.444444 28.444445l-170.666667 0q-28.444444 0-28.444444-28.444445l0 0q0-28.444444 28.444444-28.444444Z" p-id="7953" fill="#fff"></path></svg>