<?xml version="1.0" encoding="UTF-8"?>
<svg width="16px" height="16px" viewBox="0 0 16 16" version="1.1" xmlns="http://www.w3.org/2000/svg" xmlns:xlink="http://www.w3.org/1999/xlink">
    <title>收藏-选中@1x</title>
    <g id="Page-1" stroke="none" stroke-width="1" fill="none" fill-rule="evenodd">
        <path d="M8.49998888,12.0283584 L4.66824599,13.9809056 C4.58455702,14.0235512 4.48104636,13.9923642 4.43704847,13.9112476 C4.41952828,13.8789465 4.41348249,13.8419483 4.41984708,13.8059805 L5.15164485,9.67041909 L2.05169973,6.74159824 C1.98399393,6.67762996 1.98260855,6.57257409 2.04860539,6.50694938 C2.07488568,6.48081728 2.10932076,6.46381104 2.14657967,6.45856341 L6.43059847,5.85519313 L8.34646992,2.09253506 C8.3883144,2.01035497 8.49096884,1.97661385 8.57575502,2.01717214 C8.60951733,2.03332267 8.63684516,2.05981052 8.65350785,2.09253506 L10.5693793,5.85519313 L14.8533981,6.45856341 C14.9469652,6.4717416 15.0117945,6.55594431 14.9981984,6.64663542 C14.9927844,6.6827491 14.9752388,6.71612573 14.948278,6.74159824 L11.8483329,9.67041909 L12.5801307,13.8059805 C12.5961139,13.8963052 12.5335261,13.9820864 12.4403371,13.9975783 C12.4032287,14.0037473 12.3650572,13.9978873 12.3317318,13.9809056 L8.49998888,12.0283584 Z" id="收藏-选中" fill="#0093AD" fill-rule="nonzero"></path>
    </g>
</svg>