<?xml version="1.0" encoding="UTF-8"?>
<svg width="16px" height="16px" viewBox="0 0 16 16" version="1.1" xmlns="http://www.w3.org/2000/svg" xmlns:xlink="http://www.w3.org/1999/xlink">
    <title>收藏@1x</title>
    <g id="Page-1" stroke="none" stroke-width="1" fill="none" fill-rule="evenodd">
        <path d="M8.49998888,12.0283584 L4.66824599,13.9809056 C4.58455702,14.0235512 4.48104636,13.9923642 4.43704847,13.9112476 C4.41952828,13.8789465 4.41348249,13.8419483 4.41984708,13.8059805 L5.15164485,9.67041909 L2.05169973,6.74159824 C1.98399393,6.67762996 1.98260855,6.57257409 2.04860539,6.50694938 C2.07488568,6.48081728 2.10932076,6.46381104 2.14657967,6.45856341 L6.43059847,5.85519313 L8.34646992,2.09253506 C8.3883144,2.01035497 8.49096884,1.97661385 8.57575502,2.01717214 C8.60951733,2.03332267 8.63684516,2.05981052 8.65350785,2.09253506 L10.5693793,5.85519313 L14.8533981,6.45856341 C14.9469652,6.4717416 15.0117945,6.55594431 14.9981984,6.64663542 C14.9927844,6.6827491 14.9752388,6.71612573 14.948278,6.74159824 L11.8483329,9.67041909 L12.5801307,13.8059805 C12.5961139,13.8963052 12.5335261,13.9820864 12.4403371,13.9975783 C12.4032287,14.0037473 12.3650572,13.9978873 12.3317318,13.9809056 L8.49998888,12.0283584 Z M5.71476288,12.2766994 L8.01131609,11.1064412 C8.31055974,10.9539551 8.66805525,10.9539551 8.9672989,11.1064412 L11.2638521,12.2766994 L10.8252495,9.79805274 C10.768099,9.47508208 10.8785712,9.14553428 11.1206644,8.91680519 L12.978615,7.16141787 L10.4109904,6.79978819 C10.0764259,6.7526674 9.78720593,6.54899566 9.6375841,6.25514725 L8.48930749,4 L7.34103089,6.25514725 C7.19140906,6.54899566 6.90218912,6.7526674 6.56762454,6.79978819 L4,7.16141787 L5.85795057,8.91680519 C6.10004378,9.14553428 6.21051596,9.47508208 6.15336551,9.79805274 L5.71476288,12.2766994 Z" id="收藏" fill="#666666" fill-rule="nonzero"></path>
    </g>
</svg>