<?xml version="1.0" standalone="no"?><!DOCTYPE svg PUBLIC "-//W3C//DTD SVG 1.1//EN" "http://www.w3.org/Graphics/SVG/1.1/DTD/svg11.dtd"><svg t="1711957864962" class="icon" viewBox="0 0 1024 1024" version="1.1" xmlns="http://www.w3.org/2000/svg" p-id="12542" xmlns:xlink="http://www.w3.org/1999/xlink" width="200" height="200"><path d="M898.4576 904.12032H135.77728c-33.5616 0-61.01504-27.45856-61.01504-61.00992V187.20256c0-33.5616 27.45344-61.01504 61.01504-61.01504h320.32256L532.3776 232.96h366.08c33.56672 0 61.02016 27.45344 61.02016 61.01504V843.1104c0 33.55136-27.45344 61.00992-61.02016 61.00992z m0-594.8928c0-9.15456-6.09792-15.25248-15.25248-15.25248H486.62016L410.34752 187.20256H151.02976c-9.15456 0-15.25248 6.09792-15.25248 15.25248v625.408c0 9.14944 6.10304 15.25248 15.25248 15.25248h732.18048c9.14944 0 15.25248-6.09792 15.25248-15.25248V309.22752z m-151.00928 285.24032l-117.44768 118.97856c-10.6752 10.68032-30.5152 10.68032-42.70592-1.52064-12.2112-12.20096-12.2112-30.51008-1.536-42.72128l70.17472-70.15936H303.5648c-16.77824 0-30.50496-13.73184-30.50496-30.51008 0-16.768 13.72672-30.49984 30.50496-30.49984h356.94592l-67.11808-67.11808c-10.68544-10.68032-10.68544-28.98432 1.52064-41.1904 12.2112-12.20096 30.51008-12.20096 41.18528-1.52064l120.50944 120.4992c10.68544 10.68032 10.68544 28.9792-1.52064 41.1904-1.536 1.536-4.5824 3.05664-7.63904 4.57216z m0 0" fill="#666666" p-id="12543"></path></svg>