<svg xmlns="http://www.w3.org/2000/svg" xmlns:xlink="http://www.w3.org/1999/xlink" fill="none"
    version="1.1" width="12" height="16" viewBox="0 0 12 16">
    <defs>
        <clipPath id="master_svg0_124_49607">
            <rect x="0" y="0" width="12" height="16" rx="0" />
        </clipPath>
    </defs>
    <g clip-path="url(#master_svg0_124_49607)">
        <g>
            <path
                d="M1.70625,0C1.18125,0,0.75,0.575,0.75,1.275L0.75,14.725C0.75,15.425,1.18125,16,1.70625,16L10.29375,16C10.8188,16,11.25,15.425,11.25,14.725L11.25,5.075L7.70625,0L1.70625,0Z"
                fill="#45B058" fill-opacity="1" style="mix-blend-mode:passthrough" />
        </g>
        <g>
            <path
                d="M4.387109375,13.4750244140625C4.349609375,13.4750244140625,4.312109375,13.4500244140625,4.293359375,13.4250244140625L3.599609375,12.1750244140625L2.887109375,13.4250244140625C2.868359375,13.4500244140625,2.830859375,13.4750244140625,2.793359375,13.4750244140625C2.718359375,13.4750244140625,2.662109375,13.4000244140625,2.662109375,13.3000244140625C2.662109375,13.2750244140625,2.662109375,13.2250244140625,2.680859475,13.2000244140625L3.412109375,11.9250244140625L2.737109275,10.7000224140625C2.718359275,10.6750234140625,2.699609375,10.6500224140625,2.699609375,10.6000224140625C2.699609375,10.5250224140625,2.755859375,10.4250221140625,2.830859375,10.4250221140625C2.887109375,10.4250221140625,2.924609375,10.4500217140625,2.943359375,10.5000219140625L3.599609375,11.6500244140625L4.237109375,10.5000219140625C4.255859375,10.4500217140625,4.293359375,10.4250221140625,4.330859375,10.4250221140625C4.405859375,10.4250221140625,4.480859375,10.5000219140625,4.480859375,10.6000224140625C4.480859375,10.6500224140625,4.462109375,10.6750224140625,4.462109375,10.7000224140625L3.768359375,11.9000244140625L4.499609375,13.2000244140625C4.518359375,13.2250244140625,4.537109375,13.2750244140625,4.537109375,13.3000244140625C4.537109375,13.4000244140625,4.462109375,13.4750244140625,4.387109375,13.4750244140625ZM6.262109375,13.4500244140625L5.249609375,13.4500244140625C5.137109375,13.4500244140625,5.043359375,13.3250244140625,5.043359375,13.1750244140625L5.043359375,10.6000234140625C5.043359375,10.5000229140625,5.099609375,10.4250231140625,5.193359375,10.4250231140625C5.268359375,10.4250231140625,5.324609375,10.5000229140625,5.324609375,10.6000234140625L5.324609375,13.1250244140625L6.262109375,13.1250244140625C6.337109375,13.1250244140625,6.393359375,13.2000244140625,6.393359375,13.2750244140625C6.393359375,13.3750244140625,6.337109375,13.4500244140625,6.262109375,13.4500244140625ZM7.574609375,13.5000244140625C7.237109375,13.5000244140625,6.974609375,13.3500244140625,6.787109375,13.1250244140625C6.749609375,13.1000244140625,6.749609375,13.0500244140625,6.749609375,13.0000244140625C6.749609375,12.9000244140625,6.787109375,12.8000244140625,6.880859375,12.8000244140625C6.899609375,12.8000244140625,6.937109375,12.8250244140625,6.955859375,12.8500244140625C7.105859375,13.0250244140625,7.330859375,13.1750244140625,7.593359375,13.1750244140625C7.987109375,13.1750244140625,8.118359375,12.8750244140625,8.118359375,12.6500244140625C8.118359375,11.8750244140625,6.787109375,12.3000244140625,6.787109375,11.2500244140625C6.787109375,10.7500244140625,7.105859375,10.4000244140625,7.555859375,10.4000244140625C7.837109375,10.4000244140625,8.099609375,10.5250244140625,8.268359375,10.7250244140625C8.305859375,10.7500234140625,8.324609375,10.8000244140625,8.324609375,10.8500244140625C8.324609375,10.9500244140625,8.268359375,11.0500244140625,8.193359375,11.0500244140625C8.174609375,11.0500244140625,8.137109375,11.0250244140625,8.118359375,11.0000234140625C7.949609375,10.8250234140625,7.743359375,10.7500234140625,7.537109375,10.7500234140625C7.255859375,10.7500234140625,7.068359375,10.9250244140625,7.068359375,11.2250244140625C7.068359375,11.9000244140625,8.399609375,11.5000244140625,8.399609375,12.6250244140625C8.399609375,13.0500244140625,8.174609375,13.5000244140625,7.574609375,13.5000244140625Z"
                fill="#FFFFFF" fill-opacity="1" style="mix-blend-mode:passthrough" />
        </g>
        <g>
            <path
                d="M11.2501634375,5.1000244140625L11.2501634375,5.3500244140625L8.850163437500001,5.3500244140625Q7.6501598375,5.0250244140625,7.6876599775,3.6500244140625Q7.7251601375,5.1000244140625,8.8126634375,5.1000244140625L11.2501634375,5.1000244140625Z"
                fill="#349C42" fill-opacity="1" style="mix-blend-mode:passthrough" />
        </g>
        <g>
            <path d="M7.6875,0L7.6875,3.65C7.6875,4.05,7.9125,5.1,8.85,5.1L11.25,5.1L7.6875,0Z"
                fill="#FFFFFF" fill-opacity="1" style="mix-blend-mode:passthrough" />
        </g>
    </g>
</svg> 