<?xml version="1.0" encoding="UTF-8"?>
<svg width="20px" height="20px" viewBox="0 0 20 20" version="1.1" xmlns="http://www.w3.org/2000/svg" xmlns:xlink="http://www.w3.org/1999/xlink">
    <title>搜索-高亮</title>
    <defs>
        <linearGradient x1="-1.42247325e-13%" y1="100%" x2="93.9903846%" y2="100%" id="linearGradient-1">
            <stop stop-color="#3862ED" offset="0%"></stop>
            <stop stop-color="#274CDA" offset="11.9837194%"></stop>
            <stop stop-color="#00AEC7" offset="49.6175699%"></stop>
            <stop stop-color="#17D9CB" offset="66.1604021%"></stop>
            <stop stop-color="#B388E8" offset="100%"></stop>
        </linearGradient>
    </defs>
    <g id="页面-1" stroke="none" stroke-width="1" fill="none" fill-rule="evenodd">
        <g id="画板" fill="url(#linearGradient-1)" fill-rule="nonzero">
            <path d="M9.27220855,1 C13.8408232,1 17.5444171,4.69462012 17.5444171,9.25216501 C17.5444171,11.225982 16.8497524,13.0379445 15.6910063,14.4580279 C15.703637,14.4659058 15.7149707,14.477186 15.7259946,14.4889313 L19.0313441,18.0105468 C19.2959186,18.2924322 19.2818854,18.7354255 19,19 C18.7181146,19.2645745 18.2751214,19.2505413 18.0105468,18.9686559 L14.719215,15.4629469 C13.2640645,16.734006 11.3583144,17.50433 9.27220855,17.50433 C4.70359392,17.50433 1,13.8097099 1,9.25216501 C1,4.69462012 4.70359392,1 9.27220855,1 Z M9.27220855,2.4 C5.4760333,2.4 2.4,5.46858008 2.4,9.25216501 C2.4,13.0357499 5.4760333,16.10433 9.27220855,16.10433 C13.0683838,16.10433 16.1444171,13.0357499 16.1444171,9.25216501 C16.1444171,5.46858008 13.0683838,2.4 9.27220855,2.4 Z M9.30432198,5.0689537 C9.31716867,5.07393475 9.3277786,5.08339688 9.33419165,5.095592 C9.93582603,6.21658525 10.553224,7.09156112 11.1846337,7.7214409 C11.8083977,8.34369349 12.556775,8.83741988 13.4297655,9.20262009 C13.4590646,9.21423467 13.4725782,9.24773352 13.4602517,9.27672992 C13.4546802,9.28983601 13.4444084,9.30038441 13.4314549,9.30630204 C12.6512728,9.65427843 11.9025958,10.1872427 11.1846337,10.9034651 C10.457089,11.6292469 9.838561,12.4659229 9.32904962,13.4134931 C9.31550933,13.4419919 9.28088429,13.4522825 9.25318116,13.4372735 C9.24180226,13.4311086 9.23285755,13.4212581 9.22781551,13.4093391 C8.83509395,12.4231501 8.29527236,11.5879657 7.60910919,10.9034651 C6.93267883,10.2286737 6.11179739,9.69809555 5.14646488,9.3117306 C5.11679067,9.30109749 5.10234478,9.26798999 5.11385491,9.23865995 C5.12006944,9.22282413 5.13302677,9.21058782 5.1491921,9.20528914 C6.09383803,8.90977117 6.91378567,8.41507965 7.60910919,7.7214409 C8.23735893,7.09471341 8.73427878,6.33508787 9.09986875,5.44256428 L9.23050666,5.10152115 C9.24189694,5.07214436 9.27494519,5.05756342 9.30432198,5.0689537 Z M9.389,7.785 L9.30641598,7.89992537 C9.08841922,8.18782724 8.85221281,8.45885112 8.59785718,8.71259045 C8.44233054,8.86774024 8.28149839,9.01493958 8.11557147,9.15409584 L7.92,9.31 L8.03099956,9.39776231 C8.12957371,9.47913857 8.2261094,9.56270763 8.32059091,9.64846725 L8.59785718,9.91231554 C8.78116383,10.095178 8.95554482,10.2866399 9.12085671,10.486268 L9.381,10.817 L9.60008698,10.5532632 C9.69546274,10.4425951 9.79280232,10.3338432 9.89210301,10.2270159 L10.1958857,9.91231554 C10.3814036,9.72724719 10.5695417,9.5521255 10.7601921,9.38711219 L10.861,9.303 L10.7206612,9.19107432 L10.4528918,8.95770787 L10.1958857,8.71259045 C9.97402423,8.4912665 9.75621142,8.24766475 9.54198429,7.98152727 L9.389,7.785 Z" id="形状结合"></path>
        </g>
    </g>
</svg>