<?xml version="1.0" encoding="UTF-8"?>
<svg width="32px" height="22px" viewBox="0 0 32 22" version="1.1" xmlns="http://www.w3.org/2000/svg" xmlns:xlink="http://www.w3.org/1999/xlink">
    <title>一致行动人3</title>
    <g id="图谱平台" stroke="none" stroke-width="1" fill="none" fill-rule="evenodd">
        <g id="一致行动人3" fill="#01AEC7" fill-rule="nonzero">
            <path d="M23,12.6 L22.2,14 C24.8,15.4 26.2,18.2 26.2,21 L27.8,21 C27.8,17.6 26,14.4 23,12.6 Z M15.8,0 C12.2,0 9.4,3 9.4,6.6 C9.4,9 10.6,11 12.4,12.2 C8.8,13.4 6,17 6,21.2 L7.6,21.2 C7.6,16.8 11.4,13 16,13 C19.6,13 22.6,10 22.6,6.4 C22.6,2.8 19.4,0 15.8,0 Z M15.8,11.4 C13.2,11.4 11,9.2 11,6.6 C11,4 13.2,1.8 15.8,1.8 C18.4,1.8 20.6,4 20.6,6.6 C20.8,9.2 18.6,11.4 15.8,11.4 Z M27.6,7.4 C27.6,4.6 25.4,2.2 22.4,2.2 C22.6,2.6 23,3.2 23.2,3.6 C25,4 26.2,5.6 26.2,7.4 C26.2,9.6 24.4,11.4 22.2,11.4 C21.8,12 21.4,12.4 21,12.8 C21.4,12.8 21.8,12.6 22.2,12.6 C25.2,12.6 27.6,10.2 27.6,7.4 Z M28.2,12.2 L27.6,13.4 C29.6,14.6 30.8,16.8 30.8,19 L32,19 C32,16.2 30.6,13.6 28.2,12.2 Z M0,19 L1.4,19 C1.4,16.6 2.6,14.4 4.6,13.4 L3.8,12.2 C1.4,13.6 0,16.2 0,19 Z M10.8,12.6 C10.4,12.2 10,11.8 9.6,11.2 C7.4,11.2 5.6,9.4 5.6,7.2 C5.6,5.4 7,3.8 8.6,3.4 C9,3 9.2,2.6 9.4,2 C6.6,2 4.2,4.4 4.2,7.2 C4.2,10 6.6,12.4 9.4,12.4 C10,12.6 10.4,12.6 10.8,12.6 Z" id="形状"></path>
        </g>
    </g>
</svg>