<?xml version="1.0" encoding="UTF-8"?>
<svg width="16px" height="16px" viewBox="0 0 16 16" version="1.1" xmlns="http://www.w3.org/2000/svg" xmlns:xlink="http://www.w3.org/1999/xlink">
    <title>Icon/Add_Pri@1x</title>
    <g id="PC" stroke="none" stroke-width="1" fill="none" fill-rule="evenodd">
        <g id="16-相似客户-导入后" transform="translate(-448.000000, -144.000000)">
            <g id="Icon/Add_Pri" transform="translate(448.000000, 144.000000)">
                <rect id="矩形" x="0" y="0" width="16" height="16"></rect>
                <path d="M13.3684211,7.36842105 L8.63157895,7.36842105 L8.63157895,2.63157894 C8.63157895,2.28421051 8.34736843,2 8,2 C7.65263157,2 7.36842105,2.28421053 7.36842105,2.63157894 L7.36842105,7.36842105 L2.63157894,7.36842105 C2.28421051,7.36842105 2,7.65263157 2,8 C2,8.34736843 2.28421053,8.63157895 2.63157894,8.63157895 L7.36842105,8.63157895 L7.36842105,13.3684211 C7.36842105,13.7157895 7.65263157,14 8,14 C8.34736843,14 8.63157895,13.7157895 8.63157895,13.3684211 L8.63157895,8.63157895 L13.3684211,8.63157895 C13.7157895,8.63157895 14,8.34736843 14,8 C14,7.65263157 13.7157895,7.36842105 13.3684211,7.36842105 Z" id="路径" fill="currentColor" fill-rule="nonzero"></path>
            </g>
        </g>
    </g>
</svg>