<?xml version="1.0" encoding="UTF-8"?>
<svg width="16px" height="16px" viewBox="0 0 16 16" version="1.1" xmlns="http://www.w3.org/2000/svg" xmlns:xlink="http://www.w3.org/1999/xlink">
    <title>Icon/AddColumn_666@1x</title>
    <g id="PC" stroke="none" stroke-width="1" fill="none" fill-rule="evenodd">
        <g id="05-名单页" transform="translate(-360.000000, -60.000000)">
            <g id="Icon/AddColumn_666" transform="translate(360.000000, 60.000000)">
                <rect id="矩形" x="0" y="0" width="16" height="16"></rect>
                <path d="M12.0609756,2.5 C12.5707317,2.5 13,2.93243244 13,3.44594595 L13,3.44594595 L13,8.5 L12.195,8.5 L12.195122,3.44594595 C12.195122,3.38108108 12.1607805,3.33351351 12.1058342,3.31708108 L12.0609756,3.31081081 L7.90243902,3.31081081 L7.90243902,11.6891892 L9,11.689 L9,12.5 L2.93902438,12.5 C2.46567944,12.5 2.06173469,12.1271373 2.00644333,11.6627236 L2,11.5540541 L2,3.44594595 C2,2.93243244 2.42926829,2.5 2.93902438,2.5 L2.93902438,2.5 Z M7.09756098,3.31081081 L2.93902438,3.31081081 C2.85853659,3.31081081 2.80487805,3.36486487 2.80487805,3.44594595 L2.80487805,3.44594595 L2.80487805,11.5540541 C2.80487805,11.6351351 2.85853658,11.6891892 2.93902438,11.6891892 L2.93902438,11.6891892 L7.09756098,11.6891892 L7.09756098,3.31081081 Z" id="形状结合" stroke="#666666" stroke-width="0.2" fill="currentColor" fill-rule="nonzero"></path>
                <path d="M14.6614035,11.5614035 L13.0385965,11.5614035 L13.0385965,9.94166667 C13.0385965,9.70043859 12.8412281,9.5 12.6,9.5 C12.3587719,9.5 12.1614035,9.7004386 12.1614035,9.94166667 L12.1614035,11.5614035 L10.5385965,11.5614035 C10.2973684,11.5614035 10.1,11.7587719 10.1,12 C10.1,12.2412281 10.2973684,12.4385965 10.5385965,12.4385965 L12.1614035,12.4385965 L12.1614035,14.0583333 C12.1614035,14.2995614 12.3587719,14.5 12.6,14.5 C12.8412281,14.5 13.0385965,14.2995614 13.0385965,14.0583333 L13.0385965,12.4385965 L14.6614035,12.4385965 C14.9026316,12.4385965 15.1,12.2412281 15.1,12 C15.1,11.7587719 14.9026316,11.5614035 14.6614035,11.5614035 Z" id="路径" stroke="#666666" stroke-width="0.2" fill="currentColor" fill-rule="nonzero"></path>
            </g>
        </g>
    </g>
</svg>