<?xml version="1.0" encoding="UTF-8"?>
<svg width="36px" height="36px" viewBox="0 0 36 36" version="1.1" xmlns="http://www.w3.org/2000/svg" xmlns:xlink="http://www.w3.org/1999/xlink">
    <title>Arrow_左@1x</title>
    <g id="PC-Web" stroke="none" stroke-width="1" fill="none" fill-rule="evenodd">
        <g id="06--普通用户使用VIP筛选条件弹窗" transform="translate(-633.000000, -596.000000)">
            <g id="Arrow_左" transform="translate(651.000000, 614.000000) scale(-1, -1) rotate(270.000000) translate(-651.000000, -614.000000) translate(633.000000, 596.000000)">
                <rect id="矩形" x="0" y="0" width="36" height="36"></rect>
                <path d="M18.0314286,24.2222222 C17.78,24.2222222 17.5285714,24.1580636 17.34,23.9655876 L7.28285714,13.7002041 C6.90571429,13.3152523 6.90571429,12.7378244 7.28285714,12.3528725 C7.66,11.9679207 8.22571429,11.9679207 8.60285714,12.3528725 L18.0314286,21.9125109 L27.3971429,12.2887139 C27.7742857,11.903762 28.34,11.903762 28.7171429,12.2887139 C29.0942857,12.6736658 29.0942857,13.2510936 28.7171429,13.6360455 L18.66,23.901429 C18.5342857,24.1580636 18.2828571,24.2222222 18.0314286,24.2222222 Z" id="路径" fill="#FFFFFF" fill-rule="nonzero"></path>
            </g>
        </g>
    </g>
</svg>