<?xml version="1.0" encoding="UTF-8"?>
<svg width="16px" height="16px" viewBox="0 0 16 16" version="1.1" xmlns="http://www.w3.org/2000/svg" xmlns:xlink="http://www.w3.org/1999/xlink">
    <title>方向键向下备份@3x</title>
    <g id="PC-Web" stroke="none" stroke-width="1" fill="none" fill-rule="evenodd">
        <g id="02--招投标查询" transform="translate(-196.000000, -267.000000)">
            <g id="方向键向下备份" transform="translate(196.000000, 267.000000)">
                <rect id="矩形" fill="#D8D8D8" opacity="0" x="0" y="0" width="16" height="16"></rect>
                <path d="M13.5541197,7.14285714 L12.1752615,7.14285714 C12.0890661,7.14285714 12.0064011,7.17897949 11.9454518,7.24327768 L8.23186957,11.1609029 C8.10494917,11.2947969 7.89917056,11.2947969 7.77225016,11.1609029 L4.05866793,7.24327768 C3.9977186,7.17897949 3.91505358,7.14285714 3.82885822,7.14285714 L2.45,7.14285714 C2.27050746,7.14285714 2.125,7.29635951 2.125,7.48571429 C2.125,7.57664565 2.15924097,7.66385271 2.2201903,7.7281509 L7.77225016,13.585269 C7.89917056,13.719163 8.10494917,13.719163 8.23186957,13.585269 L13.7839294,7.7281509 C13.9108498,7.59425685 13.9108498,7.37717172 13.7839294,7.24327768 C13.7229801,7.17897949 13.6403151,7.14285714 13.5541197,7.14285714 Z M13.5541197,2 L12.1752615,2 C12.0890661,2 12.0064011,2.03612235 11.9454518,2.10042053 L8.23186957,6.01804575 C8.10494917,6.15193979 7.89917056,6.15193979 7.77225016,6.01804575 L4.05866793,2.10042053 C3.9977186,2.03612235 3.91505358,2 3.82885822,2 L2.45,2 C2.27050746,2 2.125,2.15350237 2.125,2.34285714 C2.125,2.43378851 2.15924097,2.52099557 2.2201903,2.58529375 L7.77225016,8.44241185 C7.89917056,8.57630589 8.10494917,8.57630589 8.23186957,8.44241185 L13.7839294,2.58529375 C13.9108498,2.45139971 13.9108498,2.23431458 13.7839294,2.10042053 C13.7229801,2.03612235 13.6403151,2 13.5541197,2 Z" id="形状" fill="#3355FF" fill-rule="nonzero"></path>
            </g>
        </g>
    </g>
</svg>