<?xml version="1.0" encoding="UTF-8"?>
<svg width="38px" height="38px" viewBox="0 0 38 38" version="1.1" xmlns="http://www.w3.org/2000/svg" xmlns:xlink="http://www.w3.org/1999/xlink">
    <title>关闭 @1x</title>
    <g id="PC-Web" stroke="none" stroke-width="1" fill="none" fill-rule="evenodd">
        <g id="06--普通用户使用VIP筛选条件弹窗" transform="translate(-701.000000, -595.000000)">
            <g id="关闭-" transform="translate(702.000000, 596.000000)">
                <circle id="椭圆形" stroke="#FFFFFF" stroke-width="1.2" cx="18" cy="18" r="18"></circle>
                <g id="Icon/winclose_666" transform="translate(7.714286, 7.714286)">
                    <rect id="矩形" x="0" y="0" width="20.5714286" height="20.5714286"></rect>
                    <path d="M17.8032361,17.8052866 L17.8032361,17.8052866 C17.5436532,18.0649045 17.1220905,18.0649045 16.8625076,17.8052866 L10.2857143,11.227608 L3.70684434,17.8052866 C3.4472614,18.0649045 3.02569871,18.0649045 2.76611577,17.8052866 L2.76611577,17.8052866 C2.50653284,17.5456687 2.50653284,17.1240493 2.76611577,16.8644314 L9.34498572,10.2867528 L2.76819244,3.70699718 C2.5086095,3.4473793 2.5086095,3.02575986 2.76819244,2.76614198 L2.76819244,2.76614198 C3.02777537,2.5065241 3.44933806,2.5065241 3.708921,2.76614198 L10.2857143,9.34589756 L16.8645842,2.76821893 C17.1241672,2.50860104 17.5457299,2.50860104 17.8053128,2.76821893 L17.8053128,2.76821893 C18.0648957,3.02783681 18.0648957,3.44945624 17.8053128,3.70907413 L11.2264428,10.2867528 L17.8032361,16.8665083 C18.0628191,17.1261262 18.0628191,17.5456687 17.8032361,17.8052866 L17.8032361,17.8052866 Z" id="Shape" stroke="#FFFFFF" stroke-width="0.5" fill="#FFFFFF" transform="translate(10.285714, 10.285714) scale(1, -1) translate(-10.285714, -10.285714) "></path>
                </g>
            </g>
        </g>
    </g>
</svg>