<?xml version="1.0" encoding="UTF-8"?>
<svg width="16px" height="16px" viewBox="0 0 16 16" version="1.1" xmlns="http://www.w3.org/2000/svg" xmlns:xlink="http://www.w3.org/1999/xlink">
    <title>Icon/Bad_666@1x</title>
    <g id="PC" stroke="none" stroke-width="1" fill="none" fill-rule="evenodd">
        <g id="11-新企发现" transform="translate(-1154.000000, -80.000000)">
            <g id="Icon/Bad_666" transform="translate(1154.000000, 80.000000)">
                <rect id="矩形" x="0" y="0" width="16" height="16"></rect>
                <g id="bad" transform="translate(2.000000, 2.000000)" fill="currentColor" fill-rule="nonzero">
                    <path d="M11.9724486,6.43431636 L11.2142988,1.35120643 C11.0879405,0.579088472 10.3929699,0 9.63482014,0 L1.61106828,0 C0.726560212,0 2.10428836e-16,0.707774794 2.10428836e-16,1.60857909 L2.10428836e-16,5.50134048 C2.10428836e-16,6.36997319 0.726560212,7.10991958 1.61106828,7.10991958 L2.96941997,7.10991958 L4.83320485,11.3565684 C4.86479442,11.38874 4.86479442,11.4209115 4.89638401,11.4530831 C5.11751102,11.8069705 5.46499634,12 5.84407123,12 C6.03360868,12 6.22314613,11.9356568 6.41268357,11.8391421 C7.26560207,11.3243968 7.70785612,10.7453083 7.7078561,10.0697051 L7.7078561,8.3002681 L10.4245595,8.3002681 C10.8984031,8.3002681 11.3090676,8.10723861 11.6249633,7.7533512 C11.9092695,7.36729222 12.0672174,6.91689007 11.9724486,6.43431636 Z M2.84306168,6.11260053 L1.61106828,6.11260053 C1.23199339,6.11260053 0.947687226,5.8230563 0.947687226,5.46916891 L0.947687226,1.60857909 C0.947687226,1.25469169 1.23199339,0.965147453 1.61106828,0.965147453 L2.84306168,0.965147453 L2.84306168,6.11260053 L2.84306168,6.11260053 Z M10.8984031,7.10991958 C10.7720448,7.2386059 10.5825074,7.33512065 10.3929699,7.33512065 L7.23401249,7.33512065 C6.98129589,7.33512065 6.76016888,7.56032171 6.76016888,7.81769437 L6.76016888,10.0697051 C6.76016888,10.4557641 6.31791483,10.8096515 5.93883996,11.0348525 C5.8756608,11.0670241 5.78089208,11.0670241 5.71771293,10.9705094 L3.79074891,6.59517426 L3.79074891,0.965147453 L9.63482014,0.965147453 C9.95071588,0.965147453 10.235022,1.19034852 10.2666116,1.51206435 L11.056351,6.59517426 C11.0879405,6.75603217 11.0247614,6.94906167 10.8984031,7.10991958 Z" id="形状"></path>
                </g>
            </g>
        </g>
    </g>
</svg>