<?xml version="1.0" encoding="UTF-8"?>
<svg width="32px" height="32px" viewBox="0 0 27 25" version="1.1" xmlns="http://www.w3.org/2000/svg" xmlns:xlink="http://www.w3.org/1999/xlink">
    <title>最终受益人</title>
    <g id="图谱平台" stroke="none" stroke-width="1" fill="none" fill-rule="evenodd">
        <g id="最终受益人" fill="#2277A2" fill-rule="nonzero">
            <path d="M10.4347826,0 C13.7739131,0 16.4637681,2.68985506 16.4637681,6.0289855 C16.4637681,8.16231884 15.3507247,10.0637681 13.6347826,11.1304348 C15.768116,11.7797102 17.6231884,13.0782609 18.9217391,14.7942029 C18.5043478,14.9797102 18.0869565,15.257971 17.7623188,15.5826087 C16.0927536,13.4492754 13.4492754,12.057971 10.4347826,12.057971 C5.42608697,12.057971 1.39130434,15.9072464 1.39130434,20.6376812 C1.39130434,21.0086957 1.06666666,21.3333333 0.695652187,21.3333333 C0.324637719,21.3333333 -1.77635684e-15,21.0086957 -1.77635684e-15,20.6376812 C-1.77635684e-15,16.1855073 3.06086956,12.4289855 7.23478262,11.1304348 C5.51884059,10.0637681 4.40579712,8.16231884 4.40579709,6.0289855 C4.40579709,2.68985506 7.09565216,0 10.4347826,0 L10.4347826,0 Z M10.4347826,1.39130434 C7.884058,1.39130434 5.79710144,3.47826088 5.79710144,6.0289855 C5.79710144,8.57971013 7.88405797,10.6666667 10.4347826,10.6666667 C12.9855073,10.6666667 15.0724638,8.57971013 15.0724638,6.0289855 C15.0724638,3.47826088 12.9855072,1.39130434 10.4347826,1.39130434 Z" id="形状"></path>
            <path d="M20.8695652,13.4492754 C23.9304348,13.4492754 26.4347826,15.9536232 26.4347826,19.0144928 C26.4347826,22.0753623 23.9304348,24.5797102 20.8695652,24.5797102 C17.8086956,24.5797102 15.3043478,22.0753623 15.3043478,19.0144928 C15.3043478,15.9536232 17.8086957,13.4492754 20.8695652,13.4492754 Z M20.8695652,14.3768116 C18.3188406,14.3768116 16.2318841,16.4637681 16.2318841,19.0144928 C16.2318841,21.5652174 18.3188406,23.6521739 20.8695652,23.6521739 C23.4202898,23.6521739 25.5072464,21.5652174 25.5072464,19.0144928 C25.5072464,16.4637681 23.4202898,14.3768116 20.8695652,14.3768116 Z" id="形状"></path>
            <path d="M22.3536232,16.1391304 C22.5391304,15.9536232 22.7710145,15.9536232 22.9101449,16.1391304 C23.0956522,16.3246377 23.0956522,16.5565218 22.9101449,16.6956522 L21.7971014,17.8086957 L22.9565217,17.8086957 C23.1884058,17.8086957 23.3739131,17.9942029 23.3739131,18.226087 C23.3739131,18.457971 23.1884058,18.6434783 22.9565217,18.6434783 L21.2869565,18.6434783 L21.2869565,19.4782609 L22.9565217,19.4782609 C23.1884058,19.4782609 23.3739131,19.6637681 23.3739131,19.8956522 C23.3739131,20.1275363 23.1884058,20.3130435 22.9565217,20.3130435 L21.2869565,20.3130435 L21.2869565,21.9826087 C21.2869565,22.2144928 21.1014493,22.4 20.8695652,22.4 C20.6376812,22.4 20.4521739,22.2144928 20.4521739,21.9826087 L20.4521739,20.3130435 L18.7826087,20.3130435 C18.5507246,20.3130435 18.3652174,20.1275362 18.3652174,19.8956522 C18.3652174,19.6637682 18.5507247,19.4782609 18.7826087,19.4782609 L20.4521739,19.4782609 L20.4521739,18.6434783 L18.7826087,18.6434783 C18.5507246,18.6434783 18.3652174,18.457971 18.3652174,18.226087 C18.3652174,17.9942029 18.5507247,17.8086957 18.7826087,17.8086957 L19.942029,17.8086957 L18.8289855,16.6956522 C18.6434782,16.5101449 18.6434782,16.2782609 18.8289855,16.1391304 C19.0144927,15.9536232 19.2463768,15.9536232 19.3855072,16.1391304 L20.8695652,17.6231884 L22.3536232,16.1391304 L22.3536232,16.1391304 Z" id="路径"></path>
        </g>
    </g>
</svg>