<?xml version="1.0" encoding="UTF-8"?>
<svg width="16px" height="16px" viewBox="0 0 16 16" version="1.1" xmlns="http://www.w3.org/2000/svg" xmlns:xlink="http://www.w3.org/1999/xlink">
    <title>Icon/找客户_999@1x</title>
    <g id="PC-Web" stroke="none" stroke-width="1" fill="none" fill-rule="evenodd">
        <g id="01--有通知时展示小红点" transform="translate(-20.000000, -117.000000)">
            <g id="Icon/找客户_999" transform="translate(20.000000, 117.000000)">
                <rect id="矩形" x="0" y="0" width="16" height="16"></rect>
                <path d="M13.8839837,13.2258064 L11.22651,10.5756824 C12.0028506,9.68238214 12.4507394,8.49131514 12.4507394,7.21091811 C12.4507394,4.35235732 10.0918583,2 7.22536972,2 C4.35888117,2 2,4.38213399 2,7.24069478 C2,10.0992556 4.35888118,12.4516129 7.22536972,12.4516129 C8.5093177,12.4516129 9.67382867,11.9751861 10.5994656,11.2307692 L13.2569393,13.8808933 C13.3465171,13.9702233 13.4659541,14 13.5853912,14 C13.7048282,14 13.8242652,13.9702233 13.913843,13.8808933 C14.03328,13.7022333 14.03328,13.4044665 13.8839837,13.2258064 Z M7.22536972,11.5583127 C4.83662928,11.5583127 2.89577767,9.62282878 2.89577767,7.24069478 C2.89577767,4.85856078 4.83662928,2.92307692 7.22536972,2.92307692 C9.61411015,2.92307692 11.5549618,4.8585608 11.5549618,7.24069478 C11.5549618,9.62282877 9.61411017,11.5583127 7.22536972,11.5583127 Z" id="形状" stroke="#666666" stroke-width="0.2" fill="#666666" fill-rule="nonzero"></path>
            </g>
        </g>
    </g>
</svg>