<?xml version="1.0" encoding="UTF-8"?>
<svg width="16px" height="16px" viewBox="0 0 16 16" version="1.1" xmlns="http://www.w3.org/2000/svg" xmlns:xlink="http://www.w3.org/1999/xlink">
    <title>电话@1x</title>
    <g id="PC-Web" stroke="none" stroke-width="1" fill="none" fill-rule="evenodd">
        <g id="电话">
            <rect id="矩形备份-235" x="0" y="0" width="16" height="16"></rect>
            <g transform="translate(1.500000, 1.500000)" id="Path" stroke="#3355FF" stroke-linecap="round" stroke-linejoin="round">
                <path d="M0,3.57719681 C0.408710908,5.11992523 1.57004216,7.18244821 3.64460734,9.23337889 C7.16793972,12.6827272 10.7252811,13.5957437 11.6832736,12.6489526 C12.5041932,11.8373972 13.9750874,10.8227826 12.0595171,9.33490807 C10.1778864,7.84710252 9.63097447,8.59110719 8.80977899,9.40266263 L8.80977899,9.40266263 C8.1942268,10.0112271 6.68904656,8.76011896 5.42317459,7.47503161 C4.12343115,6.19014844 2.85824919,4.66822657 3.47373202,4.12721246 C4.32886794,3.28222257 5.0472073,2.77457473 3.54209602,0.914629795 C2.03698455,-0.944974586 1.01069708,0.475145161 0.190053335,1.28670051" stroke-width="1.1"></path>
                <path d="M9.87525012,4.13565132 C9.87393049,3.59607959 9.61216658,3.11910641 9.21388705,2.83344257" stroke-width="1.3" opacity="0.5" transform="translate(9.544569, 3.484547) rotate(-11.000000) translate(-9.544569, -3.484547) "></path>
                <path d="M11.5706349,4.78379751 C11.6781272,4.41397221 11.7360657,4.01645667 11.7350662,3.6024362 C11.731271,2.0560055 10.9061572,0.735871341 9.75226369,0.227266376" stroke-width="1.3" opacity="0.5" transform="translate(10.743665, 2.505532) rotate(-11.000000) translate(-10.743665, -2.505532) "></path>
            </g>
        </g>
    </g>
</svg>