<?xml version="1.0" encoding="UTF-8"?>
<svg width="16px" height="16px" viewBox="0 0 16 16" version="1.1" xmlns="http://www.w3.org/2000/svg" xmlns:xlink="http://www.w3.org/1999/xlink">
    <title>Icon/Post_666@1x</title>
    <g id="PC" stroke="none" stroke-width="1" fill="none" fill-rule="evenodd">
        <g id="05-名单页" transform="translate(-572.000000, -60.000000)">
            <g id="Icon/Post_666" transform="translate(572.000000, 60.000000)">
                <rect id="矩形" x="0" y="0" width="16" height="16"></rect>
                <path d="M10.2513265,13.2411451 C10.4603557,13.3754572 10.7226519,13.4044344 10.9572404,13.319131 C11.191829,13.2338276 11.3704991,13.044502 11.4380927,12.8096017 L14.3580674,2.75686725 C14.5226105,2.19248055 14.1883717,1.60458933 13.6100194,1.4411288 C13.3596831,1.37103282 13.0918194,1.39101192 12.8553516,1.49741707 L1.85790397,6.4425767 C1.59812851,6.55943325 1.42373059,6.80424776 1.40223482,7.08223121 C1.38073905,7.36021467 1.51552026,7.6277237 1.75439292,7.78118228 L4.04969036,9.25581787 C4.1933167,9.35135422 4.37866125,9.3639994 4.53455194,9.28889769 C4.69044262,9.21379598 4.79264581,9.06262213 4.8019156,8.89342672 C4.81118538,8.72423132 4.72608076,8.56331623 4.57928179,8.47247268 L2.54637285,7.16611559 L13.2585633,2.34936358 C13.2853146,2.33722884 13.3156699,2.33493783 13.3440201,2.34291388 C13.4124732,2.36376188 13.4512507,2.43411191 13.4312823,2.50122467 L10.5781085,12.3276333 L8.54098684,11.0183445 C8.26967168,10.8438375 7.90515107,10.9108174 7.71771288,11.1696193 L6.60316362,12.7058202 L6.60316362,9.62345067 L10.8230445,6.23560001 C10.958551,6.12990031 11.0251648,5.96131498 10.9973888,5.79437163 C10.9696128,5.62742829 10.8517482,5.4879785 10.6889088,5.42939797 C10.5260693,5.37081743 10.3434711,5.4021775 10.2110053,5.5114748 L5.85993018,9.00486596 C5.7209443,9.11617422 5.64036226,9.28222891 5.64027011,9.45751752 L5.64027011,13.8139956 C5.64043721,14.0694251 5.81030739,14.2953592 6.06022052,14.3725463 C6.31013365,14.4497335 6.58257916,14.3604112 6.73375607,14.1517253 L8.30267069,11.988731 L10.2519283,13.2417314 L10.2513265,13.2411451 Z" id="路径" fill="currentColor" fill-rule="nonzero"></path>
            </g>
        </g>
    </g>
</svg>