<?xml version="1.0" encoding="UTF-8"?>
<svg width="8px" height="8px" viewBox="0 0 8 8" version="1.1" xmlns="http://www.w3.org/2000/svg" xmlns:xlink="http://www.w3.org/1999/xlink">
    <title>Icon/标签删除小_999@1x</title>
    <g id="PC" stroke="none" stroke-width="1" fill="none" fill-rule="evenodd">
        <g id="03-筛选条件2--搜索-已填写（填写框颜色变色）" transform="translate(-648.000000, -380.000000)">
            <g id="Icon/标签删除小_999" transform="translate(648.000000, 380.000000)">
                <rect id="矩形" x="0" y="0" width="8" height="8"></rect>
                <path d="M5.93623393,6.43689843 L5.93623393,6.43689843 C5.85210983,6.52103386 5.71549229,6.52103386 5.63136819,6.43689843 L3.5,4.30524332 L1.36795881,6.43689843 C1.28383471,6.52103386 1.14721717,6.52103386 1.06309307,6.43689843 L1.06309307,6.43689843 C0.978968975,6.35276301 0.978968975,6.21612708 1.06309307,6.13199165 L3.19513426,4.00033654 L1.06376607,1.86800835 C0.979641968,1.78387292 0.979641968,1.64723699 1.06376607,1.56310157 L1.06376607,1.56310157 C1.14789017,1.47896614 1.28450771,1.47896614 1.36863181,1.56310157 L3.5,3.69542976 L5.63204119,1.56377465 C5.71616529,1.47963923 5.85278283,1.47963923 5.93690693,1.56377465 L5.93690693,1.56377465 C6.02103102,1.64791008 6.02103102,1.78454601 5.93690693,1.86868143 L3.80486574,4.00033654 L5.93623393,6.13266474 C6.02035803,6.21680016 6.02035803,6.35276301 5.93623393,6.43689843 L5.93623393,6.43689843 Z" id="Shape" stroke="#999999" stroke-width="0.4" fill="#999999" transform="translate(3.500000, 4.000000) scale(1, -1) translate(-3.500000, -4.000000) "></path>
            </g>
        </g>
    </g>
</svg>