<?xml version="1.0" encoding="UTF-8"?>
<svg width="24px" height="24px" viewBox="0 0 24 24" version="1.1" xmlns="http://www.w3.org/2000/svg" xmlns:xlink="http://www.w3.org/1999/xlink">
    <title>Icon/未关注_ccc@1x</title>
    <g id="APP" stroke="none" stroke-width="1" fill="none" fill-rule="evenodd">
        <g id="03-首页-有订阅" transform="translate(-327.000000, -891.000000)">
            <g id="Icon/未关注_ccc" transform="translate(327.000000, 891.000000)">
                <rect id="矩形" x="0" y="0" width="24" height="24"></rect>
                <path d="M20.6905165,9.08248552 C20.5136688,8.86430931 20.2483972,8.68976835 19.9831256,8.64613309 L15.1198133,7.94796923 L12.9534287,3.58444506 C12.8207929,3.4099041 12.6439452,3.23536312 12.4228855,3.1044574 C12.1576139,2.97355167 11.8481304,2.97355167 11.5828588,3.06082216 C11.3175872,3.14809265 11.0965276,3.36626885 10.9638918,3.6280803 L8.79750721,7.99160446 L3.93419488,8.68976835 C3.71313522,8.73340358 3.49207559,8.82067407 3.31522785,8.99521503 C2.87310855,9.43156744 2.91732048,10.1297313 3.31522785,10.5224485 L6.85218229,13.9259974 L6.0121556,18.7258739 C5.96794367,18.9440501 6.0121556,19.2058616 6.14479139,19.4240378 C6.41006297,19.9476607 7.11745385,20.1658369 7.64799704,19.8603902 L12.0249781,17.5913577 L16.4019593,19.8603902 C16.578807,19.9476607 16.7556547,19.991296 16.9325024,19.991296 L17.1093501,19.991296 C17.4188336,19.9476607 17.6398933,19.7731197 17.816741,19.5549435 C17.9935887,19.3367673 18.0378007,19.0313206 17.9935887,18.7258739 L17.1535621,13.9259974 L20.6905165,10.5224485 C20.8673642,10.3479075 21,10.1297313 21,9.91155511 C20.9557881,9.60610842 20.8673642,9.34429697 20.6905165,9.08248552 Z M16.2246269,13.0756372 C15.950597,13.3457464 15.8135821,13.7058921 15.9049254,14.0660377 L16.7270149,18.6578947 L11.9771642,16.2269116 L7.22731343,18.6578947 L8.04940298,14.0660377 C8.09507462,13.7058921 8.00373135,13.3457464 7.7297015,13.0756372 L4.35,9.83432639 L9.05417912,9.1590533 C9.41955226,9.1140351 9.73925374,8.88894407 9.9219403,8.52879841 L11.9771642,4.34210526 L14.0780597,8.52879841 C14.2607463,8.84392585 14.5804478,9.11403508 14.9458209,9.1590533 L19.65,9.83432639 L16.2246269,13.0756372 Z" id="形状" fill="currentColor" fill-rule="nonzero"></path>
            </g>
        </g>
    </g>
</svg>