<?xml version="1.0" encoding="UTF-8"?>
<svg width="16px" height="16px" viewBox="0 0 16 16" version="1.1" xmlns="http://www.w3.org/2000/svg" xmlns:xlink="http://www.w3.org/1999/xlink">
    <title>Icon/Tel_Pri@1x</title>
    <g id="PC" stroke="none" stroke-width="1" fill="none" fill-rule="evenodd">
        <g id="06-名单页-重命名" transform="translate(-608.000000, -419.000000)">
            <g id="Icon/Tel_Pri" transform="translate(608.000000, 419.000000)">
                <rect id="矩形" x="0" y="0" width="16" height="16"></rect>
                <path d="M13.4401018,9.32432433 C12.8714135,9.24864865 12.3027252,9.0972973 11.7340369,8.90810811 C11.0516109,8.64324325 10.2933598,8.83243243 9.76258402,9.32432433 L9.26972082,9.81621621 C8.01860651,9.02162162 6.95705499,8 6.19880389,6.75135135 L6.69166709,6.25945947 C7.1845303,5.72972973 7.37409308,4.97297299 7.1087052,4.29189189 C6.91914242,3.76216215 6.76749221,3.19459459 6.69166709,2.58918919 C6.57792943,1.68108108 5.78176578,1 4.83395192,1 L2.90041163,1 C2.33172331,1 1.8388601,1.22702703 1.49764711,1.60540542 C1.15643412,1.98378379 0.96687134,2.51351352 1.00478389,3.04324324 C1.23225922,5.12432431 1.95259775,7.12972972 3.08997441,8.87027028 C4.11361339,10.4972973 5.5163779,11.8972973 7.14661775,12.9189189 C8.89059526,14.054054 10.8999607,14.772973 12.9851512,15 L13.1368014,15 C13.5917521,15 14.0467027,14.8108108 14.3879157,14.5081081 C14.7670412,14.1675676 14.9945166,13.6378378 14.9945166,13.1459459 L14.9945166,11.2162162 C15.0703417,10.2702703 14.3500031,9.47567567 13.4401018,9.32432433 L13.4401018,9.32432433 Z M13.8950525,11.2162162 L13.8950525,13.1459459 C13.8950525,13.3351351 13.8192274,13.5621622 13.6675772,13.6756757 C13.515927,13.827027 13.3263642,13.8648649 13.1368014,13.8648649 C11.2411737,13.6756757 9.38345848,12.9945946 7.79113118,11.972973 C6.31254155,11.027027 5.0235147,9.74054053 4.07570082,8.26486486 C3.05206184,6.67567567 2.36963586,4.82162162 2.1800731,2.92972973 C2.1800731,2.74054053 2.21798564,2.51351351 2.36963586,2.36216216 C2.52128607,2.21081082 2.71084885,2.13513513 2.90041163,2.13513513 L4.83395192,2.13513513 C5.21307746,2.13513513 5.5163779,2.39999999 5.55429045,2.74054055 C5.63011557,3.3837838 5.81967833,4.06486488 6.04715367,4.67027028 C6.16089134,4.93513514 6.08506622,5.23783785 5.89550344,5.42702702 L5.06142725,6.25945947 C4.87186447,6.44864866 4.83395192,6.71351352 4.98560213,6.94054055 C5.97132856,8.64324325 7.37409308,10.0432432 9.08015804,11.027027 C9.30763337,11.1405405 9.57302124,11.1027027 9.76258402,10.9513513 L10.5966602,10.1189189 C10.786223,9.92972973 11.0895234,9.85405406 11.3549113,9.96756756 C11.9994248,10.1945946 12.6439382,10.3459459 13.2884516,10.4594595 C13.6296646,10.4972973 13.8950525,10.8 13.8950525,11.2162162 C13.8950525,11.1783784 13.8950525,11.1783784 13.8950525,11.2162162 L13.8950525,11.2162162 Z" id="形状" fill="#3355FF" fill-rule="nonzero"></path>
            </g>
        </g>
    </g>
</svg>