<?xml version="1.0" encoding="UTF-8"?>
<svg width="16px" height="16px" viewBox="0 0 16 16" version="1.1" xmlns="http://www.w3.org/2000/svg" xmlns:xlink="http://www.w3.org/1999/xlink">
    <title>Icon/winclose_666@1x</title>
    <g id="PC" stroke="none" stroke-width="1" fill="none" fill-rule="evenodd">
        <g id="15-相似客户-初始" transform="translate(-935.000000, -180.000000)">
            <g id="Icon/winclose_666" transform="translate(935.000000, 180.000000)">
                <rect id="矩形" x="0" y="0" width="16" height="16"></rect>
                <path d="M13.8469614,13.8485562 L13.8469614,13.8485562 C13.6450636,14.0504813 13.3171815,14.0504813 13.1152837,13.8485562 L8,8.73258397 L2.88310115,13.8485562 C2.68120331,14.0504813 2.35332122,14.0504813 2.15142338,13.8485562 L2.15142338,13.8485562 C1.94952554,13.6466312 1.94952554,13.318705 2.15142338,13.11678 L7.26832223,8.0008077 L2.15303856,2.88322003 C1.95114072,2.68129501 1.95114072,2.35336878 2.15303856,2.15144376 L2.15303856,2.15144376 C2.3549364,1.94951875 2.68281849,1.94951875 2.88471633,2.15144376 L8,7.26903143 L13.1168988,2.15305916 C13.3187967,1.95113415 13.6466788,1.95113415 13.8485766,2.15305916 L13.8485766,2.15305916 C14.0504745,2.35498418 14.0504745,2.68291041 13.8485766,2.88483543 L8.73167777,8.0008077 L13.8469614,13.1183954 C14.0488593,13.3203204 14.0488593,13.6466312 13.8469614,13.8485562 L13.8469614,13.8485562 Z" id="Shape" stroke="#666666" stroke-width="0.72" fill="#666666" transform="translate(8.000000, 8.000000) scale(1, -1) translate(-8.000000, -8.000000) "></path>
            </g>
        </g>
    </g>
</svg>