<?xml version="1.0" encoding="UTF-8"?>
<svg width="18px" height="18px" viewBox="0 0 18 18" version="1.1" xmlns="http://www.w3.org/2000/svg" xmlns:xlink="http://www.w3.org/1999/xlink">
    <title>RimeIcon/Colored/Nlp/Ai</title>
    <defs>
        <linearGradient x1="-1.42247325e-13%" y1="100%" x2="93.9903846%" y2="100%" id="linearGradient-1">
            <stop stop-color="#17D9CB" offset="0%"></stop>
            <stop stop-color="#00AEC7" offset="50.3824301%"></stop>
            <stop stop-color="#567DFF" offset="100%"></stop>
        </linearGradient>
        <linearGradient x1="40.0724158%" y1="-15.7748446%" x2="40.0724158%" y2="100%" id="linearGradient-2">
            <stop stop-color="#19D9FE" offset="0%"></stop>
            <stop stop-color="#B388E8" offset="100%"></stop>
        </linearGradient>
        <linearGradient x1="-5.55054804%" y1="-19.6051569%" x2="80.4770063%" y2="99.0917222%" id="linearGradient-3">
            <stop stop-color="#00AEC7" offset="0%"></stop>
            <stop stop-color="#17D9CB" offset="59.1732852%"></stop>
            <stop stop-color="#A166EA" offset="100%"></stop>
        </linearGradient>
        <linearGradient x1="0.532832769%" y1="100%" x2="93.9903846%" y2="100%" id="linearGradient-4">
            <stop stop-color="#2DAAFF" offset="0%"></stop>
            <stop stop-color="#3AEAF3" offset="100%"></stop>
        </linearGradient>
        <linearGradient x1="122.920264%" y1="50%" x2="12.0763597%" y2="98.1889726%" id="linearGradient-5">
            <stop stop-color="#A45AFF" offset="0%"></stop>
            <stop stop-color="#16EBFF" offset="35.6663815%"></stop>
            <stop stop-color="#2C80FC" offset="100%"></stop>
        </linearGradient>
        <linearGradient x1="96.9937879%" y1="64.7136581%" x2="12.0763597%" y2="98.1897505%" id="linearGradient-6">
            <stop stop-color="#A45AFF" offset="0%"></stop>
            <stop stop-color="#16EBFF" offset="35.6663815%"></stop>
            <stop stop-color="#2C80FC" offset="100%"></stop>
        </linearGradient>
    </defs>
    <g id="RimeIcon/Colored/Nlp/Ai" stroke="none" stroke-width="1" fill="none" fill-rule="evenodd">
        <g id="编组" transform="translate(2.000000, 2.000000)">
            <path d="M-1.15171473,6.76084852 L7.81484557,6.76980844 C8.5524983,6.77054555 9.15094267,7.36713047 9.15397532,8.10477733 C9.156988,8.83756977 8.56538463,9.43405767 7.8325922,9.43707036 C7.83033194,9.43707965 7.82807166,9.43708317 7.82581138,9.43708091 L-1.14074892,9.42812099 C-1.87840165,9.42738389 -2.47684602,8.83079896 -2.47987866,8.0931521 C-2.48289135,7.36035967 -1.89128798,6.76387176 -1.15849555,6.76085907 C-1.15623529,6.76084978 -1.15397501,6.76084626 -1.15171473,6.76084852 Z" id="矩形" fill="url(#linearGradient-1)" transform="translate(3.337048, 8.098965) rotate(-69.000000) translate(-3.337048, -8.098965) "></path>
            <path d="M12.0764519,4.11686588 C12.8633419,4.11686588 13.5012422,4.75476623 13.5012422,5.5416562 L13.5012422,12.030811 C13.5012422,12.817701 12.8633419,13.4556013 12.0764519,13.4556013 C11.2895619,13.4556013 10.6516616,12.817701 10.6516616,12.030811 L10.6516616,5.5416562 C10.6516616,4.75476623 11.2895619,4.11686588 12.0764519,4.11686588 Z" id="矩形" fill="url(#linearGradient-2)"></path>
            <path d="M6.4375293,1.93169933 L6.47090452,1.94199061 L6.49929179,1.94942166 L6.54555782,1.96814069 C7.17401509,2.19865264 7.72089713,2.727146 8.18620395,3.55362075 L8.20503086,3.58730381 C8.31754061,3.79005204 8.42523546,4.01038833 8.52811542,4.24831268 L11.2517349,9.82440141 L11.3067349,9.93940141 L11.5690689,10.4755587 C12.2618734,11.8073645 12.9059318,12.3570238 13.5012441,12.1245365 L13.4947349,12.1454014 L13.4787411,12.2812941 C13.4260018,12.5804688 13.2813013,12.8599294 13.0446395,13.119676 C12.7141499,13.5398877 12.2421287,13.7812509 11.6291254,13.8449298 C11.5455336,13.8536133 11.4622322,13.8545326 11.3792211,13.8476876 C10.6986069,13.7644344 10.0414631,13.1973243 9.40780877,12.1447976 L9.37759829,12.0819013 C9.17047192,11.723358 8.96538176,11.3103525 8.76232783,10.8428849 L5.94273489,5.12825711 L5.93073489,5.10325711 L5.92516164,5.09192941 C5.88747308,5.01563762 5.85566724,4.9376004 5.82965155,4.85840606 C5.60596676,4.34845874 5.30439831,4.01136649 4.9274529,3.84467575 C4.48632021,3.64960046 3.97408087,3.81060909 3.39073489,4.32770164 C3.71723009,2.75457017 4.42233587,1.9285099 5.50605223,1.84952084 L5.46893211,1.85378049 C5.81036993,1.81191253 6.13323566,1.83788547 6.4375293,1.93169933 Z" id="形状结合" fill="url(#linearGradient-3)"></path>
            <path d="M1.5501649,11.2062243 L5.34688317,11.2062243 C6.07554159,11.2062243 6.66623595,11.7969186 6.66623595,12.525577 C6.66623595,13.2542355 6.07554159,13.8449298 5.34688317,13.8449298 L1.5501649,13.8449298 C0.821506482,13.8449298 0.230812123,13.2542355 0.230812123,12.525577 C0.230812123,11.7969186 0.821506482,11.2062243 1.5501649,11.2062243 Z" id="矩形" fill="url(#linearGradient-4)"></path>
            <path d="M10.3819584,2.47518974 C11.5483387,2.47844889 12.1486682,1.8905619 12.1829469,0.711528769 C12.2428982,1.96187782 12.8371606,2.55368763 13.9657342,2.48695822 C12.7631707,2.4808186 12.1697909,3.06176681 12.1855948,4.22980284 C12.1864698,3.65013195 12.03577,3.21326722 11.7334955,2.91920864 C11.2800838,2.47812076 10.3819584,2.47518974 10.3819584,2.47518974 Z" id="路径-28" fill="url(#linearGradient-5)" fill-rule="nonzero"></path>
            <path d="M7.94120343,1.2110408 C8.72810173,1.21307113 9.13320014,0.816363334 9.15649869,0.0209174009 C9.19676202,0.864463388 9.59759479,1.2636452 10.358997,1.21846284 C9.5476881,1.21449441 9.14727932,1.60651992 9.15777066,2.39453937 C9.1584457,2.00346119 9.05683994,1.70874983 8.85295338,1.5104053 C8.54712353,1.21288851 7.94120343,1.2110408 7.94120343,1.2110408 Z" id="路径-28" fill="url(#linearGradient-6)" fill-rule="nonzero" transform="translate(9.150100, 1.207728) rotate(1.000000) translate(-9.150100, -1.207728) "></path>
        </g>
    </g>
</svg>