<?xml version="1.0" encoding="UTF-8"?>
<svg width="36px" height="36px" viewBox="0 0 36 36" version="1.1" xmlns="http://www.w3.org/2000/svg" xmlns:xlink="http://www.w3.org/1999/xlink">
    <title>Icon/深度思考hover</title>
    <defs>
        <linearGradient x1="3.51994254%" y1="103.029003%" x2="96.6359761%" y2="-2.56269232%" id="linearGradient-1">
            <stop stop-color="#3862ED" offset="0%"></stop>
            <stop stop-color="#274CDA" offset="22.5770323%"></stop>
            <stop stop-color="#00AEC7" offset="63.5680726%"></stop>
            <stop stop-color="#12CBBE" offset="75.9506119%"></stop>
            <stop stop-color="#9D9AE3" offset="100%"></stop>
        </linearGradient>
    </defs>
    <g id="Icon/深度思考hover" stroke="none" stroke-width="1" fill="none" fill-rule="evenodd">
        <rect id="矩形" x="0" y="0" width="36" height="36"></rect>
        <path d="M25.7781746,9.22182541 C30.0739418,13.5175926 30.0739418,20.4824074 25.7781746,24.7781746 C25.1676319,25.3887173 24.5755155,26.7959924 24.0018254,29 L12,29 C11.7712263,27.1421258 11.1785015,25.7348507 10.2218254,24.7781746 C5.9260582,20.4824074 5.9260582,13.5175926 10.2218254,9.22182541 C14.5175926,4.9260582 21.4824074,4.9260582 25.7781746,9.22182541 Z M12.3449712,11.3367966 C9.22077682,14.4609909 9.2496285,19.4977258 12.3449712,22.6505051 C13.7007878,24.03148 14.5146916,25.1502584 14.7866826,26.0068403 L21.3618823,26.0068403 C21.8046702,24.8913807 22.5702693,23.7726022 23.6586797,22.6505051 C26.7349097,19.4790643 26.782874,14.4609909 23.6586797,11.3367966 C20.5344853,8.21260223 15.4691655,8.21260223 12.3449712,11.3367966 Z M18.6557787,11.3420466 L18.7614073,11.3568917 C22.4768372,12.0327932 24.2096388,14.3051025 23.8640517,18.0656652 L23.8393098,18.2417129 C23.8241756,18.4024509 23.7026428,18.5328153 23.5433593,18.5591696 L22.0469542,18.3488636 C21.8937851,18.326721 21.7725311,18.2080452 21.7471023,18.0553873 L21.76937,17.8969444 C22.0087396,15.3868973 21.2485926,14.2014221 18.8116516,13.5541569 L18.4292951,13.4645152 L18.3588761,13.4546185 C18.2057069,13.432476 18.0844529,13.3138001 18.0589631,13.1611336 L18.2717433,11.6471238 C18.2907279,11.4982285 18.4011222,11.377248 18.5476759,11.3448062 L18.6533045,11.3596514 L18.6557787,11.3420466 Z M5.59999999,15 C5.8209139,15 6,15.1790861 6,15.4 L6,17 C6,17.2209139 5.8209139,17.4 5.59999999,17.4 L2.40000001,17.4 C2.1790861,17.4 2,17.2209139 2,17 L2,15.4 C2,15.1790861 2.1790861,15 2.40000001,15 L5.59999999,15 Z M33.6,15 C33.8209139,15 34,15.1790861 34,15.4 L34,17 C34,17.2209139 33.8209139,17.4 33.6,17.4 L30.4,17.4 C30.1790861,17.4 30,17.2209139 30,17 L30,15.4 C30,15.1790861 30.1790861,15 30.4,15 L33.6,15 Z M6.71715729,5.22010102 L8.97989898,7.48284271 C9.1361087,7.63905243 9.1361087,7.89231842 8.97989898,8.04852814 L7.84852814,9.17989898 C7.69231842,9.3361087 7.43905243,9.3361087 7.28284271,9.17989898 L5.02010102,6.91715729 C4.8638913,6.76094757 4.8638913,6.50768158 5.02010102,6.35147186 L6.15147186,5.22010102 C6.30768158,5.0638913 6.56094757,5.0638913 6.71715729,5.22010102 Z M29.8485281,5.22010102 L30.979899,6.35147186 C31.1361087,6.50768158 31.1361087,6.76094757 30.979899,6.91715729 L28.7171573,9.17989898 C28.5609476,9.3361087 28.3076816,9.3361087 28.1514719,9.17989898 L27.020101,8.04852814 C26.8638913,7.89231842 26.8638913,7.63905243 27.020101,7.48284271 L29.2828427,5.22010102 C29.4390524,5.0638913 29.6923184,5.0638913 29.8485281,5.22010102 Z M17.2,1 L18.8,1 C19.0209139,1 19.2,1.1790861 19.2,1.40000001 L19.2,4.59999999 C19.2,4.8209139 19.0209139,5 18.8,5 L17.2,5 C16.9790861,5 16.8,4.8209139 16.8,4.59999999 L16.8,1.40000001 C16.8,1.1790861 16.9790861,1 17.2,1 Z M14.4,33.2 L21.6,33.2 C21.8209139,33.2 22,33.3790861 22,33.6 L22,34.6 C22,34.8209139 21.8209139,35 21.6,35 L14.4,35 C14.1790861,35 14,34.8209139 14,34.6 L14,33.6 C14,33.3790861 14.1790861,33.2 14.4,33.2 Z M12.4,30 L23.6,30 C23.8209139,30 24,30.1790861 24,30.4 L24,32 C24,32.2209139 23.8209139,32.4 23.6,32.4 L12.4,32.4 C12.1790861,32.4 12,32.2209139 12,32 L12,30.4 C12,30.1790861 12.1790861,30 12.4,30 Z" id="形状结合" fill="url(#linearGradient-1)"></path>
    </g>
</svg>