<svg viewBox="0 0 18 18" focusable="false" class="" data-icon="dis-like" width="18px" height="18px"
    fill="#707680" aria-hidden="true" version="1.1" xmlns="http://www.w3.org/2000/svg"
    xmlns:xlink="http://www.w3.org/1999/xlink">
    <defs>
        <linearGradient id="wicon-svg-effect-alice-hover" x1="0%" y1="0%" x2="100%" y2="85%">
            <stop offset="0%" stop-color="#5879fb" />
            <stop offset="85%" stop-color="#3ec0d3" />
        </linearGradient>
    </defs>
    <path
        d="M5.1 3.1v7.01a4.98 4.98 0 013.67 4.8c-.02.64.29 1 .83 1 .4 0 .74-.28.83-.66a4.25 4.25 0 00.13-1.27c0-.47-.1-1.01-.32-1.62l-.47-1.33a.1.1 0 01.08-.14H15c.36 0 .6-.14.78-.42.08-.13.17-.5.12-.68l-1.43-6.26a.76.76 0 00-.29-.3.92.92 0 00-.48-.13H5.1zm-1.2 0h-.8v6.8h.8V3.1zM15 12.1h-3.58a5.98 5.98 0 01.17 3.44c-.2.88-.98 1.58-2 1.58-1.2 0-2.07-.9-2.02-2.22.05-1.95-1.59-3.63-3.61-3.79H2.1a.2.2 0 01-.2-.2V2.1c0-.1.09-.2.2-.2h11.58c.4 0 .78.1 1.11.32.37.24.73.67.84 1.04l1.44 6.35a2.5 2.5 0 01-.28 1.49c-.4.63-1.02.99-1.8.99z"
        fill-rule="nonzero"></path>
</svg>