<svg viewBox="0 0 18 18" focusable="false" class="" data-icon="like" width="18px" height="18px"
    fill="#707680" aria-hidden="true" version="1.1" xmlns="http://www.w3.org/2000/svg"
    xmlns:xlink="http://www.w3.org/1999/xlink">
    <defs>
        <linearGradient id="wicon-svg-effect-alice-hover" x1="0%" y1="0%" x2="100%" y2="85%">
            <stop offset="0%" stop-color="#5879fb" />
            <stop offset="85%" stop-color="#3ec0d3" />
        </linearGradient>
    </defs>
    <path
        d="M5.1 14.9h8.59c.16 0 .34-.03.48-.12a.76.76 0 00.3-.31l1.42-6.25c.05-.19-.04-.55-.12-.68a.83.83 0 00-.78-.42H9.86a.1.1 0 01-.1-.14l.48-1.33a4.97 4.97 0 00.19-2.9.84.84 0 00-.83-.65c-.54 0-.85.35-.83.99a4.98 4.98 0 01-3.67 4.8v7.01zm-1.2 0V8.1h-.8v6.8h.8zM15 5.92c.77 0 1.4.35 1.79.99.23.37.35 1.02.28 1.49l-1.44 6.34c-.1.38-.47.81-.84 1.04-.33.22-.72.33-1.1.33L2.1 16.1a.2.2 0 01-.2-.2V7.1c0-.11.09-.2.2-.2h1.86c2.02-.15 3.66-1.84 3.61-3.78C7.52 1.79 8.4.9 9.6.9c1 0 1.79.7 2 1.58a5.41 5.41 0 01.16 1.54c0 .6-.12 1.23-.34 1.9h3.57z"
        fill-rule="nonzero"></path>
</svg>