<?xml version="1.0" encoding="UTF-8"?><svg version="1.1" width="18px" height="18px" viewBox="0 0 18.0 18.0" xmlns="http://www.w3.org/2000/svg" xmlns:xlink="http://www.w3.org/1999/xlink"><defs><clipPath id="i0"><path d="M1322,0 L1322,765 L0,765 L0,0 L1322,0 Z"></path></clipPath><clipPath id="i1"><path d="M8.05,0 C12.4958922,0 16.1,3.60410776 16.1,8.05 C16.1,12.4958922 12.4958922,16.1 8.05,16.1 C3.60410776,16.1 0,12.4958922 0,8.05 C0,3.60410776 3.60410776,0 8.05,0 Z M8.05,1.1 C4.21162099,1.1 1.1,4.21162099 1.1,8.05 C1.1,11.888379 4.21162099,15 8.05,15 C11.888379,15 15,11.888379 15,8.05 C15,4.21162099 11.888379,1.1 8.05,1.1 Z"></path></clipPath><clipPath id="i2"><path d="M6,0 C6.05522847,-5.0067271e-16 6.1,0.0447715257 6.1,0.100000001 L6.1,6 C6.1,6.05522847 6.05522847,6.1 6,6.1 L0.100000001,6.1 C0.0447715257,6.1 9.00302645e-17,6.05522847 0,6 L0,0.100000001 C-2.06413254e-17,0.0447715257 0.0447715257,-8.69992082e-17 0.100000001,0 L6,0 Z M1.1,1.05 L1.05,5 L5,5.05 L5,1.099 L1.1,1.05 Z"></path></clipPath></defs><g transform="translate(-800.0 -154.0)"><g clip-path="url(#i0)"><g transform="translate(800.0 154.0)"><g transform="translate(1.0000000000001812 1.0000000000001812)"><g clip-path="url(#i1)"><polygon points="0,0 16.1,0 16.1,16.1 0,16.1 0,0" stroke="none" fill="#707680"></polygon></g></g><g transform="translate(6.0000000000001705 6.000000000000227)"><g clip-path="url(#i2)"><polygon points="0,0 6.1,0 6.1,6.1 0,6.1 0,0" stroke="none" fill="#707680"></polygon></g></g></g></g></g></svg>