<svg xmlns="http://www.w3.org/2000/svg" xmlns:xlink="http://www.w3.org/1999/xlink" fill="none"
    version="1.1" width="25" height="28" viewBox="0 0 25 28">
    <defs>
        <clipPath id="master_svg0_13_0825">
            <rect x="0" y="4" width="25" height="20" rx="0" />
        </clipPath>
    </defs>
    <g>
        <rect x="0" y="0" width="25" height="28" rx="0" fill="#000000" fill-opacity="0"
            style="mix-blend-mode:passthrough" />
        <g clip-path="url(#master_svg0_13_0825)">
            <g transform="matrix(1,0,0,-1,0,48.859375)">
                <g>
                    <path
                        d="M12.5,44.4296875Q13.0469,44.4296875,13.3984,44.078087499999995Q13.75,43.7265875,13.75,43.1796875L13.75,40.6796875L18.4375,40.6796875Q19.6484,40.640587499999995,20.4297,39.8593875Q21.2109,39.0780875,21.25,37.8671875L21.25,27.2421875Q21.2109,26.0312475,20.4297,25.2499995Q19.6484,24.46875,18.4375,24.4296875L6.5625,24.4296875Q5.35156,24.46875,4.57031,25.2499995Q3.78906,26.0312475,3.75,27.2421875L3.75,37.8671875Q3.78906,39.0780875,4.57031,39.8593875Q5.35156,40.640587499999995,6.5625,40.6796875L11.25,40.6796875L11.25,43.1796875Q11.25,43.7265875,11.6016,44.078087499999995Q11.9531,44.4296875,12.5,44.4296875ZM8.125,29.4296875Q7.53906,29.3906275,7.5,28.8046875Q7.53906,28.2187475,8.125,28.1796875L9.375,28.1796875Q9.96094,28.2187475,10,28.8046875Q9.96094,29.3906275,9.375,29.4296875L8.125,29.4296875ZM11.875,29.4296875Q11.2891,29.3906275,11.25,28.8046875Q11.2891,28.2187475,11.875,28.1796875L13.125,28.1796875Q13.7109,28.2187475,13.75,28.8046875Q13.7109,29.3906275,13.125,29.4296875L11.875,29.4296875ZM15.625,29.4296875Q15.0391,29.3906275,15,28.8046875Q15.0391,28.2187475,15.625,28.1796875L16.875,28.1796875Q17.4609,28.2187475,17.5,28.8046875Q17.4609,29.3906275,16.875,29.4296875L15.625,29.4296875ZM10.3125,34.4296875Q10.2734,35.3280875,9.53125,35.7968875Q8.75,36.1874875,7.96875,35.7968875Q7.22656,35.3280875,7.1875,34.4296875Q7.22656,33.5312475,7.96875,33.0624975Q8.75,32.6718775,9.53125,33.0624975Q10.2734,33.5312475,10.3125,34.4296875ZM16.25,32.8671875Q17.1484,32.9062475,17.6172,33.6484375Q18.0078,34.4296875,17.6172,35.2108875Q17.1484,35.9530875,16.25,35.9921875Q15.3516,35.9530875,14.8828,35.2108875Q14.4922,34.4296875,14.8828,33.6484375Q15.3516,32.9062475,16.25,32.8671875ZM1.875,35.6796875L2.5,35.6796875L1.875,35.6796875L2.5,35.6796875L2.5,28.1796875L1.875,28.1796875Q1.09375,28.2187475,0.546875,28.7265675Q0.0390625,29.2734375,0,30.0546875L0,33.8046875Q0.0390625,34.5858875,0.546875,35.1327875Q1.09375,35.6405875,1.875,35.6796875ZM23.125,35.6796875Q23.9062,35.6405875,24.4531,35.1327875Q24.9609,34.5858875,25,33.8046875L25,30.0546875Q24.9609,29.2734375,24.4531,28.7265675Q23.9062,28.2187475,23.125,28.1796875L22.5,28.1796875L22.5,35.6796875L23.125,35.6796875Z"
                        fill="#FFFFFF" fill-opacity="1" style="mix-blend-mode:passthrough" />
                </g>
            </g>
        </g>
    </g>
</svg>