<?xml version="1.0" encoding="UTF-8"?>
<svg width="32px" height="32px" viewBox="0 0 32 32" version="1.1" xmlns="http://www.w3.org/2000/svg" xmlns:xlink="http://www.w3.org/1999/xlink">
    <title>实际控制人</title>
    <g id="图谱平台" stroke="none" stroke-width="1" fill="none" fill-rule="evenodd">
        <g id="实际控制人" fill="#2277A2" fill-rule="nonzero">
            <path d="M28.792,13.984 L28.812,14.1488 L31.0744,14.1488 L31.0336,13.9232 C30.128,7.1976 24.7816,1.8304 18.056,0.864 L17.8504,0.8432 L17.8504,3.1056 L18.0144,3.1256 C23.5838118,4.02043342 27.9384277,8.40867072 28.7904,13.9848 L28.792,13.984 Z M3.0024,18.016 L2.9824,17.8304 L0.72,17.8304 L0.7608,18.0568 C1.69531196,24.894403 7.09921016,30.2556708 13.944,31.136 L14.1704,31.156 L14.1704,28.8936 L14.0056,28.8736 C8.3912,28.092 3.8672,23.6088 3.0032,18.0144 L3.0024,18.016 Z M28.792,18.016 C27.9397106,23.5918187 23.5851647,27.9796621 18.016,28.8744 L17.8512,28.9152 L17.8512,31.1776 L18.0768,31.136 C24.8216007,30.1459345 30.1062464,24.8277323 31.0536,18.0768 L31.0952,17.8512 L28.832,17.8512 L28.7912,18.0152 L28.792,18.016 Z M3.0024,13.984 C3.8664,8.3904 8.3904,3.9072 13.9848,3.0848 L14.1488,3.064 L14.1488,0.8024 L13.9232,0.8432 C7.07815504,1.72361314 1.67417968,7.0852854 0.74,13.9232 L0.72,14.1488 L2.9824,14.1488 L3.0024,13.9848 L3.0024,13.984 Z M14.992,0 L17.028,0 L17.028,5.4912 L14.992,5.4912 L14.992,0 Z M0,14.992 L5.4912,14.992 L5.4912,17.028 L0,17.028 L0,14.992 Z M26.5088,14.992 L32,14.992 L32,17.028 L26.5088,17.028 L26.5088,14.992 Z M14.992,26.5088 L17.028,26.5088 L17.028,32 L14.992,32 L14.992,26.5088 Z M19.763203,11.4344 C19.7644759,10.4085764 19.357534,9.42440089 18.6321665,8.69903347 C17.9067991,7.97366605 16.9226236,7.5667241 15.8968,7.56799701 C14.8711149,7.56693676 13.8871452,7.97397259 13.161951,8.69931691 C12.4367567,9.42466124 12.0299245,10.4087151 12.031197,11.4344 C12.0299245,12.4600849 12.4367567,13.4441388 13.161951,14.1694831 C13.8871452,14.8948274 14.8711149,15.3018632 15.8968,15.3008021 C18.036,15.3008021 19.763203,13.5528 19.763203,11.4344 L19.763203,11.4344 Z M13.8607808,11.4344 C13.8584477,10.8937015 14.0721988,10.3744691 14.4545339,9.99213395 C14.8368691,9.60979878 15.3561015,9.39604771 15.8968,9.39838079 C16.4374985,9.39604771 16.9567309,9.60979878 17.3390661,9.99213395 C17.7214012,10.3744691 17.9351523,10.8937015 17.9328192,11.4344 C17.9351523,11.9750985 17.7214012,12.4943309 17.3390661,12.8766661 C16.9567309,13.2590012 16.4374985,13.4727523 15.8968,13.4704192 C14.7732611,13.4681991 13.8630009,12.5579389 13.8607808,11.4344 L13.8607808,11.4344 Z" id="形状"></path>
            <path d="M8,22.848 L8,24 L23.1112,24 L23.1112,22.848 C23.1112,19.072 19.7208,16 15.5456,16 C11.3696,16 8,19.072 8,22.848 Z M15.5656,18.3256 C17.964,18.3256 20.072,19.7336 20.6928,21.696 L10.4392,21.696 C11.0592,19.7336 13.1672,18.3256 15.5656,18.3256 Z" id="形状"></path>
        </g>
    </g>
</svg>