<?xml version="1.0" encoding="UTF-8"?>
<svg width="16px" height="16px" viewBox="0 0 16 16" version="1.1" xmlns="http://www.w3.org/2000/svg" xmlns:xlink="http://www.w3.org/1999/xlink">
    <title>Icon/Alert_Fill_999@1x</title>
    <g id="PC" stroke="none" stroke-width="1" fill="none" fill-rule="evenodd">
        <g id="06-名单页-重命名" transform="translate(-708.000000, -60.000000)">
            <g id="Icon/Alert_Fill_999" transform="translate(708.000000, 60.000000)">
                <rect id="矩形" x="0" y="0" width="16" height="16"></rect>
                <path d="M12.6285714,9.8097561 L12.6285714,6.97560976 C12.6285714,5.09756098 11.4971429,3.49268292 9.88571428,2.77560975 C9.81714285,1.78536584 8.9942857,1 8,1 C7.0057143,1 6.18285714,1.78536586 6.11428572,2.77560975 C4.50285714,3.49268292 3.37142857,5.09756098 3.37142857,6.97560976 L3.37142857,9.8097561 C2.44571428,10.5609756 2,11.5853659 2,12.7804878 C2,13.0536586 2.23999999,13.2926829 2.51428571,13.2926829 L5.84,13.2926829 C6.07999999,14.2829268 6.97142857,15 8,15 C9.02857143,15 9.92000001,14.2829268 10.16,13.2926829 L13.4857143,13.2926829 C13.76,13.2926829 14,13.0536586 14,12.7804878 C14,11.5512195 13.5542857,10.5609756 12.6285714,9.8097561 Z M8,13.9756098 C7.51999999,13.9756098 7.10857142,13.702439 6.93714286,13.2926829 L9.09714286,13.2926829 C8.89142858,13.702439 8.48000001,13.9756098 8,13.9756098 Z" id="形状" fill="#999999" fill-rule="nonzero"></path>
            </g>
        </g>
    </g>
</svg>