<?xml version="1.0" encoding="UTF-8"?>
<svg width="16px" height="16px" viewBox="0 0 16 16" version="1.1" xmlns="http://www.w3.org/2000/svg" xmlns:xlink="http://www.w3.org/1999/xlink">
    <title>Icon/Location_Pri_3355FF@1x</title>
    <g id="PC" stroke="none" stroke-width="1" fill="none" fill-rule="evenodd">
        <g id="05-名单页" transform="translate(-568.000000, -419.000000)">
            <g id="Icon/Location_Pri_3355FF" transform="translate(568.000000, 419.000000)">
                <rect id="矩形" x="0" y="0" width="16" height="16"></rect>
                <g id="map" transform="translate(2.000000, 1.000000)" fill="#3355FF" fill-rule="nonzero">
                    <path d="M6,0 C2.6909091,0 0,2.625 0,5.81 C0,10.15 5.45454545,13.755 5.7090909,13.895 C5.81818181,13.965 5.89090909,14 6,14 C6.10909091,14 6.21818182,13.965 6.2909091,13.895 C6.50909091,13.755 12,10.15 12,5.81 C12,2.625 9.3090909,0 6,0 Z M6,12.845 C4.87272728,12.04 1.09090909,9.09999999 1.09090909,5.84499999 C1.09090909,3.21999999 3.3090909,1.08499999 6,1.08499999 C8.6909091,1.08499999 10.9090909,3.21999999 10.9090909,5.84499999 C10.9090909,9.065 7.12727272,12.04 6,12.845 Z" id="形状"></path>
                    <path d="M6,3.84999999 C4.69090909,3.84999999 3.63636363,4.865 3.63636363,6.125 C3.63636363,7.385 4.69090909,8.4 6,8.4 C7.30909091,8.4 8.36363637,7.385 8.36363637,6.125 C8.36363637,4.865 7.30909091,3.84999999 6,3.84999999 Z M6,7.35 C5.30909091,7.35 4.72727272,6.79000001 4.72727272,6.125 C4.72727272,5.45999999 5.3090909,4.89999999 6,4.89999999 C6.6909091,4.89999999 7.27272728,5.45999999 7.27272728,6.125 C7.27272728,6.79000001 6.6909091,7.35 6,7.35 L6,7.35 Z" id="形状"></path>
                </g>
            </g>
        </g>
    </g>
</svg>