<?xml version="1.0" encoding="UTF-8"?>
<svg width="16px" height="16px" viewBox="0 0 16 16" version="1.1" xmlns="http://www.w3.org/2000/svg" xmlns:xlink="http://www.w3.org/1999/xlink">
    <title>Icon/SaveAs_666@1x</title>
    <g id="PC" stroke="none" stroke-width="1" fill="none" fill-rule="evenodd">
        <g id="05-名单页" transform="translate(-836.000000, -60.000000)">
            <g id="Icon/SaveAs_666" transform="translate(836.000000, 60.000000)">
                <rect id="矩形" x="0" y="0" width="16" height="16"></rect>
                <g id="保存" transform="translate(2.500000, 2.000000)" fill="currentColor" fill-rule="nonzero">
                    <path d="M7.5999098,11.1998196 C7.82087352,11.1998196 8,11.3789461 8,11.5999098 C8,11.8208735 7.82087352,12 7.5999098,12 L7.5999098,12 L0.786266269,12 C0.352152874,12 0.000186609556,11.6417896 0,11.199804 L0,0.800540169 C0,0.358420151 0.352020914,0 0.786266269,0 L10.2137184,0 C10.6479697,0 11,0.358414042 11,0.800540169 L11,5.10784244 C11,5.32442508 10.8244251,5.5 10.6078424,5.5 C10.3912598,5.5 10.2156849,5.32442508 10.2156849,5.10784244 L10.2156849,5.10784244 L10.2156849,0.800540169 L9.0371151,0.800540169 L9.0371151,3.99900934 C9.03710661,4.44112936 8.68507882,4.79953387 8.25083346,4.79953387 L2.75048779,4.79953387 C2.54207452,4.79989103 2.34207718,4.71584808 2.19458266,4.56593122 C2.04708815,4.41601436 1.96420586,4.21253187 1.96420615,4.00033891 L1.96420615,0.800196046 L0.786266269,0.800196046 L0.786266269,11.1998196 Z M8.25048779,0.800196046 L2.75048779,0.800196046 L2.75048779,4.00033891 L8.25048779,4.00033891 L8.25048779,0.800196046 Z" id="形状结合"></path>
                </g>
                <path d="M12.3491847,8.73846154 C12.168306,8.55384615 11.896988,8.55384615 11.7161093,8.73846154 C11.5352306,8.92307692 11.5352306,9.2 11.7161093,9.38461538 L12.4396241,10.1230769 L6.85219672,10.1230769 C6.61102513,10.1230769 6.4,10.3384615 6.4,10.5846154 C6.4,10.8307692 6.61102513,11.0769231 6.85219672,11.0769231 L12.4396241,11.0769231 L11.7161093,11.8153846 C11.5352306,12 11.5352306,12.2769231 11.7161093,12.4615385 C11.8065487,12.5538461 11.9271345,12.5846154 12.0477202,12.5846154 C12.168306,12.5846154 12.2888918,12.5538462 12.3793312,12.4615385 L13.8866536,10.9230769 C14.0072394,10.7692308 14.0072394,10.4615385 13.8565071,10.2769231 L12.3491847,8.73846154 Z" id="路径" fill="currentColor" fill-rule="nonzero"></path>
            </g>
        </g>
    </g>
</svg>