<?xml version="1.0" encoding="UTF-8"?>
<svg width="16px" height="16px" viewBox="0 0 16 16" version="1.1" xmlns="http://www.w3.org/2000/svg" xmlns:xlink="http://www.w3.org/1999/xlink">
    <title>更多筛选 3355FF@1x</title>
    <g id="PC-Web" stroke="none" stroke-width="1" fill="none" fill-rule="evenodd">
        <g id="06-地图拓客-搜索结果附近-企业列表" transform="translate(-1408.000000, -142.000000)">
            <g id="更多筛选-3355FF" transform="translate(1416.000000, 150.000000) scale(-1, 1) rotate(-270.000000) translate(-1416.000000, -150.000000) translate(1408.000000, 142.000000)">
                <rect id="Rectangle" x="0" y="0" width="16" height="16"></rect>
                <path d="M7.99614035,11.3352504 C7.83820524,11.3398544 7.67940626,11.2801031 7.56191659,11.1582016 L7.56191659,11.1582016 L2.14586299,5.53877031 C2.1379474,5.53055749 2.1303118,5.52207935 2.12296928,5.51335042 C1.94308963,5.29950609 1.97062345,4.98032974 2.18446778,4.8004501 C2.41767947,4.60427919 2.76300306,4.62233524 2.97448447,4.84175796 L2.97448447,4.84175796 L7.99918839,10.055462 L13.0255155,4.84175796 C13.2369969,4.62233524 13.5823205,4.60427919 13.8155322,4.8004501 C14.0293765,4.98032974 14.0569104,5.29950609 13.8770307,5.51335042 C13.8696882,5.52207935 13.8620526,5.53055749 13.854137,5.53877031 L8.43808341,11.1582016 C8.32059374,11.2801031 8.16179476,11.3398544 8.00385965,11.3352504 Z" id="down" fill="#3355FF"></path>
            </g>
        </g>
    </g>
</svg>