<svg width="18px" height="18px" viewBox="0 0 18 18" version="1.1" xmlns="http://www.w3.org/2000/svg" xmlns:xlink="http://www.w3.org/1999/xlink"><g id="页面-1" stroke="none" stroke-width="1" fill="none" fill-rule="evenodd"><g id="画板" fill="#707680" fill-rule="nonzero"><path d="M10.2985747,2 C10.3538032,2 10.3985747,2.04477153 10.3985747,2.1 L10.398,5.683 L15.9,5.68383899 C15.9552285,5.68383899 16,5.72861052 16,5.78383899 L16,15.9 C16,15.9552285 15.9552285,16 15.9,16 L2.1,16 C2.04477153,16 2,15.9552285 2,15.9 L2,2.1 C2,2.04477153 2.04477153,2 2.1,2 L10.2985747,2 Z M9.198,3.2 L3.2,3.2 L3.2,14.8 L9.198,14.8 L9.198,3.2 Z M14.8,6.883 L10.424,6.883 L10.424,14.8 L14.8,14.8 L14.8,6.883 Z M12.7864718,11.273519 L12.7864718,12.273519 L12.1877548,12.273519 L12.1877548,11.273519 L12.7864718,11.273519 Z M5.85187071,10.8914895 L5.85187071,11.8914895 L4.45151438,11.8914895 L4.45151438,10.8914895 L5.85187071,10.8914895 Z M7.95062357,10.8914895 L7.95062357,11.8914895 L6.55026724,11.8914895 L6.55026724,10.8914895 L7.95062357,10.8914895 Z M12.7864718,9.06488775 L12.7864718,10.0648878 L12.1877548,10.0648878 L12.1877548,9.06488775 L12.7864718,9.06488775 Z M5.85187071,8.12863404 L5.85187071,9.12863404 L4.45151438,9.12863404 L4.45151438,8.12863404 L5.85187071,8.12863404 Z M7.95062357,8.12863404 L7.95062357,9.12863404 L6.55026724,9.12863404 L6.55026724,8.12863404 L7.95062357,8.12863404 Z M5.85187071,5.55146946 L5.85187071,6.55146946 L4.45151438,6.55146946 L4.45151438,5.55146946 L5.85187071,5.55146946 Z M7.95062357,5.55146946 L7.95062357,6.55146946 L6.55026724,6.55146946 L6.55026724,5.55146946 L7.95062357,5.55146946 Z" id="指标选择器"></path></g></g></svg>