<?xml version="1.0" encoding="UTF-8"?>
<svg width="60px" height="60px" viewBox="0 0 60 60" version="1.1" xmlns="http://www.w3.org/2000/svg" xmlns:xlink="http://www.w3.org/1999/xlink">
    <title>竞争对手探查</title>
    <defs>
        <linearGradient x1="61.8002792%" y1="68.7836029%" x2="55.3765585%" y2="13.6809011%" id="linearGradient-1">
            <stop stop-color="#0078DD" offset="0%"></stop>
            <stop stop-color="#55DFE1" offset="100%"></stop>
        </linearGradient>
        <linearGradient x1="9.8970981%" y1="87.5319258%" x2="61.3788108%" y2="-4.36729135%" id="linearGradient-2">
            <stop stop-color="#0078DD" offset="0%"></stop>
            <stop stop-color="#55DFE1" offset="100%"></stop>
        </linearGradient>
        <circle id="path-3" cx="10.5" cy="10.5" r="10.5"></circle>
        <filter x="-42.9%" y="-42.9%" width="185.7%" height="185.7%" filterUnits="objectBoundingBox" id="filter-4">
            <feGaussianBlur stdDeviation="5" in="SourceAlpha" result="shadowBlurInner1"></feGaussianBlur>
            <feOffset dx="0" dy="8" in="shadowBlurInner1" result="shadowOffsetInner1"></feOffset>
            <feComposite in="shadowOffsetInner1" in2="SourceAlpha" operator="arithmetic" k2="-1" k3="1" result="shadowInnerInner1"></feComposite>
            <feColorMatrix values="0 0 0 0 0.6   0 0 0 0 0.88627451   0 0 0 0 1  0 0 0 0.240220717 0" type="matrix" in="shadowInnerInner1"></feColorMatrix>
        </filter>
        <linearGradient x1="29.2730126%" y1="28.715313%" x2="85.5860641%" y2="98.9932752%" id="linearGradient-5">
            <stop stop-color="#00BBFF" stop-opacity="0.105277535" offset="0%"></stop>
            <stop stop-color="#00BBFF" stop-opacity="0" offset="100%"></stop>
        </linearGradient>
        <circle id="path-6" cx="10.5" cy="10.5" r="10.5"></circle>
        <filter x="-42.9%" y="-42.9%" width="185.7%" height="185.7%" filterUnits="objectBoundingBox" id="filter-7">
            <feGaussianBlur stdDeviation="5" in="SourceAlpha" result="shadowBlurInner1"></feGaussianBlur>
            <feOffset dx="0" dy="8" in="shadowBlurInner1" result="shadowOffsetInner1"></feOffset>
            <feComposite in="shadowOffsetInner1" in2="SourceAlpha" operator="arithmetic" k2="-1" k3="1" result="shadowInnerInner1"></feComposite>
            <feColorMatrix values="0 0 0 0 0.333333333   0 0 0 0 0.874509804   0 0 0 0 0.882352941  0 0 0 0.240220717 0" type="matrix" in="shadowInnerInner1"></feColorMatrix>
        </filter>
        <linearGradient x1="17.0045684%" y1="27.7828553%" x2="71.9947244%" y2="80.123521%" id="linearGradient-8">
            <stop stop-color="#E1F7FF" offset="0%"></stop>
            <stop stop-color="#E9FAFF" stop-opacity="0" offset="100%"></stop>
        </linearGradient>
        <circle id="path-9" cx="10.5" cy="10.5" r="10.5"></circle>
        <filter x="-42.9%" y="-42.9%" width="185.7%" height="185.7%" filterUnits="objectBoundingBox" id="filter-10">
            <feGaussianBlur stdDeviation="5" in="SourceAlpha" result="shadowBlurInner1"></feGaussianBlur>
            <feOffset dx="0" dy="8" in="shadowBlurInner1" result="shadowOffsetInner1"></feOffset>
            <feComposite in="shadowOffsetInner1" in2="SourceAlpha" operator="arithmetic" k2="-1" k3="1" result="shadowInnerInner1"></feComposite>
            <feColorMatrix values="0 0 0 0 1   0 0 0 0 1   0 0 0 0 1  0 0 0 0.544389205 0" type="matrix" in="shadowInnerInner1"></feColorMatrix>
        </filter>
        <path d="M10,4 C13.3137085,4 16,6.6862915 16,10 C16,11.0936728 15.7073831,12.1190012 15.1961695,13.0019653 L17.4566542,15.0330792 L15.7187657,16.9669208 L13.4382021,14.9178204 C12.464527,15.5998118 11.278998,16 10,16 C6.6862915,16 4,13.3137085 4,10 C4,6.6862915 6.6862915,4 10,4 Z M10,6.6 C8.12223185,6.6 6.6,8.12223185 6.6,10 C6.6,11.8777681 8.12223185,13.4 10,13.4 C11.8777681,13.4 13.4,11.8777681 13.4,10 C13.4,8.12223185 11.8777681,6.6 10,6.6 Z" id="path-11"></path>
        <filter x="-44.6%" y="-23.1%" width="189.2%" height="192.5%" filterUnits="objectBoundingBox" id="filter-12">
            <feOffset dx="0" dy="3" in="SourceAlpha" result="shadowOffsetOuter1"></feOffset>
            <feGaussianBlur stdDeviation="1.5" in="shadowOffsetOuter1" result="shadowBlurOuter1"></feGaussianBlur>
            <feColorMatrix values="0 0 0 0 0.101960784   0 0 0 0 0.749019608   0 0 0 0 0.878431373  0 0 0 0.5 0" type="matrix" in="shadowBlurOuter1"></feColorMatrix>
        </filter>
    </defs>
    <g id="ai生成图谱" stroke="none" stroke-width="1" fill="none" fill-rule="evenodd">
        <g id="编组">
            <rect id="矩形" opacity="0.489214943" x="0" y="0" width="60" height="60"></rect>
            <path d="M25.0226377,17.9188031 C23.3206697,18.1644991 22.2539104,17.9344958 21.8223597,17.2287932 C21.6097013,16.4127589 22.0510131,15.6110072 23.1462952,14.8235379 C24.53469,13.3960012 25.2288873,12.6822328 25.2288873,12.6822328 C25.2288873,12.6822328 27.4651838,10.1797677 29.623554,11.2791814 C31.3171486,12.3709862 32.3433974,13.1572304 32.7023003,13.6379138 C37.4983027,11.5697645 40.2951656,11.622204 41.0928892,13.7952322 C41.4206822,14.9748436 41.400326,15.853849 41.0318205,16.4322486 C42.6955825,17.4162067 43.0902855,18.764487 42.2159293,20.4770895 C43.6170216,21.3011915 43.822361,22.848207 42.8319476,25.1181359 C44.0589454,25.9249948 44.2353559,27.6777828 43.3611791,30.3764997 C45.3114246,32.6571446 46.2865474,33.797467 46.2865474,33.797467 C47.1548169,33.0845634 47.5889517,32.7281116 47.5889517,32.7281116 C49.8629839,35.2448321 51,36.5031923 51,36.5031923 C42.2283462,44.0397954 37.8425193,47.8080969 37.8425193,47.8080969 L34.6105215,43.913627 L35.8250318,42.885553 L34.9333044,41.7956065 C34.2998414,41.1174407 33.8096903,40.7783578 33.4628513,40.7783578 C32.9425927,40.7783578 29.8510079,39.4237835 29.623554,39.1312878 C28.6659093,38.7568685 28.1558788,38.5164399 28.0934625,38.4100019 C27.999838,38.2503449 29.3756618,37.86121 31.0389811,37.6405394 C32.1478606,37.4934257 30.1424128,30.9195135 25.0226377,17.9188031 Z" id="路径-31" fill="url(#linearGradient-1)"></path>
            <path d="M21.56971,15.226681 C22.1004794,15.2109334 22.4309193,15.2566871 22.5610298,15.363942 C21.7480518,16.1742399 21.5397225,16.8008022 21.9360421,17.2436287 C22.3910588,17.8990427 23.2567162,18.1458932 24.5330141,17.9841801 C25.1894829,17.8965849 26.7251397,17.2955004 29.1399845,16.1809267 C34.6273426,13.8970784 37.9156234,12.8927207 39.0048268,13.1678536 C39.8926585,13.4549832 40.3525954,14.0570352 40.3846374,14.9740097 C40.3735683,15.8419612 40.0698572,16.3869922 39.4735041,16.6091025 C37.4581212,17.5636861 36.4388956,18.2796619 36.4158271,18.7570298 C36.503763,19.0642734 37.1775054,18.8768284 38.4370544,18.194695 C40.3263779,17.1714949 40.7417329,16.9128366 41.3680393,17.8349332 C41.9943456,18.7570298 41.7939397,19.7029134 40.9004396,20.6512128 C40.0069394,21.5995122 38.4083285,22.8712697 39.0048268,23.4008022 C39.8023807,23.1227612 40.6505167,22.4124347 41.549235,21.2698226 C42.4558424,21.6330431 42.7160925,22.4881301 42.3299853,23.8350836 C41.9840627,24.7643472 41.2487602,26.0215389 40.1240779,27.6066587 C39.9859406,27.9471368 40.0229186,28.1173758 40.2350119,28.1173758 C40.5531519,28.1173758 42.3299853,25.9985308 42.3299853,25.9985308 C42.9982876,26.464185 43.1207434,27.4718356 42.6973528,29.0214827 C42.0622668,31.3459532 40.9363063,33.5524037 39.0048268,34.4463194 C35.9452102,36.2258231 33.228966,37.2957536 30.8560943,37.6561111 C28.5554024,38.0650422 27.1267888,38.6516877 26.5702536,39.4160477 C25.0976432,40.9893712 24.3613381,41.776033 24.3613381,41.776033 L26.0718056,43.4835744 L22.4096605,48.0036247 L9,36.6200506 L13.0368649,32.2227246 C14.059749,32.9508548 14.571191,33.3149199 14.571191,33.3149199 L16.0374792,31.5974634 C15.8545635,28.7766543 15.7631056,27.3662498 15.7631056,27.3662498 C15.8097043,25.0069423 16.1052571,23.5373081 16.6497639,22.957347 C16.575228,20.939107 17.2148289,19.6664149 18.5685666,19.1392707 C18.5969964,16.4595288 19.5568852,15.1586689 21.4482329,15.2366911 C21.5292176,15.2300177 21.56971,15.226681 21.56971,15.226681 Z" id="路径-43" fill="url(#linearGradient-2)"></path>
            <path d="M21.56971,15.226681 C20.6657585,16.7401329 20.8440221,17.8211168 22.1045007,18.4696326 C22.8829798,18.8607882 23.8433166,18.9771192 24.9855114,18.8186259 C25.7182357,19.5573402 26.0277108,20.3394566 25.9139365,21.1649751 C25.7432752,22.4032529 24.6473319,22.8340604 23.669952,22.4063995 C22.6925721,21.9787386 18.6347251,20.493016 18.8927071,17.0552794 C19.2230413,15.9391399 19.9344239,15.3347519 21.0268549,15.2421153 L21.56971,15.226681 Z" id="路径-32" fill="#4BD3E0"></path>
            <path d="M18.5269735,19.1212153 C16.3311583,20.3098438 16.357229,22.0440791 18.6051855,24.3239212 C19.2920367,24.9528718 19.7936377,25.3812283 20.1099886,25.6089908 C22.2318226,27.1366434 23.8895254,27.3493775 24.7847343,26.4180153 C25.416074,25.5477372 25.2161821,24.5272338 24.1850584,23.356505 C23.2433054,23.0404735 22.2468623,22.5182339 21.1957291,21.7897861 C20.1445959,21.0613384 19.2550107,20.1718148 18.5269735,19.1212153 Z" id="路径-37" fill="#4BD3E0"></path>
            <path d="M16.6404909,22.9425657 C15.2738892,25.0968346 15.8183107,27.0998589 18.2737553,28.9516387 C21.2559815,31.1616879 23.0220933,31.2306962 23.5720905,29.1586636 C23.6637481,28.3625578 23.5680799,27.8787541 23.2850859,27.7072526 C22.2753589,27.616174 21.1449033,27.1691606 19.8937189,26.3662123 C18.6425346,25.563264 17.5581252,24.4220485 16.6404909,22.9425657 Z" id="路径-41" fill="#4BD3E0"></path>
            <path d="M15.7631056,27.3662498 C14.5684363,29.0533905 14.7511336,30.5371652 16.3111973,31.8175738 C18.3950496,33.2163034 19.7201065,32.9943978 20.2863678,31.1518572 C19.2558534,30.6826247 18.3724507,30.1399001 17.6361597,29.5236836 C16.8998687,28.9074672 16.2755173,28.1883225 15.7631056,27.3662498 Z" id="路径-42" fill="#4BD3E0"></path>
            <g id="编组-22" transform="translate(32.000000, 30.000000)">
                <g id="椭圆形">
                    <use fill="#02B6CF" fill-rule="evenodd" xlink:href="#path-3"></use>
                    <use fill="black" fill-opacity="1" filter="url(#filter-4)" xlink:href="#path-3"></use>
                </g>
                <g id="椭圆形">
                    <use fill="url(#linearGradient-5)" fill-rule="evenodd" xlink:href="#path-6"></use>
                    <use fill="black" fill-opacity="1" filter="url(#filter-7)" xlink:href="#path-6"></use>
                </g>
                <g id="椭圆形">
                    <use fill="black" fill-opacity="1" filter="url(#filter-10)" xlink:href="#path-9"></use>
                    <circle stroke="url(#linearGradient-8)" stroke-width="1.5" stroke-linejoin="square" cx="10.5" cy="10.5" r="9.75"></circle>
                </g>
                <g id="形状结合" fill-rule="nonzero">
                    <use fill="black" fill-opacity="1" filter="url(#filter-12)" xlink:href="#path-11"></use>
                    <use fill="#FFFFFF" xlink:href="#path-11"></use>
                </g>
            </g>
        </g>
    </g>
</svg>