<?xml version="1.0" encoding="UTF-8"?>
<svg width="60px" height="60px" viewBox="0 0 60 60" version="1.1" xmlns="http://www.w3.org/2000/svg" xmlns:xlink="http://www.w3.org/1999/xlink">
    <title>客户群探查</title>
    <defs>
        <linearGradient x1="68.7126847%" y1="66.3118634%" x2="1.53693547%" y2="11.6573095%" id="linearGradient-1">
            <stop stop-color="#0078DD" offset="0%"></stop>
            <stop stop-color="#55DFE1" offset="100%"></stop>
        </linearGradient>
        <circle id="path-2" cx="10.5" cy="10.5" r="10.5"></circle>
        <filter x="-42.9%" y="-42.9%" width="185.7%" height="185.7%" filterUnits="objectBoundingBox" id="filter-3">
            <feGaussianBlur stdDeviation="5" in="SourceAlpha" result="shadowBlurInner1"></feGaussianBlur>
            <feOffset dx="0" dy="8" in="shadowBlurInner1" result="shadowOffsetInner1"></feOffset>
            <feComposite in="shadowOffsetInner1" in2="SourceAlpha" operator="arithmetic" k2="-1" k3="1" result="shadowInnerInner1"></feComposite>
            <feColorMatrix values="0 0 0 0 0.6   0 0 0 0 0.88627451   0 0 0 0 1  0 0 0 0.240220717 0" type="matrix" in="shadowInnerInner1"></feColorMatrix>
        </filter>
        <linearGradient x1="29.2730126%" y1="28.715313%" x2="85.5860641%" y2="98.9932752%" id="linearGradient-4">
            <stop stop-color="#00BBFF" stop-opacity="0.105277535" offset="0%"></stop>
            <stop stop-color="#00BBFF" stop-opacity="0" offset="100%"></stop>
        </linearGradient>
        <circle id="path-5" cx="10.5" cy="10.5" r="10.5"></circle>
        <filter x="-42.9%" y="-42.9%" width="185.7%" height="185.7%" filterUnits="objectBoundingBox" id="filter-6">
            <feGaussianBlur stdDeviation="5" in="SourceAlpha" result="shadowBlurInner1"></feGaussianBlur>
            <feOffset dx="0" dy="8" in="shadowBlurInner1" result="shadowOffsetInner1"></feOffset>
            <feComposite in="shadowOffsetInner1" in2="SourceAlpha" operator="arithmetic" k2="-1" k3="1" result="shadowInnerInner1"></feComposite>
            <feColorMatrix values="0 0 0 0 0.333333333   0 0 0 0 0.874509804   0 0 0 0 0.882352941  0 0 0 0.240220717 0" type="matrix" in="shadowInnerInner1"></feColorMatrix>
        </filter>
        <linearGradient x1="17.0045684%" y1="27.7828553%" x2="71.9947244%" y2="80.123521%" id="linearGradient-7">
            <stop stop-color="#E1F7FF" offset="0%"></stop>
            <stop stop-color="#E9FAFF" stop-opacity="0" offset="100%"></stop>
        </linearGradient>
        <circle id="path-8" cx="10.5" cy="10.5" r="10.5"></circle>
        <filter x="-42.9%" y="-42.9%" width="185.7%" height="185.7%" filterUnits="objectBoundingBox" id="filter-9">
            <feGaussianBlur stdDeviation="5" in="SourceAlpha" result="shadowBlurInner1"></feGaussianBlur>
            <feOffset dx="0" dy="8" in="shadowBlurInner1" result="shadowOffsetInner1"></feOffset>
            <feComposite in="shadowOffsetInner1" in2="SourceAlpha" operator="arithmetic" k2="-1" k3="1" result="shadowInnerInner1"></feComposite>
            <feColorMatrix values="0 0 0 0 1   0 0 0 0 1   0 0 0 0 1  0 0 0 0.544389205 0" type="matrix" in="shadowInnerInner1"></feColorMatrix>
        </filter>
        <path d="M10,4 C13.3137085,4 16,6.6862915 16,10 C16,11.0936728 15.7073831,12.1190012 15.1961695,13.0019653 L17.4566542,15.0330792 L15.7187657,16.9669208 L13.4382021,14.9178204 C12.464527,15.5998118 11.278998,16 10,16 C6.6862915,16 4,13.3137085 4,10 C4,6.6862915 6.6862915,4 10,4 Z M10,6.6 C8.12223185,6.6 6.6,8.12223185 6.6,10 C6.6,11.8777681 8.12223185,13.4 10,13.4 C11.8777681,13.4 13.4,11.8777681 13.4,10 C13.4,8.12223185 11.8777681,6.6 10,6.6 Z" id="path-10"></path>
        <filter x="-44.6%" y="-23.1%" width="189.2%" height="192.5%" filterUnits="objectBoundingBox" id="filter-11">
            <feOffset dx="0" dy="3" in="SourceAlpha" result="shadowOffsetOuter1"></feOffset>
            <feGaussianBlur stdDeviation="1.5" in="shadowOffsetOuter1" result="shadowBlurOuter1"></feGaussianBlur>
            <feColorMatrix values="0 0 0 0 0.101960784   0 0 0 0 0.749019608   0 0 0 0 0.878431373  0 0 0 0.5 0" type="matrix" in="shadowBlurOuter1"></feColorMatrix>
        </filter>
    </defs>
    <g id="ai生成图谱" stroke="none" stroke-width="1" fill="none" fill-rule="evenodd">
        <g id="编组">
            <rect id="矩形" opacity="0.489214943" x="0" y="0" width="60" height="60"></rect>
            <path d="M33.6705976,13.727804 C38.652242,13.727804 42.6906627,18.4049645 42.6906627,24.1745345 C42.6906627,27.3383179 41.4763287,30.1736189 39.5580225,32.089354 L48.3282035,36.8205767 L48.3282035,46.7174793 L19.0129916,46.7174793 L19.0129916,36.8205767 L27.7829149,32.0890967 C25.8647577,30.1733651 24.6505324,27.3381762 24.6505324,24.1745345 C24.6505324,23.5758387 24.6940171,22.9889058 24.7775282,22.417741 C24.7826333,22.3422631 24.7885517,22.2653059 24.7949021,22.187918 C24.9486556,21.2606415 25.2045828,20.3931283 25.5644332,19.5854863 C27.0319187,16.1166552 30.1103832,13.727804 33.6705976,13.727804 Z M24.6576059,11 C26.2139639,11 27.6782582,11.4565158 28.9561047,12.260235 C25.0906632,14.4393065 22.7696812,17.6641128 22.0789188,21.8611512 L22.0250436,22.6645578 C21.8510762,26.0969101 22.4510616,28.8912248 23.8468366,31.0458417 L24.1003084,31.4145812 L16.324644,35.1241165 L16.324644,43.9896753 L10,43.9896753 L10,34.0927727 L18.7699233,29.3612928 C16.851766,27.4455611 15.6375407,24.6103723 15.6375407,21.4467305 C15.6375407,15.6771606 19.6759615,11 24.6576059,11 Z" id="形状结合" fill="url(#linearGradient-1)" fill-rule="nonzero"></path>
            <g id="编组-22" transform="translate(31.000000, 30.000000)">
                <g id="椭圆形">
                    <use fill="#02B6CF" fill-rule="evenodd" xlink:href="#path-2"></use>
                    <use fill="black" fill-opacity="1" filter="url(#filter-3)" xlink:href="#path-2"></use>
                </g>
                <g id="椭圆形">
                    <use fill="url(#linearGradient-4)" fill-rule="evenodd" xlink:href="#path-5"></use>
                    <use fill="black" fill-opacity="1" filter="url(#filter-6)" xlink:href="#path-5"></use>
                </g>
                <g id="椭圆形">
                    <use fill="black" fill-opacity="1" filter="url(#filter-9)" xlink:href="#path-8"></use>
                    <circle stroke="url(#linearGradient-7)" stroke-width="1.5" stroke-linejoin="square" cx="10.5" cy="10.5" r="9.75"></circle>
                </g>
                <g id="形状结合" fill-rule="nonzero">
                    <use fill="black" fill-opacity="1" filter="url(#filter-11)" xlink:href="#path-10"></use>
                    <use fill="#FFFFFF" xlink:href="#path-10"></use>
                </g>
            </g>
        </g>
    </g>
</svg>