<?xml version="1.0" encoding="UTF-8"?>
<svg width="14px" height="14px" viewBox="0 0 14 14" version="1.1" xmlns="http://www.w3.org/2000/svg" xmlns:xlink="http://www.w3.org/1999/xlink">
    <title>AI财报诊断</title>
    <g id="页面-1" stroke="none" stroke-width="1" fill="none" fill-rule="evenodd">
        <g id="画板">
            <path d="M5.13333333,2.33333333 L6.1436963,2.91666667 L5.69733333,3.68933333 L6.22222222,3.68938395 L6.22222222,4.85605062 L4.86033333,4.85533333 L4.86033333,5.63133333 L6.22222222,5.63190865 L6.22222222,6.79857531 L4.86033333,6.79833333 L4.86111111,7.77079754 L3.69444444,7.77079754 L3.69433333,6.79833333 L2.33333333,6.79857531 L2.33333333,5.63190865 L3.69433333,5.63133333 L3.69433333,4.85533333 L2.33333333,4.85605062 L2.33333333,3.68938395 L2.89533333,3.68933333 L2.45,2.91666667 L3.46036297,2.33333333 L4.24333333,3.68933333 L4.34933333,3.68933333 L5.13333333,2.33333333 Z" id="形状结合" fill="#666666"></path>
            <path d="M12.0555556,5.44444444 L10.8888889,5.44388889 L10.8888889,1.55555556 L1.55555556,1.55555556 L1.55555556,12.4444444 L6.22188889,12.4438889 L6.22222222,13.6111111 L0.388888889,13.6111111 L0.388888889,0.388888889 L12.0555556,0.388888889 L12.0555556,5.44444444 Z" id="形状结合" fill="#666666"></path>
            <path d="M9.52777778,5.83333333 C11.5681631,5.83333333 13.2222222,7.48739245 13.2222222,9.52777778 C13.2222222,10.3370703 12.962004,11.0855855 12.5206733,11.6942179 L13.4505307,12.6225385 C13.6640985,12.8356578 13.6777873,13.1732572 13.4913523,13.4023307 L13.4505307,13.447496 C13.3509397,13.547087 13.2242886,13.603144 13.094235,13.6156547 L13.0383583,13.6183503 C12.8891663,13.6184287 12.7399444,13.5616279 12.6260066,13.4479293 L11.6957892,12.5195333 C11.1226926,12.9355545 10.425412,13.1909281 9.67006889,13.2195325 L9.52777778,13.2222222 C8.11691169,13.2222222 6.89076027,12.4313647 6.26845335,11.2687796 L7.31111962,10.7437022 C7.74095036,11.5256289 8.57247857,12.0555556 9.52777778,12.0555556 C9.57462108,12.0555556 9.62125032,12.0542883 9.66762909,12.0517718 L9.77280653,12.0438889 L9.87535387,12.0319633 L9.98443108,12.0144281 L10.0952726,11.9918145 L10.2199678,11.9599232 L10.3111194,11.931874 L10.4446893,11.8845112 L10.5218483,11.8529815 L10.6284759,11.8039692 L10.7045299,11.7655215 C10.7547391,11.7390636 10.8039497,11.7109654 10.8520902,11.6812982 L10.9174159,11.6398153 L10.9602308,11.6108008 L11.0104257,11.5753999 L11.3380556,11.3372778 L11.5876607,10.9932305 C11.7022297,10.8324782 11.7984514,10.657745 11.8732691,10.4720876 L11.8859147,10.4400767 C11.9102845,10.3777729 11.9319936,10.3144767 11.9511007,10.2502986 L11.9799904,10.1436867 L11.9997175,10.0586433 L12.0165564,9.97252965 L12.0304535,9.88539911 C12.0469981,9.76857092 12.0555556,9.6491737 12.0555556,9.52777778 C12.0555556,8.13172466 10.9238309,7 9.52777778,7 C8.69838491,7 7.96228753,7.39944546 7.50136883,8.01645318 L6.53511867,7.36101163 C7.18730195,6.46180133 8.23485034,5.86800736 9.42259163,5.83480192 L9.52777778,5.83333333 Z M8.56579278,7.43454661 L9.741,9.456 L10.1177224,8.84398644 L11.2706413,8.84398644 L11.2706413,10.0439864 L10.789,10.043 L9.71339644,11.794871 L8.43,9.589 L8.01452878,10.1347958 L6.01906024,10.0878891 L6.04726036,8.8882205 L7.431,8.92 L8.56579278,7.43454661 Z" id="形状结合" fill="#0596B3" fill-rule="nonzero"></path>
        </g>
    </g>
</svg>