<?xml version="1.0" encoding="UTF-8"?>
<svg width="36px" height="36px" viewBox="0 0 36 36" version="1.1" xmlns="http://www.w3.org/2000/svg" xmlns:xlink="http://www.w3.org/1999/xlink">
    <title>Icon/查标准</title>
    <g id="Icon/查标准" stroke="none" stroke-width="1" fill="none" fill-rule="evenodd">
        <rect id="矩形" x="0" y="0" width="36" height="36"></rect>
        <path d="M17.9997716,1 C27.3886123,1 34.9997716,8.61115925 34.9997716,18 C34.9997716,27.3888407 27.3886123,35 17.9997716,35 C8.6109308,35 0.999771551,27.3888407 0.999771551,18 C0.999771551,8.61115925 8.6109308,1 17.9997716,1 Z M17.9997716,4 C10.2677851,4 3.99977155,10.2680135 3.99977155,18 C3.99977155,25.7319865 10.2677851,32 17.9997716,32 C25.731758,32 31.9997716,25.7319865 31.9997716,18 C31.9997716,10.2680135 25.731758,4 17.9997716,4 Z" id="形状结合" fill="#333333"></path>
        <path d="M10.8671875,21.4101562 L14.2421875,21.0820312 C14.4453125,22.2148438 14.8574219,23.046875 15.4785156,23.578125 C16.0996094,24.109375 16.9375,24.375 17.9921875,24.375 C19.109375,24.375 19.9511719,24.1386719 20.5175781,23.6660156 C21.0839844,23.1933594 21.3671875,22.640625 21.3671875,22.0078125 C21.3671875,21.6015625 21.2480469,21.2558594 21.0097656,20.9707031 C20.7714844,20.6855469 20.3554688,20.4375 19.7617188,20.2265625 C19.3554688,20.0859375 18.4296875,19.8359375 16.984375,19.4765625 C15.125,19.015625 13.8203125,18.4492188 13.0703125,17.7773438 C12.015625,16.8320312 11.4882812,15.6796875 11.4882812,14.3203125 C11.4882812,13.4453125 11.7363281,12.6269531 12.2324219,11.8652344 C12.7285156,11.1035156 13.4433594,10.5234375 14.3769531,10.125 C15.3105469,9.7265625 16.4375,9.52734375 17.7578125,9.52734375 C19.9140625,9.52734375 21.5371094,10 22.6269531,10.9453125 C23.7167969,11.890625 24.2890625,13.1523438 24.34375,14.7304688 L20.875,14.8828125 C20.7265625,14 20.4082031,13.3652344 19.9199219,12.9785156 C19.4316406,12.5917969 18.6992188,12.3984375 17.7226562,12.3984375 C16.7148438,12.3984375 15.9257812,12.6054688 15.3554688,13.0195312 C14.9882812,13.2851562 14.8046875,13.640625 14.8046875,14.0859375 C14.8046875,14.4921875 14.9765625,14.8398438 15.3203125,15.1289062 C15.7578125,15.4960938 16.8203125,15.8789062 18.5078125,16.2773438 C20.1953125,16.6757812 21.4433594,17.0878906 22.2519531,17.5136719 C23.0605469,17.9394531 23.6933594,18.5214844 24.1503906,19.2597656 C24.6074219,19.9980469 24.8359375,20.9101562 24.8359375,21.9960938 C24.8359375,22.9804688 24.5625,23.9023438 24.015625,24.7617188 C23.46875,25.6210938 22.6953125,26.2597656 21.6953125,26.6777344 C20.6953125,27.0957031 19.4492188,27.3046875 17.9570312,27.3046875 C15.7851562,27.3046875 14.1171875,26.8027344 12.953125,25.7988281 C11.7890625,24.7949219 11.09375,23.3320312 10.8671875,21.4101562 Z" id="路径" fill="#0596B3" fill-rule="nonzero"></path>
    </g>
</svg>