<?xml version="1.0" encoding="UTF-8"?>
<svg width="36px" height="36px" viewBox="0 0 36 36" version="1.1" xmlns="http://www.w3.org/2000/svg" xmlns:xlink="http://www.w3.org/1999/xlink">
    <title>Icon/查关系</title>
    <g id="Icon/查关系" stroke="none" stroke-width="1" fill="none" fill-rule="evenodd">
        <rect id="矩形" fill="#0596B3" transform="translate(18.0576, 19.6915) rotate(45) translate(-18.0576, -19.6915)" x="16.557649" y="9.19152192" width="3" height="21"></rect>
        <rect id="矩形" x="0" y="0" width="36" height="36"></rect>
        <rect id="矩形" fill="#666666" transform="translate(8.9791, 16.8544) rotate(-80) translate(-8.9791, -16.8544)" x="0.979055467" y="15.3544233" width="16" height="3"></rect>
        <rect id="矩形" fill="#666666" transform="translate(20.6308, 16.6584) rotate(50) translate(-20.6308, -16.6584)" x="10.1308241" y="15.1584281" width="21" height="3"></rect>
        <path d="M7,23 C10.3137085,23 13,25.6862915 13,29 C13,32.3137085 10.3137085,35 7,35 C3.6862915,35 1,32.3137085 1,29 C1,25.6862915 3.6862915,23 7,23 Z M7,26 C5.34314575,26 4,27.3431458 4,29 C4,30.6568542 5.34314575,32 7,32 C8.65685425,32 10,30.6568542 10,29 C10,27.3431458 8.65685425,26 7,26 Z" id="形状结合" fill="#0596B3"></path>
        <path d="M28,4 C30.7614237,4 33,6.23857625 33,9 C33,11.7614237 30.7614237,14 28,14 C25.2385763,14 23,11.7614237 23,9 C23,6.23857625 25.2385763,4 28,4 Z M28,7 C26.8954305,7 26,7.8954305 26,9 C26,10.1045695 26.8954305,11 28,11 C29.1045695,11 30,10.1045695 30,9 C30,7.8954305 29.1045695,7 28,7 Z" id="形状结合" fill="#0596B3"></path>
        <path d="M11,1 C13.7614237,1 16,3.23857625 16,6 C16,8.76142375 13.7614237,11 11,11 C8.23857625,11 6,8.76142375 6,6 C6,3.23857625 8.23857625,1 11,1 Z M11,4 C9.8954305,4 9,4.8954305 9,6 C9,7.1045695 9.8954305,8 11,8 C12.1045695,8 13,7.1045695 13,6 C13,4.8954305 12.1045695,4 11,4 Z" id="形状结合" fill="#666666"></path>
        <path d="M30,23 C32.7614237,23 35,25.2385763 35,28 C35,30.7614237 32.7614237,33 30,33 C27.2385763,33 25,30.7614237 25,28 C25,25.2385763 27.2385763,23 30,23 Z M30,26 C28.8954305,26 28,26.8954305 28,28 C28,29.1045695 28.8954305,30 30,30 C31.1045695,30 32,29.1045695 32,28 C32,26.8954305 31.1045695,26 30,26 Z" id="形状结合" fill="#666666"></path>
    </g>
</svg>