<?xml version="1.0" encoding="UTF-8"?>
<svg width="36px" height="36px" viewBox="0 0 36 36" version="1.1" xmlns="http://www.w3.org/2000/svg"
>
    <title>Icon/存款商机</title>
    <g id="Icon/存款商机" stroke="none" stroke-width="1" fill="none" fill-rule="evenodd">
        <rect id="矩形" x="0" y="0" width="36" height="36"></rect>
        <path d="M33,10 C34.1045695,10 35,10.8954305 35,12 L35,30 C35,31.1045695 34.1045695,32 33,32 L3,32 C1.8954305,32 1,31.1045695 1,30 L1,12 C1,10.8954305 1.8954305,10 3,10 L33,10 Z M32,13 L4,13 L4,29 L32,29 L32,13 Z"
              id="形状结合" fill="white"></path>
        <path d="M20.2,14 L22.7980762,15.5 L21.651,17.486 L23,17.4869873 L23,20.4869873 L19.5,20.486 L19.5,22.482 L23,22.4820508 L23,25.4820508 L19.5,25.482 L19.5,27.9820508 L16.5,27.9820508 L16.5,25.482 L13,25.4820508 L13,22.4820508 L16.5,22.482 L16.5,20.486 L13,20.4869873 L13,17.4869873 L14.446,17.486 L13.3,15.5 L15.8980762,14 L17.911,17.486 L18.186,17.486 L20.2,14 Z"
              id="形状结合" fill="white"></path>
        <path d="M8,4 L28,4 C28.5522847,4 29,4.44771525 29,5 L29,6 L29,6 L7,6 L7,5 C7,4.44771525 7.44771525,4 8,4 Z"
              id="矩形" fill="white"></path>
        <path d="M5,7 L31,7 C31.5522847,7 32,7.44771525 32,8 L32,9 L32,9 L4,9 L4,8 C4,7.44771525 4.44771525,7 5,7 Z"
              id="矩形" fill="white"></path>
    </g>
</svg>