<?xml version="1.0" encoding="UTF-8"?>
<svg width="36px" height="36px" viewBox="0 0 36 36" version="1.1" xmlns="http://www.w3.org/2000/svg"
>
    <title>Icon/查全球企业 line</title>
    <g id="Icon/查全球企业-line" stroke="none" stroke-width="1" fill="none" fill-rule="evenodd">
        <rect id="矩形" x="0" y="0" width="36" height="36"></rect>
        <path d="M1,18 C1,8.61115925 8.61115925,1 18,1 C27.3888407,1 35,8.61115925 35,18 C35,27.280923 27.5628044,34.824796 18.3230397,34.9969921 L18,35 C8.61115925,35 1,27.3888407 1,18 Z M18,23 C16.7130422,23 15.4666427,23.0620181 14.2829542,23.1781426 C14.8579975,28.2342666 16.2509507,31.839777 17.889898,31.9947989 L18,32 C19.6864624,32 21.1291593,28.3471052 21.7174307,23.1786257 C20.5331397,23.0620073 19.2868455,23 18,23 Z M11.3876426,23.5928022 L11.1099079,23.646441 C9.05999428,24.0611411 7.33195452,24.6551776 6.09292597,25.3688587 C7.8159005,28.1452545 10.4821604,30.2748996 13.6441341,31.3091112 C12.618686,29.3265059 11.8273985,26.6596106 11.3876426,23.5928022 Z M24.6123054,23.5917224 L24.5919096,23.7333993 C24.1483137,26.7411225 23.3656094,29.3568603 22.3556914,31.3088684 C25.5178396,30.2748996 28.1840995,28.1452545 29.9061733,25.3686482 C28.6122978,24.6231073 26.7838923,24.0080693 24.6123054,23.5917224 Z M4.84133664,13.2074962 L4.8305194,13.2385364 C4.2930262,14.7248782 4,16.3282191 4,18 C4,19.7276075 4.3129233,21.3821278 4.88518177,22.9099729 C6.54925634,21.9610759 8.66913177,21.1962106 11.086914,20.6891535 C11.0297825,19.8136179 11,18.9152556 11,18 C11,17.1333912 11.0267007,16.2819277 11.0782131,15.4501968 C8.64270403,14.939462 6.51006355,14.1663315 4.84133664,13.2074962 Z M31.1581661,13.2073646 L31.1480746,13.2135744 C29.4808496,14.1696386 27.3519716,14.9406073 24.9217446,15.4510432 C24.9732993,16.2819277 25,17.1333912 25,18 C25,18.9152556 24.9702175,19.8136179 24.9128778,20.6896828 C27.330476,21.1961017 29.450296,21.9608999 31.1145521,22.9092766 C31.6870767,21.3821278 32,19.7276075 32,18 C32,16.3165257 31.7028603,14.7024521 31.1581661,13.2073646 Z M21.9562748,15.9228129 L21.8511395,15.9358625 C20.613727,16.0707274 19.3245539,16.1420139 18,16.1420139 C16.6380293,16.1420139 15.3134667,16.0666431 14.0441194,15.9242812 C14.0149231,16.6005732 14,17.294187 14,18 C14,18.7547892 14.017066,19.4956274 14.0499211,20.2180458 C15.3176585,20.0751325 16.6401843,20 18,20 C19.3597509,20 20.6822155,20.0751254 21.9496736,20.2170372 C21.982934,19.4956274 22,18.7547892 22,18 C22,17.294187 21.9850769,16.6005732 21.9562748,15.9228129 Z M18,4 C16.2982524,4 14.8447091,7.71941054 14.2667851,12.9622791 C15.4554242,13.0794364 16.70725,13.1420139 18,13.1420139 C19.2926226,13.1420139 20.544329,13.0794487 21.7326728,12.9623348 C21.1677948,7.83284516 19.7642354,4.16165937 18.110102,4.0052011 L18,4 Z M13.6443086,4.69113163 L13.5185847,4.73261613 C10.3725809,5.79488063 7.72736581,7.94473409 6.03024121,10.7348747 C7.32327952,11.4961658 9.16893323,12.1232466 11.367698,12.5464502 C11.8035628,9.42105932 12.6032041,6.70341803 13.6443086,4.69113163 Z M22.3558659,4.69088875 L22.3781429,4.73470904 C23.4081815,6.74235902 24.1994031,9.44298058 24.6318914,12.5453482 C26.8309855,12.1232586 28.6765514,11.4962211 29.9706245,10.7361932 C28.2501056,7.90769612 25.5570237,5.73791662 22.3558659,4.69088875 Z"
              id="形状结合" fill="white"></path>
    </g>
</svg>