<?xml version="1.0" encoding="UTF-8"?>
<svg width="36px" height="36px" viewBox="0 0 36 36" version="1.1" xmlns="http://www.w3.org/2000/svg" xmlns:xlink="http://www.w3.org/1999/xlink">
    <title>Icon/产业链</title>
    <g id="Icon/产业链" stroke="none" stroke-width="1" fill="none" fill-rule="evenodd">
        <rect id="矩形" x="0" y="0" width="36" height="36"></rect>
        <rect id="矩形" fill="#666666" transform="translate(8.1312, 20.3672) rotate(75) translate(-8.1312, -20.3672)" x="1.63121253" y="18.8672214" width="13" height="3"></rect>
        <rect id="矩形" fill="#666666" transform="translate(28.0763, 17.9486) rotate(82) translate(-28.0763, -17.9486)" x="22.0763159" y="16.448566" width="12" height="3"></rect>
        <rect id="矩形" fill="#666666" transform="translate(18.7608, 18.4309) rotate(31) translate(-18.7608, -18.4309)" x="17.2607582" y="8.93087625" width="3" height="19"></rect>
        <path d="M26,1 C29.3137085,1 32,3.6862915 32,7 C32,10.3137085 29.3137085,13 26,13 C22.6862915,13 20,10.3137085 20,7 C20,3.6862915 22.6862915,1 26,1 Z M26,4 C24.3431458,4 23,5.34314575 23,7 C23,8.65685425 24.3431458,10 26,10 C27.6568542,10 29,8.65685425 29,7 C29,5.34314575 27.6568542,4 26,4 Z" id="形状结合" fill="#666666"></path>
        <path d="M11,25 C13.7614237,25 16,27.2385763 16,30 C16,32.7614237 13.7614237,35 11,35 C8.23857625,35 6,32.7614237 6,30 C6,27.2385763 8.23857625,25 11,25 Z M11,28 C9.8954305,28 9,28.8954305 9,30 C9,31.1045695 9.8954305,32 11,32 C12.1045695,32 13,31.1045695 13,30 C13,28.8954305 12.1045695,28 11,28 Z" id="形状结合" fill="#666666"></path>
        <path d="M6,6 C8.76142375,6 11,8.23857625 11,11 C11,13.7614237 8.76142375,16 6,16 C3.23857625,16 1,13.7614237 1,11 C1,8.23857625 3.23857625,6 6,6 Z M6,9 C4.8954305,9 4,9.8954305 4,11 C4,12.1045695 4.8954305,13 6,13 C7.1045695,13 8,12.1045695 8,11 C8,9.8954305 7.1045695,9 6,9 Z" id="形状结合" fill="#0596B3"></path>
        <path d="M30,22 C32.7614237,22 35,24.2385763 35,27 C35,29.7614237 32.7614237,32 30,32 C27.2385763,32 25,29.7614237 25,27 C25,24.2385763 27.2385763,22 30,22 Z M30,25 C28.8954305,25 28,25.8954305 28,27 C28,28.1045695 28.8954305,29 30,29 C31.1045695,29 32,28.1045695 32,27 C32,25.8954305 31.1045695,25 30,25 Z" id="形状结合" fill="#0596B3"></path>
    </g>
</svg>