<?xml version="1.0" encoding="UTF-8"?>
<svg width="36px" height="36px" viewBox="0 0 36 36" version="1.1" xmlns="http://www.w3.org/2000/svg" xmlns:xlink="http://www.w3.org/1999/xlink">
    <title>Icon/查著作权</title>
    <g id="Icon/查著作权" stroke="none" stroke-width="1" fill="none" fill-rule="evenodd">
        <rect id="矩形" x="0" y="0" width="36" height="36"></rect>
        <path d="M17.9997716,1 C27.3886123,1 34.9997716,8.61115925 34.9997716,18 C34.9997716,27.3888407 27.3886123,35 17.9997716,35 C8.6109308,35 0.999771551,27.3888407 0.999771551,18 C0.999771551,8.61115925 8.6109308,1 17.9997716,1 Z M17.9997716,4 C10.2677851,4 3.99977155,10.2680135 3.99977155,18 C3.99977155,25.7319865 10.2677851,32 17.9997716,32 C25.731758,32 31.9997716,25.7319865 31.9997716,18 C31.9997716,10.2680135 25.731758,4 17.9997716,4 Z" id="形状结合" fill="#333333"></path>
        <path d="M21.7382812,20.6835938 L25.1015625,21.75 C24.5859375,23.625 23.7285156,25.0175781 22.5292969,25.9277344 C21.3300781,26.8378906 19.8085938,27.2929688 17.9648438,27.2929688 C15.6835938,27.2929688 13.8085938,26.5136719 12.3398438,24.9550781 C10.8710938,23.3964844 10.1367188,21.265625 10.1367188,18.5625 C10.1367188,15.703125 10.875,13.4824219 12.3515625,11.9003906 C13.828125,10.3183594 15.7695312,9.52734375 18.1757812,9.52734375 C20.2773438,9.52734375 21.984375,10.1484375 23.296875,11.390625 C24.078125,12.125 24.6640625,13.1796875 25.0546875,14.5546875 L21.6210938,15.375 C21.4179688,14.484375 20.9941406,13.78125 20.3496094,13.265625 C19.7050781,12.75 18.921875,12.4921875 18,12.4921875 C16.7265625,12.4921875 15.6933594,12.9492188 14.9003906,13.8632812 C14.1074219,14.7773438 13.7109375,16.2578125 13.7109375,18.3046875 C13.7109375,20.4765625 14.1015625,22.0234375 14.8828125,22.9453125 C15.6640625,23.8671875 16.6796875,24.328125 17.9296875,24.328125 C18.8515625,24.328125 19.6445312,24.0351562 20.3085938,23.4492188 C20.9726562,22.8632812 21.4492188,21.9414062 21.7382812,20.6835938 Z" id="路径" fill="#0596B3" fill-rule="nonzero"></path>
    </g>
</svg>