<?xml version="1.0" encoding="UTF-8"?>
<svg width="36px" height="36px" viewBox="0 0 36 36" version="1.1" xmlns="http://www.w3.org/2000/svg">
    <title>Icon/地区重点项目</title>
    <g id="Icon/地区重点项目" stroke="none" stroke-width="1" fill="none" fill-rule="evenodd">
        <rect id="矩形" x="0" y="0" width="36" height="36"></rect>
        <rect id="矩形" fill="white" x="16.5" y="3" width="3" height="6"></rect>
        <rect id="矩形" fill="white" x="16.5" y="12" width="3" height="8"></rect>
        <rect id="矩形" fill="white" x="16.5" y="23" width="3" height="10"></rect>
        <path d="M6.65,1.49584742 C7.56126984,1.49584742 8.3,2.23457758 8.3,3.14584742 L8.3,32.8458474 C8.3,33.7571173 7.56126984,34.4958474 6.65,34.4958474 C5.73873016,34.4958474 5,33.7571173 5,32.8458474 L5,3.14584742 C5,2.23457758 5.73873016,1.49584742 6.65,1.49584742 Z" id="矩形" fill="white" transform="translate(6.65, 17.9958) rotate(10) translate(-6.65, -17.9958)"></path>
        <path d="M29.65,1.49584742 C30.5612698,1.49584742 31.3,2.23457758 31.3,3.14584742 L31.3,32.8458474 C31.3,33.7571173 30.5612698,34.4958474 29.65,34.4958474 C28.7387302,34.4958474 28,33.7571173 28,32.8458474 L28,3.14584742 C28,2.23457758 28.7387302,1.49584742 29.65,1.49584742 Z" id="矩形" fill="white" transform="translate(29.65, 17.9958) scale(-1, 1) rotate(10) translate(-29.65, -17.9958)"></path>
    </g>
</svg>