<?xml version="1.0" encoding="UTF-8"?>
<svg width="36px" height="36px" viewBox="0 0 36 36" version="1.1" xmlns="http://www.w3.org/2000/svg"
>
    <title>Icon/尽调平台</title>
    <g id="Icon/尽调平台" stroke="none" stroke-width="1" fill="none" fill-rule="evenodd">
        <rect id="矩形" x="0" y="0" width="36" height="36"></rect>
        <rect id="矩形" fill="#0596B3" x="11" y="16" width="14" height="3"></rect>
        <rect id="矩形" fill="#0596B3" x="11" y="23" width="11" height="3"></rect>
        <path d="M12,7 L7,7 L7,32 L29,32 L29,7 L24,7 L24,4 L31,4 C31.5522847,4 32,4.44771525 32,5 L32,34 C32,34.5522847 31.5522847,35 31,35 L5,35 C4.44771525,35 4,34.5522847 4,34 L4,5 C4,4.44771525 4.44771525,4 5,4 L12,4 L12,7 Z"
              id="形状结合" fill="#666666"></path>
        <path d="M25,1 C25.5522847,1 26,1.44771525 26,2 L26,9 C26,9.55228475 25.5522847,10 25,10 L11,10 C10.4477153,10 10,9.55228475 10,9 L10,2 C10,1.44771525 10.4477153,1 11,1 L25,1 Z M23,4 L13,4 L13,7 L23,7 L23,4 Z"
              id="形状结合" fill="#666666"></path>
    </g>
</svg>