<?xml version="1.0" encoding="UTF-8"?>
<svg width="36px" height="36px" viewBox="0 0 36 36" version="1.1" xmlns="http://www.w3.org/2000/svg"
>
    <title>Icon/竞争对手 line</title>
    <g id="Icon/竞争对手-line" stroke="none" stroke-width="1" fill="none" fill-rule="evenodd">
        <rect id="矩形" x="0" y="0" width="36" height="36"></rect>
        <path d="M16.0004624,1.11635209 L16.0001595,4.1417549 C9.21549345,5.11214559 4,10.9470009 4,18 C4,25.0529991 9.21549345,30.8878544 16.0001595,31.8582451 L16.0004624,34.8836479 C7.55389893,33.894 1,26.7123725 1,18 C1,9.28762745 7.55389893,2.10600002 16.0004624,1.11635209 Z M20.0005404,1.11646961 C28.4466198,2.10656844 35,9.28797224 35,18 C35,26.7120278 28.4466198,33.8934316 20.0005404,34.8835304 L20.0008423,31.8581018 C26.7850199,30.8872801 32,25.052652 32,18 C32,10.947348 26.7850199,5.11271995 20.0008423,4.14189822 L20.0005404,1.11646961 Z M22.6513672,11.8955078 C23.8935547,11.8955078 24.8632812,12.2324219 25.5605469,12.90625 C26.2578125,13.5800781 26.6269531,14.5439453 26.6679688,15.7978516 L24.5322266,15.9121094 C24.4384766,15.2207031 24.2363281,14.7373047 23.9257812,14.4619141 C23.6152344,14.1865234 23.1728516,14.0488281 22.5986328,14.0488281 C22.0244141,14.0488281 21.5820313,14.1689453 21.2714844,14.4091797 C20.9609375,14.6494141 20.8056641,14.9482422 20.8056641,15.3056641 C20.8056641,15.6572266 20.9462891,15.953125 21.2275391,16.1933594 C21.5087891,16.4335937 22.15625,16.6972656 23.1699219,16.984375 C24.2421875,17.2949219 25.0170898,17.621582 25.4946289,17.9643555 C25.972168,18.3071289 26.3369141,18.7495117 26.5888672,19.2915039 C26.8408203,19.8334961 26.9667969,20.4912109 26.9667969,21.2646484 C26.9667969,22.3837891 26.6225586,23.3242187 25.934082,24.0859375 C25.2456055,24.8476562 24.1689453,25.2285156 22.7041016,25.2285156 C20.1142578,25.2285156 18.6728516,23.7548828 18.3798828,20.8076172 L20.4628906,20.5615234 C20.6972656,22.2080078 21.4648438,23.03125 22.765625,23.03125 C23.4101562,23.03125 23.9169922,22.862793 24.2861328,22.5258789 C24.6552734,22.1889648 24.8398438,21.7714844 24.8398438,21.2734375 C24.8398438,20.9804687 24.7753906,20.7314453 24.6464844,20.5263672 C24.5175781,20.3212891 24.3212891,20.152832 24.0576172,20.0209961 C23.7939453,19.8891602 23.1552734,19.6679687 22.1416016,19.3574219 C21.2333984,19.0820312 20.5683594,18.7832031 20.1464844,18.4609375 C19.7246094,18.1386719 19.3891602,17.715332 19.1401367,17.190918 C18.8911133,16.6665039 18.7666016,16.1025391 18.7666016,15.4990234 C18.7666016,14.7958984 18.9262695,14.1630859 19.2456055,13.6005859 C19.5649414,13.0380859 20.0058594,12.6132812 20.5683594,12.3261719 C21.1308594,12.0390625 21.8251953,11.8955078 22.6513672,11.8955078 Z M10.3115234,12.1152344 L12.9833984,21.6513672 L15.5673828,12.1152344 L17.8349609,12.1152344 L14.0556641,25 L11.7705078,25 L8,12.1152344 L10.3115234,12.1152344 Z"
              id="形状结合" fill="white"></path>
    </g>
</svg>