<?xml version="1.0" encoding="UTF-8"?>
<svg width="36px" height="36px" viewBox="0 0 36 36" version="1.1" xmlns="http://www.w3.org/2000/svg"
>
    <title>Icon/企业数据浏览器 line</title>
    <g id="Icon/企业数据浏览器-line" stroke="none" stroke-width="1" fill="none" fill-rule="evenodd">
        <rect id="矩形" x="0" y="0" width="36" height="36"></rect>
        <path d="M35,1 L21,16 L21,35 L11,29 L11,16 L1,1 L35,1 Z M33,30 L33,33 L24,33 L24,30 L33,30 Z M28.1707965,4 L6.60891683,4 L14,15.0727756 L14,27.3443481 L18,29.6769478 L18,14.8587429 L28.1707965,4 Z M33,23 L33,26 L24,26 L24,23 L33,23 Z M33,16 L33,19 L24,19 L24,16 L33,16 Z"
              id="形状结合" fill="white"></path>
    </g>
</svg>