<?xml version="1.0" encoding="UTF-8"?>
<svg width="36px" height="36px" viewBox="0 0 36 36" version="1.1" xmlns="http://www.w3.org/2000/svg" xmlns:xlink="http://www.w3.org/1999/xlink">
    <title>Icon/融资图谱</title>
    <g id="Icon/融资图谱" stroke="none" stroke-width="1" fill="none" fill-rule="evenodd">
        <rect id="矩形" fill="#666666" x="16.5" y="20" width="3" height="8"></rect>
        <rect id="矩形" fill="#666666" x="16.5" y="8" width="3" height="6"></rect>
        <rect id="矩形" x="0" y="0" width="36" height="36"></rect>
        <path d="M18,12 C20.7614237,12 23,14.2385763 23,17 C23,19.7614237 20.7614237,22 18,22 C15.2385763,22 13,19.7614237 13,17 C13,14.2385763 15.2385763,12 18,12 Z M18,15 C16.8954305,15 16,15.8954305 16,17 C16,18.1045695 16.8954305,19 18,19 C19.1045695,19 20,18.1045695 20,17 C20,15.8954305 19.1045695,15 18,15 Z" id="形状结合" fill="#0596B3"></path>
        <rect id="矩形" fill="#666666" x="6.2842276" y="29.4267136" width="8" height="3"></rect>
        <rect id="矩形" fill="#666666" x="3.5" y="22" width="3" height="6"></rect>
        <rect id="矩形" fill="#666666" x="29.5" y="15" width="3" height="13"></rect>
        <rect id="矩形" fill="#666666" x="20.2842276" y="29.4267136" width="8" height="3"></rect>
        <path d="M5,15 C7.209139,15 9,16.790861 9,19 C9,21.209139 7.209139,23 5,23 C2.790861,23 1,21.209139 1,19 C1,16.790861 2.790861,15 5,15 Z M5,18 C4.44771525,18 4,18.4477153 4,19 C4,19.5522847 4.44771525,20 5,20 C5.55228475,20 6,19.5522847 6,19 C6,18.4477153 5.55228475,18 5,18 Z" id="形状结合" fill="#666666"></path>
        <path d="M5,27 C7.209139,27 9,28.790861 9,31 C9,33.209139 7.209139,35 5,35 C2.790861,35 1,33.209139 1,31 C1,28.790861 2.790861,27 5,27 Z M5,30 C4.44771525,30 4,30.4477153 4,31 C4,31.5522847 4.44771525,32 5,32 C5.55228475,32 6,31.5522847 6,31 C6,30.4477153 5.55228475,30 5,30 Z" id="形状结合" fill="#666666"></path>
        <path d="M18,1 C20.209139,1 22,2.790861 22,5 C22,7.209139 20.209139,9 18,9 C15.790861,9 14,7.209139 14,5 C14,2.790861 15.790861,1 18,1 Z M18,4 C17.4477153,4 17,4.44771525 17,5 C17,5.55228475 17.4477153,6 18,6 C18.5522847,6 19,5.55228475 19,5 C19,4.44771525 18.5522847,4 18,4 Z" id="形状结合" fill="#666666"></path>
        <path d="M31,27 C33.209139,27 35,28.790861 35,31 C35,33.209139 33.209139,35 31,35 C28.790861,35 27,33.209139 27,31 C27,28.790861 28.790861,27 31,27 Z M31,30 C30.4477153,30 30,30.4477153 30,31 C30,31.5522847 30.4477153,32 31,32 C31.5522847,32 32,31.5522847 32,31 C32,30.4477153 31.5522847,30 31,30 Z" id="形状结合" fill="#666666"></path>
        <path d="M31,8 C33.209139,8 35,9.790861 35,12 C35,14.209139 33.209139,16 31,16 C28.790861,16 27,14.209139 27,12 C27,9.790861 28.790861,8 31,8 Z M31,11 C30.4477153,11 30,11.4477153 30,12 C30,12.5522847 30.4477153,13 31,13 C31.5522847,13 32,12.5522847 32,12 C32,11.4477153 31.5522847,11 31,11 Z" id="形状结合" fill="#0596B3"></path>
        <path d="M18,27 C20.209139,27 22,28.790861 22,31 C22,33.209139 20.209139,35 18,35 C15.790861,35 14,33.209139 14,31 C14,28.790861 15.790861,27 18,27 Z M18,30 C17.4477153,30 17,30.4477153 17,31 C17,31.5522847 17.4477153,32 18,32 C18.5522847,32 19,31.5522847 19,31 C19,30.4477153 18.5522847,30 18,30 Z" id="形状结合" fill="#666666"></path>
    </g>
</svg>