<?xml version="1.0" encoding="UTF-8"?>
<svg width="36px" height="36px" viewBox="0 0 36 36" version="1.1" xmlns="http://www.w3.org/2000/svg">
    <title>Icon/授信商机</title>
    <g id="Icon/授信商机" stroke="none" stroke-width="1" fill="none" fill-rule="evenodd">
        <rect id="矩形" x="0" y="0" width="36" height="36"></rect>
        <path d="M31,1 L31,10 L28,10 L28,4 L4,4 L4,32 L16,32 L16,35 L1,35 L1,1 L31,1 Z M35,27 L35,35 L18,35 L18,27 L22,27 C22.2453716,25.974863 22.7006285,24.1907703 22.9074406,22.8026837 C21.445254,21.7105765 20.5,19.9656761 20.5,18 C20.5,14.6862916 23.1862916,12 26.5,12 C29.8137084,12 32.5,14.6862916 32.5,18 C32.5,19.9656761 31.554746,21.7105765 30.0939951,22.804944 C30.2993715,24.1907703 30.7546284,25.974863 31,27 L35,27 Z M32,30 L21,30 L21,32 L32,32 L32,30 Z M26.5,15 C24.8431458,15 23.5,16.3431458 23.5,18 C23.5,19.6568542 24.8431458,21 26.5,21 C28.1568542,21 29.5,19.6568542 29.5,18 C29.5,16.3431458 28.1568542,15 26.5,15 Z M28,27 C27.8216228,26.2345597 27.5253037,25.0625179 27.2989287,23.9462496 C27.0381792,23.9820082 26.7711907,24 26.5,24 C26.2288093,24 25.9618208,23.9820082 25.7001631,23.9471532 C25.4746963,25.0625179 25.1783772,26.2345597 25,27 Z" id="形状结合" fill="white"></path>
        <path d="M13.2,6 L15.7980762,7.5 L14.651,9.486 L16,9.4869873 L16,12.4869873 L12.5,12.486 L12.5,14.482 L16,14.4820508 L16,17.4820508 L12.5,17.482 L12.5,19.9820508 L9.5,19.9820508 L9.5,17.482 L6,17.4820508 L6,14.4820508 L9.5,14.482 L9.5,12.486 L6,12.4869873 L6,9.4869873 L7.446,9.486 L6.3,7.5 L8.89807621,6 L10.911,9.486 L11.186,9.486 L13.2,6 Z" id="形状结合" fill="white"></path>
    </g>
</svg>