<?xml version="1.0" encoding="UTF-8"?>
<svg width="36px" height="36px" viewBox="0 0 36 36" version="1.1" xmlns="http://www.w3.org/2000/svg" xmlns:xlink="http://www.w3.org/1999/xlink">
    <title>Icon/投资赛道</title>
    <g id="Icon/投资赛道" stroke="none" stroke-width="1" fill="none" fill-rule="evenodd">
        <rect id="矩形" x="0" y="0" width="36" height="36"></rect>
        <rect id="矩形" fill="#666666" x="1" y="28" width="25" height="3"></rect>
        <path d="M1,21 L16,21 L16,22.5 C16,23.3284271 15.3284271,24 14.5,24 L1,24 L1,24 L1,21 Z" id="矩形" fill="#666666"></path>
        <path d="M14.5,5 L26,5 L26,5 L26,8 L13,8 L13,6.5 C13,5.67157288 13.6715729,5 14.5,5 Z" id="矩形" fill="#666666"></path>
        <rect id="矩形" fill="#666666" x="13" y="8" width="3" height="14"></rect>
        <path d="M29.5,1 C32.5375661,1 35,3.46243388 35,6.5 C35,9.53756612 32.5375661,12 29.5,12 C26.4624339,12 24,9.53756612 24,6.5 C24,3.46243388 26.4624339,1 29.5,1 Z M29.5,4 C28.1192881,4 27,5.11928813 27,6.5 C27,7.88071187 28.1192881,9 29.5,9 C30.8807119,9 32,7.88071187 32,6.5 C32,5.11928813 30.8807119,4 29.5,4 Z" id="形状结合" fill="#666666"></path>
        <path d="M29.5,24 C32.5375661,24 35,26.4624339 35,29.5 C35,32.5375661 32.5375661,35 29.5,35 C26.4624339,35 24,32.5375661 24,29.5 C24,26.4624339 26.4624339,24 29.5,24 Z M29.5,27 C28.1192881,27 27,28.1192881 27,29.5 C27,30.8807119 28.1192881,32 29.5,32 C30.8807119,32 32,30.8807119 32,29.5 C32,28.1192881 30.8807119,27 29.5,27 Z" id="形状结合" fill="#666666"></path>
        <circle id="椭圆形" fill="#0596B3" cx="22" cy="15.4" r="4"></circle>
        <rect id="矩形" fill="#0596B3" x="1" y="14" width="19" height="3"></rect>
    </g>
</svg>