<?xml version="1.0" encoding="UTF-8"?>
<svg width="36px" height="36px" viewBox="0 0 36 36" version="1.1" xmlns="http://www.w3.org/2000/svg" xmlns:xlink="http://www.w3.org/1999/xlink">
    <title>Icon/央企国企</title>
    <g id="Icon/央企国企" stroke="none" stroke-width="1" fill="none" fill-rule="evenodd">
        <rect id="矩形" x="0" y="0" width="36" height="36"></rect>
        <path d="M4,22 L4,31 L1,31 L1,19 L35,19 L35,31 L32,31 L32,22 L4,22 Z M27,28 L27,31 L9,31 L9,28 L27,28 Z" id="形状结合" fill="#666666"></path>
        <path d="M6,18 L6,15 L8.45776485,15.0001193 C9.73199172,10.9429508 13.5223145,8 18,8 C22.4776855,8 26.2680083,10.9429508 27.5422351,15.0001193 L30,15 L30,18 L6,18 Z M18,11 C15.207499,11 12.7969137,12.6351758 11.6735043,15.0002671 L24.3264957,15.0002671 C23.2030863,12.6351758 20.792501,11 18,11 Z" id="形状结合" fill="#0596B3" fill-rule="nonzero"></path>
        <rect id="矩形" fill="#0596B3" x="16.5" y="1" width="3" height="8"></rect>
        <rect id="矩形" fill="#666666" x="1" y="31" width="11" height="4"></rect>
        <rect id="矩形" fill="#666666" x="24" y="31" width="11" height="4"></rect>
        <path d="M19,2 C19.6779872,1.73333333 20.4446539,1.6 21.3,1.6 C22.5830192,1.6 22.858384,2.4 23.9,2.4 C24.5944107,2.4 24.9610773,2.26666667 25,2 L25,6 C24.8515362,6.26666667 24.4848695,6.4 23.9,6.4 C23.0226957,6.4 22.45,5.6 21.3,5.6 C20.5333333,5.6 19.7666667,5.73333333 19,6 L19,2 Z" id="矩形" fill="#0596B3"></path>
    </g>
</svg>