<?xml version="1.0" encoding="UTF-8"?>
<svg width="36px" height="36px" viewBox="0 0 36 36" version="1.1" xmlns="http://www.w3.org/2000/svg"
>
    <title>Icon/疑似关系图 line</title>
    <g id="Icon/疑似关系图-line" stroke="none" stroke-width="1" fill="none" fill-rule="evenodd">
        <rect id="矩形" x="0" y="0" width="36" height="36"></rect>
        <path d="M6,1 C8.76142375,1 11,3.23857625 11,6 C11,6.91868538 10.7522353,7.77950222 10.3198816,8.51927485 L14.6613714,13.0139146 C15.6158189,12.373561 16.7642845,12 18,12 C19.1616492,12 20.2461943,12.3301221 21.1649376,12.9016685 L24.3456821,9.83049429 C24.1225532,9.26360501 24,8.64611442 24,8 C24,5.23857625 26.2385763,3 29,3 C31.7614237,3 34,5.23857625 34,8 C34,10.7614237 31.7614237,13 29,13 C27.9804576,13 27.0321874,12.6948479 26.2415398,12.1708943 L23.238027,15.0715217 C23.7233241,15.9376903 24,16.9365346 24,18 C24,18.9402053 23.7837431,19.8299012 23.3982572,20.6220596 L27.6941697,25.562269 C28.3841102,25.2030459 29.1683431,25 30,25 C32.7614237,25 35,27.2385763 35,30 C35,32.7614237 32.7614237,35 30,35 C27.2385763,35 25,32.7614237 25,30 C25,29.1659208 25.2042304,28.3795422 25.5654118,27.6881435 L21.4263296,22.926115 C20.4548968,23.6030555 19.2738041,24 18,24 C16.697422,24 15.4917912,23.5849198 14.5081617,22.8798136 L11.7083525,25.3132751 C11.8971522,25.8402313 12,26.408105 12,27 C12,29.7614237 9.76142375,32 7,32 C4.23857625,32 2,29.7614237 2,27 C2,24.2385763 4.23857625,22 7,22 C8.07654623,22 9.07362775,22.3402289 9.88958516,22.9190272 L12.5809455,20.5788826 C12.2084873,19.7976275 12,18.9231611 12,18 C12,17.0132978 12.2381753,16.0822244 12.6601702,15.2611356 L8.09957834,10.5391402 C7.46117738,10.8349281 6.74986599,11 6,11 C3.23857625,11 1,8.76142375 1,6 C1,3.23857625 3.23857625,1 6,1 Z M30,28 C28.8954305,28 28,28.8954305 28,30 C28,31.1045695 28.8954305,32 30,32 C31.1045695,32 32,31.1045695 32,30 C32,28.8954305 31.1045695,28 30,28 Z M7,25 C5.8954305,25 5,25.8954305 5,27 C5,28.1045695 5.8954305,29 7,29 C8.1045695,29 9,28.1045695 9,27 C9,25.8954305 8.1045695,25 7,25 Z M18,15 C16.3431458,15 15,16.3431458 15,18 C15,19.6568542 16.3431458,21 18,21 C19.6568542,21 21,19.6568542 21,18 C21,16.3431458 19.6568542,15 18,15 Z M29,6 C27.8954305,6 27,6.8954305 27,8 C27,9.1045695 27.8954305,10 29,10 C30.1045695,10 31,9.1045695 31,8 C31,6.8954305 30.1045695,6 29,6 Z M6,4 C4.8954305,4 4,4.8954305 4,6 C4,7.1045695 4.8954305,8 6,8 C7.1045695,8 8,7.1045695 8,6 C8,4.8954305 7.1045695,4 6,4 Z"
              id="形状结合" fill="white"></path>
    </g>
</svg>