<?xml version="1.0" encoding="UTF-8"?>
<svg width="36px" height="36px" viewBox="0 0 36 36" version="1.1" xmlns="http://www.w3.org/2000/svg" xmlns:xlink="http://www.w3.org/1999/xlink">
    <title>Icon/政策法规</title>
    <g id="Icon/政策法规" stroke="none" stroke-width="1" fill="none" fill-rule="evenodd">
        <rect id="矩形" x="0" y="0" width="36" height="36"></rect>
        <path d="M11,1 L11,35 L1,35 L1,1 L11,1 Z M8,4 L4,4 L4,32 L8,32 L8,4 Z" id="形状结合" fill="#666666"></path>
        <rect id="矩形" fill="#666666" x="5" y="8" width="2" height="2"></rect>
        <rect id="矩形" fill="#666666" x="5" y="12" width="2" height="2"></rect>
        <rect id="矩形" fill="#666666" x="5" y="16" width="2" height="2"></rect>
        <path d="M23,1 L23,35 L13,35 L13,1 L23,1 Z M20,4 L16,4 L16,32 L20,32 L20,4 Z" id="形状结合" fill="#0596B3"></path>
        <rect id="矩形" fill="#0596B3" x="17" y="8" width="2" height="2"></rect>
        <rect id="矩形" fill="#0596B3" x="17" y="12" width="2" height="2"></rect>
        <rect id="矩形" fill="#0596B3" x="17" y="16" width="2" height="2"></rect>
        <path d="M35,1 L35,35 L25,35 L25,1 L35,1 Z M32,4 L28,4 L28,32 L32,32 L32,4 Z" id="形状结合" fill="#666666"></path>
        <rect id="矩形" fill="#666666" x="29" y="8" width="2" height="2"></rect>
        <rect id="矩形" fill="#666666" x="29" y="12" width="2" height="2"></rect>
        <rect id="矩形" fill="#666666" x="29" y="16" width="2" height="2"></rect>
    </g>
</svg>