<?xml version="1.0" encoding="UTF-8"?>
<svg width="36px" height="36px" viewBox="0 0 36 36" version="1.1" xmlns="http://www.w3.org/2000/svg"
>
    <title>Icon/重点园区 line</title>
    <g id="Icon/重点园区-line" stroke="none" stroke-width="1" fill="none" fill-rule="evenodd">
        <rect id="矩形" x="0" y="0" width="36" height="36"></rect>
        <path d="M1,35 L1,32 L4,32 L4,6 L21,1 L21,32 L27.5,32 L27.5008163,28.7167757 C24.9125613,27.7181054 23,24.1940797 23,20 C23,15.0294373 25.6862915,11 29,11 C32.3137085,11 35,15.0294373 35,20 C35,24.1935442 33.087927,27.7172055 30.5001751,28.7163931 L30.5,32 L35,32 L35,35 L1,35 Z M18,4.99859943 L7,8.24703805 L7,32 L18,32 L18,4.99859943 Z M29,14 C27.3431458,14 26,16.6862915 26,20 C26,23.3137085 27.3431458,26 29,26 C30.6568542,26 32,23.3137085 32,20 C32,16.6862915 30.6568542,14 29,14 Z M16,21 L16,24 L9,24 L9,21 L16,21 Z M16,16 L16,19 L9,19 L9,16 L16,16 Z M16,11 L16,14 L9,14 L9,11 L16,11 Z"
              id="形状结合" fill="white"></path>
    </g>
</svg>