<?xml version="1.0" encoding="UTF-8"?>
<svg width="36px" height="36px" viewBox="0 0 36 36" version="1.1" xmlns="http://www.w3.org/2000/svg" xmlns:xlink="http://www.w3.org/1999/xlink">
    <title>Icon/投资赛道 line</title>
    <g id="Icon/投资赛道-line" stroke="none" stroke-width="1" fill="none" fill-rule="evenodd">
        <rect id="矩形" x="0" y="0" width="36" height="36"></rect>
        <path d="M29.5,24 C32.5375661,24 35,26.4624339 35,29.5 C35,32.5375661 32.5375661,35 29.5,35 C26.9825098,35 24.8600694,33.3085909 24.2070823,31.0001762 L1,31 L1,28 L24.206797,28.0008328 C24.8594509,25.691902 26.982143,24 29.5,24 Z M29.5,27 C28.1192881,27 27,28.1192881 27,29.5 C27,30.8807119 28.1192881,32 29.5,32 C30.8807119,32 32,30.8807119 32,29.5 C32,28.1192881 30.8807119,27 29.5,27 Z M16,14 L18.2517481,14.0002541 C18.8191742,12.4814535 20.2832936,11.4 22,11.4 C24.209139,11.4 26,13.190861 26,15.4 C26,17.609139 24.209139,19.4 22,19.4 C20.3600751,19.4 18.9506481,18.4131215 18.333208,17.0008535 L16,17 L16,22.5 C16,23.3284271 15.3284271,24 14.5,24 L1,24 L1,21 L13,21 L13,17 L1,17 L1,14 L13,14 L13,6.5 C13,5.67157288 13.6715729,5 14.5,5 L24.206797,5.00083278 C24.8594509,2.69190202 26.982143,1 29.5,1 C32.5375661,1 35,3.46243388 35,6.5 C35,9.53756612 32.5375661,12 29.5,12 C26.9825098,12 24.8600694,10.3085909 24.2070823,8.00017618 L16,8 L16,14 Z M29.5,4 C28.1192881,4 27,5.11928813 27,6.5 C27,7.88071187 28.1192881,9 29.5,9 C30.8807119,9 32,7.88071187 32,6.5 C32,5.11928813 30.8807119,4 29.5,4 Z" id="形状结合" fill="#333333"></path>
    </g>
</svg>