<?xml version="1.0" encoding="UTF-8"?>
<svg width="36px" height="36px" viewBox="0 0 36 36" version="1.1" xmlns="http://www.w3.org/2000/svg" xmlns:xlink="http://www.w3.org/1999/xlink">
    <title>Icon/查网站 line</title>
    <g id="Icon/查网站-line" stroke="none" stroke-width="1" fill="none" fill-rule="evenodd">
        <rect id="矩形" x="0" y="0" width="36" height="36"></rect>
        <path d="M16.5,25 L3,25 C1.8954305,25 1,24.1045695 1,23 L1,3 C1,1.8954305 1.8954305,1 3,1 L33,1 C34.1045695,1 35,1.8954305 35,3 L35,23 C35,24.1045695 34.1045695,25 33,25 L19.5,25 L19.5,32 L27,32 L27,35 L9,35 L9,32 L16.5,32 L16.5,25 Z M32,4 L4,4 L4,22 L32,22 L32,4 Z M13.0104076,7.44 L15.131728,9.56132034 L11.584,13.109 L15.131728,16.6568542 L13.0104076,18.7781746 L7.35355339,13.1213203 L7.365,13.109 L7.35355339,13.0968542 L13.0104076,7.44 Z M23.1213203,7.44 L28.7781746,13.0968542 L28.766,13.109 L28.7781746,13.1213203 L23.1213203,18.7781746 L21,16.6568542 L24.547,13.109 L21,9.56132034 L23.1213203,7.44 Z" id="形状结合" fill="#333333"></path>
    </g>
</svg>