<?xml version="1.0" encoding="UTF-8"?>
<svg width="36px" height="36px" viewBox="0 0 36 36" version="1.1" xmlns="http://www.w3.org/2000/svg" xmlns:xlink="http://www.w3.org/1999/xlink">
    <title>Icon/融资图谱 line</title>
    <g id="Icon/融资图谱-line" stroke="none" stroke-width="1" fill="none" fill-rule="evenodd">
        <rect id="矩形" x="0" y="0" width="36" height="36"></rect>
        <path d="M18,1 C20.209139,1 22,2.790861 22,5 C22,6.67850691 20.9661392,8.1155427 19.5004764,8.70904859 L19.5004604,12.2290458 C21.5287761,12.8663197 23,14.7613485 23,17 C23,19.2386515 21.5287761,21.1336803 19.5004604,21.7709542 L19.5004764,27.2909514 C20.4781439,27.6868484 21.2636798,28.4580766 21.6783899,29.4259419 L27.32175,29.4256153 C27.736637,28.4575762 28.5224968,27.6862828 29.5005144,27.2905503 L29.5005144,15.7094497 C28.0343267,15.1161903 27,13.6788851 27,12 C27,9.790861 28.790861,8 31,8 C33.209139,8 35,9.790861 35,12 C35,13.6785069 33.9661392,15.1155427 32.5004764,15.7090486 L32.5004764,27.2909514 C33.9661392,27.8844573 35,29.3214931 35,31 C35,33.209139 33.209139,35 31,35 C29.2935054,35 27.8366017,33.9313742 27.2619691,32.4268029 L21.7380309,32.4268029 C21.1633983,33.9313742 19.7064946,35 18,35 C16.2935054,35 14.8366017,33.9313742 14.2619691,32.4268029 L8.73803089,32.4268029 C8.16339835,33.9313742 6.70649464,35 5,35 C2.790861,35 1,33.209139 1,31 C1,29.3211149 2.03432675,27.8838097 3.5005144,27.2905503 L3.5005144,22.7094497 C2.03432675,22.1161903 1,20.6788851 1,19 C1,16.790861 2.790861,15 5,15 C7.209139,15 9,16.790861 9,19 C9,20.6785069 7.96613922,22.1155427 6.50047642,22.7090486 L6.50121265,27.2912496 C7.47862199,27.6872695 8.2639184,28.4584516 8.67849642,29.4261905 L14.2842276,29.4267136 L14.2835816,29.5178542 C14.6872235,28.5066357 15.4916297,27.6987725 16.5005144,27.2905503 L16.5005475,21.7712708 C14.4717113,21.134308 13,19.2390223 13,17 C13,14.7609777 14.4717113,12.865692 16.5005475,12.2287292 L16.5005144,8.70944966 C15.0343267,8.11619029 14,6.67888513 14,5 C14,2.790861 15.790861,1 18,1 Z M18,30 C17.4477153,30 17,30.4477153 17,31 C17,31.5522847 17.4477153,32 18,32 C18.5522847,32 19,31.5522847 19,31 C19,30.4477153 18.5522847,30 18,30 Z M5,30 C4.44771525,30 4,30.4477153 4,31 C4,31.5522847 4.44771525,32 5,32 C5.55228475,32 6,31.5522847 6,31 C6,30.4477153 5.55228475,30 5,30 Z M31,30 C30.4477153,30 30,30.4477153 30,31 C30,31.5522847 30.4477153,32 31,32 C31.5522847,32 32,31.5522847 32,31 C32,30.4477153 31.5522847,30 31,30 Z M5,18 C4.44771525,18 4,18.4477153 4,19 C4,19.5522847 4.44771525,20 5,20 C5.55228475,20 6,19.5522847 6,19 C6,18.4477153 5.55228475,18 5,18 Z M18,15 C16.8954305,15 16,15.8954305 16,17 C16,18.1045695 16.8954305,19 18,19 C19.1045695,19 20,18.1045695 20,17 C20,15.8954305 19.1045695,15 18,15 Z M31,11 C30.4477153,11 30,11.4477153 30,12 C30,12.5522847 30.4477153,13 31,13 C31.5522847,13 32,12.5522847 32,12 C32,11.4477153 31.5522847,11 31,11 Z M18,4 C17.4477153,4 17,4.44771525 17,5 C17,5.55228475 17.4477153,6 18,6 C18.5522847,6 19,5.55228475 19,5 C19,4.44771525 18.5522847,4 18,4 Z" id="形状结合" fill="#333333"></path>
    </g>
</svg>