<svg xmlns="http://www.w3.org/2000/svg" xmlns:xlink="http://www.w3.org/1999/xlink" fill="none"
    version="1.1" width="14" height="12" viewBox="0 0 14 12">
    <g transform="matrix(1,0,0,-1,0,24)">
        <g>
            <path
                d="M13.7188,17.28125Q14,17.59375,14,18Q14,18.40625,13.7188,18.71875L8.71875,23.7188Q8.40625,24,8,24Q7.59375,24,7.28125,23.7188Q7,23.4062,7,23Q7,22.5938,7.28125,22.2812L10.5938,19L1,19Q0.5625,19,0.28125,18.71875Q0,18.4375,0,18Q0,17.5625,0.28125,17.28125Q0.5625,17,1,17L10.5938,17L7.28125,13.71875Q7,13.40625,7,13Q7,12.59375,7.28125,12.28125Q7.59375,12,8,12Q8.40625,12,8.71875,12.28125L13.7188,17.28125Z"
                fill="#00AEC7" fill-opacity="1" style="mix-blend-mode:passthrough" />
        </g>
    </g>
</svg>