<?xml version="1.0" encoding="UTF-8"?>
<svg width="44px" height="18px" viewBox="0 0 44 18" version="1.1" xmlns="http://www.w3.org/2000/svg" xmlns:xlink="http://www.w3.org/1999/xlink">
    <title>VIP-红</title>
    <defs>
        <linearGradient x1="21.78414%" y1="48.2685778%" x2="95.0478118%" y2="51.534174%" id="linearGradient-1">
            <stop stop-color="#FF7E2C" offset="0%"></stop>
            <stop stop-color="#FB332E" offset="100%"></stop>
        </linearGradient>
    </defs>
    <g id="页面-1" stroke="none" stroke-width="1" fill="none" fill-rule="evenodd">
        <g id="编组-9" transform="translate(0.000000, 0.490785)">
            <path d="M6.93735152,0 L39.9373515,0 C42.1464905,-4.05812251e-16 43.9373515,1.790861 43.9373515,4 L43.9373515,13 C43.9373515,15.209139 42.1464905,17 39.9373515,17 L6.93735152,17 C4.72821252,17 2.93735152,15.209139 2.93735152,13 L2.93735152,11.0123815 L2.93735152,11.0123815 L0,8.52842204 L2.93735152,6.04784937 L2.93735152,4 C2.93735152,1.790861 4.72821252,-3.69946605e-13 6.93735152,0 Z" id="矩形" fill="url(#linearGradient-1)"></path>
            <path d="M15.3978507,4 L15.8304863,12.025558 L16.0424863,12.025558 L20.8475474,4 L22.6420868,4 L16.8394811,13.4495666 L14.5067181,13.4495666 L14,4 L15.3978507,4 Z M25.2941894,4 L22.8980021,13.4495666 L21.3725744,13.4495666 L23.9000001,4 L25.2941894,4 Z M31.8877843,4.01867176 C33.3535259,4.01867176 34.5417443,5.20689011 34.5417443,6.67263173 C34.5417443,6.92840245 34.5047711,7.18283006 34.4319717,7.42802165 C33.9016912,9.21403045 32.2603085,10.4388931 30.3972398,10.4388931 L26.9924863,10.438558 L26.3596785,13.4495666 L24.9915885,13.4495666 L26.954773,4.01867176 L31.8877843,4.01867176 Z M31.8877843,5.41867176 L28.0824863,5.41855799 L27.2964863,9.03855799 L30.3972398,9.03889307 C31.6405864,9.03889307 32.7359876,8.22146276 33.0898782,7.02954318 C33.124275,6.9136935 33.1417443,6.79347992 33.1417443,6.67263173 C33.1417443,5.98008876 32.5803273,5.41867176 31.8877843,5.41867176 Z" id="形状结合" fill="#FFFFFF" fill-rule="nonzero"></path>
        </g>
    </g>
</svg>