<?xml version="1.0" standalone="no"?><!DOCTYPE svg PUBLIC "-//W3C//DTD SVG 1.1//EN" "http://www.w3.org/Graphics/SVG/1.1/DTD/svg11.dtd"><svg t="1711957669141" class="icon" viewBox="0 0 1024 1024" version="1.1" xmlns="http://www.w3.org/2000/svg" p-id="11356" xmlns:xlink="http://www.w3.org/1999/xlink" width="200" height="200"><path d="M448 801.92a26.667 26.667 0 0 1 8.747-4.693h1.28a33.707 33.707 0 0 1 8.106-1.067 30.08 30.08 0 0 1 30.08 29.867 29.653 29.653 0 0 1-14.933 25.813L280.96 954.667a25.813 25.813 0 0 1-26.667-7.467 27.52 27.52 0 0 1-8.32-29.867l46.08-266.666-196.266-192a28.8 28.8 0 0 1-10.454-27.094 27.307 27.307 0 0 1 21.334-22.613L384 368.64q61.653-128 123.52-248.32a26.027 26.027 0 0 1 25.813-13.653 22.827 22.827 0 0 1 24.107 13.44q14.507 25.173 125.227 248.32L960 408.96a29.013 29.013 0 0 1 18.133 17.493 42.667 42.667 0 0 1-1.706 27.52L842.88 584.32a30.08 30.08 0 0 1-45.44-39.04l89.173-86.613-226.773-32a16.64 16.64 0 0 1-12.8-4.48 57.6 57.6 0 0 1-12.587-17.067l-101.12-201.173-101.76 204.586a37.12 37.12 0 0 1-13.226 13.654 44.16 44.16 0 0 1-19.414 4.48L179.2 458.24l164.053 158.933a37.547 37.547 0 0 1 9.6 13.867 47.147 47.147 0 0 1 0 17.707l-37.12 222.506z m300.8-26.24l90.667-90.027a30.293 30.293 0 0 1 42.666 0 29.653 29.653 0 0 1 0 42.667l-90.666 89.6 90.666 90.027a29.653 29.653 0 0 1 0 42.666 30.293 30.293 0 0 1-42.666 0L748.8 860.16l-90.667 90.027a30.293 30.293 0 0 1-42.666 0 29.653 29.653 0 0 1 0-42.667l90.88-90.027-90.88-89.813a30.08 30.08 0 0 1 0-42.667 30.72 30.72 0 0 1 42.666 0z m0 0" p-id="11357" fill="#666666"></path></svg>