<?xml version="1.0" encoding="utf-8"?><svg viewBox="0 0 18 18" focusable="false" class="" data-icon="fire" width="16px" height="16px" fill="#cd0000" aria-hidden="true" version="1.1" xmlns="http://www.w3.org/2000/svg" xmlns:xlink="http://www.w3.org/1999/xlink"><path d="M11.39 7.42a2.27 2.27 0 001.14-1.63v-.02a.2.2 0 01.33-.11l.02.02A6.89 6.89 0 0115.1 11 6.1 6.1 0 114.69 6.69l.5-.5c.21-.2.39-.38.55-.56 1.24-1.34 1.82-2.66 1.59-4.3l-.03-.19V1.1A.2.2 0 017.5.91c.1 0 .18.02.25.03 2.03.45 4.01 3.45 3.64 6.4l-.01.08z" fill-rule="nonzero"></path></svg>