<?xml version="1.0" encoding="UTF-8"?>
<svg width="160px" height="16px" viewBox="0 0 16 16" version="1.1" xmlns="http://www.w3.org/2000/svg" xmlns:xlink="http://www.w3.org/1999/xlink">
    <g transform="translate(-16,0)">
        <title>触达@1x</title>
        <g id="Page-1" stroke="none" stroke-width="1" fill="none" fill-rule="evenodd" stroke-linecap="round">
            <g id="触达-选中备份" transform="translate(2.666667, 1.666667)" stroke="#666666">
                <path d="M2.33333333,7 L2.33333333,3.33333333 C2.33333333,2.78104858 2.78104858,2.33333333 3.33333333,2.33333333 C3.88561808,2.33333333 4.33333333,2.78104858 4.33333333,3.33333333 L4.33333333,7" id="路径" stroke-linejoin="round"></path>
                <path d="M10.3333333,6.66666667 L10.3333333,8.83333333 C10.3333333,10.9504249 8.61709153,12.6666667 6.5,12.6666667 L6.16666667,12.6666667 C4.04957513,12.6666667 2.33333333,10.9504249 2.33333333,8.83333333 L2.33333333,6.66666667" id="路径" stroke-linejoin="round"></path>
                <path d="M4.33333333,8 L4.33333333,7.3685843 L4.33333333,6.33333333 C4.33333333,5.7810486 4.78104858,5.33333333 5.33333333,5.33333333 C5.88561807,5.33333333 6.33333333,5.7810486 6.33333333,6.33333333 L6.33333333,7.39393457 L6.33333333,8" id="路径" stroke-linejoin="round"></path>
                <path d="M6.33333333,8 L6.33333333,7.3685843 L6.33333333,6.33333333 C6.33333333,5.7810486 6.7810486,5.33333333 7.33333333,5.33333333 C7.88561807,5.33333333 8.33333333,5.7810486 8.33333333,6.33333333 L8.33333333,7.39393457 L8.33333333,8" id="路径" stroke-linejoin="round"></path>
                <path d="M8.33333333,8 L8.33333333,7.3685843 L8.33333333,6.33333333 C8.33333333,5.7810486 8.7810486,5.33333333 9.33333333,5.33333333 C9.88561807,5.33333333 10.3333333,5.7810486 10.3333333,6.33333333 L10.3333333,7.39393457 L10.3333333,8" id="路径" stroke-linejoin="round"></path>
                <path d="M6.66666667,3.33333333 C6.66666667,2.98296228 6.61260947,2.64521696 6.51238037,2.32798264 C6.4002803,1.97317571 6.23042363,1.64402607 6.01384227,1.35156567 C5.40659737,0.53157314 4.43204313,0 3.33333333,0 C2.23462354,0 1.26006931,0.53157314 0.652824387,1.35156567 C0.436243037,1.64402607 0.266386357,1.97317571 0.154286303,2.32798264 C0.0540571913,2.64521696 0,2.98296228 0,3.33333333" id="路径"></path>
            </g>
        </g>
    </g>
    <g transform="translate(-32,0)">
        <title>pdf@1x</title>
        <g id="Page-1" stroke="none" stroke-width="1" fill="none" fill-rule="evenodd">
            <g id="编组" transform="translate(1.000000, 1.454667)" fill="#666666" fill-rule="nonzero">
                <g id="WindIcon/Outlined/File/FilePdf">
                    <path d="M2.96111111,10.6920313 L2.96111111,11.5798511 L11.4833333,11.5798511 L11.4833333,3.71429188 L9.46111111,3.71429188 C9.38133665,3.71429188 9.31666667,3.64907834 9.31666667,3.56863337 L9.31666667,1.5294143 L2.96111111,1.5294143 L2.96111111,4.6370506 C2.96111111,4.71749557 2.89644113,4.7827091 2.81666667,4.7827091 L2.23888889,4.7827091 C2.15911443,4.7827091 2.09444444,4.71749557 2.09444444,4.6370506 L2.09444444,0.801121778 C2.09444444,0.720676807 2.15911443,0.655463273 2.23888889,0.655463273 L10.0789916,0.655463273 C10.1173007,0.655463273 10.1540407,0.670809392 10.1811293,0.698125661 L12.3076932,2.84256342 C12.3347818,2.86987969 12.35,2.9069285 12.35,2.94555954 L12.35,12.3081437 C12.35,12.3885886 12.28533,12.4538022 12.2055556,12.4538022 L2.23888889,12.4538022 C2.15911443,12.4538022 2.09444444,12.3885886 2.09444444,12.3081437 L2.09444444,10.6920313 C2.09444444,10.6115863 2.15911443,10.5463728 2.23888889,10.5463728 L2.81666667,10.5463728 C2.89644113,10.5463728 2.96111111,10.6115863 2.96111111,10.6920313 Z M0.685978868,9.39497357 L0.685978868,5.891346 C0.685978868,5.83101227 0.734481354,5.78210212 0.794312202,5.78210212 L1.89464315,5.78210212 C2.34221411,5.78210212 2.63384344,5.80048215 2.77271585,5.83805443 C2.98796427,5.89490285 3.16837198,6.01862844 3.31304975,6.20829038 C3.45811817,6.39846442 3.53036363,6.64316375 3.53036363,6.94118252 C3.53036363,7.17084684 3.48879754,7.36502662 3.40516674,7.52336749 C3.32191604,7.68098868 3.2156951,7.80530943 3.08657807,7.89584743 C2.95856223,7.98561327 2.82791322,8.04526424 2.69405993,8.07467586 C2.516874,8.11007377 2.26214034,8.12764501 1.92920261,8.12764501 L1.48888685,8.12764501 L1.48888685,9.39497357 C1.48888685,9.4553073 1.44038437,9.50421745 1.38055352,9.50421745 L0.794312202,9.50421745 C0.734481354,9.50421745 0.685978868,9.4553073 0.685978868,9.39497357 Z M1.48757073,7.43498476 L1.85267809,7.43498476 C2.1363188,7.43498476 2.32560847,7.41622299 2.41719895,7.38021813 C2.50763525,7.34466698 2.57788905,7.28952332 2.62884389,7.21436593 C2.67976599,7.13925681 2.70523885,7.05184448 2.70523885,6.95113964 C2.70523885,6.82709356 2.66965433,6.72631407 2.59853903,6.64697199 C2.5266078,6.5667196 2.43588066,6.51674623 2.3248782,6.49653452 C2.24059684,6.48049872 2.06685105,6.47227308 1.80577596,6.47227308 L1.48757073,6.47227308 L1.48757073,7.43498476 Z M4.40582004,5.78210212 L5.66907416,5.78210212 C5.9733603,5.78210212 6.2060343,5.80564918 6.36799874,5.85328599 C6.58638557,5.9181577 6.77375339,6.03357516 6.92954142,6.19921049 C7.08462078,6.36409237 7.20247797,6.56570915 7.28310721,6.8037013 C7.36350582,7.04101274 7.40353597,7.33240916 7.40353597,7.67800972 C7.40353597,7.98217868 7.36594478,8.24500158 7.29049067,8.46650308 C7.19820834,8.73721715 7.0660635,8.95704633 6.89397745,9.1254748 C6.76297385,9.25414819 6.58696431,9.3539857 6.36621734,9.42535411 C6.20092803,9.47807896 5.98185693,9.50421745 5.70857069,9.50421745 L4.40582004,9.50421745 C4.34598919,9.50421745 4.29748671,9.4553073 4.29748671,9.39497357 L4.29748671,5.891346 C4.29748671,5.83101227 4.34598919,5.78210212 4.40582004,5.78210212 Z M5.09984234,8.81653577 L5.60982937,8.81653577 C5.81112241,8.81653577 5.95588321,8.80511853 6.04293855,8.78277308 C6.15587266,8.75430225 6.24886279,8.70643552 6.32245167,8.6392583 C6.39507111,8.57296605 6.45582275,8.46111302 6.50345334,8.30341146 C6.55163033,8.14390085 6.57594265,7.92447662 6.57594265,7.64564907 C6.57594265,7.36706491 6.55166214,7.15404898 6.50370227,7.00734794 C6.45610201,6.86174691 6.39003378,6.74912142 6.30584627,6.6689427 C6.22194213,6.58903386 6.11517206,6.53480718 5.98449812,6.50622871 C5.88591263,6.48378036 5.68784388,6.47227308 5.39259847,6.47227308 L5.09984234,6.47227308 L5.09984234,8.81653577 Z M7.90672438,9.39497357 L7.90672438,5.891346 C7.90672438,5.83101227 7.95522686,5.78210212 8.01505771,5.78210212 L10.3514889,5.78210212 C10.4113198,5.78210212 10.4598223,5.83101227 10.4598223,5.891346 L10.4598223,6.3630292 C10.4598223,6.42336293 10.4113198,6.47227308 10.3514889,6.47227308 L8.74574348,6.47227308 C8.72579986,6.47227308 8.70963236,6.48857647 8.70963236,6.50868771 L8.70963236,7.22680974 C8.70963236,7.24692099 8.72579986,7.26322437 8.74574348,7.26322437 L10.1120412,7.26322437 C10.1718721,7.26322437 10.2203746,7.31213452 10.2203746,7.37246825 L10.2203746,7.84415145 C10.2203746,7.90448518 10.1718721,7.95339533 10.1120412,7.95339533 L8.74574348,7.95339533 C8.72579986,7.95339533 8.70963236,7.96969872 8.70963236,7.98980996 L8.70963236,9.39497357 C8.70963236,9.4553073 8.66112988,9.50421745 8.60129903,9.50421745 L8.01505771,9.50421745 C7.95522686,9.50421745 7.90672438,9.4553073 7.90672438,9.39497357 Z" id="FilePdf"></path>
                </g>
            </g>
        </g>
    </g>
    <g transform="translate(0,0)">
        <title>收藏@1x</title>
        <g id="Page-1" stroke="none" stroke-width="1" fill="none" fill-rule="evenodd">
            <path d="M8.49998888,12.0283584 L4.66824599,13.9809056 C4.58455702,14.0235512 4.48104636,13.9923642 4.43704847,13.9112476 C4.41952828,13.8789465 4.41348249,13.8419483 4.41984708,13.8059805 L5.15164485,9.67041909 L2.05169973,6.74159824 C1.98399393,6.67762996 1.98260855,6.57257409 2.04860539,6.50694938 C2.07488568,6.48081728 2.10932076,6.46381104 2.14657967,6.45856341 L6.43059847,5.85519313 L8.34646992,2.09253506 C8.3883144,2.01035497 8.49096884,1.97661385 8.57575502,2.01717214 C8.60951733,2.03332267 8.63684516,2.05981052 8.65350785,2.09253506 L10.5693793,5.85519313 L14.8533981,6.45856341 C14.9469652,6.4717416 15.0117945,6.55594431 14.9981984,6.64663542 C14.9927844,6.6827491 14.9752388,6.71612573 14.948278,6.74159824 L11.8483329,9.67041909 L12.5801307,13.8059805 C12.5961139,13.8963052 12.5335261,13.9820864 12.4403371,13.9975783 C12.4032287,14.0037473 12.3650572,13.9978873 12.3317318,13.9809056 L8.49998888,12.0283584 Z M5.71476288,12.2766994 L8.01131609,11.1064412 C8.31055974,10.9539551 8.66805525,10.9539551 8.9672989,11.1064412 L11.2638521,12.2766994 L10.8252495,9.79805274 C10.768099,9.47508208 10.8785712,9.14553428 11.1206644,8.91680519 L12.978615,7.16141787 L10.4109904,6.79978819 C10.0764259,6.7526674 9.78720593,6.54899566 9.6375841,6.25514725 L8.48930749,4 L7.34103089,6.25514725 C7.19140906,6.54899566 6.90218912,6.7526674 6.56762454,6.79978819 L4,7.16141787 L5.85795057,8.91680519 C6.10004378,9.14553428 6.21051596,9.47508208 6.15336551,9.79805274 L5.71476288,12.2766994 Z" id="收藏" fill="#666666" fill-rule="nonzero"></path>
        </g>
    </g>
    <g transform="translate(16,0)">
        <path d="M2.1 1.9h12.8c.11 0 .2.09.2.2v12.8a.2.2 0 01-.2.2H2.1a.2.2 0 01-.2-.2V2.1c0-.11.09-.2.2-.2zm1 1.2v10.8h10.8V3.1H3.1zm8.8 4.8c.11 0 .2.09.2.2v.8a.2.2 0 01-.2.2H5.1a.2.2 0 01-.2-.2v-.8c0-.11.09-.2.2-.2h6.8z" fill-rule="nonzero"></path>
    </g>
</svg>