<?xml version="1.0" encoding="UTF-8"?>
<svg width="129px" height="22px" viewBox="0 0 129 22" version="1.1" xmlns="http://www.w3.org/2000/svg" xmlns:xlink="http://www.w3.org/1999/xlink">
    <title>RD LOGO</title>
    <g id="页面-1" stroke="none" stroke-width="1" fill="none" fill-rule="evenodd">
        <g id="RD-LOGO" fill="#4F709B" fill-rule="nonzero">
            <path d="M9.61427357,1 C13.6475786,1 16.9305012,4.49614111 16.9305012,8.79106944 C16.9305012,10.7590959 16.0980459,12.5418963 14.7848768,13.7342888 C16.0745964,16.0611906 16.7663551,18.6890849 16.7663551,21.4211687 C16.7663551,21.6179712 16.7663551,21.8031973 16.7546304,22 L16.7546304,22 L11.7364486,22 C11.7481733,21.8031973 11.7481733,21.6179712 11.7481733,21.4211687 C11.7481733,19.1637265 11.0681393,17.0683572 9.88394222,15.3202867 L9.88394222,15.3202867 L4.58436703,15.3202867 L4.58436703,22 L0,22 L0,1 L9.61427357,1 Z M44.15531,5.53803747 C45.4567545,5.53803747 46.5237043,5.71168686 47.3561597,6.07056228 C48.188615,6.42943769 48.8569244,6.92723261 49.3493627,7.57552369 C49.8418012,8.22381475 50.1818182,8.99944871 50.3694137,9.89084892 C50.5570093,10.7822492 50.6508071,11.777839 50.6508071,12.8776185 L50.6508071,21.9536934 L46.0312659,21.9536934 L46.0312659,13.4448732 C46.0312659,11.9862183 45.8436703,10.9443219 45.4567545,10.3307607 C45.0698385,9.71719954 44.4249788,9.41620725 43.4987255,9.41620725 C43.2525064,9.41620725 42.9007647,9.47409038 42.4669498,9.60143327 C42.0214103,9.72877615 41.6579439,9.8792723 41.3648259,10.0529217 C41.5055224,10.5159867 41.5993203,11.0137817 41.6462192,11.5347298 C41.6813934,12.055678 41.7048428,12.6113561 41.7048428,13.201764 L41.7048428,21.9536934 L37.0970263,21.9536934 L37.0970263,13.4448732 L37.108751,13.4448732 C37.108751,11.9862183 36.9211554,10.9443219 36.5342396,10.3307607 C36.1473237,9.71719954 35.5024639,9.41620725 34.5762106,9.41620725 C34.2830926,9.41620725 33.9899745,9.42778388 33.6851317,9.46251375 C33.3802889,9.49724363 33.075446,9.53197352 32.7940526,9.5667034 L32.7940526,21.9536934 L28.1862362,21.9536934 L28.1862362,6.45259094 C28.5731521,6.3484013 29.0304164,6.24421167 29.5580289,6.12844541 C30.0856414,6.01267915 30.6367035,5.92006614 31.2229397,5.82745313 C31.8091758,5.73484012 32.4071368,5.66538036 33.0285471,5.61907386 C33.6499575,5.57276736 34.2479184,5.53803747 34.8458794,5.53803747 C36.0183518,5.53803747 36.9680543,5.68853361 37.706712,5.97794926 C38.4336448,6.26736492 39.0433305,6.62624034 39.5123194,7.03142225 C40.168904,6.5683572 40.931011,6.19790517 41.7869159,5.93164276 C42.6428208,5.66538036 43.4283772,5.53803747 44.15531,5.53803747 Z M61.226508,5.54961411 C63.6183517,5.54961411 65.5060322,6.22105842 66.9012745,7.57552369 C68.2965165,8.91841232 68.9882752,10.909592 69,13.5490628 C69,13.8037486 68.9882752,14.0931642 68.9648258,14.3941565 C68.9531011,14.6951488 68.9296516,14.9729878 68.9062022,15.2045204 L68.9062022,15.2045204 L58.0608326,15.2045204 C58.1663551,16.1190739 58.635344,16.8368247 59.44435,17.3693494 C60.2533559,17.9018743 61.3437552,18.1681366 62.7155479,18.1681366 C63.0555649,18.1681366 63.395582,18.15656 63.7238742,18.1334068 C64.1225148,18.1102535 64.5094308,18.063947 64.9080713,18.0060639 C64.9080713,18.0060639 64.9135149,18.005178 64.9239407,18.0034397 L65.0425895,17.9830541 C65.3561831,17.9279217 66.1609418,17.7778389 66.8426507,17.5777288 C67.0185216,17.5198456 67.1943924,17.4619625 67.3585385,17.3925027 L67.3585385,17.3925027 C67.4992353,17.3461961 67.6164826,17.2883131 67.7102803,17.23043 L67.7102803,17.23043 L67.7102803,17.693495 L68.0033984,20.9696801 C67.7454545,21.0970231 67.3937128,21.2127893 66.9716227,21.3285556 C66.5378079,21.444322 66.068819,21.5485115 65.5412064,21.6411245 C65.0135938,21.7221609 64.450807,21.8031973 63.8528462,21.8610804 C63.2548853,21.9189636 62.6569243,21.9536934 62.0589635,21.9536934 C60.5347494,21.9536934 59.2215803,21.7453142 58.0960068,21.3285556 C56.9704333,20.9117971 56.0441802,20.3445424 55.3055225,19.6267916 C54.5668649,18.9090407 54.0158029,18.0523705 53.6640612,17.0683572 C53.3123194,16.0843439 53.1364485,15.0192943 53.1364485,13.8732083 C53.1364485,12.4955898 53.370943,11.2916207 53.8282073,10.2497243 C54.2971962,9.20782798 54.8951571,8.35115765 55.6455395,7.65656007 C56.3959217,6.96196249 57.2518266,6.44101432 58.2249787,6.0821389 C59.1981307,5.72326349 60.1947323,5.54961411 61.226508,5.54961411 Z M24.8564146,9.50882027 L24.8564146,21.9421168 L20.2485981,21.9421168 L20.2485981,9.50882027 L24.8564146,9.50882027 Z M61.2968564,9.1730981 C60.7575191,9.1730981 60.3002548,9.26571111 59.9133389,9.42778388 C59.5264231,9.60143327 59.2098556,9.82138917 58.9519117,10.0992282 C58.6939678,10.3770672 58.4946474,10.6896361 58.3539507,11.0600882 C58.213254,11.4305402 58.1077315,11.8009923 58.0491079,12.1714443 L58.0491079,12.1714443 L64.3804587,12.1714443 C64.3570094,11.7894156 64.2866609,11.4305402 64.1694137,11.0716648 C64.0404417,10.7127894 63.8645709,10.4002205 63.6183517,10.1223815 C63.3721325,9.84454242 63.0672896,9.6130099 62.6920985,9.4393605 C62.3169074,9.26571111 61.8479183,9.1730981 61.2968564,9.1730981 Z M9.61427357,5.51488422 L4.59609176,5.51488422 L4.59609176,10.816979 L10.786746,10.816979 C11.3143585,10.816979 11.7833475,10.5738699 12.1233645,10.2034178 C12.4516567,9.83296579 12.6509771,9.33517086 12.6509771,8.79106944 C12.6509771,6.98511574 11.2909091,5.51488422 9.61427357,5.51488422 L9.61427357,5.51488422 Z M24.8564146,3.7783903 L24.8564146,7.71444321 L20.2485981,7.71444321 L20.2485981,3.7783903 L24.8564146,3.7783903 Z" id="形状结合"></path>
            <path d="M121.699016,15.0449438 L121.754918,17.4606741 C121.766099,17.8426967 122.079159,18.1573033 122.459302,18.1573033 L127.826029,18.1573033 L128.944096,18.1460674 L129,22 L118.512521,22 C117.49508,22 116.656529,21.1573033 116.656529,20.1123596 L116.678891,15.0449438 L121.699016,15.0449438 Z M117.606886,12.7977528 L109.769231,22 L104,22 L112.105993,12.7977528 L117.606886,12.7977528 Z M126.830948,7.87640448 L126.976297,16.3820225 L123.152504,16.3820225 L123.051878,11.4719101 L109.221377,11.4719101 L109.333184,14.8764045 L107.991502,16.3820225 L105.464668,16.3820225 L105.3305,7.87640448 L126.830948,7.87640448 Z M126.19365,4.52808988 L125.086761,7.3707865 L120.010734,7.3707865 L121.11762,4.52808988 L126.19365,4.52808988 Z M117.729874,4.52808988 L118.881484,7.3707865 L113.805456,7.3707865 L112.642666,4.52808988 L117.729874,4.52808988 Z M110.954383,4.52808988 L112.105993,7.3707865 L107.029963,7.3707865 L105.867173,4.52808988 L110.954383,4.52808988 Z M127.255814,0 L127.289356,3.37078652 L104.737925,3.93258427 L104.682021,0.561797752 L127.255814,0 Z" id="形状结合"></path>
            <path d="M97.313891,13.9755477 L101.643811,22 L96.801869,22 L92.47195,13.9755477 L97.313891,13.9755477 Z M87.418521,13.9755477 L83.288957,22 L78.447016,22 L82.57658,13.9755477 L87.418521,13.9755477 Z M92.338378,0 L92.338148,1.41200719 L101.332145,1.4121243 L101.332145,5.21141112 L92.338148,5.21087013 L92.338148,10.1536569 L102,10.1538462 L102,13.9643403 L92.338148,13.9631822 L92.338378,21.9439634 L87.919412,21.9439634 L87.919067,13.9631822 L77,13.9643403 L77,10.1538462 L87.919067,10.1536569 L87.919067,5.21087013 L78.936776,5.21141112 L78.936776,1.4121243 L87.919067,1.41200719 L87.919412,0 L92.338378,0 Z M99.773819,5.95109528 L98.827693,9.34691802 L93.82992,9.34691802 L95.009795,5.95109528 L99.773819,5.95109528 Z M85.069902,5.95109528 L86.260908,9.34691802 L81.263134,9.34691802 L80.317008,5.95109528 L85.069902,5.95109528 Z" id="形状结合"></path>
        </g>
    </g>
</svg>