<svg viewBox="0 0 18 18" focusable="false" class="" data-icon="home" width="18px" height="18px"
    fill="#707680" aria-hidden="true" version="1.1" xmlns="http://www.w3.org/2000/svg"
    xmlns:xlink="http://www.w3.org/1999/xlink">
    <path
        d="M4.1 7.75v7.15h2.3v-3.8c0-.11.09-.2.2-.2h4.8c.11 0 .2.09.2.2v3.8h2.3V7.75L9 2.85l-4.9 4.9zm-1.2 1.2l-.9.9a.2.2 0 01-.29 0l-.56-.56a.2.2 0 010-.28l7.7-7.72a.2.2 0 01.3 0l7.7 7.72a.2.2 0 010 .28l-.56.56a.2.2 0 01-.28 0l-.91-.9v6.95a.2.2 0 01-.2.2h-4.3a.2.2 0 01-.2-.2v-3.8H7.6v3.8a.2.2 0 01-.2.2H3.1a.2.2 0 01-.2-.2V8.95z"
        fill-rule="nonzero"></path>
</svg>