<?xml version="1.0" encoding="UTF-8"?>
<svg width="380px" height="32px" viewBox="0 0 380 32" version="1.1" xmlns="http://www.w3.org/2000/svg" xmlns:xlink="http://www.w3.org/1999/xlink">
    <title>英文大标题备份 3</title>
    <g id="英文大标题备份-3" stroke="none" stroke-width="1" fill="none" fill-rule="evenodd">
        <g id="全球企业库备份" transform="translate(120.28, 2.808)" fill="#FFFFFF" fill-rule="nonzero">
            <path d="M7.728,10.276 C9.856,8.848 11.872,7.196 13.636,5.32 C15.54,7.308 17.472,8.876 19.544,10.276 L7.728,10.276 Z M22.4,13.832 L22.4,12.012 C23.156,12.46 23.968,12.852 24.78,13.272 C25.34,12.068 26.488,10.668 27.496,9.744 C23.072,8.036 19.292,5.796 16.016,2.464 C16.212,2.212 16.38,1.96 16.548,1.708 L12.908,0 C10.108,4.368 5.012,7.728 0,9.688 C1.036,10.64 2.184,12.04 2.772,13.104 C3.556,12.712 4.34,12.32 5.124,11.872 L5.124,13.832 L11.564,13.832 L11.564,16.436 L5.628,16.436 L5.628,19.936 L11.564,19.936 L11.564,22.624 L1.848,22.624 L1.848,26.236 L25.816,26.236 L25.816,22.624 L15.876,22.624 L15.876,19.936 L22.036,19.936 L22.036,16.436 L15.876,16.436 L15.876,13.832 L22.4,13.832 Z" id="形状"></path>
            <path d="M51.38,9.184 C50.792,10.248 49.924,11.508 49.056,12.628 C48.776,11.704 48.524,10.668 48.3,9.576 L48.3,8.288 L54.908,8.288 L54.908,4.592 L52.864,4.592 L54.432,3.052 C53.704,2.24 52.22,1.092 51.072,0.336 L48.86,2.408 C49.7,3.024 50.68,3.836 51.408,4.592 L48.3,4.592 L48.3,0.28 L44.38,0.28 L44.38,4.592 L38.136,4.592 L38.136,8.288 L44.38,8.288 L44.38,14.7 C42.112,16.436 39.648,18.256 37.856,19.46 L37.576,17.864 L35.056,18.62 L35.056,13.468 L37.268,13.468 L37.268,9.744 L35.056,9.744 L35.056,5.46 L37.66,5.46 L37.66,1.708 L28.56,1.708 L28.56,5.46 L31.276,5.46 L31.276,9.744 L28.672,9.744 L28.672,13.468 L31.276,13.468 L31.276,19.684 C30.1,20.02 29.036,20.3 28.112,20.524 L28.924,24.388 C31.528,23.576 34.748,22.596 37.716,21.644 L39.172,23.856 C40.768,22.4 42.616,20.748 44.38,19.04 L44.38,22.456 C44.38,22.876 44.212,23.016 43.792,23.016 C43.372,23.016 42.112,23.016 40.88,22.96 C41.44,24.024 42.112,25.788 42.252,26.88 C44.296,26.88 45.78,26.712 46.872,26.04 C47.964,25.396 48.3,24.332 48.3,22.456 L48.3,19.656 C49.476,21.532 50.96,23.128 52.92,24.612 C53.396,23.52 54.46,22.232 55.412,21.504 C53.172,19.992 51.576,18.284 50.4,16.044 C51.772,14.728 53.424,12.796 54.908,10.976 L51.38,9.184 Z M38.164,10.64 C39.116,12.18 40.124,14.252 40.488,15.568 L43.82,14.028 C43.4,12.684 42.28,10.724 41.3,9.268 L38.164,10.64 Z" id="形状"></path>
            <path d="M72.044,17.612 L79.212,17.612 L79.212,14 L72.044,14 L72.044,8.568 L67.704,8.568 L67.704,22.456 L64.512,22.456 L64.512,13.02 L60.508,13.02 L60.508,22.456 L57.736,22.456 L57.736,26.124 L81.704,26.124 L81.704,22.456 L72.044,22.456 L72.044,17.612 Z M68.992,0 C66.164,4.144 60.956,7.28 56,9.1 C57.036,10.08 58.184,11.536 58.772,12.6 C62.692,10.836 66.556,8.4 69.692,5.264 C73.64,9.268 77.224,11.116 80.892,12.572 C81.396,11.34 82.488,9.912 83.468,9.016 C79.716,7.924 75.88,6.272 72.1,2.576 C72.296,2.324 72.492,2.072 72.688,1.792 L68.992,0 Z" id="形状"></path>
            <path d="M103.488,21.56 L103.488,16.856 L106.12,18.228 C107.52,15.456 109.2,11.396 110.432,7.672 L106.736,5.908 C105.98,8.904 104.692,12.348 103.488,14.98 L103.488,0.588 L99.288,0.588 L99.288,21.56 L96.152,21.56 L96.152,0.616 L91.952,0.616 L91.952,14.952 C91.168,12.208 89.936,8.68 88.956,5.852 L85.232,6.972 C86.38,10.556 87.78,15.26 88.34,18.088 L91.952,16.8 L91.952,21.56 L85.008,21.56 L85.008,25.62 L110.488,25.62 L110.488,21.56 L103.488,21.56 Z" id="路径"></path>
            <path d="M138.712,2.772 L129.64,2.772 C129.416,1.876 129.052,0.84 128.632,0.056 L124.488,0.896 C124.74,1.456 124.964,2.128 125.132,2.772 L114.66,2.772 L114.66,10.556 C114.66,14.7 114.492,20.636 112.14,24.612 C113.092,25.032 114.884,26.236 115.612,26.936 C118.272,22.54 118.72,15.26 118.72,10.556 L118.72,6.552 L124.152,6.552 C123.956,7.196 123.732,7.84 123.48,8.456 L119.308,8.456 L119.308,12.068 L121.856,12.068 C121.548,12.628 121.296,13.076 121.128,13.3 C120.568,14.196 120.064,14.7 119.42,14.896 C119.896,15.988 120.568,17.948 120.792,18.76 C121.044,18.48 122.444,18.312 123.704,18.312 L127.512,18.312 L127.512,20.02 L118.664,20.02 L118.664,23.716 L127.512,23.716 L127.512,26.824 L131.572,26.824 L131.572,23.716 L138.6,23.716 L138.6,20.02 L131.572,20.02 L131.572,18.312 L136.696,18.312 L136.724,14.728 L131.572,14.728 L131.572,12.712 L127.512,12.712 L127.512,14.728 L124.6,14.728 C125.16,13.888 125.72,12.992 126.252,12.068 L137.844,12.068 L137.844,8.456 L128.1,8.456 C128.296,8.064 128.436,7.7 128.604,7.308 L126.14,6.552 L138.712,6.552 L138.712,2.772 Z" id="路径"></path>
        </g>
    </g>
</svg>