<svg t="1746702193814" class="icon" viewBox="0 0 1024 1024" version="1.1" xmlns="http://www.w3.org/2000/svg" p-id="1545" width="200" height="200"><path d="M195.047619 633.904762v195.047619h195.047619v73.142857H195.047619a73.142857 73.142857 0 0 1-73.142857-73.142857v-195.047619h73.142857z m248.076191-382.415238l430.982095 431.006476a73.142857 73.142857 0 0 1 0 103.448381l-86.186667 86.186667a73.142857 73.142857 0 0 1-103.448381 0L253.488762 441.148952a73.142857 73.142857 0 0 1 0-103.448381l86.186667-86.211047a73.142857 73.142857 0 0 1 103.448381 0z m86.186666 189.659428l-86.186666 86.186667 293.059047 293.059048 86.211048-86.186667-293.059048-293.059048z m-137.923047-137.923047l-86.186667 86.186666 86.186667 86.211048 86.211047-86.211048-86.211047-86.186666z m-215.722667-1.462857l18.944 70.631619-117.76 31.548952-18.919619-70.631619 117.76-31.548952zM828.952381 121.904762a73.142857 73.142857 0 0 1 73.142857 73.142857v195.047619h-73.142857V195.047619h-195.047619V121.904762h195.047619zM167.277714 113.590857l86.211048 86.186667-51.736381 51.712L115.565714 165.302857 167.253333 113.590857z m161.255619-50.883047l70.631619 18.919619-31.548952 117.76L296.96 180.419048l31.573333-117.76z" p-id="1546"></path></svg>