<svg xmlns="http://www.w3.org/2000/svg" xmlns:xlink="http://www.w3.org/1999/xlink" fill="none"
    version="1.1" width="12" height="16" viewBox="0 0 12 16">
    <defs>
        <clipPath id="master_svg0_124_49487">
            <rect x="0" y="0" width="12" height="16" rx="0" />
        </clipPath>
    </defs>
    <g clip-path="url(#master_svg0_124_49487)">
        <g transform="matrix(1,0,0,-1,0,32.6875)">
            <g>
                <path
                    d="M2,32.34375Q1.15625,32.31255,0.59375,31.74995Q0.03125,31.18755,0,30.34375L0,18.34375Q0.03125,17.5,0.59375,16.9375Q1.15625,16.375,2,16.34375L10,16.34375Q10.8438,16.375,11.4062,16.9375Q11.9688,17.5,12,18.34375L12,27.34375L8,27.34375Q7.5625,27.34375,7.28125,27.62495Q7,27.90625,7,28.34375L7,32.34375L2,32.34375ZM8,32.34375L8,28.34375L8,32.34375L8,28.34375L12,28.34375L8,32.34375ZM5,24.84375Q5.03125,25.3125,5.5,25.34375L6.5,25.34375Q6.96875,25.3125,7,24.84375L7,23.34375L8.5,23.34375Q8.96875,23.3125,9,22.84375L9,21.84375Q8.96875,21.375,8.5,21.34375L7,21.34375L7,19.84375Q6.96875,19.375,6.5,19.34375L5.5,19.34375Q5.03125,19.375,5,19.84375L5,21.34375L3.5,21.34375Q3.03125,21.375,3,21.84375L3,22.84375Q3.03125,23.3125,3.5,23.34375L5,23.34375L5,24.84375Z"
                    fill="#000000" fill-opacity="1" style="mix-blend-mode:passthrough" />
            </g>
        </g>
    </g>
</svg>