<?xml version="1.0" encoding="UTF-8"?>
<svg width="178px" height="52px" viewBox="0 0 178 52" version="1.1" xmlns="http://www.w3.org/2000/svg" xmlns:xlink="http://www.w3.org/1999/xlink">
    <title>企业库logo</title>
    <g id="页面-1" stroke="none" stroke-width="1" fill="none" fill-rule="evenodd">
        <g id="编组-38" fill="#DC3023" transform="translate(3.000000, 2.000000)">
            <path d="M120.702877,37.0285585 L125.011409,37.0285585 C126.083378,37.0285585 126.952381,37.9016026 126.952381,38.9785572 L126.952381,43.3071256 C126.952381,44.3840801 126.083378,45.2571242 125.011409,45.2571242 L120.702877,45.2571242 C119.630908,45.2571242 118.761905,44.3840801 118.761905,43.3071256 L118.761905,38.9785572 C118.761905,37.9016026 119.630908,37.0285585 120.702877,37.0285585 Z M73.1383929,13.7142891 C74.2103622,13.7142891 75.0793651,14.5873332 75.0793651,15.6642877 L75.0793651,46.0499808 C75.0793651,47.1269353 74.2103622,47.9999794 73.1383929,47.9999794 L68.8298611,47.9999794 C67.7578918,47.9999794 66.8888889,47.1269353 66.8888889,46.0499808 L66.8888889,15.6642877 C66.8888889,14.5873332 67.7578918,13.7142891 68.8298611,13.7142891 L73.1383929,13.7142891 Z M8.01524259,6.43151822e-06 C8.44386153,-0.00143242249 8.82795183,0.238667285 9.01314824,0.605421048 L9.08845731,0.798820532 L19.5116487,38.4103689 L28.089236,3.34699595 C28.5363536,1.5160522 30.1209506,0.188628743 31.9997016,0.0185139271 L32.4064861,6.43151822e-06 L37.9595592,6.43151822e-06 C39.8760296,0.00146227692 41.5585835,1.20691944 42.1638954,2.96259606 L42.2768094,3.34699595 L50.8462662,38.3864049 L60.0458303,5.23616048 C60.4571712,3.75464237 61.6262719,2.60491062 63.1095853,2.1880853 L63.5215825,2.09287827 L73.9163174,0.199719729 C74.4425567,0.10627885 74.9494199,0.393984705 75.1423721,0.862921207 L75.2049881,1.0744069 L76.4245503,7.50874953 C76.4803418,7.7943715 76.4176797,8.09005564 76.2504952,8.33006481 C76.1251068,8.51007168 75.9487189,8.64757193 75.7455158,8.7271422 L75.5342699,8.78683124 L68.5705699,10.0369549 C68.232062,10.0993151 67.9473519,10.3110465 67.7918434,10.6029128 L67.7006155,10.835756 L58.2815303,44.7848015 C57.7915741,46.5471249 56.2436855,47.8082488 54.4217552,47.9799602 L53.9968019,47.9999831 L47.5615788,47.9999831 C45.6433918,48.0023943 43.9572542,46.7982149 43.3495951,45.0416228 L43.2361983,44.6569933 L35.1830227,11.6984611 L27.1298471,44.6529993 C26.6827296,46.4839431 25.0981325,47.8113665 23.2193815,47.981479 L22.812597,47.9999831 L16.3692435,47.9999831 C14.5097913,47.9993505 12.8640816,46.864062 12.2160049,45.1823267 L12.0845151,44.7848015 L0.0393059527,1.37795131 C-0.0517054236,1.05093034 0.0172877686,0.700922888 0.225982368,0.430928359 C0.392938047,0.214932736 0.634104038,0.0698082585 0.900565526,0.0195470692 L1.10439025,6.43151822e-06 L8.01524259,6.43151822e-06 Z M109.009094,13.7142891 L87.5623349,13.7142891 C85.1916561,13.7142891 83.2698413,15.7616103 83.2698413,18.287109 L83.2698413,46.8578204 C83.2698413,47.4886174 83.7498554,47.9999794 84.3419829,47.9999794 L90.7787596,47.9999794 C91.370887,47.9999794 91.8509012,47.4886174 91.8509012,46.8578204 L91.8509012,23.9979043 C91.8509012,23.3671073 92.3309153,22.8557453 92.9230428,22.8557453 L103.648386,22.8557453 C104.240513,22.8557453 104.720527,23.3671073 104.720527,23.9979043 L104.720527,46.8536366 C104.720527,47.4844337 105.200542,47.9957957 105.792669,47.9957957 L112.229446,47.9957957 C112.513795,47.9957957 112.786499,47.8754614 112.987564,47.6612651 C113.18863,47.4470687 113.301587,47.1565561 113.301587,46.8536366 L113.301587,18.287109 C113.301587,15.7616103 111.379772,13.7142891 109.009094,13.7142891 Z M163.466302,1.09029995 L163.466302,14.181557 C163.466302,14.7836979 162.989156,15.2718295 162.400566,15.2718295 L142.139865,15.2718295 C139.783349,15.2718295 137.873016,17.226144 137.873016,19.6369131 L137.873016,43.6348886 C137.873016,44.7925808 138.322558,45.9028569 139.122747,46.7214688 C139.922936,47.5400808 141.008226,47.9999867 142.139865,47.9999867 L167.733151,47.9999867 C170.089667,47.9999867 172,46.0456577 172,43.6348886 L172,1.09029995 C172,0.494342821 171.532362,0.00875943964 170.949879,1.29210206e-05 L164.535942,1.29210206e-05 C164.252616,-0.00103425672 163.980537,0.113364525 163.779828,0.317945467 C163.579118,0.522526409 163.4663,0.800448429 163.466302,1.09029995 Z M162.400566,39.269805 L147.47245,39.269805 C146.88386,39.269805 146.406714,38.7816734 146.406714,38.1795326 L146.406714,25.0882755 C146.406714,24.4861346 146.88386,23.998003 147.47245,23.998003 L162.400566,23.998003 C162.989156,23.998003 163.466302,24.4861346 163.466302,25.0882755 L163.466302,38.1795326 C163.466302,38.7064058 163.100987,39.1459907 162.615349,39.2476546 L162.400566,39.269805 Z" id="Feedback-操作反馈/-Watermark-水印/品牌水印"></path>
        </g>
    </g>
</svg>